  0
SECTION
  2
HEADER
  9
$ACADVER
  1
AC1009
  9
$EXTMIN
 10
0.0
 20
0.0
 30
0.0
  9
$EXTMAX
 10
1000.0
 20
1000.0
 30
0.0
  9
$FILLMODE
 70
 0
  9
$SPLFRAME
 70
 1
  0
ENDSEC
  0
SECTION
  2
TABLES
  0
TABLE
  2
LAYER
 70
1
  0
LAYER
  2
0
 70
     0
 62
     7
  6
CONTINUOUS
  0
ENDTAB
  0
ENDSEC
  0
SECTION
  2
ENTITIES
  0
LINE
  8
0
 62
     0
 10
55.2443
 20
95.3424
 30
0.0
 11
55.4013
 21
95.3368
 31
0.0
  0
LINE
  8
0
 62
     0
 10
55.4013
 20
95.3368
 30
0.0
 11
55.5583
 21
95.3188
 31
0.0
  0
LINE
  8
0
 62
     0
 10
55.5583
 20
95.3188
 30
0.0
 11
55.7114
 21
95.287
 31
0.0
  0
LINE
  8
0
 62
     0
 10
55.7114
 20
95.287
 30
0.0
 11
55.8641
 21
95.2458
 31
0.0
  0
LINE
  8
0
 62
     0
 10
55.8641
 20
95.2458
 30
0.0
 11
56.0105
 21
95.1907
 31
0.0
  0
LINE
  8
0
 62
     0
 10
56.0105
 20
95.1907
 30
0.0
 11
56.1523
 21
95.1258
 31
0.0
  0
LINE
  8
0
 62
     0
 10
56.1523
 20
95.1258
 30
0.0
 11
56.2903
 21
95.0489
 31
0.0
  0
LINE
  8
0
 62
     0
 10
56.2903
 20
95.0489
 30
0.0
 11
56.4212
 21
94.9621
 31
0.0
  0
LINE
  8
0
 62
     0
 10
56.4212
 20
94.9621
 30
0.0
 11
56.5436
 21
94.8641
 31
0.0
  0
LINE
  8
0
 62
     0
 10
56.5436
 20
94.8641
 30
0.0
 11
56.6593
 21
94.7579
 31
0.0
  0
LINE
  8
0
 62
     0
 10
56.6593
 20
94.7579
 30
0.0
 11
56.7655
 21
94.6422
 31
0.0
  0
LINE
  8
0
 62
     0
 10
56.7655
 20
94.6422
 30
0.0
 11
56.8635
 21
94.5183
 31
0.0
  0
LINE
  8
0
 62
     0
 10
56.8635
 20
94.5183
 30
0.0
 11
56.9503
 21
94.3875
 31
0.0
  0
LINE
  8
0
 62
     0
 10
56.9503
 20
94.3875
 30
0.0
 11
57.0272
 21
94.2509
 31
0.0
  0
LINE
  8
0
 62
     0
 10
57.0272
 20
94.2509
 30
0.0
 11
57.0921
 21
94.1091
 31
0.0
  0
LINE
  8
0
 62
     0
 10
57.0921
 20
94.1091
 30
0.0
 11
57.1472
 21
93.9617
 31
0.0
  0
LINE
  8
0
 62
     0
 10
57.1472
 20
93.9617
 30
0.0
 11
57.1899
 21
93.81
 31
0.0
  0
LINE
  8
0
 62
     0
 10
57.1899
 20
93.81
 30
0.0
 11
57.2202
 21
93.6554
 31
0.0
  0
LINE
  8
0
 62
     0
 10
57.2202
 20
93.6554
 30
0.0
 11
57.2382
 21
93.4999
 31
0.0
  0
LINE
  8
0
 62
     0
 10
57.2382
 20
93.4999
 30
0.0
 11
57.2453
 21
93.3429
 31
0.0
  0
LINE
  8
0
 62
     0
 10
57.2453
 20
93.3429
 30
0.0
 11
57.2453
 21
2.09324
 31
0.0
  0
LINE
  8
0
 62
     0
 10
57.2453
 20
2.09324
 30
0.0
 11
57.2382
 21
1.93614
 31
0.0
  0
LINE
  8
0
 62
     0
 10
57.2382
 20
1.93614
 30
0.0
 11
57.2202
 21
1.77905
 31
0.0
  0
LINE
  8
0
 62
     0
 10
57.2202
 20
1.77905
 30
0.0
 11
57.1899
 21
1.62609
 31
0.0
  0
LINE
  8
0
 62
     0
 10
57.1899
 20
1.62609
 30
0.0
 11
57.1472
 21
1.47312
 31
0.0
  0
LINE
  8
0
 62
     0
 10
57.1472
 20
1.47312
 30
0.0
 11
57.0921
 21
1.32705
 31
0.0
  0
LINE
  8
0
 62
     0
 10
57.0921
 20
1.32705
 30
0.0
 11
57.0272
 21
1.18511
 31
0.0
  0
LINE
  8
0
 62
     0
 10
57.0272
 20
1.18511
 30
0.0
 11
56.9503
 21
1.04731
 31
0.0
  0
LINE
  8
0
 62
     0
 10
56.9503
 20
1.04731
 30
0.0
 11
56.8635
 21
0.916397
 31
0.0
  0
LINE
  8
0
 62
     0
 10
56.8635
 20
0.916397
 30
0.0
 11
56.7655
 21
0.79375
 31
0.0
  0
LINE
  8
0
 62
     0
 10
56.7655
 20
0.79375
 30
0.0
 11
56.6593
 21
0.677997
 31
0.0
  0
LINE
  8
0
 62
     0
 10
56.6593
 20
0.677997
 30
0.0
 11
56.5436
 21
0.571885
 31
0.0
  0
LINE
  8
0
 62
     0
 10
56.5436
 20
0.571885
 30
0.0
 11
56.4212
 21
0.474045
 31
0.0
  0
LINE
  8
0
 62
     0
 10
56.4212
 20
0.474045
 30
0.0
 11
56.2903
 21
0.38723
 31
0.0
  0
LINE
  8
0
 62
     0
 10
56.2903
 20
0.38723
 30
0.0
 11
56.1523
 21
0.310059
 31
0.0
  0
LINE
  8
0
 62
     0
 10
56.1523
 20
0.310059
 30
0.0
 11
56.0105
 21
0.245291
 31
0.0
  0
LINE
  8
0
 62
     0
 10
56.0105
 20
0.245291
 30
0.0
 11
55.8641
 21
0.190169
 31
0.0
  0
LINE
  8
0
 62
     0
 10
55.8641
 20
0.190169
 30
0.0
 11
55.7114
 21
0.14745
 31
0.0
  0
LINE
  8
0
 62
     0
 10
55.7114
 20
0.14745
 30
0.0
 11
55.5583
 21
0.117133
 31
0.0
  0
LINE
  8
0
 62
     0
 10
55.5583
 20
0.117133
 30
0.0
 11
55.4013
 21
0.0992188
 31
0.0
  0
LINE
  8
0
 62
     0
 10
55.4013
 20
0.0992188
 30
0.0
 11
55.2443
 21
0.0923286
 31
0.0
  0
LINE
  8
0
 62
     0
 10
55.2443
 20
0.0923286
 30
0.0
 11
2.09462
 21
0.0923286
 31
0.0
  0
LINE
  8
0
 62
     0
 10
2.09462
 20
0.0923286
 30
0.0
 11
1.93752
 21
0.0992188
 31
0.0
  0
LINE
  8
0
 62
     0
 10
1.93752
 20
0.0992188
 30
0.0
 11
1.7818
 21
0.117133
 31
0.0
  0
LINE
  8
0
 62
     0
 10
1.7818
 20
0.117133
 30
0.0
 11
1.62746
 21
0.14745
 31
0.0
  0
LINE
  8
0
 62
     0
 10
1.62746
 20
0.14745
 30
0.0
 11
1.47588
 21
0.190169
 31
0.0
  0
LINE
  8
0
 62
     0
 10
1.47588
 20
0.190169
 30
0.0
 11
1.32843
 21
0.245291
 31
0.0
  0
LINE
  8
0
 62
     0
 10
1.32843
 20
0.245291
 30
0.0
 11
1.18649
 21
0.310059
 31
0.0
  0
LINE
  8
0
 62
     0
 10
1.18649
 20
0.310059
 30
0.0
 11
1.05006
 21
0.38723
 31
0.0
  0
LINE
  8
0
 62
     0
 10
1.05006
 20
0.38723
 30
0.0
 11
0.919152
 21
0.474045
 31
0.0
  0
LINE
  8
0
 62
     0
 10
0.919152
 20
0.474045
 30
0.0
 11
0.795129
 21
0.571885
 31
0.0
  0
LINE
  8
0
 62
     0
 10
0.795129
 20
0.571885
 30
0.0
 11
0.679372
 21
0.677997
 31
0.0
  0
LINE
  8
0
 62
     0
 10
0.679372
 20
0.677997
 30
0.0
 11
0.573264
 21
0.79375
 31
0.0
  0
LINE
  8
0
 62
     0
 10
0.573264
 20
0.79375
 30
0.0
 11
0.475424
 21
0.916397
 31
0.0
  0
LINE
  8
0
 62
     0
 10
0.475424
 20
0.916397
 30
0.0
 11
0.388606
 21
1.04731
 31
0.0
  0
LINE
  8
0
 62
     0
 10
0.388606
 20
1.04731
 30
0.0
 11
0.311437
 21
1.18511
 31
0.0
  0
LINE
  8
0
 62
     0
 10
0.311437
 20
1.18511
 30
0.0
 11
0.246669
 21
1.32705
 31
0.0
  0
LINE
  8
0
 62
     0
 10
0.246669
 20
1.32705
 30
0.0
 11
0.191547
 21
1.47312
 31
0.0
  0
LINE
  8
0
 62
     0
 10
0.191547
 20
1.47312
 30
0.0
 11
0.150206
 21
1.62609
 31
0.0
  0
LINE
  8
0
 62
     0
 10
0.150206
 20
1.62609
 30
0.0
 11
0.118511
 21
1.77905
 31
0.0
  0
LINE
  8
0
 62
     0
 10
0.118511
 20
1.77905
 30
0.0
 11
0.100597
 21
1.93614
 31
0.0
  0
LINE
  8
0
 62
     0
 10
0.100597
 20
1.93614
 30
0.0
 11
0.0937066
 21
2.09186
 31
0.0
  0
LINE
  8
0
 62
     0
 10
0.0937066
 20
2.09186
 30
0.0
 11
0.0950846
 21
93.3429
 31
0.0
  0
LINE
  8
0
 62
     0
 10
0.0950846
 20
93.3429
 30
0.0
 11
0.100597
 21
93.4999
 31
0.0
  0
LINE
  8
0
 62
     0
 10
0.100597
 20
93.4999
 30
0.0
 11
0.118511
 21
93.6554
 31
0.0
  0
LINE
  8
0
 62
     0
 10
0.118511
 20
93.6554
 30
0.0
 11
0.150206
 21
93.81
 31
0.0
  0
LINE
  8
0
 62
     0
 10
0.150206
 20
93.81
 30
0.0
 11
0.191547
 21
93.9617
 31
0.0
  0
LINE
  8
0
 62
     0
 10
0.191547
 20
93.9617
 30
0.0
 11
0.246669
 21
94.1091
 31
0.0
  0
LINE
  8
0
 62
     0
 10
0.246669
 20
94.1091
 30
0.0
 11
0.311437
 21
94.2509
 31
0.0
  0
LINE
  8
0
 62
     0
 10
0.311437
 20
94.2509
 30
0.0
 11
0.388606
 21
94.3875
 31
0.0
  0
LINE
  8
0
 62
     0
 10
0.388606
 20
94.3875
 30
0.0
 11
0.475424
 21
94.5183
 31
0.0
  0
LINE
  8
0
 62
     0
 10
0.475424
 20
94.5183
 30
0.0
 11
0.573264
 21
94.6422
 31
0.0
  0
LINE
  8
0
 62
     0
 10
0.573264
 20
94.6422
 30
0.0
 11
0.679372
 21
94.7579
 31
0.0
  0
LINE
  8
0
 62
     0
 10
0.679372
 20
94.7579
 30
0.0
 11
0.795129
 21
94.8641
 31
0.0
  0
LINE
  8
0
 62
     0
 10
0.795129
 20
94.8641
 30
0.0
 11
0.919152
 21
94.9621
 31
0.0
  0
LINE
  8
0
 62
     0
 10
0.919152
 20
94.9621
 30
0.0
 11
1.05006
 21
95.0489
 31
0.0
  0
LINE
  8
0
 62
     0
 10
1.05006
 20
95.0489
 30
0.0
 11
1.18649
 21
95.1258
 31
0.0
  0
LINE
  8
0
 62
     0
 10
1.18649
 20
95.1258
 30
0.0
 11
1.32843
 21
95.1907
 31
0.0
  0
LINE
  8
0
 62
     0
 10
1.32843
 20
95.1907
 30
0.0
 11
1.47588
 21
95.2458
 31
0.0
  0
LINE
  8
0
 62
     0
 10
1.47588
 20
95.2458
 30
0.0
 11
1.62746
 21
95.287
 31
0.0
  0
LINE
  8
0
 62
     0
 10
1.62746
 20
95.287
 30
0.0
 11
1.7818
 21
95.3188
 31
0.0
  0
LINE
  8
0
 62
     0
 10
1.7818
 20
95.3188
 30
0.0
 11
1.93752
 21
95.3368
 31
0.0
  0
LINE
  8
0
 62
     0
 10
1.93752
 20
95.3368
 30
0.0
 11
2.09462
 21
95.3438
 31
0.0
  0
LINE
  8
0
 62
     0
 10
2.09462
 20
95.3438
 30
0.0
 11
55.2443
 21
95.3424
 31
0.0
  0
LINE
  8
0
 62
     0
 10
2.61965
 20
16.6178
 30
0.0
 11
16.6192
 21
16.6178
 31
0.0
  0
LINE
  8
0
 62
     0
 10
16.6192
 20
16.6178
 30
0.0
 11
16.6192
 21
2.61827
 31
0.0
  0
LINE
  8
0
 62
     0
 10
16.6192
 20
2.61827
 30
0.0
 11
2.61965
 21
2.61827
 31
0.0
  0
LINE
  8
0
 62
     0
 10
2.61965
 20
2.61827
 30
0.0
 11
2.61965
 21
16.6178
 31
0.0
  0
LINE
  8
0
 62
     0
 10
21.6697
 20
16.6178
 30
0.0
 11
35.669
 21
16.6178
 31
0.0
  0
LINE
  8
0
 62
     0
 10
35.669
 20
16.6178
 30
0.0
 11
35.669
 21
2.61827
 31
0.0
  0
LINE
  8
0
 62
     0
 10
35.669
 20
2.61827
 30
0.0
 11
21.6697
 21
2.61827
 31
0.0
  0
LINE
  8
0
 62
     0
 10
21.6697
 20
2.61827
 30
0.0
 11
21.6697
 21
16.6178
 31
0.0
  0
LINE
  8
0
 62
     0
 10
40.7197
 20
16.6178
 30
0.0
 11
54.719
 21
16.6178
 31
0.0
  0
LINE
  8
0
 62
     0
 10
54.719
 20
16.6178
 30
0.0
 11
54.719
 21
2.61827
 31
0.0
  0
LINE
  8
0
 62
     0
 10
54.719
 20
2.61827
 30
0.0
 11
40.7197
 21
2.61827
 31
0.0
  0
LINE
  8
0
 62
     0
 10
40.7197
 20
2.61827
 30
0.0
 11
40.7197
 21
16.6178
 31
0.0
  0
LINE
  8
0
 62
     0
 10
2.61965
 20
35.6676
 30
0.0
 11
16.6192
 21
35.6676
 31
0.0
  0
LINE
  8
0
 62
     0
 10
16.6192
 20
35.6676
 30
0.0
 11
16.6192
 21
21.6683
 31
0.0
  0
LINE
  8
0
 62
     0
 10
16.6192
 20
21.6683
 30
0.0
 11
2.61965
 21
21.6683
 31
0.0
  0
LINE
  8
0
 62
     0
 10
2.61965
 20
21.6683
 30
0.0
 11
2.61965
 21
35.6676
 31
0.0
  0
LINE
  8
0
 62
     0
 10
21.6697
 20
35.6676
 30
0.0
 11
35.669
 21
35.6676
 31
0.0
  0
LINE
  8
0
 62
     0
 10
35.669
 20
35.6676
 30
0.0
 11
35.669
 21
21.6683
 31
0.0
  0
LINE
  8
0
 62
     0
 10
35.669
 20
21.6683
 30
0.0
 11
21.6697
 21
21.6683
 31
0.0
  0
LINE
  8
0
 62
     0
 10
21.6697
 20
21.6683
 30
0.0
 11
21.6697
 21
35.6676
 31
0.0
  0
LINE
  8
0
 62
     0
 10
40.7197
 20
35.6676
 30
0.0
 11
54.719
 21
35.6676
 31
0.0
  0
LINE
  8
0
 62
     0
 10
54.719
 20
35.6676
 30
0.0
 11
54.719
 21
21.6683
 31
0.0
  0
LINE
  8
0
 62
     0
 10
54.719
 20
21.6683
 30
0.0
 11
40.7197
 21
21.6683
 31
0.0
  0
LINE
  8
0
 62
     0
 10
40.7197
 20
21.6683
 30
0.0
 11
40.7197
 21
35.6676
 31
0.0
  0
LINE
  8
0
 62
     0
 10
2.61965
 20
54.7176
 30
0.0
 11
16.6192
 21
54.7176
 31
0.0
  0
LINE
  8
0
 62
     0
 10
16.6192
 20
54.7176
 30
0.0
 11
16.6192
 21
40.7183
 31
0.0
  0
LINE
  8
0
 62
     0
 10
16.6192
 20
40.7183
 30
0.0
 11
2.61965
 21
40.7183
 31
0.0
  0
LINE
  8
0
 62
     0
 10
2.61965
 20
40.7183
 30
0.0
 11
2.61965
 21
54.7176
 31
0.0
  0
LINE
  8
0
 62
     0
 10
21.6697
 20
54.7176
 30
0.0
 11
35.669
 21
54.7176
 31
0.0
  0
LINE
  8
0
 62
     0
 10
35.669
 20
54.7176
 30
0.0
 11
35.669
 21
40.7183
 31
0.0
  0
LINE
  8
0
 62
     0
 10
35.669
 20
40.7183
 30
0.0
 11
21.6697
 21
40.7183
 31
0.0
  0
LINE
  8
0
 62
     0
 10
21.6697
 20
40.7183
 30
0.0
 11
21.6697
 21
54.7176
 31
0.0
  0
LINE
  8
0
 62
     0
 10
40.7197
 20
54.7176
 30
0.0
 11
54.719
 21
54.7176
 31
0.0
  0
LINE
  8
0
 62
     0
 10
54.719
 20
54.7176
 30
0.0
 11
54.719
 21
40.7183
 31
0.0
  0
LINE
  8
0
 62
     0
 10
54.719
 20
40.7183
 30
0.0
 11
40.7197
 21
40.7183
 31
0.0
  0
LINE
  8
0
 62
     0
 10
40.7197
 20
40.7183
 30
0.0
 11
40.7197
 21
54.7176
 31
0.0
  0
LINE
  8
0
 62
     0
 10
2.61965
 20
73.7676
 30
0.0
 11
16.6192
 21
73.7676
 31
0.0
  0
LINE
  8
0
 62
     0
 10
16.6192
 20
73.7676
 30
0.0
 11
16.6192
 21
59.7683
 31
0.0
  0
LINE
  8
0
 62
     0
 10
16.6192
 20
59.7683
 30
0.0
 11
2.61965
 21
59.7683
 31
0.0
  0
LINE
  8
0
 62
     0
 10
2.61965
 20
59.7683
 30
0.0
 11
2.61965
 21
73.7676
 31
0.0
  0
LINE
  8
0
 62
     0
 10
21.6697
 20
73.7676
 30
0.0
 11
35.669
 21
73.7676
 31
0.0
  0
LINE
  8
0
 62
     0
 10
35.669
 20
73.7676
 30
0.0
 11
35.669
 21
59.7683
 31
0.0
  0
LINE
  8
0
 62
     0
 10
35.669
 20
59.7683
 30
0.0
 11
21.6697
 21
59.7683
 31
0.0
  0
LINE
  8
0
 62
     0
 10
21.6697
 20
59.7683
 30
0.0
 11
21.6697
 21
73.7676
 31
0.0
  0
LINE
  8
0
 62
     0
 10
40.7197
 20
73.7676
 30
0.0
 11
54.719
 21
73.7676
 31
0.0
  0
LINE
  8
0
 62
     0
 10
54.719
 20
73.7676
 30
0.0
 11
54.719
 21
59.7683
 31
0.0
  0
LINE
  8
0
 62
     0
 10
54.719
 20
59.7683
 30
0.0
 11
40.7197
 21
59.7683
 31
0.0
  0
LINE
  8
0
 62
     0
 10
40.7197
 20
59.7683
 30
0.0
 11
40.7197
 21
73.7676
 31
0.0
  0
LINE
  8
0
 62
     0
 10
2.61965
 20
92.8176
 30
0.0
 11
16.6192
 21
92.8176
 31
0.0
  0
LINE
  8
0
 62
     0
 10
16.6192
 20
92.8176
 30
0.0
 11
16.6192
 21
78.8183
 31
0.0
  0
LINE
  8
0
 62
     0
 10
16.6192
 20
78.8183
 30
0.0
 11
2.61965
 21
78.8183
 31
0.0
  0
LINE
  8
0
 62
     0
 10
2.61965
 20
78.8183
 30
0.0
 11
2.61965
 21
92.8176
 31
0.0
  0
LINE
  8
0
 62
     0
 10
21.6697
 20
92.8176
 30
0.0
 11
35.669
 21
92.8176
 31
0.0
  0
LINE
  8
0
 62
     0
 10
35.669
 20
92.8176
 30
0.0
 11
35.669
 21
78.8183
 31
0.0
  0
LINE
  8
0
 62
     0
 10
35.669
 20
78.8183
 30
0.0
 11
21.6697
 21
78.8183
 31
0.0
  0
LINE
  8
0
 62
     0
 10
21.6697
 20
78.8183
 30
0.0
 11
21.6697
 21
92.8176
 31
0.0
  0
LINE
  8
0
 62
     0
 10
40.7197
 20
92.8176
 30
0.0
 11
54.719
 21
92.8176
 31
0.0
  0
LINE
  8
0
 62
     0
 10
54.719
 20
92.8176
 30
0.0
 11
54.719
 21
78.8183
 31
0.0
  0
LINE
  8
0
 62
     0
 10
54.719
 20
78.8183
 30
0.0
 11
40.7197
 21
78.8183
 31
0.0
  0
LINE
  8
0
 62
     0
 10
40.7197
 20
78.8183
 30
0.0
 11
40.7197
 21
92.8176
 31
0.0
  0
ENDSEC
  0
EOF
