<?xml version="1.0" encoding="UTF-8"?>
<!-- Generated by SVGo -->
<svg width="67.152mm" height="105.252mm" viewBox="0.000 0.000 67.152 105.252" xmlns="http://www.w3.org/2000/svg" xmlns:xlink="http://www.w3.org/1999/xlink">
<polygon points="60.151,5.001 60.308,5.007 60.464,5.025 60.618,5.056 60.770,5.098 60.917,5.153 61.059,5.218 61.196,5.295 61.327,5.382 61.450,5.480 61.566,5.586 61.672,5.702 61.770,5.825 61.857,5.956 61.934,6.093 61.999,6.235 62.054,6.382 62.096,6.534 62.127,6.688 62.145,6.844 62.152,7.001 62.151,98.251 62.145,98.408 62.127,98.564 62.096,98.718 62.054,98.870 61.999,99.017 61.934,99.159 61.857,99.296 61.770,99.427 61.672,99.550 61.566,99.666 61.450,99.772 61.327,99.870 61.196,99.957 61.059,100.034 60.917,100.099 60.770,100.154 60.618,100.196 60.464,100.227 60.308,100.245 60.151,100.251 7.001,100.251 6.844,100.245 6.688,100.227 6.534,100.196 6.382,100.154 6.235,100.099 6.093,100.034 5.956,99.957 5.825,99.870 5.702,99.772 5.586,99.666 5.480,99.550 5.382,99.427 5.295,99.296 5.218,99.159 5.153,99.017 5.098,98.870 5.056,98.718 5.025,98.564 5.007,98.408 5.000,98.252 5.001,7.001 5.007,6.844 5.025,6.688 5.056,6.534 5.098,6.382 5.153,6.235 5.218,6.093 5.295,5.956 5.382,5.825 5.480,5.702 5.586,5.586 5.702,5.480 5.825,5.382 5.956,5.295 6.093,5.218 6.235,5.153 6.382,5.098 6.534,5.056 6.688,5.025 6.844,5.007 7.001,5.000" style="fill:none;stroke-width:0.050000mm;stroke:black"/>
<polygon points="7.526,83.726 7.526,97.726 21.526,97.726 21.526,83.726" style="fill:none;stroke-width:0.050000mm;stroke:black"/>
<polygon points="26.576,83.726 26.576,97.726 40.576,97.726 40.576,83.726" style="fill:none;stroke-width:0.050000mm;stroke:black"/>
<polygon points="45.626,83.726 45.626,97.726 59.626,97.726 59.626,83.726" style="fill:none;stroke-width:0.050000mm;stroke:black"/>
<polygon points="7.526,64.676 7.526,78.676 21.526,78.676 21.526,64.676" style="fill:none;stroke-width:0.050000mm;stroke:black"/>
<polygon points="26.576,64.676 26.576,78.676 40.576,78.676 40.576,64.676" style="fill:none;stroke-width:0.050000mm;stroke:black"/>
<polygon points="45.626,64.676 45.626,78.676 59.626,78.676 59.626,64.676" style="fill:none;stroke-width:0.050000mm;stroke:black"/>
<polygon points="7.526,45.626 7.526,59.626 21.526,59.626 21.526,45.626" style="fill:none;stroke-width:0.050000mm;stroke:black"/>
<polygon points="26.576,45.626 26.576,59.626 40.576,59.626 40.576,45.626" style="fill:none;stroke-width:0.050000mm;stroke:black"/>
<polygon points="45.626,45.626 45.626,59.626 59.626,59.626 59.626,45.626" style="fill:none;stroke-width:0.050000mm;stroke:black"/>
<polygon points="7.526,26.576 7.526,40.576 21.526,40.576 21.526,26.576" style="fill:none;stroke-width:0.050000mm;stroke:black"/>
<polygon points="26.576,26.576 26.576,40.576 40.576,40.576 40.576,26.576" style="fill:none;stroke-width:0.050000mm;stroke:black"/>
<polygon points="45.626,26.576 45.626,40.576 59.626,40.576 59.626,26.576" style="fill:none;stroke-width:0.050000mm;stroke:black"/>
<polygon points="7.526,7.526 7.526,21.526 21.526,21.526 21.526,7.526" style="fill:none;stroke-width:0.050000mm;stroke:black"/>
<polygon points="26.576,7.526 26.576,21.526 40.576,21.526 40.576,7.526" style="fill:none;stroke-width:0.050000mm;stroke:black"/>
<polygon points="45.626,7.526 45.626,21.526 59.626,21.526 59.626,7.526" style="fill:none;stroke-width:0.050000mm;stroke:black"/>
</svg>