  0
SECTION
  2
HEADER
  9
$ACADVER
  1
AC1009
  9
$EXTMIN
 10
0.0
 20
0.0
 30
0.0
  9
$EXTMAX
 10
1000.0
 20
1000.0
 30
0.0
  9
$FILLMODE
 70
 0
  9
$SPLFRAME
 70
 1
  0
ENDSEC
  0
SECTION
  2
TABLES
  0
TABLE
  2
LAYER
 70
1
  0
LAYER
  2
0
 70
     0
 62
     7
  6
CONTINUOUS
  0
ENDTAB
  0
ENDSEC
  0
SECTION
  2
ENTITIES
  0
LINE
  8
0
 62
     0
 10
0.0937066
 20
115.343
 30
0.0
 11
248.695
 21
115.343
 31
0.0
  0
LINE
  8
0
 62
     0
 10
248.695
 20
115.343
 30
0.0
 11
248.695
 21
0.0937066
 31
0.0
  0
LINE
  8
0
 62
     0
 10
248.695
 20
0.0937066
 30
0.0
 11
0.0937066
 21
0.0937066
 31
0.0
  0
LINE
  8
0
 62
     0
 10
0.0937066
 20
0.0937066
 30
0.0
 11
0.0937066
 21
115.343
 31
0.0
  0
LINE
  8
0
 62
     0
 10
244.199
 20
5.61414
 30
0.0
 11
243.754
 21
5.38674
 31
0.0
  0
LINE
  8
0
 62
     0
 10
243.754
 20
5.38674
 30
0.0
 11
243.4
 21
5.03259
 31
0.0
  0
LINE
  8
0
 62
     0
 10
243.4
 20
5.03259
 30
0.0
 11
243.173
 21
4.58749
 31
0.0
  0
LINE
  8
0
 62
     0
 10
243.173
 20
4.58749
 30
0.0
 11
243.094
 21
4.09279
 31
0.0
  0
LINE
  8
0
 62
     0
 10
243.094
 20
4.09279
 30
0.0
 11
243.173
 21
3.59943
 31
0.0
  0
LINE
  8
0
 62
     0
 10
243.173
 20
3.59943
 30
0.0
 11
243.4
 21
3.15157
 31
0.0
  0
LINE
  8
0
 62
     0
 10
243.4
 20
3.15157
 30
0.0
 11
243.754
 21
2.79879
 31
0.0
  0
LINE
  8
0
 62
     0
 10
243.754
 20
2.79879
 30
0.0
 11
244.199
 21
2.57142
 31
0.0
  0
LINE
  8
0
 62
     0
 10
244.199
 20
2.57142
 30
0.0
 11
244.694
 21
2.49425
 31
0.0
  0
LINE
  8
0
 62
     0
 10
244.694
 20
2.49425
 30
0.0
 11
245.189
 21
2.57142
 31
0.0
  0
LINE
  8
0
 62
     0
 10
245.189
 20
2.57142
 30
0.0
 11
245.635
 21
2.79879
 31
0.0
  0
LINE
  8
0
 62
     0
 10
245.635
 20
2.79879
 30
0.0
 11
245.988
 21
3.15157
 31
0.0
  0
LINE
  8
0
 62
     0
 10
245.988
 20
3.15157
 30
0.0
 11
246.216
 21
3.59943
 31
0.0
  0
LINE
  8
0
 62
     0
 10
246.216
 20
3.59943
 30
0.0
 11
246.295
 21
4.09279
 31
0.0
  0
LINE
  8
0
 62
     0
 10
246.295
 20
4.09279
 30
0.0
 11
246.216
 21
4.58749
 31
0.0
  0
LINE
  8
0
 62
     0
 10
246.216
 20
4.58749
 30
0.0
 11
245.988
 21
5.03259
 31
0.0
  0
LINE
  8
0
 62
     0
 10
245.988
 20
5.03259
 30
0.0
 11
245.635
 21
5.38674
 31
0.0
  0
LINE
  8
0
 62
     0
 10
245.635
 20
5.38674
 30
0.0
 11
245.189
 21
5.61414
 31
0.0
  0
LINE
  8
0
 62
     0
 10
245.189
 20
5.61414
 30
0.0
 11
244.694
 21
5.69267
 31
0.0
  0
LINE
  8
0
 62
     0
 10
244.694
 20
5.69267
 30
0.0
 11
244.199
 21
5.61414
 31
0.0
  0
LINE
  8
0
 62
     0
 10
164
 20
5.61414
 30
0.0
 11
163.554
 21
5.38674
 31
0.0
  0
LINE
  8
0
 62
     0
 10
163.554
 20
5.38674
 30
0.0
 11
163.2
 21
5.03259
 31
0.0
  0
LINE
  8
0
 62
     0
 10
163.2
 20
5.03259
 30
0.0
 11
162.972
 21
4.58749
 31
0.0
  0
LINE
  8
0
 62
     0
 10
162.972
 20
4.58749
 30
0.0
 11
162.894
 21
4.09279
 31
0.0
  0
LINE
  8
0
 62
     0
 10
162.894
 20
4.09279
 30
0.0
 11
162.972
 21
3.59943
 31
0.0
  0
LINE
  8
0
 62
     0
 10
162.972
 20
3.59943
 30
0.0
 11
163.2
 21
3.15157
 31
0.0
  0
LINE
  8
0
 62
     0
 10
163.2
 20
3.15157
 30
0.0
 11
163.554
 21
2.79879
 31
0.0
  0
LINE
  8
0
 62
     0
 10
163.554
 20
2.79879
 30
0.0
 11
164
 21
2.57142
 31
0.0
  0
LINE
  8
0
 62
     0
 10
164
 20
2.57142
 30
0.0
 11
164.494
 21
2.49425
 31
0.0
  0
LINE
  8
0
 62
     0
 10
164.494
 20
2.49425
 30
0.0
 11
164.989
 21
2.57142
 31
0.0
  0
LINE
  8
0
 62
     0
 10
164.989
 20
2.57142
 30
0.0
 11
165.435
 21
2.79879
 31
0.0
  0
LINE
  8
0
 62
     0
 10
165.435
 20
2.79879
 30
0.0
 11
165.789
 21
3.15157
 31
0.0
  0
LINE
  8
0
 62
     0
 10
165.789
 20
3.15157
 30
0.0
 11
166.017
 21
3.59943
 31
0.0
  0
LINE
  8
0
 62
     0
 10
166.017
 20
3.59943
 30
0.0
 11
166.093
 21
4.09279
 31
0.0
  0
LINE
  8
0
 62
     0
 10
166.093
 20
4.09279
 30
0.0
 11
166.017
 21
4.58749
 31
0.0
  0
LINE
  8
0
 62
     0
 10
166.017
 20
4.58749
 30
0.0
 11
165.789
 21
5.03259
 31
0.0
  0
LINE
  8
0
 62
     0
 10
165.789
 20
5.03259
 30
0.0
 11
165.435
 21
5.38674
 31
0.0
  0
LINE
  8
0
 62
     0
 10
165.435
 20
5.38674
 30
0.0
 11
164.989
 21
5.61414
 31
0.0
  0
LINE
  8
0
 62
     0
 10
164.989
 20
5.61414
 30
0.0
 11
164.494
 21
5.69267
 31
0.0
  0
LINE
  8
0
 62
     0
 10
164.494
 20
5.69267
 30
0.0
 11
164
 21
5.61414
 31
0.0
  0
LINE
  8
0
 62
     0
 10
83.7985
 20
5.61414
 30
0.0
 11
83.3533
 21
5.38674
 31
0.0
  0
LINE
  8
0
 62
     0
 10
83.3533
 20
5.38674
 30
0.0
 11
82.9991
 21
5.03259
 31
0.0
  0
LINE
  8
0
 62
     0
 10
82.9991
 20
5.03259
 30
0.0
 11
82.7719
 21
4.58749
 31
0.0
  0
LINE
  8
0
 62
     0
 10
82.7719
 20
4.58749
 30
0.0
 11
82.6932
 21
4.09279
 31
0.0
  0
LINE
  8
0
 62
     0
 10
82.6932
 20
4.09279
 30
0.0
 11
82.7719
 21
3.59943
 31
0.0
  0
LINE
  8
0
 62
     0
 10
82.7719
 20
3.59943
 30
0.0
 11
82.9991
 21
3.15157
 31
0.0
  0
LINE
  8
0
 62
     0
 10
82.9991
 20
3.15157
 30
0.0
 11
83.3533
 21
2.79879
 31
0.0
  0
LINE
  8
0
 62
     0
 10
83.3533
 20
2.79879
 30
0.0
 11
83.7985
 21
2.57142
 31
0.0
  0
LINE
  8
0
 62
     0
 10
83.7985
 20
2.57142
 30
0.0
 11
84.2931
 21
2.49425
 31
0.0
  0
LINE
  8
0
 62
     0
 10
84.2931
 20
2.49425
 30
0.0
 11
84.788
 21
2.57142
 31
0.0
  0
LINE
  8
0
 62
     0
 10
84.788
 20
2.57142
 30
0.0
 11
85.2343
 21
2.79879
 31
0.0
  0
LINE
  8
0
 62
     0
 10
85.2343
 20
2.79879
 30
0.0
 11
85.5871
 21
3.15157
 31
0.0
  0
LINE
  8
0
 62
     0
 10
85.5871
 20
3.15157
 30
0.0
 11
85.816
 21
3.59943
 31
0.0
  0
LINE
  8
0
 62
     0
 10
85.816
 20
3.59943
 30
0.0
 11
85.8933
 21
4.09279
 31
0.0
  0
LINE
  8
0
 62
     0
 10
85.8933
 20
4.09279
 30
0.0
 11
85.816
 21
4.58749
 31
0.0
  0
LINE
  8
0
 62
     0
 10
85.816
 20
4.58749
 30
0.0
 11
85.5871
 21
5.03259
 31
0.0
  0
LINE
  8
0
 62
     0
 10
85.5871
 20
5.03259
 30
0.0
 11
85.2343
 21
5.38674
 31
0.0
  0
LINE
  8
0
 62
     0
 10
85.2343
 20
5.38674
 30
0.0
 11
84.788
 21
5.61414
 31
0.0
  0
LINE
  8
0
 62
     0
 10
84.788
 20
5.61414
 30
0.0
 11
84.2931
 21
5.69267
 31
0.0
  0
LINE
  8
0
 62
     0
 10
84.2931
 20
5.69267
 30
0.0
 11
83.7985
 21
5.61414
 31
0.0
  0
LINE
  8
0
 62
     0
 10
3.59943
 20
5.61414
 30
0.0
 11
3.15157
 21
5.38674
 31
0.0
  0
LINE
  8
0
 62
     0
 10
3.15157
 20
5.38674
 30
0.0
 11
2.79879
 21
5.03259
 31
0.0
  0
LINE
  8
0
 62
     0
 10
2.79879
 20
5.03259
 30
0.0
 11
2.57142
 21
4.58749
 31
0.0
  0
LINE
  8
0
 62
     0
 10
2.57142
 20
4.58749
 30
0.0
 11
2.49425
 21
4.09279
 31
0.0
  0
LINE
  8
0
 62
     0
 10
2.49425
 20
4.09279
 30
0.0
 11
2.57142
 21
3.59943
 31
0.0
  0
LINE
  8
0
 62
     0
 10
2.57142
 20
3.59943
 30
0.0
 11
2.79879
 21
3.15157
 31
0.0
  0
LINE
  8
0
 62
     0
 10
2.79879
 20
3.15157
 30
0.0
 11
3.15157
 21
2.79879
 31
0.0
  0
LINE
  8
0
 62
     0
 10
3.15157
 20
2.79879
 30
0.0
 11
3.59943
 21
2.57142
 31
0.0
  0
LINE
  8
0
 62
     0
 10
3.59943
 20
2.57142
 30
0.0
 11
4.09416
 21
2.49425
 31
0.0
  0
LINE
  8
0
 62
     0
 10
4.09416
 20
2.49425
 30
0.0
 11
4.58749
 21
2.57142
 31
0.0
  0
LINE
  8
0
 62
     0
 10
4.58749
 20
2.57142
 30
0.0
 11
5.03396
 21
2.79879
 31
0.0
  0
LINE
  8
0
 62
     0
 10
5.03396
 20
2.79879
 30
0.0
 11
5.38812
 21
3.15157
 31
0.0
  0
LINE
  8
0
 62
     0
 10
5.38812
 20
3.15157
 30
0.0
 11
5.61414
 21
3.59943
 31
0.0
  0
LINE
  8
0
 62
     0
 10
5.61414
 20
3.59943
 30
0.0
 11
5.69405
 21
4.09279
 31
0.0
  0
LINE
  8
0
 62
     0
 10
5.69405
 20
4.09279
 30
0.0
 11
5.61414
 21
4.58749
 31
0.0
  0
LINE
  8
0
 62
     0
 10
5.61414
 20
4.58749
 30
0.0
 11
5.38812
 21
5.03259
 31
0.0
  0
LINE
  8
0
 62
     0
 10
5.38812
 20
5.03259
 30
0.0
 11
5.03396
 21
5.38674
 31
0.0
  0
LINE
  8
0
 62
     0
 10
5.03396
 20
5.38674
 30
0.0
 11
4.58749
 21
5.61414
 31
0.0
  0
LINE
  8
0
 62
     0
 10
4.58749
 20
5.61414
 30
0.0
 11
4.09416
 21
5.69267
 31
0.0
  0
LINE
  8
0
 62
     0
 10
4.09416
 20
5.69267
 30
0.0
 11
3.59943
 21
5.61414
 31
0.0
  0
LINE
  8
0
 62
     0
 10
19.6164
 20
105.347
 30
0.0
 11
19.6164
 21
86.2954
 31
0.0
  0
LINE
  8
0
 62
     0
 10
19.6164
 20
86.2954
 30
0.0
 11
10.0914
 21
86.2954
 31
0.0
  0
LINE
  8
0
 62
     0
 10
10.0914
 20
86.2954
 30
0.0
 11
10.0914
 21
67.244
 31
0.0
  0
LINE
  8
0
 62
     0
 10
10.0914
 20
67.244
 30
0.0
 11
14.8553
 21
67.244
 31
0.0
  0
LINE
  8
0
 62
     0
 10
14.8553
 20
67.244
 30
0.0
 11
14.8553
 21
48.194
 31
0.0
  0
LINE
  8
0
 62
     0
 10
14.8553
 20
48.194
 30
0.0
 11
24.3803
 21
48.194
 31
0.0
  0
LINE
  8
0
 62
     0
 10
24.3803
 20
48.194
 30
0.0
 11
24.3803
 21
29.1455
 31
0.0
  0
LINE
  8
0
 62
     0
 10
24.3803
 20
29.1455
 30
0.0
 11
19.6164
 21
29.1455
 31
0.0
  0
LINE
  8
0
 62
     0
 10
19.6164
 20
29.1455
 30
0.0
 11
19.6164
 21
10.0941
 31
0.0
  0
LINE
  8
0
 62
     0
 10
19.6164
 20
10.0941
 30
0.0
 11
172.019
 21
10.0941
 31
0.0
  0
LINE
  8
0
 62
     0
 10
172.019
 20
10.0941
 30
0.0
 11
172.019
 21
105.347
 31
0.0
  0
LINE
  8
0
 62
     0
 10
172.019
 20
105.347
 30
0.0
 11
19.6164
 21
105.347
 31
0.0
  0
LINE
  8
0
 62
     0
 10
181.541
 20
105.347
 30
0.0
 11
181.541
 21
67.244
 31
0.0
  0
LINE
  8
0
 62
     0
 10
181.541
 20
67.244
 30
0.0
 11
181.543
 21
67.244
 31
0.0
  0
LINE
  8
0
 62
     0
 10
181.543
 20
67.244
 30
0.0
 11
181.543
 21
48.194
 31
0.0
  0
LINE
  8
0
 62
     0
 10
181.543
 20
48.194
 30
0.0
 11
200.593
 21
48.194
 31
0.0
  0
LINE
  8
0
 62
     0
 10
200.593
 20
48.194
 30
0.0
 11
200.593
 21
29.1455
 31
0.0
  0
LINE
  8
0
 62
     0
 10
200.593
 20
29.1455
 30
0.0
 11
181.541
 21
29.1455
 31
0.0
  0
LINE
  8
0
 62
     0
 10
181.541
 20
29.1455
 30
0.0
 11
181.541
 21
10.0941
 31
0.0
  0
LINE
  8
0
 62
     0
 10
181.541
 20
10.0941
 30
0.0
 11
238.694
 21
10.0941
 31
0.0
  0
LINE
  8
0
 62
     0
 10
238.694
 20
10.0941
 30
0.0
 11
238.694
 21
29.1455
 31
0.0
  0
LINE
  8
0
 62
     0
 10
238.694
 20
29.1455
 30
0.0
 11
219.644
 21
29.1455
 31
0.0
  0
LINE
  8
0
 62
     0
 10
219.644
 20
29.1455
 30
0.0
 11
219.644
 21
48.194
 31
0.0
  0
LINE
  8
0
 62
     0
 10
219.644
 20
48.194
 30
0.0
 11
238.694
 21
48.194
 31
0.0
  0
LINE
  8
0
 62
     0
 10
238.694
 20
48.194
 30
0.0
 11
238.694
 21
105.347
 31
0.0
  0
LINE
  8
0
 62
     0
 10
238.694
 20
105.347
 30
0.0
 11
181.541
 21
105.347
 31
0.0
  0
LINE
  8
0
 62
     0
 10
83.7985
 20
112.866
 30
0.0
 11
83.3533
 21
112.638
 31
0.0
  0
LINE
  8
0
 62
     0
 10
83.3533
 20
112.638
 30
0.0
 11
82.9991
 21
112.285
 31
0.0
  0
LINE
  8
0
 62
     0
 10
82.9991
 20
112.285
 30
0.0
 11
82.7719
 21
111.838
 31
0.0
  0
LINE
  8
0
 62
     0
 10
82.7719
 20
111.838
 30
0.0
 11
82.6932
 21
111.344
 31
0.0
  0
LINE
  8
0
 62
     0
 10
82.6932
 20
111.344
 30
0.0
 11
82.7719
 21
110.849
 31
0.0
  0
LINE
  8
0
 62
     0
 10
82.7719
 20
110.849
 30
0.0
 11
82.9991
 21
110.403
 31
0.0
  0
LINE
  8
0
 62
     0
 10
82.9991
 20
110.403
 30
0.0
 11
83.3533
 21
110.05
 31
0.0
  0
LINE
  8
0
 62
     0
 10
83.3533
 20
110.05
 30
0.0
 11
83.7985
 21
109.823
 31
0.0
  0
LINE
  8
0
 62
     0
 10
83.7985
 20
109.823
 30
0.0
 11
84.2931
 21
109.743
 31
0.0
  0
LINE
  8
0
 62
     0
 10
84.2931
 20
109.743
 30
0.0
 11
84.788
 21
109.823
 31
0.0
  0
LINE
  8
0
 62
     0
 10
84.788
 20
109.823
 30
0.0
 11
85.2343
 21
110.05
 31
0.0
  0
LINE
  8
0
 62
     0
 10
85.2343
 20
110.05
 30
0.0
 11
85.5871
 21
110.403
 31
0.0
  0
LINE
  8
0
 62
     0
 10
85.5871
 20
110.403
 30
0.0
 11
85.816
 21
110.849
 31
0.0
  0
LINE
  8
0
 62
     0
 10
85.816
 20
110.849
 30
0.0
 11
85.8933
 21
111.344
 31
0.0
  0
LINE
  8
0
 62
     0
 10
85.8933
 20
111.344
 30
0.0
 11
85.816
 21
111.838
 31
0.0
  0
LINE
  8
0
 62
     0
 10
85.816
 20
111.838
 30
0.0
 11
85.5871
 21
112.285
 31
0.0
  0
LINE
  8
0
 62
     0
 10
85.5871
 20
112.285
 30
0.0
 11
85.2343
 21
112.638
 31
0.0
  0
LINE
  8
0
 62
     0
 10
85.2343
 20
112.638
 30
0.0
 11
84.788
 21
112.866
 31
0.0
  0
LINE
  8
0
 62
     0
 10
84.788
 20
112.866
 30
0.0
 11
84.2931
 21
112.944
 31
0.0
  0
LINE
  8
0
 62
     0
 10
84.2931
 20
112.944
 30
0.0
 11
83.7985
 21
112.866
 31
0.0
  0
LINE
  8
0
 62
     0
 10
164
 20
112.866
 30
0.0
 11
163.554
 21
112.638
 31
0.0
  0
LINE
  8
0
 62
     0
 10
163.554
 20
112.638
 30
0.0
 11
163.2
 21
112.285
 31
0.0
  0
LINE
  8
0
 62
     0
 10
163.2
 20
112.285
 30
0.0
 11
162.972
 21
111.838
 31
0.0
  0
LINE
  8
0
 62
     0
 10
162.972
 20
111.838
 30
0.0
 11
162.894
 21
111.344
 31
0.0
  0
LINE
  8
0
 62
     0
 10
162.894
 20
111.344
 30
0.0
 11
162.972
 21
110.849
 31
0.0
  0
LINE
  8
0
 62
     0
 10
162.972
 20
110.849
 30
0.0
 11
163.2
 21
110.403
 31
0.0
  0
LINE
  8
0
 62
     0
 10
163.2
 20
110.403
 30
0.0
 11
163.554
 21
110.05
 31
0.0
  0
LINE
  8
0
 62
     0
 10
163.554
 20
110.05
 30
0.0
 11
164
 21
109.823
 31
0.0
  0
LINE
  8
0
 62
     0
 10
164
 20
109.823
 30
0.0
 11
164.494
 21
109.743
 31
0.0
  0
LINE
  8
0
 62
     0
 10
164.494
 20
109.743
 30
0.0
 11
164.989
 21
109.823
 31
0.0
  0
LINE
  8
0
 62
     0
 10
164.989
 20
109.823
 30
0.0
 11
165.435
 21
110.05
 31
0.0
  0
LINE
  8
0
 62
     0
 10
165.435
 20
110.05
 30
0.0
 11
165.789
 21
110.403
 31
0.0
  0
LINE
  8
0
 62
     0
 10
165.789
 20
110.403
 30
0.0
 11
166.017
 21
110.849
 31
0.0
  0
LINE
  8
0
 62
     0
 10
166.017
 20
110.849
 30
0.0
 11
166.093
 21
111.344
 31
0.0
  0
LINE
  8
0
 62
     0
 10
166.093
 20
111.344
 30
0.0
 11
166.017
 21
111.838
 31
0.0
  0
LINE
  8
0
 62
     0
 10
166.017
 20
111.838
 30
0.0
 11
165.789
 21
112.285
 31
0.0
  0
LINE
  8
0
 62
     0
 10
165.789
 20
112.285
 30
0.0
 11
165.435
 21
112.638
 31
0.0
  0
LINE
  8
0
 62
     0
 10
165.435
 20
112.638
 30
0.0
 11
164.989
 21
112.866
 31
0.0
  0
LINE
  8
0
 62
     0
 10
164.989
 20
112.866
 30
0.0
 11
164.494
 21
112.944
 31
0.0
  0
LINE
  8
0
 62
     0
 10
164.494
 20
112.944
 30
0.0
 11
164
 21
112.866
 31
0.0
  0
LINE
  8
0
 62
     0
 10
244.199
 20
112.866
 30
0.0
 11
243.754
 21
112.638
 31
0.0
  0
LINE
  8
0
 62
     0
 10
243.754
 20
112.638
 30
0.0
 11
243.4
 21
112.285
 31
0.0
  0
LINE
  8
0
 62
     0
 10
243.4
 20
112.285
 30
0.0
 11
243.173
 21
111.838
 31
0.0
  0
LINE
  8
0
 62
     0
 10
243.173
 20
111.838
 30
0.0
 11
243.094
 21
111.344
 31
0.0
  0
LINE
  8
0
 62
     0
 10
243.094
 20
111.344
 30
0.0
 11
243.173
 21
110.849
 31
0.0
  0
LINE
  8
0
 62
     0
 10
243.173
 20
110.849
 30
0.0
 11
243.4
 21
110.403
 31
0.0
  0
LINE
  8
0
 62
     0
 10
243.4
 20
110.403
 30
0.0
 11
243.754
 21
110.05
 31
0.0
  0
LINE
  8
0
 62
     0
 10
243.754
 20
110.05
 30
0.0
 11
244.199
 21
109.823
 31
0.0
  0
LINE
  8
0
 62
     0
 10
244.199
 20
109.823
 30
0.0
 11
244.694
 21
109.743
 31
0.0
  0
LINE
  8
0
 62
     0
 10
244.694
 20
109.743
 30
0.0
 11
245.189
 21
109.823
 31
0.0
  0
LINE
  8
0
 62
     0
 10
245.189
 20
109.823
 30
0.0
 11
245.635
 21
110.05
 31
0.0
  0
LINE
  8
0
 62
     0
 10
245.635
 20
110.05
 30
0.0
 11
245.988
 21
110.403
 31
0.0
  0
LINE
  8
0
 62
     0
 10
245.988
 20
110.403
 30
0.0
 11
246.216
 21
110.849
 31
0.0
  0
LINE
  8
0
 62
     0
 10
246.216
 20
110.849
 30
0.0
 11
246.295
 21
111.344
 31
0.0
  0
LINE
  8
0
 62
     0
 10
246.295
 20
111.344
 30
0.0
 11
246.216
 21
111.838
 31
0.0
  0
LINE
  8
0
 62
     0
 10
246.216
 20
111.838
 30
0.0
 11
245.988
 21
112.285
 31
0.0
  0
LINE
  8
0
 62
     0
 10
245.988
 20
112.285
 30
0.0
 11
245.635
 21
112.638
 31
0.0
  0
LINE
  8
0
 62
     0
 10
245.635
 20
112.638
 30
0.0
 11
245.189
 21
112.866
 31
0.0
  0
LINE
  8
0
 62
     0
 10
245.189
 20
112.866
 30
0.0
 11
244.694
 21
112.944
 31
0.0
  0
LINE
  8
0
 62
     0
 10
244.694
 20
112.944
 30
0.0
 11
244.199
 21
112.866
 31
0.0
  0
LINE
  8
0
 62
     0
 10
3.59943
 20
112.866
 30
0.0
 11
3.15157
 21
112.638
 31
0.0
  0
LINE
  8
0
 62
     0
 10
3.15157
 20
112.638
 30
0.0
 11
2.79879
 21
112.285
 31
0.0
  0
LINE
  8
0
 62
     0
 10
2.79879
 20
112.285
 30
0.0
 11
2.57142
 21
111.838
 31
0.0
  0
LINE
  8
0
 62
     0
 10
2.57142
 20
111.838
 30
0.0
 11
2.49425
 21
111.344
 31
0.0
  0
LINE
  8
0
 62
     0
 10
2.49425
 20
111.344
 30
0.0
 11
2.57142
 21
110.849
 31
0.0
  0
LINE
  8
0
 62
     0
 10
2.57142
 20
110.849
 30
0.0
 11
2.79879
 21
110.403
 31
0.0
  0
LINE
  8
0
 62
     0
 10
2.79879
 20
110.403
 30
0.0
 11
3.15157
 21
110.05
 31
0.0
  0
LINE
  8
0
 62
     0
 10
3.15157
 20
110.05
 30
0.0
 11
3.59943
 21
109.823
 31
0.0
  0
LINE
  8
0
 62
     0
 10
3.59943
 20
109.823
 30
0.0
 11
4.09416
 21
109.743
 31
0.0
  0
LINE
  8
0
 62
     0
 10
4.09416
 20
109.743
 30
0.0
 11
4.58749
 21
109.823
 31
0.0
  0
LINE
  8
0
 62
     0
 10
4.58749
 20
109.823
 30
0.0
 11
5.03396
 21
110.05
 31
0.0
  0
LINE
  8
0
 62
     0
 10
5.03396
 20
110.05
 30
0.0
 11
5.38812
 21
110.403
 31
0.0
  0
LINE
  8
0
 62
     0
 10
5.38812
 20
110.403
 30
0.0
 11
5.61414
 21
110.849
 31
0.0
  0
LINE
  8
0
 62
     0
 10
5.61414
 20
110.849
 30
0.0
 11
5.69405
 21
111.344
 31
0.0
  0
LINE
  8
0
 62
     0
 10
5.69405
 20
111.344
 30
0.0
 11
5.61414
 21
111.838
 31
0.0
  0
LINE
  8
0
 62
     0
 10
5.61414
 20
111.838
 30
0.0
 11
5.38812
 21
112.285
 31
0.0
  0
LINE
  8
0
 62
     0
 10
5.38812
 20
112.285
 30
0.0
 11
5.03396
 21
112.638
 31
0.0
  0
LINE
  8
0
 62
     0
 10
5.03396
 20
112.638
 30
0.0
 11
4.58749
 21
112.866
 31
0.0
  0
LINE
  8
0
 62
     0
 10
4.58749
 20
112.866
 30
0.0
 11
4.09416
 21
112.944
 31
0.0
  0
LINE
  8
0
 62
     0
 10
4.09416
 20
112.944
 30
0.0
 11
3.59943
 21
112.866
 31
0.0
  0
ENDSEC
  0
EOF
