  0
SECTION
  2
HEADER
  9
$ACADVER
  1
AC1009
  9
$EXTMIN
 10
0.0
 20
0.0
 30
0.0
  9
$EXTMAX
 10
1000.0
 20
1000.0
 30
0.0
  9
$FILLMODE
 70
 0
  9
$SPLFRAME
 70
 1
  0
ENDSEC
  0
SECTION
  2
TABLES
  0
TABLE
  2
LAYER
 70
1
  0
LAYER
  2
0
 70
     0
 62
     7
  6
CONTINUOUS
  0
ENDTAB
  0
ENDSEC
  0
SECTION
  2
ENTITIES
  0
LINE
  8
0
 62
     0
 10
0.0937066
 20
115.343
 30
0.0
 11
248.695
 21
115.343
 31
0.0
  0
LINE
  8
0
 62
     0
 10
248.695
 20
115.343
 30
0.0
 11
248.695
 21
0.0937066
 31
0.0
  0
LINE
  8
0
 62
     0
 10
248.695
 20
0.0937066
 30
0.0
 11
0.0937066
 21
0.0937066
 31
0.0
  0
LINE
  8
0
 62
     0
 10
0.0937066
 20
0.0937066
 30
0.0
 11
0.0937066
 21
115.343
 31
0.0
  0
LINE
  8
0
 62
     0
 10
244.199
 20
5.61414
 30
0.0
 11
243.754
 21
5.38674
 31
0.0
  0
LINE
  8
0
 62
     0
 10
243.754
 20
5.38674
 30
0.0
 11
243.4
 21
5.03259
 31
0.0
  0
LINE
  8
0
 62
     0
 10
243.4
 20
5.03259
 30
0.0
 11
243.173
 21
4.58749
 31
0.0
  0
LINE
  8
0
 62
     0
 10
243.173
 20
4.58749
 30
0.0
 11
243.094
 21
4.09279
 31
0.0
  0
LINE
  8
0
 62
     0
 10
243.094
 20
4.09279
 30
0.0
 11
243.173
 21
3.59943
 31
0.0
  0
LINE
  8
0
 62
     0
 10
243.173
 20
3.59943
 30
0.0
 11
243.4
 21
3.15157
 31
0.0
  0
LINE
  8
0
 62
     0
 10
243.4
 20
3.15157
 30
0.0
 11
243.754
 21
2.79879
 31
0.0
  0
LINE
  8
0
 62
     0
 10
243.754
 20
2.79879
 30
0.0
 11
244.199
 21
2.57142
 31
0.0
  0
LINE
  8
0
 62
     0
 10
244.199
 20
2.57142
 30
0.0
 11
244.694
 21
2.49425
 31
0.0
  0
LINE
  8
0
 62
     0
 10
244.694
 20
2.49425
 30
0.0
 11
245.189
 21
2.57142
 31
0.0
  0
LINE
  8
0
 62
     0
 10
245.189
 20
2.57142
 30
0.0
 11
245.635
 21
2.79879
 31
0.0
  0
LINE
  8
0
 62
     0
 10
245.635
 20
2.79879
 30
0.0
 11
245.988
 21
3.15157
 31
0.0
  0
LINE
  8
0
 62
     0
 10
245.988
 20
3.15157
 30
0.0
 11
246.216
 21
3.59943
 31
0.0
  0
LINE
  8
0
 62
     0
 10
246.216
 20
3.59943
 30
0.0
 11
246.295
 21
4.09279
 31
0.0
  0
LINE
  8
0
 62
     0
 10
246.295
 20
4.09279
 30
0.0
 11
246.216
 21
4.58749
 31
0.0
  0
LINE
  8
0
 62
     0
 10
246.216
 20
4.58749
 30
0.0
 11
245.988
 21
5.03259
 31
0.0
  0
LINE
  8
0
 62
     0
 10
245.988
 20
5.03259
 30
0.0
 11
245.635
 21
5.38674
 31
0.0
  0
LINE
  8
0
 62
     0
 10
245.635
 20
5.38674
 30
0.0
 11
245.189
 21
5.61414
 31
0.0
  0
LINE
  8
0
 62
     0
 10
245.189
 20
5.61414
 30
0.0
 11
244.694
 21
5.69267
 31
0.0
  0
LINE
  8
0
 62
     0
 10
244.694
 20
5.69267
 30
0.0
 11
244.199
 21
5.61414
 31
0.0
  0
LINE
  8
0
 62
     0
 10
164
 20
5.61414
 30
0.0
 11
163.554
 21
5.38674
 31
0.0
  0
LINE
  8
0
 62
     0
 10
163.554
 20
5.38674
 30
0.0
 11
163.2
 21
5.03259
 31
0.0
  0
LINE
  8
0
 62
     0
 10
163.2
 20
5.03259
 30
0.0
 11
162.972
 21
4.58749
 31
0.0
  0
LINE
  8
0
 62
     0
 10
162.972
 20
4.58749
 30
0.0
 11
162.894
 21
4.09279
 31
0.0
  0
LINE
  8
0
 62
     0
 10
162.894
 20
4.09279
 30
0.0
 11
162.972
 21
3.59943
 31
0.0
  0
LINE
  8
0
 62
     0
 10
162.972
 20
3.59943
 30
0.0
 11
163.2
 21
3.15157
 31
0.0
  0
LINE
  8
0
 62
     0
 10
163.2
 20
3.15157
 30
0.0
 11
163.554
 21
2.79879
 31
0.0
  0
LINE
  8
0
 62
     0
 10
163.554
 20
2.79879
 30
0.0
 11
164
 21
2.57142
 31
0.0
  0
LINE
  8
0
 62
     0
 10
164
 20
2.57142
 30
0.0
 11
164.494
 21
2.49425
 31
0.0
  0
LINE
  8
0
 62
     0
 10
164.494
 20
2.49425
 30
0.0
 11
164.989
 21
2.57142
 31
0.0
  0
LINE
  8
0
 62
     0
 10
164.989
 20
2.57142
 30
0.0
 11
165.435
 21
2.79879
 31
0.0
  0
LINE
  8
0
 62
     0
 10
165.435
 20
2.79879
 30
0.0
 11
165.789
 21
3.15157
 31
0.0
  0
LINE
  8
0
 62
     0
 10
165.789
 20
3.15157
 30
0.0
 11
166.017
 21
3.59943
 31
0.0
  0
LINE
  8
0
 62
     0
 10
166.017
 20
3.59943
 30
0.0
 11
166.093
 21
4.09279
 31
0.0
  0
LINE
  8
0
 62
     0
 10
166.093
 20
4.09279
 30
0.0
 11
166.017
 21
4.58749
 31
0.0
  0
LINE
  8
0
 62
     0
 10
166.017
 20
4.58749
 30
0.0
 11
165.789
 21
5.03259
 31
0.0
  0
LINE
  8
0
 62
     0
 10
165.789
 20
5.03259
 30
0.0
 11
165.435
 21
5.38674
 31
0.0
  0
LINE
  8
0
 62
     0
 10
165.435
 20
5.38674
 30
0.0
 11
164.989
 21
5.61414
 31
0.0
  0
LINE
  8
0
 62
     0
 10
164.989
 20
5.61414
 30
0.0
 11
164.494
 21
5.69267
 31
0.0
  0
LINE
  8
0
 62
     0
 10
164.494
 20
5.69267
 30
0.0
 11
164
 21
5.61414
 31
0.0
  0
LINE
  8
0
 62
     0
 10
83.7985
 20
5.61414
 30
0.0
 11
83.3533
 21
5.38674
 31
0.0
  0
LINE
  8
0
 62
     0
 10
83.3533
 20
5.38674
 30
0.0
 11
82.9991
 21
5.03259
 31
0.0
  0
LINE
  8
0
 62
     0
 10
82.9991
 20
5.03259
 30
0.0
 11
82.7719
 21
4.58749
 31
0.0
  0
LINE
  8
0
 62
     0
 10
82.7719
 20
4.58749
 30
0.0
 11
82.6932
 21
4.09279
 31
0.0
  0
LINE
  8
0
 62
     0
 10
82.6932
 20
4.09279
 30
0.0
 11
82.7719
 21
3.59943
 31
0.0
  0
LINE
  8
0
 62
     0
 10
82.7719
 20
3.59943
 30
0.0
 11
82.9991
 21
3.15157
 31
0.0
  0
LINE
  8
0
 62
     0
 10
82.9991
 20
3.15157
 30
0.0
 11
83.3533
 21
2.79879
 31
0.0
  0
LINE
  8
0
 62
     0
 10
83.3533
 20
2.79879
 30
0.0
 11
83.7985
 21
2.57142
 31
0.0
  0
LINE
  8
0
 62
     0
 10
83.7985
 20
2.57142
 30
0.0
 11
84.2931
 21
2.49425
 31
0.0
  0
LINE
  8
0
 62
     0
 10
84.2931
 20
2.49425
 30
0.0
 11
84.788
 21
2.57142
 31
0.0
  0
LINE
  8
0
 62
     0
 10
84.788
 20
2.57142
 30
0.0
 11
85.2343
 21
2.79879
 31
0.0
  0
LINE
  8
0
 62
     0
 10
85.2343
 20
2.79879
 30
0.0
 11
85.5871
 21
3.15157
 31
0.0
  0
LINE
  8
0
 62
     0
 10
85.5871
 20
3.15157
 30
0.0
 11
85.816
 21
3.59943
 31
0.0
  0
LINE
  8
0
 62
     0
 10
85.816
 20
3.59943
 30
0.0
 11
85.8933
 21
4.09279
 31
0.0
  0
LINE
  8
0
 62
     0
 10
85.8933
 20
4.09279
 30
0.0
 11
85.816
 21
4.58749
 31
0.0
  0
LINE
  8
0
 62
     0
 10
85.816
 20
4.58749
 30
0.0
 11
85.5871
 21
5.03259
 31
0.0
  0
LINE
  8
0
 62
     0
 10
85.5871
 20
5.03259
 30
0.0
 11
85.2343
 21
5.38674
 31
0.0
  0
LINE
  8
0
 62
     0
 10
85.2343
 20
5.38674
 30
0.0
 11
84.788
 21
5.61414
 31
0.0
  0
LINE
  8
0
 62
     0
 10
84.788
 20
5.61414
 30
0.0
 11
84.2931
 21
5.69267
 31
0.0
  0
LINE
  8
0
 62
     0
 10
84.2931
 20
5.69267
 30
0.0
 11
83.7985
 21
5.61414
 31
0.0
  0
LINE
  8
0
 62
     0
 10
3.59943
 20
5.61414
 30
0.0
 11
3.15157
 21
5.38674
 31
0.0
  0
LINE
  8
0
 62
     0
 10
3.15157
 20
5.38674
 30
0.0
 11
2.79879
 21
5.03259
 31
0.0
  0
LINE
  8
0
 62
     0
 10
2.79879
 20
5.03259
 30
0.0
 11
2.57142
 21
4.58749
 31
0.0
  0
LINE
  8
0
 62
     0
 10
2.57142
 20
4.58749
 30
0.0
 11
2.49425
 21
4.09279
 31
0.0
  0
LINE
  8
0
 62
     0
 10
2.49425
 20
4.09279
 30
0.0
 11
2.57142
 21
3.59943
 31
0.0
  0
LINE
  8
0
 62
     0
 10
2.57142
 20
3.59943
 30
0.0
 11
2.79879
 21
3.15157
 31
0.0
  0
LINE
  8
0
 62
     0
 10
2.79879
 20
3.15157
 30
0.0
 11
3.15157
 21
2.79879
 31
0.0
  0
LINE
  8
0
 62
     0
 10
3.15157
 20
2.79879
 30
0.0
 11
3.59943
 21
2.57142
 31
0.0
  0
LINE
  8
0
 62
     0
 10
3.59943
 20
2.57142
 30
0.0
 11
4.09416
 21
2.49425
 31
0.0
  0
LINE
  8
0
 62
     0
 10
4.09416
 20
2.49425
 30
0.0
 11
4.58749
 21
2.57142
 31
0.0
  0
LINE
  8
0
 62
     0
 10
4.58749
 20
2.57142
 30
0.0
 11
5.03396
 21
2.79879
 31
0.0
  0
LINE
  8
0
 62
     0
 10
5.03396
 20
2.79879
 30
0.0
 11
5.38812
 21
3.15157
 31
0.0
  0
LINE
  8
0
 62
     0
 10
5.38812
 20
3.15157
 30
0.0
 11
5.61414
 21
3.59943
 31
0.0
  0
LINE
  8
0
 62
     0
 10
5.61414
 20
3.59943
 30
0.0
 11
5.69405
 21
4.09279
 31
0.0
  0
LINE
  8
0
 62
     0
 10
5.69405
 20
4.09279
 30
0.0
 11
5.61414
 21
4.58749
 31
0.0
  0
LINE
  8
0
 62
     0
 10
5.61414
 20
4.58749
 30
0.0
 11
5.38812
 21
5.03259
 31
0.0
  0
LINE
  8
0
 62
     0
 10
5.38812
 20
5.03259
 30
0.0
 11
5.03396
 21
5.38674
 31
0.0
  0
LINE
  8
0
 62
     0
 10
5.03396
 20
5.38674
 30
0.0
 11
4.58749
 21
5.61414
 31
0.0
  0
LINE
  8
0
 62
     0
 10
4.58749
 20
5.61414
 30
0.0
 11
4.09416
 21
5.69267
 31
0.0
  0
LINE
  8
0
 62
     0
 10
4.09416
 20
5.69267
 30
0.0
 11
3.59943
 21
5.61414
 31
0.0
  0
LINE
  8
0
 62
     0
 10
32.2612
 20
26.0697
 30
0.0
 11
35.5618
 21
26.0697
 31
0.0
  0
LINE
  8
0
 62
     0
 10
35.5618
 20
26.0697
 30
0.0
 11
35.5618
 21
11.8677
 31
0.0
  0
LINE
  8
0
 62
     0
 10
35.5618
 20
11.8677
 30
0.0
 11
32.2612
 21
11.8677
 31
0.0
  0
LINE
  8
0
 62
     0
 10
32.2612
 20
11.8677
 30
0.0
 11
32.2612
 21
26.0697
 31
0.0
  0
LINE
  8
0
 62
     0
 10
56.0613
 20
26.0697
 30
0.0
 11
59.3619
 21
26.0697
 31
0.0
  0
LINE
  8
0
 62
     0
 10
59.3619
 20
26.0697
 30
0.0
 11
59.3619
 21
11.8677
 31
0.0
  0
LINE
  8
0
 62
     0
 10
59.3619
 20
11.8677
 30
0.0
 11
56.0613
 21
11.8677
 31
0.0
  0
LINE
  8
0
 62
     0
 10
56.0613
 20
11.8677
 30
0.0
 11
56.0613
 21
26.0697
 31
0.0
  0
LINE
  8
0
 62
     0
 10
38.8112
 20
26.6182
 30
0.0
 11
52.8119
 21
26.6182
 31
0.0
  0
LINE
  8
0
 62
     0
 10
52.8119
 20
26.6182
 30
0.0
 11
52.8119
 21
12.6187
 31
0.0
  0
LINE
  8
0
 62
     0
 10
52.8119
 20
12.6187
 30
0.0
 11
38.8112
 21
12.6187
 31
0.0
  0
LINE
  8
0
 62
     0
 10
38.8112
 20
12.6187
 30
0.0
 11
38.8112
 21
26.6182
 31
0.0
  0
LINE
  8
0
 62
     0
 10
76.9112
 20
26.6182
 30
0.0
 11
90.9119
 21
26.6182
 31
0.0
  0
LINE
  8
0
 62
     0
 10
90.9119
 20
26.6182
 30
0.0
 11
90.9119
 21
12.6187
 31
0.0
  0
LINE
  8
0
 62
     0
 10
90.9119
 20
12.6187
 30
0.0
 11
76.9112
 21
12.6187
 31
0.0
  0
LINE
  8
0
 62
     0
 10
76.9112
 20
12.6187
 30
0.0
 11
76.9112
 21
26.6182
 31
0.0
  0
LINE
  8
0
 62
     0
 10
100.725
 20
26.6182
 30
0.0
 11
114.724
 21
26.6182
 31
0.0
  0
LINE
  8
0
 62
     0
 10
114.724
 20
26.6182
 30
0.0
 11
114.724
 21
12.6187
 31
0.0
  0
LINE
  8
0
 62
     0
 10
114.724
 20
12.6187
 30
0.0
 11
100.725
 21
12.6187
 31
0.0
  0
LINE
  8
0
 62
     0
 10
100.725
 20
12.6187
 30
0.0
 11
100.725
 21
26.6182
 31
0.0
  0
LINE
  8
0
 62
     0
 10
124.536
 20
26.6182
 30
0.0
 11
138.537
 21
26.6182
 31
0.0
  0
LINE
  8
0
 62
     0
 10
138.537
 20
26.6182
 30
0.0
 11
138.537
 21
12.6187
 31
0.0
  0
LINE
  8
0
 62
     0
 10
138.537
 20
12.6187
 30
0.0
 11
124.536
 21
12.6187
 31
0.0
  0
LINE
  8
0
 62
     0
 10
124.536
 20
12.6187
 30
0.0
 11
124.536
 21
26.6182
 31
0.0
  0
LINE
  8
0
 62
     0
 10
150.731
 20
26.6182
 30
0.0
 11
164.731
 21
26.6182
 31
0.0
  0
LINE
  8
0
 62
     0
 10
164.731
 20
26.6182
 30
0.0
 11
164.731
 21
12.6187
 31
0.0
  0
LINE
  8
0
 62
     0
 10
164.731
 20
12.6187
 30
0.0
 11
150.731
 21
12.6187
 31
0.0
  0
LINE
  8
0
 62
     0
 10
150.731
 20
12.6187
 30
0.0
 11
150.731
 21
26.6182
 31
0.0
  0
LINE
  8
0
 62
     0
 10
184.069
 20
26.6182
 30
0.0
 11
198.068
 21
26.6182
 31
0.0
  0
LINE
  8
0
 62
     0
 10
198.068
 20
26.6182
 30
0.0
 11
198.068
 21
12.6187
 31
0.0
  0
LINE
  8
0
 62
     0
 10
198.068
 20
12.6187
 30
0.0
 11
184.069
 21
12.6187
 31
0.0
  0
LINE
  8
0
 62
     0
 10
184.069
 20
12.6187
 30
0.0
 11
184.069
 21
26.6182
 31
0.0
  0
LINE
  8
0
 62
     0
 10
203.119
 20
26.6182
 30
0.0
 11
217.118
 21
26.6182
 31
0.0
  0
LINE
  8
0
 62
     0
 10
217.118
 20
26.6182
 30
0.0
 11
217.118
 21
12.6187
 31
0.0
  0
LINE
  8
0
 62
     0
 10
217.118
 20
12.6187
 30
0.0
 11
203.119
 21
12.6187
 31
0.0
  0
LINE
  8
0
 62
     0
 10
203.119
 20
12.6187
 30
0.0
 11
203.119
 21
26.6182
 31
0.0
  0
LINE
  8
0
 62
     0
 10
222.169
 20
26.6182
 30
0.0
 11
236.168
 21
26.6182
 31
0.0
  0
LINE
  8
0
 62
     0
 10
236.168
 20
26.6182
 30
0.0
 11
236.168
 21
12.6187
 31
0.0
  0
LINE
  8
0
 62
     0
 10
236.168
 20
12.6187
 30
0.0
 11
222.169
 21
12.6187
 31
0.0
  0
LINE
  8
0
 62
     0
 10
222.169
 20
12.6187
 30
0.0
 11
222.169
 21
26.6182
 31
0.0
  0
LINE
  8
0
 62
     0
 10
26.9062
 20
45.6681
 30
0.0
 11
40.9056
 21
45.6681
 31
0.0
  0
LINE
  8
0
 62
     0
 10
40.9056
 20
45.6681
 30
0.0
 11
40.9056
 21
31.6687
 31
0.0
  0
LINE
  8
0
 62
     0
 10
40.9056
 20
31.6687
 30
0.0
 11
26.9062
 21
31.6687
 31
0.0
  0
LINE
  8
0
 62
     0
 10
26.9062
 20
31.6687
 30
0.0
 11
26.9062
 21
45.6681
 31
0.0
  0
LINE
  8
0
 62
     0
 10
45.9564
 20
45.6681
 30
0.0
 11
59.9542
 21
45.6681
 31
0.0
  0
LINE
  8
0
 62
     0
 10
59.9542
 20
45.6681
 30
0.0
 11
59.9542
 21
31.6687
 31
0.0
  0
LINE
  8
0
 62
     0
 10
59.9542
 20
31.6687
 30
0.0
 11
45.9564
 21
31.6687
 31
0.0
  0
LINE
  8
0
 62
     0
 10
45.9564
 20
31.6687
 30
0.0
 11
45.9564
 21
45.6681
 31
0.0
  0
LINE
  8
0
 62
     0
 10
65.0064
 20
45.6681
 30
0.0
 11
79.0056
 21
45.6681
 31
0.0
  0
LINE
  8
0
 62
     0
 10
79.0056
 20
45.6681
 30
0.0
 11
79.0056
 21
31.6687
 31
0.0
  0
LINE
  8
0
 62
     0
 10
79.0056
 20
31.6687
 30
0.0
 11
65.0064
 21
31.6687
 31
0.0
  0
LINE
  8
0
 62
     0
 10
65.0064
 20
31.6687
 30
0.0
 11
65.0064
 21
45.6681
 31
0.0
  0
LINE
  8
0
 62
     0
 10
84.0564
 20
45.6681
 30
0.0
 11
98.0556
 21
45.6681
 31
0.0
  0
LINE
  8
0
 62
     0
 10
98.0556
 20
45.6681
 30
0.0
 11
98.0556
 21
31.6687
 31
0.0
  0
LINE
  8
0
 62
     0
 10
98.0556
 20
31.6687
 30
0.0
 11
84.0564
 21
31.6687
 31
0.0
  0
LINE
  8
0
 62
     0
 10
84.0564
 20
31.6687
 30
0.0
 11
84.0564
 21
45.6681
 31
0.0
  0
LINE
  8
0
 62
     0
 10
103.106
 20
45.6681
 30
0.0
 11
117.106
 21
45.6681
 31
0.0
  0
LINE
  8
0
 62
     0
 10
117.106
 20
45.6681
 30
0.0
 11
117.106
 21
31.6687
 31
0.0
  0
LINE
  8
0
 62
     0
 10
117.106
 20
31.6687
 30
0.0
 11
103.106
 21
31.6687
 31
0.0
  0
LINE
  8
0
 62
     0
 10
103.106
 20
31.6687
 30
0.0
 11
103.106
 21
45.6681
 31
0.0
  0
LINE
  8
0
 62
     0
 10
122.156
 20
45.6681
 30
0.0
 11
136.156
 21
45.6681
 31
0.0
  0
LINE
  8
0
 62
     0
 10
136.156
 20
45.6681
 30
0.0
 11
136.156
 21
31.6687
 31
0.0
  0
LINE
  8
0
 62
     0
 10
136.156
 20
31.6687
 30
0.0
 11
122.156
 21
31.6687
 31
0.0
  0
LINE
  8
0
 62
     0
 10
122.156
 20
31.6687
 30
0.0
 11
122.156
 21
45.6681
 31
0.0
  0
LINE
  8
0
 62
     0
 10
148.35
 20
45.6681
 30
0.0
 11
162.349
 21
45.6681
 31
0.0
  0
LINE
  8
0
 62
     0
 10
162.349
 20
45.6681
 30
0.0
 11
162.349
 21
31.6687
 31
0.0
  0
LINE
  8
0
 62
     0
 10
162.349
 20
31.6687
 30
0.0
 11
148.35
 21
31.6687
 31
0.0
  0
LINE
  8
0
 62
     0
 10
148.35
 20
31.6687
 30
0.0
 11
148.35
 21
45.6681
 31
0.0
  0
LINE
  8
0
 62
     0
 10
203.119
 20
45.6681
 30
0.0
 11
217.118
 21
45.6681
 31
0.0
  0
LINE
  8
0
 62
     0
 10
217.118
 20
45.6681
 30
0.0
 11
217.118
 21
31.6687
 31
0.0
  0
LINE
  8
0
 62
     0
 10
217.118
 20
31.6687
 30
0.0
 11
203.119
 21
31.6687
 31
0.0
  0
LINE
  8
0
 62
     0
 10
203.119
 20
31.6687
 30
0.0
 11
203.119
 21
45.6681
 31
0.0
  0
LINE
  8
0
 62
     0
 10
137.036
 20
64.1685
 30
0.0
 11
140.337
 21
64.1685
 31
0.0
  0
LINE
  8
0
 62
     0
 10
140.337
 20
64.1685
 30
0.0
 11
140.337
 21
49.9678
 31
0.0
  0
LINE
  8
0
 62
     0
 10
140.337
 20
49.9678
 30
0.0
 11
137.036
 21
49.9678
 31
0.0
  0
LINE
  8
0
 62
     0
 10
137.036
 20
49.9678
 30
0.0
 11
137.036
 21
64.1685
 31
0.0
  0
LINE
  8
0
 62
     0
 10
160.836
 20
64.1685
 30
0.0
 11
164.137
 21
64.1685
 31
0.0
  0
LINE
  8
0
 62
     0
 10
164.137
 20
64.1685
 30
0.0
 11
164.137
 21
49.9678
 31
0.0
  0
LINE
  8
0
 62
     0
 10
164.137
 20
49.9678
 30
0.0
 11
160.836
 21
49.9678
 31
0.0
  0
LINE
  8
0
 62
     0
 10
160.836
 20
49.9678
 30
0.0
 11
160.836
 21
64.1685
 31
0.0
  0
LINE
  8
0
 62
     0
 10
17.3812
 20
64.7181
 30
0.0
 11
31.3807
 21
64.7181
 31
0.0
  0
LINE
  8
0
 62
     0
 10
31.3807
 20
64.7181
 30
0.0
 11
31.3807
 21
50.7189
 31
0.0
  0
LINE
  8
0
 62
     0
 10
31.3807
 20
50.7189
 30
0.0
 11
17.3812
 21
50.7189
 31
0.0
  0
LINE
  8
0
 62
     0
 10
17.3812
 20
50.7189
 30
0.0
 11
17.3812
 21
64.7181
 31
0.0
  0
LINE
  8
0
 62
     0
 10
36.4314
 20
64.7181
 30
0.0
 11
50.4306
 21
64.7181
 31
0.0
  0
LINE
  8
0
 62
     0
 10
50.4306
 20
64.7181
 30
0.0
 11
50.4306
 21
50.7189
 31
0.0
  0
LINE
  8
0
 62
     0
 10
50.4306
 20
50.7189
 30
0.0
 11
36.4314
 21
50.7189
 31
0.0
  0
LINE
  8
0
 62
     0
 10
36.4314
 20
50.7189
 30
0.0
 11
36.4314
 21
64.7181
 31
0.0
  0
LINE
  8
0
 62
     0
 10
55.4814
 20
64.7181
 30
0.0
 11
69.4806
 21
64.7181
 31
0.0
  0
LINE
  8
0
 62
     0
 10
69.4806
 20
64.7181
 30
0.0
 11
69.4806
 21
50.7189
 31
0.0
  0
LINE
  8
0
 62
     0
 10
69.4806
 20
50.7189
 30
0.0
 11
55.4814
 21
50.7189
 31
0.0
  0
LINE
  8
0
 62
     0
 10
55.4814
 20
50.7189
 30
0.0
 11
55.4814
 21
64.7181
 31
0.0
  0
LINE
  8
0
 62
     0
 10
74.5314
 20
64.7181
 30
0.0
 11
88.5306
 21
64.7181
 31
0.0
  0
LINE
  8
0
 62
     0
 10
88.5306
 20
64.7181
 30
0.0
 11
88.5306
 21
50.7189
 31
0.0
  0
LINE
  8
0
 62
     0
 10
88.5306
 20
50.7189
 30
0.0
 11
74.5314
 21
50.7189
 31
0.0
  0
LINE
  8
0
 62
     0
 10
74.5314
 20
50.7189
 30
0.0
 11
74.5314
 21
64.7181
 31
0.0
  0
LINE
  8
0
 62
     0
 10
93.5814
 20
64.7181
 30
0.0
 11
107.581
 21
64.7181
 31
0.0
  0
LINE
  8
0
 62
     0
 10
107.581
 20
64.7181
 30
0.0
 11
107.581
 21
50.7189
 31
0.0
  0
LINE
  8
0
 62
     0
 10
107.581
 20
50.7189
 30
0.0
 11
93.5814
 21
50.7189
 31
0.0
  0
LINE
  8
0
 62
     0
 10
93.5814
 20
50.7189
 30
0.0
 11
93.5814
 21
64.7181
 31
0.0
  0
LINE
  8
0
 62
     0
 10
112.631
 20
64.7181
 30
0.0
 11
126.631
 21
64.7181
 31
0.0
  0
LINE
  8
0
 62
     0
 10
126.631
 20
64.7181
 30
0.0
 11
126.631
 21
50.7189
 31
0.0
  0
LINE
  8
0
 62
     0
 10
126.631
 20
50.7189
 30
0.0
 11
112.631
 21
50.7189
 31
0.0
  0
LINE
  8
0
 62
     0
 10
112.631
 20
50.7189
 30
0.0
 11
112.631
 21
64.7181
 31
0.0
  0
LINE
  8
0
 62
     0
 10
143.586
 20
64.7181
 30
0.0
 11
157.587
 21
64.7181
 31
0.0
  0
LINE
  8
0
 62
     0
 10
157.587
 20
64.7181
 30
0.0
 11
157.587
 21
50.7189
 31
0.0
  0
LINE
  8
0
 62
     0
 10
157.587
 20
50.7189
 30
0.0
 11
143.586
 21
50.7189
 31
0.0
  0
LINE
  8
0
 62
     0
 10
143.586
 20
50.7189
 30
0.0
 11
143.586
 21
64.7181
 31
0.0
  0
LINE
  8
0
 62
     0
 10
184.069
 20
64.7181
 30
0.0
 11
198.068
 21
64.7181
 31
0.0
  0
LINE
  8
0
 62
     0
 10
198.068
 20
64.7181
 30
0.0
 11
198.068
 21
50.7189
 31
0.0
  0
LINE
  8
0
 62
     0
 10
198.068
 20
50.7189
 30
0.0
 11
184.069
 21
50.7189
 31
0.0
  0
LINE
  8
0
 62
     0
 10
184.069
 20
50.7189
 30
0.0
 11
184.069
 21
64.7181
 31
0.0
  0
LINE
  8
0
 62
     0
 10
203.119
 20
64.7181
 30
0.0
 11
217.118
 21
64.7181
 31
0.0
  0
LINE
  8
0
 62
     0
 10
217.118
 20
64.7181
 30
0.0
 11
217.118
 21
50.7189
 31
0.0
  0
LINE
  8
0
 62
     0
 10
217.118
 20
50.7189
 30
0.0
 11
203.119
 21
50.7189
 31
0.0
  0
LINE
  8
0
 62
     0
 10
203.119
 20
50.7189
 30
0.0
 11
203.119
 21
64.7181
 31
0.0
  0
LINE
  8
0
 62
     0
 10
222.169
 20
64.7181
 30
0.0
 11
236.168
 21
64.7181
 31
0.0
  0
LINE
  8
0
 62
     0
 10
236.168
 20
64.7181
 30
0.0
 11
236.168
 21
50.7189
 31
0.0
  0
LINE
  8
0
 62
     0
 10
236.168
 20
50.7189
 30
0.0
 11
222.169
 21
50.7189
 31
0.0
  0
LINE
  8
0
 62
     0
 10
222.169
 20
50.7189
 30
0.0
 11
222.169
 21
64.7181
 31
0.0
  0
LINE
  8
0
 62
     0
 10
12.6187
 20
83.7681
 30
0.0
 11
26.6182
 21
83.7681
 31
0.0
  0
LINE
  8
0
 62
     0
 10
26.6182
 20
83.7681
 30
0.0
 11
26.6182
 21
69.7689
 31
0.0
  0
LINE
  8
0
 62
     0
 10
26.6182
 20
69.7689
 30
0.0
 11
12.6187
 21
69.7689
 31
0.0
  0
LINE
  8
0
 62
     0
 10
12.6187
 20
69.7689
 30
0.0
 11
12.6187
 21
83.7681
 31
0.0
  0
LINE
  8
0
 62
     0
 10
31.6687
 20
83.7681
 30
0.0
 11
45.6681
 21
83.7681
 31
0.0
  0
LINE
  8
0
 62
     0
 10
45.6681
 20
83.7681
 30
0.0
 11
45.6681
 21
69.7689
 31
0.0
  0
LINE
  8
0
 62
     0
 10
45.6681
 20
69.7689
 30
0.0
 11
31.6687
 21
69.7689
 31
0.0
  0
LINE
  8
0
 62
     0
 10
31.6687
 20
69.7689
 30
0.0
 11
31.6687
 21
83.7681
 31
0.0
  0
LINE
  8
0
 62
     0
 10
50.7189
 20
83.7681
 30
0.0
 11
64.7181
 21
83.7681
 31
0.0
  0
LINE
  8
0
 62
     0
 10
64.7181
 20
83.7681
 30
0.0
 11
64.7181
 21
69.7689
 31
0.0
  0
LINE
  8
0
 62
     0
 10
64.7181
 20
69.7689
 30
0.0
 11
50.7189
 21
69.7689
 31
0.0
  0
LINE
  8
0
 62
     0
 10
50.7189
 20
69.7689
 30
0.0
 11
50.7189
 21
83.7681
 31
0.0
  0
LINE
  8
0
 62
     0
 10
69.7689
 20
83.7681
 30
0.0
 11
83.7681
 21
83.7681
 31
0.0
  0
LINE
  8
0
 62
     0
 10
83.7681
 20
83.7681
 30
0.0
 11
83.7681
 21
69.7689
 31
0.0
  0
LINE
  8
0
 62
     0
 10
83.7681
 20
69.7689
 30
0.0
 11
69.7689
 21
69.7689
 31
0.0
  0
LINE
  8
0
 62
     0
 10
69.7689
 20
69.7689
 30
0.0
 11
69.7689
 21
83.7681
 31
0.0
  0
LINE
  8
0
 62
     0
 10
88.8189
 20
83.7681
 30
0.0
 11
102.818
 21
83.7681
 31
0.0
  0
LINE
  8
0
 62
     0
 10
102.818
 20
83.7681
 30
0.0
 11
102.818
 21
69.7689
 31
0.0
  0
LINE
  8
0
 62
     0
 10
102.818
 20
69.7689
 30
0.0
 11
88.8189
 21
69.7689
 31
0.0
  0
LINE
  8
0
 62
     0
 10
88.8189
 20
69.7689
 30
0.0
 11
88.8189
 21
83.7681
 31
0.0
  0
LINE
  8
0
 62
     0
 10
107.867
 20
83.7681
 30
0.0
 11
121.868
 21
83.7681
 31
0.0
  0
LINE
  8
0
 62
     0
 10
121.868
 20
83.7681
 30
0.0
 11
121.868
 21
69.7689
 31
0.0
  0
LINE
  8
0
 62
     0
 10
121.868
 20
69.7689
 30
0.0
 11
107.867
 21
69.7689
 31
0.0
  0
LINE
  8
0
 62
     0
 10
107.867
 20
69.7689
 30
0.0
 11
107.867
 21
83.7681
 31
0.0
  0
LINE
  8
0
 62
     0
 10
126.919
 20
83.7681
 30
0.0
 11
140.918
 21
83.7681
 31
0.0
  0
LINE
  8
0
 62
     0
 10
140.918
 20
83.7681
 30
0.0
 11
140.918
 21
69.7689
 31
0.0
  0
LINE
  8
0
 62
     0
 10
140.918
 20
69.7689
 30
0.0
 11
126.919
 21
69.7689
 31
0.0
  0
LINE
  8
0
 62
     0
 10
126.919
 20
69.7689
 30
0.0
 11
126.919
 21
83.7681
 31
0.0
  0
LINE
  8
0
 62
     0
 10
150.731
 20
83.7681
 30
0.0
 11
164.731
 21
83.7681
 31
0.0
  0
LINE
  8
0
 62
     0
 10
164.731
 20
83.7681
 30
0.0
 11
164.731
 21
69.7689
 31
0.0
  0
LINE
  8
0
 62
     0
 10
164.731
 20
69.7689
 30
0.0
 11
150.731
 21
69.7689
 31
0.0
  0
LINE
  8
0
 62
     0
 10
150.731
 20
69.7689
 30
0.0
 11
150.731
 21
83.7681
 31
0.0
  0
LINE
  8
0
 62
     0
 10
184.069
 20
83.7681
 30
0.0
 11
198.068
 21
83.7681
 31
0.0
  0
LINE
  8
0
 62
     0
 10
198.068
 20
83.7681
 30
0.0
 11
198.068
 21
69.7689
 31
0.0
  0
LINE
  8
0
 62
     0
 10
198.068
 20
69.7689
 30
0.0
 11
184.069
 21
69.7689
 31
0.0
  0
LINE
  8
0
 62
     0
 10
184.069
 20
69.7689
 30
0.0
 11
184.069
 21
83.7681
 31
0.0
  0
LINE
  8
0
 62
     0
 10
203.119
 20
83.7681
 30
0.0
 11
217.118
 21
83.7681
 31
0.0
  0
LINE
  8
0
 62
     0
 10
217.118
 20
83.7681
 30
0.0
 11
217.118
 21
69.7689
 31
0.0
  0
LINE
  8
0
 62
     0
 10
217.118
 20
69.7689
 30
0.0
 11
203.119
 21
69.7689
 31
0.0
  0
LINE
  8
0
 62
     0
 10
203.119
 20
69.7689
 30
0.0
 11
203.119
 21
83.7681
 31
0.0
  0
LINE
  8
0
 62
     0
 10
222.169
 20
83.7681
 30
0.0
 11
236.168
 21
83.7681
 31
0.0
  0
LINE
  8
0
 62
     0
 10
236.168
 20
83.7681
 30
0.0
 11
236.168
 21
69.7689
 31
0.0
  0
LINE
  8
0
 62
     0
 10
236.168
 20
69.7689
 30
0.0
 11
222.169
 21
69.7689
 31
0.0
  0
LINE
  8
0
 62
     0
 10
222.169
 20
69.7689
 30
0.0
 11
222.169
 21
83.7681
 31
0.0
  0
LINE
  8
0
 62
     0
 10
139.419
 20
102.269
 30
0.0
 11
142.719
 21
102.269
 31
0.0
  0
LINE
  8
0
 62
     0
 10
142.719
 20
102.269
 30
0.0
 11
142.719
 21
88.0678
 31
0.0
  0
LINE
  8
0
 62
     0
 10
142.719
 20
88.0678
 30
0.0
 11
139.419
 21
88.0678
 31
0.0
  0
LINE
  8
0
 62
     0
 10
139.419
 20
88.0678
 30
0.0
 11
139.419
 21
102.269
 31
0.0
  0
LINE
  8
0
 62
     0
 10
163.219
 20
102.269
 30
0.0
 11
166.519
 21
102.269
 31
0.0
  0
LINE
  8
0
 62
     0
 10
166.519
 20
102.269
 30
0.0
 11
166.519
 21
88.0678
 31
0.0
  0
LINE
  8
0
 62
     0
 10
166.519
 20
88.0678
 30
0.0
 11
163.219
 21
88.0678
 31
0.0
  0
LINE
  8
0
 62
     0
 10
163.219
 20
88.0678
 30
0.0
 11
163.219
 21
102.269
 31
0.0
  0
LINE
  8
0
 62
     0
 10
22.1423
 20
102.818
 30
0.0
 11
36.1431
 21
102.818
 31
0.0
  0
LINE
  8
0
 62
     0
 10
36.1431
 20
102.818
 30
0.0
 11
36.1431
 21
88.8189
 31
0.0
  0
LINE
  8
0
 62
     0
 10
36.1431
 20
88.8189
 30
0.0
 11
22.1423
 21
88.8189
 31
0.0
  0
LINE
  8
0
 62
     0
 10
22.1423
 20
88.8189
 30
0.0
 11
22.1423
 21
102.818
 31
0.0
  0
LINE
  8
0
 62
     0
 10
41.1924
 20
102.818
 30
0.0
 11
55.1931
 21
102.818
 31
0.0
  0
LINE
  8
0
 62
     0
 10
55.1931
 20
102.818
 30
0.0
 11
55.1931
 21
88.8189
 31
0.0
  0
LINE
  8
0
 62
     0
 10
55.1931
 20
88.8189
 30
0.0
 11
41.1924
 21
88.8189
 31
0.0
  0
LINE
  8
0
 62
     0
 10
41.1924
 20
88.8189
 30
0.0
 11
41.1924
 21
102.818
 31
0.0
  0
LINE
  8
0
 62
     0
 10
60.2425
 20
102.818
 30
0.0
 11
74.2431
 21
102.818
 31
0.0
  0
LINE
  8
0
 62
     0
 10
74.2431
 20
102.818
 30
0.0
 11
74.2431
 21
88.8189
 31
0.0
  0
LINE
  8
0
 62
     0
 10
74.2431
 20
88.8189
 30
0.0
 11
60.2425
 21
88.8189
 31
0.0
  0
LINE
  8
0
 62
     0
 10
60.2425
 20
88.8189
 30
0.0
 11
60.2425
 21
102.818
 31
0.0
  0
LINE
  8
0
 62
     0
 10
79.2925
 20
102.818
 30
0.0
 11
93.2931
 21
102.818
 31
0.0
  0
LINE
  8
0
 62
     0
 10
93.2931
 20
102.818
 30
0.0
 11
93.2931
 21
88.8189
 31
0.0
  0
LINE
  8
0
 62
     0
 10
93.2931
 20
88.8189
 30
0.0
 11
79.2925
 21
88.8189
 31
0.0
  0
LINE
  8
0
 62
     0
 10
79.2925
 20
88.8189
 30
0.0
 11
79.2925
 21
102.818
 31
0.0
  0
LINE
  8
0
 62
     0
 10
98.3424
 20
102.818
 30
0.0
 11
112.343
 21
102.818
 31
0.0
  0
LINE
  8
0
 62
     0
 10
112.343
 20
102.818
 30
0.0
 11
112.343
 21
88.8189
 31
0.0
  0
LINE
  8
0
 62
     0
 10
112.343
 20
88.8189
 30
0.0
 11
98.3424
 21
88.8189
 31
0.0
  0
LINE
  8
0
 62
     0
 10
98.3424
 20
88.8189
 30
0.0
 11
98.3424
 21
102.818
 31
0.0
  0
LINE
  8
0
 62
     0
 10
117.392
 20
102.818
 30
0.0
 11
131.393
 21
102.818
 31
0.0
  0
LINE
  8
0
 62
     0
 10
131.393
 20
102.818
 30
0.0
 11
131.393
 21
88.8189
 31
0.0
  0
LINE
  8
0
 62
     0
 10
131.393
 20
88.8189
 30
0.0
 11
117.392
 21
88.8189
 31
0.0
  0
LINE
  8
0
 62
     0
 10
117.392
 20
88.8189
 30
0.0
 11
117.392
 21
102.818
 31
0.0
  0
LINE
  8
0
 62
     0
 10
145.969
 20
102.818
 30
0.0
 11
159.968
 21
102.818
 31
0.0
  0
LINE
  8
0
 62
     0
 10
159.968
 20
102.818
 30
0.0
 11
159.968
 21
88.8189
 31
0.0
  0
LINE
  8
0
 62
     0
 10
159.968
 20
88.8189
 30
0.0
 11
145.969
 21
88.8189
 31
0.0
  0
LINE
  8
0
 62
     0
 10
145.969
 20
88.8189
 30
0.0
 11
145.969
 21
102.818
 31
0.0
  0
LINE
  8
0
 62
     0
 10
184.069
 20
102.818
 30
0.0
 11
198.068
 21
102.818
 31
0.0
  0
LINE
  8
0
 62
     0
 10
198.068
 20
102.818
 30
0.0
 11
198.068
 21
88.8189
 31
0.0
  0
LINE
  8
0
 62
     0
 10
198.068
 20
88.8189
 30
0.0
 11
184.069
 21
88.8189
 31
0.0
  0
LINE
  8
0
 62
     0
 10
184.069
 20
88.8189
 30
0.0
 11
184.069
 21
102.818
 31
0.0
  0
LINE
  8
0
 62
     0
 10
203.119
 20
102.818
 30
0.0
 11
217.118
 21
102.818
 31
0.0
  0
LINE
  8
0
 62
     0
 10
217.118
 20
102.818
 30
0.0
 11
217.118
 21
88.8189
 31
0.0
  0
LINE
  8
0
 62
     0
 10
217.118
 20
88.8189
 30
0.0
 11
203.119
 21
88.8189
 31
0.0
  0
LINE
  8
0
 62
     0
 10
203.119
 20
88.8189
 30
0.0
 11
203.119
 21
102.818
 31
0.0
  0
LINE
  8
0
 62
     0
 10
222.169
 20
102.818
 30
0.0
 11
236.168
 21
102.818
 31
0.0
  0
LINE
  8
0
 62
     0
 10
236.168
 20
102.818
 30
0.0
 11
236.168
 21
88.8189
 31
0.0
  0
LINE
  8
0
 62
     0
 10
236.168
 20
88.8189
 30
0.0
 11
222.169
 21
88.8189
 31
0.0
  0
LINE
  8
0
 62
     0
 10
222.169
 20
88.8189
 30
0.0
 11
222.169
 21
102.818
 31
0.0
  0
LINE
  8
0
 62
     0
 10
83.7985
 20
112.866
 30
0.0
 11
83.3533
 21
112.638
 31
0.0
  0
LINE
  8
0
 62
     0
 10
83.3533
 20
112.638
 30
0.0
 11
82.9991
 21
112.285
 31
0.0
  0
LINE
  8
0
 62
     0
 10
82.9991
 20
112.285
 30
0.0
 11
82.7719
 21
111.838
 31
0.0
  0
LINE
  8
0
 62
     0
 10
82.7719
 20
111.838
 30
0.0
 11
82.6932
 21
111.344
 31
0.0
  0
LINE
  8
0
 62
     0
 10
82.6932
 20
111.344
 30
0.0
 11
82.7719
 21
110.849
 31
0.0
  0
LINE
  8
0
 62
     0
 10
82.7719
 20
110.849
 30
0.0
 11
82.9991
 21
110.403
 31
0.0
  0
LINE
  8
0
 62
     0
 10
82.9991
 20
110.403
 30
0.0
 11
83.3533
 21
110.05
 31
0.0
  0
LINE
  8
0
 62
     0
 10
83.3533
 20
110.05
 30
0.0
 11
83.7985
 21
109.823
 31
0.0
  0
LINE
  8
0
 62
     0
 10
83.7985
 20
109.823
 30
0.0
 11
84.2931
 21
109.743
 31
0.0
  0
LINE
  8
0
 62
     0
 10
84.2931
 20
109.743
 30
0.0
 11
84.788
 21
109.823
 31
0.0
  0
LINE
  8
0
 62
     0
 10
84.788
 20
109.823
 30
0.0
 11
85.2343
 21
110.05
 31
0.0
  0
LINE
  8
0
 62
     0
 10
85.2343
 20
110.05
 30
0.0
 11
85.5871
 21
110.403
 31
0.0
  0
LINE
  8
0
 62
     0
 10
85.5871
 20
110.403
 30
0.0
 11
85.816
 21
110.849
 31
0.0
  0
LINE
  8
0
 62
     0
 10
85.816
 20
110.849
 30
0.0
 11
85.8933
 21
111.344
 31
0.0
  0
LINE
  8
0
 62
     0
 10
85.8933
 20
111.344
 30
0.0
 11
85.816
 21
111.838
 31
0.0
  0
LINE
  8
0
 62
     0
 10
85.816
 20
111.838
 30
0.0
 11
85.5871
 21
112.285
 31
0.0
  0
LINE
  8
0
 62
     0
 10
85.5871
 20
112.285
 30
0.0
 11
85.2343
 21
112.638
 31
0.0
  0
LINE
  8
0
 62
     0
 10
85.2343
 20
112.638
 30
0.0
 11
84.788
 21
112.866
 31
0.0
  0
LINE
  8
0
 62
     0
 10
84.788
 20
112.866
 30
0.0
 11
84.2931
 21
112.944
 31
0.0
  0
LINE
  8
0
 62
     0
 10
84.2931
 20
112.944
 30
0.0
 11
83.7985
 21
112.866
 31
0.0
  0
LINE
  8
0
 62
     0
 10
164
 20
112.866
 30
0.0
 11
163.554
 21
112.638
 31
0.0
  0
LINE
  8
0
 62
     0
 10
163.554
 20
112.638
 30
0.0
 11
163.2
 21
112.285
 31
0.0
  0
LINE
  8
0
 62
     0
 10
163.2
 20
112.285
 30
0.0
 11
162.972
 21
111.838
 31
0.0
  0
LINE
  8
0
 62
     0
 10
162.972
 20
111.838
 30
0.0
 11
162.894
 21
111.344
 31
0.0
  0
LINE
  8
0
 62
     0
 10
162.894
 20
111.344
 30
0.0
 11
162.972
 21
110.849
 31
0.0
  0
LINE
  8
0
 62
     0
 10
162.972
 20
110.849
 30
0.0
 11
163.2
 21
110.403
 31
0.0
  0
LINE
  8
0
 62
     0
 10
163.2
 20
110.403
 30
0.0
 11
163.554
 21
110.05
 31
0.0
  0
LINE
  8
0
 62
     0
 10
163.554
 20
110.05
 30
0.0
 11
164
 21
109.823
 31
0.0
  0
LINE
  8
0
 62
     0
 10
164
 20
109.823
 30
0.0
 11
164.494
 21
109.743
 31
0.0
  0
LINE
  8
0
 62
     0
 10
164.494
 20
109.743
 30
0.0
 11
164.989
 21
109.823
 31
0.0
  0
LINE
  8
0
 62
     0
 10
164.989
 20
109.823
 30
0.0
 11
165.435
 21
110.05
 31
0.0
  0
LINE
  8
0
 62
     0
 10
165.435
 20
110.05
 30
0.0
 11
165.789
 21
110.403
 31
0.0
  0
LINE
  8
0
 62
     0
 10
165.789
 20
110.403
 30
0.0
 11
166.017
 21
110.849
 31
0.0
  0
LINE
  8
0
 62
     0
 10
166.017
 20
110.849
 30
0.0
 11
166.093
 21
111.344
 31
0.0
  0
LINE
  8
0
 62
     0
 10
166.093
 20
111.344
 30
0.0
 11
166.017
 21
111.838
 31
0.0
  0
LINE
  8
0
 62
     0
 10
166.017
 20
111.838
 30
0.0
 11
165.789
 21
112.285
 31
0.0
  0
LINE
  8
0
 62
     0
 10
165.789
 20
112.285
 30
0.0
 11
165.435
 21
112.638
 31
0.0
  0
LINE
  8
0
 62
     0
 10
165.435
 20
112.638
 30
0.0
 11
164.989
 21
112.866
 31
0.0
  0
LINE
  8
0
 62
     0
 10
164.989
 20
112.866
 30
0.0
 11
164.494
 21
112.944
 31
0.0
  0
LINE
  8
0
 62
     0
 10
164.494
 20
112.944
 30
0.0
 11
164
 21
112.866
 31
0.0
  0
LINE
  8
0
 62
     0
 10
244.199
 20
112.866
 30
0.0
 11
243.754
 21
112.638
 31
0.0
  0
LINE
  8
0
 62
     0
 10
243.754
 20
112.638
 30
0.0
 11
243.4
 21
112.285
 31
0.0
  0
LINE
  8
0
 62
     0
 10
243.4
 20
112.285
 30
0.0
 11
243.173
 21
111.838
 31
0.0
  0
LINE
  8
0
 62
     0
 10
243.173
 20
111.838
 30
0.0
 11
243.094
 21
111.344
 31
0.0
  0
LINE
  8
0
 62
     0
 10
243.094
 20
111.344
 30
0.0
 11
243.173
 21
110.849
 31
0.0
  0
LINE
  8
0
 62
     0
 10
243.173
 20
110.849
 30
0.0
 11
243.4
 21
110.403
 31
0.0
  0
LINE
  8
0
 62
     0
 10
243.4
 20
110.403
 30
0.0
 11
243.754
 21
110.05
 31
0.0
  0
LINE
  8
0
 62
     0
 10
243.754
 20
110.05
 30
0.0
 11
244.199
 21
109.823
 31
0.0
  0
LINE
  8
0
 62
     0
 10
244.199
 20
109.823
 30
0.0
 11
244.694
 21
109.743
 31
0.0
  0
LINE
  8
0
 62
     0
 10
244.694
 20
109.743
 30
0.0
 11
245.189
 21
109.823
 31
0.0
  0
LINE
  8
0
 62
     0
 10
245.189
 20
109.823
 30
0.0
 11
245.635
 21
110.05
 31
0.0
  0
LINE
  8
0
 62
     0
 10
245.635
 20
110.05
 30
0.0
 11
245.988
 21
110.403
 31
0.0
  0
LINE
  8
0
 62
     0
 10
245.988
 20
110.403
 30
0.0
 11
246.216
 21
110.849
 31
0.0
  0
LINE
  8
0
 62
     0
 10
246.216
 20
110.849
 30
0.0
 11
246.295
 21
111.344
 31
0.0
  0
LINE
  8
0
 62
     0
 10
246.295
 20
111.344
 30
0.0
 11
246.216
 21
111.838
 31
0.0
  0
LINE
  8
0
 62
     0
 10
246.216
 20
111.838
 30
0.0
 11
245.988
 21
112.285
 31
0.0
  0
LINE
  8
0
 62
     0
 10
245.988
 20
112.285
 30
0.0
 11
245.635
 21
112.638
 31
0.0
  0
LINE
  8
0
 62
     0
 10
245.635
 20
112.638
 30
0.0
 11
245.189
 21
112.866
 31
0.0
  0
LINE
  8
0
 62
     0
 10
245.189
 20
112.866
 30
0.0
 11
244.694
 21
112.944
 31
0.0
  0
LINE
  8
0
 62
     0
 10
244.694
 20
112.944
 30
0.0
 11
244.199
 21
112.866
 31
0.0
  0
LINE
  8
0
 62
     0
 10
3.59943
 20
112.866
 30
0.0
 11
3.15157
 21
112.638
 31
0.0
  0
LINE
  8
0
 62
     0
 10
3.15157
 20
112.638
 30
0.0
 11
2.79879
 21
112.285
 31
0.0
  0
LINE
  8
0
 62
     0
 10
2.79879
 20
112.285
 30
0.0
 11
2.57142
 21
111.838
 31
0.0
  0
LINE
  8
0
 62
     0
 10
2.57142
 20
111.838
 30
0.0
 11
2.49425
 21
111.344
 31
0.0
  0
LINE
  8
0
 62
     0
 10
2.49425
 20
111.344
 30
0.0
 11
2.57142
 21
110.849
 31
0.0
  0
LINE
  8
0
 62
     0
 10
2.57142
 20
110.849
 30
0.0
 11
2.79879
 21
110.403
 31
0.0
  0
LINE
  8
0
 62
     0
 10
2.79879
 20
110.403
 30
0.0
 11
3.15157
 21
110.05
 31
0.0
  0
LINE
  8
0
 62
     0
 10
3.15157
 20
110.05
 30
0.0
 11
3.59943
 21
109.823
 31
0.0
  0
LINE
  8
0
 62
     0
 10
3.59943
 20
109.823
 30
0.0
 11
4.09416
 21
109.743
 31
0.0
  0
LINE
  8
0
 62
     0
 10
4.09416
 20
109.743
 30
0.0
 11
4.58749
 21
109.823
 31
0.0
  0
LINE
  8
0
 62
     0
 10
4.58749
 20
109.823
 30
0.0
 11
5.03396
 21
110.05
 31
0.0
  0
LINE
  8
0
 62
     0
 10
5.03396
 20
110.05
 30
0.0
 11
5.38812
 21
110.403
 31
0.0
  0
LINE
  8
0
 62
     0
 10
5.38812
 20
110.403
 30
0.0
 11
5.61414
 21
110.849
 31
0.0
  0
LINE
  8
0
 62
     0
 10
5.61414
 20
110.849
 30
0.0
 11
5.69405
 21
111.344
 31
0.0
  0
LINE
  8
0
 62
     0
 10
5.69405
 20
111.344
 30
0.0
 11
5.61414
 21
111.838
 31
0.0
  0
LINE
  8
0
 62
     0
 10
5.61414
 20
111.838
 30
0.0
 11
5.38812
 21
112.285
 31
0.0
  0
LINE
  8
0
 62
     0
 10
5.38812
 20
112.285
 30
0.0
 11
5.03396
 21
112.638
 31
0.0
  0
LINE
  8
0
 62
     0
 10
5.03396
 20
112.638
 30
0.0
 11
4.58749
 21
112.866
 31
0.0
  0
LINE
  8
0
 62
     0
 10
4.58749
 20
112.866
 30
0.0
 11
4.09416
 21
112.944
 31
0.0
  0
LINE
  8
0
 62
     0
 10
4.09416
 20
112.944
 30
0.0
 11
3.59943
 21
112.866
 31
0.0
  0
ENDSEC
  0
EOF
