  0
SECTION
  2
HEADER
  9
$ACADVER
  1
AC1009
  9
$EXTMIN
 10
0.0
 20
0.0
 30
0.0
  9
$EXTMAX
 10
1000.0
 20
1000.0
 30
0.0
  9
$FILLMODE
 70
 0
  9
$SPLFRAME
 70
 1
  0
ENDSEC
  0
SECTION
  2
TABLES
  0
TABLE
  2
LAYER
 70
1
  0
LAYER
  2
0
 70
     0
 62
     7
  6
CONTINUOUS
  0
ENDTAB
  0
ENDSEC
  0
SECTION
  2
ENTITIES
  0
LINE
  8
0
 62
     0
 10
245.696
 20
115.342
 30
0.0
 11
245.93
 21
115.334
 31
0.0
  0
LINE
  8
0
 62
     0
 10
245.93
 20
115.334
 30
0.0
 11
246.164
 21
115.306
 31
0.0
  0
LINE
  8
0
 62
     0
 10
246.164
 20
115.306
 30
0.0
 11
246.396
 21
115.261
 31
0.0
  0
LINE
  8
0
 62
     0
 10
246.396
 20
115.261
 30
0.0
 11
246.623
 21
115.196
 31
0.0
  0
LINE
  8
0
 62
     0
 10
246.623
 20
115.196
 30
0.0
 11
246.844
 21
115.115
 31
0.0
  0
LINE
  8
0
 62
     0
 10
246.844
 20
115.115
 30
0.0
 11
247.056
 21
115.018
 31
0.0
  0
LINE
  8
0
 62
     0
 10
247.056
 20
115.018
 30
0.0
 11
247.263
 21
114.901
 31
0.0
  0
LINE
  8
0
 62
     0
 10
247.263
 20
114.901
 30
0.0
 11
247.458
 21
114.77
 31
0.0
  0
LINE
  8
0
 62
     0
 10
247.458
 20
114.77
 30
0.0
 11
247.643
 21
114.624
 31
0.0
  0
LINE
  8
0
 62
     0
 10
247.643
 20
114.624
 30
0.0
 11
247.817
 21
114.464
 31
0.0
  0
LINE
  8
0
 62
     0
 10
247.817
 20
114.464
 30
0.0
 11
247.977
 21
114.292
 31
0.0
  0
LINE
  8
0
 62
     0
 10
247.977
 20
114.292
 30
0.0
 11
248.123
 21
114.107
 31
0.0
  0
LINE
  8
0
 62
     0
 10
248.123
 20
114.107
 30
0.0
 11
248.252
 21
113.91
 31
0.0
  0
LINE
  8
0
 62
     0
 10
248.252
 20
113.91
 30
0.0
 11
248.369
 21
113.705
 31
0.0
  0
LINE
  8
0
 62
     0
 10
248.369
 20
113.705
 30
0.0
 11
248.467
 21
113.491
 31
0.0
  0
LINE
  8
0
 62
     0
 10
248.467
 20
113.491
 30
0.0
 11
248.549
 21
113.271
 31
0.0
  0
LINE
  8
0
 62
     0
 10
248.549
 20
113.271
 30
0.0
 11
248.613
 21
113.043
 31
0.0
  0
LINE
  8
0
 62
     0
 10
248.613
 20
113.043
 30
0.0
 11
248.659
 21
112.813
 31
0.0
  0
LINE
  8
0
 62
     0
 10
248.659
 20
112.813
 30
0.0
 11
248.686
 21
112.579
 31
0.0
  0
LINE
  8
0
 62
     0
 10
248.686
 20
112.579
 30
0.0
 11
248.696
 21
112.343
 31
0.0
  0
LINE
  8
0
 62
     0
 10
248.696
 20
112.343
 30
0.0
 11
248.696
 21
3.09232
 31
0.0
  0
LINE
  8
0
 62
     0
 10
248.696
 20
3.09232
 30
0.0
 11
248.686
 21
2.85667
 31
0.0
  0
LINE
  8
0
 62
     0
 10
248.686
 20
2.85667
 30
0.0
 11
248.659
 21
2.62241
 31
0.0
  0
LINE
  8
0
 62
     0
 10
248.659
 20
2.62241
 30
0.0
 11
248.613
 21
2.39227
 31
0.0
  0
LINE
  8
0
 62
     0
 10
248.613
 20
2.39227
 30
0.0
 11
248.549
 21
2.16352
 31
0.0
  0
LINE
  8
0
 62
     0
 10
248.549
 20
2.16352
 30
0.0
 11
248.467
 21
1.94303
 31
0.0
  0
LINE
  8
0
 62
     0
 10
248.467
 20
1.94303
 30
0.0
 11
248.369
 21
1.7322
 31
0.0
  0
LINE
  8
0
 62
     0
 10
248.369
 20
1.7322
 30
0.0
 11
248.252
 21
1.52549
 31
0.0
  0
LINE
  8
0
 62
     0
 10
248.252
 20
1.52549
 30
0.0
 11
248.123
 21
1.32843
 31
0.0
  0
LINE
  8
0
 62
     0
 10
248.123
 20
1.32843
 30
0.0
 11
247.977
 21
1.14515
 31
0.0
  0
LINE
  8
0
 62
     0
 10
247.977
 20
1.14515
 30
0.0
 11
247.817
 21
0.970139
 31
0.0
  0
LINE
  8
0
 62
     0
 10
247.817
 20
0.970139
 30
0.0
 11
247.643
 21
0.810288
 31
0.0
  0
LINE
  8
0
 62
     0
 10
247.643
 20
0.810288
 30
0.0
 11
247.458
 21
0.664214
 31
0.0
  0
LINE
  8
0
 62
     0
 10
247.458
 20
0.664214
 30
0.0
 11
247.263
 21
0.534681
 31
0.0
  0
LINE
  8
0
 62
     0
 10
247.263
 20
0.534681
 30
0.0
 11
247.056
 21
0.417544
 31
0.0
  0
LINE
  8
0
 62
     0
 10
247.056
 20
0.417544
 30
0.0
 11
246.844
 21
0.321083
 31
0.0
  0
LINE
  8
0
 62
     0
 10
246.844
 20
0.321083
 30
0.0
 11
246.623
 21
0.238401
 31
0.0
  0
LINE
  8
0
 62
     0
 10
246.623
 20
0.238401
 30
0.0
 11
246.396
 21
0.175011
 31
0.0
  0
LINE
  8
0
 62
     0
 10
246.396
 20
0.175011
 30
0.0
 11
246.164
 21
0.129536
 31
0.0
  0
LINE
  8
0
 62
     0
 10
246.164
 20
0.129536
 30
0.0
 11
245.93
 21
0.100597
 31
0.0
  0
LINE
  8
0
 62
     0
 10
245.93
 20
0.100597
 30
0.0
 11
245.696
 21
0.0909507
 31
0.0
  0
LINE
  8
0
 62
     0
 10
245.696
 20
0.0909507
 30
0.0
 11
3.09507
 21
0.0923286
 31
0.0
  0
LINE
  8
0
 62
     0
 10
3.09507
 20
0.0923286
 30
0.0
 11
2.85943
 21
0.100597
 31
0.0
  0
LINE
  8
0
 62
     0
 10
2.85943
 20
0.100597
 30
0.0
 11
2.62516
 21
0.129536
 31
0.0
  0
LINE
  8
0
 62
     0
 10
2.62516
 20
0.129536
 30
0.0
 11
2.39365
 21
0.175011
 31
0.0
  0
LINE
  8
0
 62
     0
 10
2.39365
 20
0.175011
 30
0.0
 11
2.16628
 21
0.238401
 31
0.0
  0
LINE
  8
0
 62
     0
 10
2.16628
 20
0.238401
 30
0.0
 11
1.94579
 21
0.321083
 31
0.0
  0
LINE
  8
0
 62
     0
 10
1.94579
 20
0.321083
 30
0.0
 11
1.7322
 21
0.417544
 31
0.0
  0
LINE
  8
0
 62
     0
 10
1.7322
 20
0.417544
 30
0.0
 11
1.52687
 21
0.534681
 31
0.0
  0
LINE
  8
0
 62
     0
 10
1.52687
 20
0.534681
 30
0.0
 11
1.33119
 21
0.664214
 31
0.0
  0
LINE
  8
0
 62
     0
 10
1.33119
 20
0.664214
 30
0.0
 11
1.14515
 21
0.810288
 31
0.0
  0
LINE
  8
0
 62
     0
 10
1.14515
 20
0.810288
 30
0.0
 11
0.972894
 21
0.970139
 31
0.0
  0
LINE
  8
0
 62
     0
 10
0.972894
 20
0.970139
 30
0.0
 11
0.813043
 21
1.14515
 31
0.0
  0
LINE
  8
0
 62
     0
 10
0.813043
 20
1.14515
 30
0.0
 11
0.666972
 21
1.32843
 31
0.0
  0
LINE
  8
0
 62
     0
 10
0.666972
 20
1.32843
 30
0.0
 11
0.537436
 21
1.52549
 31
0.0
  0
LINE
  8
0
 62
     0
 10
0.537436
 20
1.52549
 30
0.0
 11
0.420303
 21
1.7322
 31
0.0
  0
LINE
  8
0
 62
     0
 10
0.420303
 20
1.7322
 30
0.0
 11
0.322461
 21
1.94303
 31
0.0
  0
LINE
  8
0
 62
     0
 10
0.322461
 20
1.94303
 30
0.0
 11
0.241157
 21
2.16352
 31
0.0
  0
LINE
  8
0
 62
     0
 10
0.241157
 20
2.16352
 30
0.0
 11
0.176389
 21
2.39227
 31
0.0
  0
LINE
  8
0
 62
     0
 10
0.176389
 20
2.39227
 30
0.0
 11
0.130914
 21
2.62241
 31
0.0
  0
LINE
  8
0
 62
     0
 10
0.130914
 20
2.62241
 30
0.0
 11
0.103353
 21
2.85667
 31
0.0
  0
LINE
  8
0
 62
     0
 10
0.103353
 20
2.85667
 30
0.0
 11
0.0937066
 21
3.09232
 31
0.0
  0
LINE
  8
0
 62
     0
 10
0.0937066
 20
3.09232
 30
0.0
 11
0.0950846
 21
112.343
 31
0.0
  0
LINE
  8
0
 62
     0
 10
0.0950846
 20
112.343
 30
0.0
 11
0.103353
 21
112.579
 31
0.0
  0
LINE
  8
0
 62
     0
 10
0.103353
 20
112.579
 30
0.0
 11
0.130914
 21
112.813
 31
0.0
  0
LINE
  8
0
 62
     0
 10
0.130914
 20
112.813
 30
0.0
 11
0.176389
 21
113.043
 31
0.0
  0
LINE
  8
0
 62
     0
 10
0.176389
 20
113.043
 30
0.0
 11
0.241157
 21
113.271
 31
0.0
  0
LINE
  8
0
 62
     0
 10
0.241157
 20
113.271
 30
0.0
 11
0.322461
 21
113.491
 31
0.0
  0
LINE
  8
0
 62
     0
 10
0.322461
 20
113.491
 30
0.0
 11
0.420303
 21
113.705
 31
0.0
  0
LINE
  8
0
 62
     0
 10
0.420303
 20
113.705
 30
0.0
 11
0.537436
 21
113.91
 31
0.0
  0
LINE
  8
0
 62
     0
 10
0.537436
 20
113.91
 30
0.0
 11
0.666972
 21
114.107
 31
0.0
  0
LINE
  8
0
 62
     0
 10
0.666972
 20
114.107
 30
0.0
 11
0.813043
 21
114.292
 31
0.0
  0
LINE
  8
0
 62
     0
 10
0.813043
 20
114.292
 30
0.0
 11
0.972894
 21
114.464
 31
0.0
  0
LINE
  8
0
 62
     0
 10
0.972894
 20
114.464
 30
0.0
 11
1.14515
 21
114.624
 31
0.0
  0
LINE
  8
0
 62
     0
 10
1.14515
 20
114.624
 30
0.0
 11
1.33119
 21
114.77
 31
0.0
  0
LINE
  8
0
 62
     0
 10
1.33119
 20
114.77
 30
0.0
 11
1.52687
 21
114.901
 31
0.0
  0
LINE
  8
0
 62
     0
 10
1.52687
 20
114.901
 30
0.0
 11
1.7322
 21
115.018
 31
0.0
  0
LINE
  8
0
 62
     0
 10
1.7322
 20
115.018
 30
0.0
 11
1.94579
 21
115.115
 31
0.0
  0
LINE
  8
0
 62
     0
 10
1.94579
 20
115.115
 30
0.0
 11
2.16628
 21
115.196
 31
0.0
  0
LINE
  8
0
 62
     0
 10
2.16628
 20
115.196
 30
0.0
 11
2.39365
 21
115.261
 31
0.0
  0
LINE
  8
0
 62
     0
 10
2.39365
 20
115.261
 30
0.0
 11
2.62516
 21
115.306
 31
0.0
  0
LINE
  8
0
 62
     0
 10
2.62516
 20
115.306
 30
0.0
 11
2.85943
 21
115.334
 31
0.0
  0
LINE
  8
0
 62
     0
 10
2.85943
 20
115.334
 30
0.0
 11
3.09507
 21
115.343
 31
0.0
  0
LINE
  8
0
 62
     0
 10
3.09507
 20
115.343
 30
0.0
 11
245.696
 21
115.342
 31
0.0
  0
LINE
  8
0
 62
     0
 10
244.201
 20
5.61277
 30
0.0
 11
243.754
 21
5.38674
 31
0.0
  0
LINE
  8
0
 62
     0
 10
243.754
 20
5.38674
 30
0.0
 11
243.4
 21
5.03259
 31
0.0
  0
LINE
  8
0
 62
     0
 10
243.4
 20
5.03259
 30
0.0
 11
243.174
 21
4.58611
 31
0.0
  0
LINE
  8
0
 62
     0
 10
243.174
 20
4.58611
 30
0.0
 11
243.096
 21
4.09279
 31
0.0
  0
LINE
  8
0
 62
     0
 10
243.096
 20
4.09279
 30
0.0
 11
243.174
 21
3.59805
 31
0.0
  0
LINE
  8
0
 62
     0
 10
243.174
 20
3.59805
 30
0.0
 11
243.4
 21
3.15157
 31
0.0
  0
LINE
  8
0
 62
     0
 10
243.4
 20
3.15157
 30
0.0
 11
243.754
 21
2.79742
 31
0.0
  0
LINE
  8
0
 62
     0
 10
243.754
 20
2.79742
 30
0.0
 11
244.201
 21
2.57004
 31
0.0
  0
LINE
  8
0
 62
     0
 10
244.201
 20
2.57004
 30
0.0
 11
244.695
 21
2.49149
 31
0.0
  0
LINE
  8
0
 62
     0
 10
244.695
 20
2.49149
 30
0.0
 11
245.19
 21
2.57004
 31
0.0
  0
LINE
  8
0
 62
     0
 10
245.19
 20
2.57004
 30
0.0
 11
245.635
 21
2.79742
 31
0.0
  0
LINE
  8
0
 62
     0
 10
245.635
 20
2.79742
 30
0.0
 11
245.989
 21
3.15157
 31
0.0
  0
LINE
  8
0
 62
     0
 10
245.989
 20
3.15157
 30
0.0
 11
246.217
 21
3.59805
 31
0.0
  0
LINE
  8
0
 62
     0
 10
246.217
 20
3.59805
 30
0.0
 11
246.295
 21
4.09279
 31
0.0
  0
LINE
  8
0
 62
     0
 10
246.295
 20
4.09279
 30
0.0
 11
246.217
 21
4.58611
 31
0.0
  0
LINE
  8
0
 62
     0
 10
246.217
 20
4.58611
 30
0.0
 11
245.989
 21
5.03259
 31
0.0
  0
LINE
  8
0
 62
     0
 10
245.989
 20
5.03259
 30
0.0
 11
245.635
 21
5.38674
 31
0.0
  0
LINE
  8
0
 62
     0
 10
245.635
 20
5.38674
 30
0.0
 11
245.19
 21
5.61277
 31
0.0
  0
LINE
  8
0
 62
     0
 10
245.19
 20
5.61277
 30
0.0
 11
244.695
 21
5.69129
 31
0.0
  0
LINE
  8
0
 62
     0
 10
244.695
 20
5.69129
 30
0.0
 11
244.201
 21
5.61277
 31
0.0
  0
LINE
  8
0
 62
     0
 10
164
 20
5.61277
 30
0.0
 11
163.555
 21
5.38674
 31
0.0
  0
LINE
  8
0
 62
     0
 10
163.555
 20
5.38674
 30
0.0
 11
163.201
 21
5.03259
 31
0.0
  0
LINE
  8
0
 62
     0
 10
163.201
 20
5.03259
 30
0.0
 11
162.972
 21
4.58611
 31
0.0
  0
LINE
  8
0
 62
     0
 10
162.972
 20
4.58611
 30
0.0
 11
162.895
 21
4.09279
 31
0.0
  0
LINE
  8
0
 62
     0
 10
162.895
 20
4.09279
 30
0.0
 11
162.972
 21
3.59805
 31
0.0
  0
LINE
  8
0
 62
     0
 10
162.972
 20
3.59805
 30
0.0
 11
163.201
 21
3.15157
 31
0.0
  0
LINE
  8
0
 62
     0
 10
163.201
 20
3.15157
 30
0.0
 11
163.555
 21
2.79742
 31
0.0
  0
LINE
  8
0
 62
     0
 10
163.555
 20
2.79742
 30
0.0
 11
164
 21
2.57004
 31
0.0
  0
LINE
  8
0
 62
     0
 10
164
 20
2.57004
 30
0.0
 11
164.495
 21
2.49149
 31
0.0
  0
LINE
  8
0
 62
     0
 10
164.495
 20
2.49149
 30
0.0
 11
164.99
 21
2.57004
 31
0.0
  0
LINE
  8
0
 62
     0
 10
164.99
 20
2.57004
 30
0.0
 11
165.436
 21
2.79742
 31
0.0
  0
LINE
  8
0
 62
     0
 10
165.436
 20
2.79742
 30
0.0
 11
165.79
 21
3.15157
 31
0.0
  0
LINE
  8
0
 62
     0
 10
165.79
 20
3.15157
 30
0.0
 11
166.017
 21
3.59805
 31
0.0
  0
LINE
  8
0
 62
     0
 10
166.017
 20
3.59805
 30
0.0
 11
166.095
 21
4.09279
 31
0.0
  0
LINE
  8
0
 62
     0
 10
166.095
 20
4.09279
 30
0.0
 11
166.017
 21
4.58611
 31
0.0
  0
LINE
  8
0
 62
     0
 10
166.017
 20
4.58611
 30
0.0
 11
165.79
 21
5.03259
 31
0.0
  0
LINE
  8
0
 62
     0
 10
165.79
 20
5.03259
 30
0.0
 11
165.436
 21
5.38674
 31
0.0
  0
LINE
  8
0
 62
     0
 10
165.436
 20
5.38674
 30
0.0
 11
164.99
 21
5.61277
 31
0.0
  0
LINE
  8
0
 62
     0
 10
164.99
 20
5.61277
 30
0.0
 11
164.495
 21
5.69129
 31
0.0
  0
LINE
  8
0
 62
     0
 10
164.495
 20
5.69129
 30
0.0
 11
164
 21
5.61277
 31
0.0
  0
LINE
  8
0
 62
     0
 10
83.7999
 20
5.61277
 30
0.0
 11
83.3533
 21
5.38674
 31
0.0
  0
LINE
  8
0
 62
     0
 10
83.3533
 20
5.38674
 30
0.0
 11
82.9991
 21
5.03259
 31
0.0
  0
LINE
  8
0
 62
     0
 10
82.9991
 20
5.03259
 30
0.0
 11
82.7733
 21
4.58611
 31
0.0
  0
LINE
  8
0
 62
     0
 10
82.7733
 20
4.58611
 30
0.0
 11
82.6946
 21
4.09279
 31
0.0
  0
LINE
  8
0
 62
     0
 10
82.6946
 20
4.09279
 30
0.0
 11
82.7733
 21
3.59805
 31
0.0
  0
LINE
  8
0
 62
     0
 10
82.7733
 20
3.59805
 30
0.0
 11
82.9991
 21
3.15157
 31
0.0
  0
LINE
  8
0
 62
     0
 10
82.9991
 20
3.15157
 30
0.0
 11
83.3533
 21
2.79742
 31
0.0
  0
LINE
  8
0
 62
     0
 10
83.3533
 20
2.79742
 30
0.0
 11
83.7999
 21
2.57004
 31
0.0
  0
LINE
  8
0
 62
     0
 10
83.7999
 20
2.57004
 30
0.0
 11
84.2945
 21
2.49149
 31
0.0
  0
LINE
  8
0
 62
     0
 10
84.2945
 20
2.49149
 30
0.0
 11
84.7894
 21
2.57004
 31
0.0
  0
LINE
  8
0
 62
     0
 10
84.7894
 20
2.57004
 30
0.0
 11
85.2343
 21
2.79742
 31
0.0
  0
LINE
  8
0
 62
     0
 10
85.2343
 20
2.79742
 30
0.0
 11
85.5885
 21
3.15157
 31
0.0
  0
LINE
  8
0
 62
     0
 10
85.5885
 20
3.15157
 30
0.0
 11
85.8174
 21
3.59805
 31
0.0
  0
LINE
  8
0
 62
     0
 10
85.8174
 20
3.59805
 30
0.0
 11
85.8943
 21
4.09279
 31
0.0
  0
LINE
  8
0
 62
     0
 10
85.8943
 20
4.09279
 30
0.0
 11
85.8174
 21
4.58611
 31
0.0
  0
LINE
  8
0
 62
     0
 10
85.8174
 20
4.58611
 30
0.0
 11
85.5885
 21
5.03259
 31
0.0
  0
LINE
  8
0
 62
     0
 10
85.5885
 20
5.03259
 30
0.0
 11
85.2343
 21
5.38674
 31
0.0
  0
LINE
  8
0
 62
     0
 10
85.2343
 20
5.38674
 30
0.0
 11
84.7894
 21
5.61277
 31
0.0
  0
LINE
  8
0
 62
     0
 10
84.7894
 20
5.61277
 30
0.0
 11
84.2945
 21
5.69129
 31
0.0
  0
LINE
  8
0
 62
     0
 10
84.2945
 20
5.69129
 30
0.0
 11
83.7999
 21
5.61277
 31
0.0
  0
LINE
  8
0
 62
     0
 10
3.59943
 20
5.61277
 30
0.0
 11
3.15295
 21
5.38674
 31
0.0
  0
LINE
  8
0
 62
     0
 10
3.15295
 20
5.38674
 30
0.0
 11
2.80017
 21
5.03259
 31
0.0
  0
LINE
  8
0
 62
     0
 10
2.80017
 20
5.03259
 30
0.0
 11
2.5728
 21
4.58611
 31
0.0
  0
LINE
  8
0
 62
     0
 10
2.5728
 20
4.58611
 30
0.0
 11
2.49425
 21
4.09279
 31
0.0
  0
LINE
  8
0
 62
     0
 10
2.49425
 20
4.09279
 30
0.0
 11
2.5728
 21
3.59805
 31
0.0
  0
LINE
  8
0
 62
     0
 10
2.5728
 20
3.59805
 30
0.0
 11
2.80017
 21
3.15157
 31
0.0
  0
LINE
  8
0
 62
     0
 10
2.80017
 20
3.15157
 30
0.0
 11
3.15295
 21
2.79742
 31
0.0
  0
LINE
  8
0
 62
     0
 10
3.15295
 20
2.79742
 30
0.0
 11
3.59943
 21
2.57004
 31
0.0
  0
LINE
  8
0
 62
     0
 10
3.59943
 20
2.57004
 30
0.0
 11
4.09416
 21
2.49149
 31
0.0
  0
LINE
  8
0
 62
     0
 10
4.09416
 20
2.49149
 30
0.0
 11
4.58886
 21
2.57004
 31
0.0
  0
LINE
  8
0
 62
     0
 10
4.58886
 20
2.57004
 30
0.0
 11
5.03534
 21
2.79742
 31
0.0
  0
LINE
  8
0
 62
     0
 10
5.03534
 20
2.79742
 30
0.0
 11
5.38812
 21
3.15157
 31
0.0
  0
LINE
  8
0
 62
     0
 10
5.38812
 20
3.15157
 30
0.0
 11
5.61552
 21
3.59805
 31
0.0
  0
LINE
  8
0
 62
     0
 10
5.61552
 20
3.59805
 30
0.0
 11
5.69542
 21
4.09279
 31
0.0
  0
LINE
  8
0
 62
     0
 10
5.69542
 20
4.09279
 30
0.0
 11
5.61552
 21
4.58611
 31
0.0
  0
LINE
  8
0
 62
     0
 10
5.61552
 20
4.58611
 30
0.0
 11
5.38812
 21
5.03259
 31
0.0
  0
LINE
  8
0
 62
     0
 10
5.38812
 20
5.03259
 30
0.0
 11
5.03534
 21
5.38674
 31
0.0
  0
LINE
  8
0
 62
     0
 10
5.03534
 20
5.38674
 30
0.0
 11
4.58886
 21
5.61277
 31
0.0
  0
LINE
  8
0
 62
     0
 10
4.58886
 20
5.61277
 30
0.0
 11
4.09416
 21
5.69129
 31
0.0
  0
LINE
  8
0
 62
     0
 10
4.09416
 20
5.69129
 30
0.0
 11
3.59943
 21
5.61277
 31
0.0
  0
LINE
  8
0
 62
     0
 10
32.2626
 20
26.0683
 30
0.0
 11
35.5632
 21
26.0683
 31
0.0
  0
LINE
  8
0
 62
     0
 10
35.5632
 20
26.0683
 30
0.0
 11
35.5632
 21
11.8677
 31
0.0
  0
LINE
  8
0
 62
     0
 10
35.5632
 20
11.8677
 30
0.0
 11
32.2626
 21
11.8677
 31
0.0
  0
LINE
  8
0
 62
     0
 10
32.2626
 20
11.8677
 30
0.0
 11
32.2626
 21
26.0683
 31
0.0
  0
LINE
  8
0
 62
     0
 10
56.0627
 20
26.0683
 30
0.0
 11
59.363
 21
26.0683
 31
0.0
  0
LINE
  8
0
 62
     0
 10
59.363
 20
26.0683
 30
0.0
 11
59.363
 21
11.8677
 31
0.0
  0
LINE
  8
0
 62
     0
 10
59.363
 20
11.8677
 30
0.0
 11
56.0627
 21
11.8677
 31
0.0
  0
LINE
  8
0
 62
     0
 10
56.0627
 20
11.8677
 30
0.0
 11
56.0627
 21
26.0683
 31
0.0
  0
LINE
  8
0
 62
     0
 10
38.8126
 20
26.6182
 30
0.0
 11
52.8133
 21
26.6182
 31
0.0
  0
LINE
  8
0
 62
     0
 10
52.8133
 20
26.6182
 30
0.0
 11
52.8133
 21
12.6173
 31
0.0
  0
LINE
  8
0
 62
     0
 10
52.8133
 20
12.6173
 30
0.0
 11
38.8126
 21
12.6173
 31
0.0
  0
LINE
  8
0
 62
     0
 10
38.8126
 20
12.6173
 30
0.0
 11
38.8126
 21
26.6182
 31
0.0
  0
LINE
  8
0
 62
     0
 10
76.9126
 20
26.6182
 30
0.0
 11
90.9133
 21
26.6182
 31
0.0
  0
LINE
  8
0
 62
     0
 10
90.9133
 20
26.6182
 30
0.0
 11
90.9133
 21
12.6173
 31
0.0
  0
LINE
  8
0
 62
     0
 10
90.9133
 20
12.6173
 30
0.0
 11
76.9126
 21
12.6173
 31
0.0
  0
LINE
  8
0
 62
     0
 10
76.9126
 20
12.6173
 30
0.0
 11
76.9126
 21
26.6182
 31
0.0
  0
LINE
  8
0
 62
     0
 10
100.726
 20
26.6182
 30
0.0
 11
114.726
 21
26.6182
 31
0.0
  0
LINE
  8
0
 62
     0
 10
114.726
 20
26.6182
 30
0.0
 11
114.726
 21
12.6173
 31
0.0
  0
LINE
  8
0
 62
     0
 10
114.726
 20
12.6173
 30
0.0
 11
100.726
 21
12.6173
 31
0.0
  0
LINE
  8
0
 62
     0
 10
100.726
 20
12.6173
 30
0.0
 11
100.726
 21
26.6182
 31
0.0
  0
LINE
  8
0
 62
     0
 10
124.538
 20
26.6182
 30
0.0
 11
138.538
 21
26.6182
 31
0.0
  0
LINE
  8
0
 62
     0
 10
138.538
 20
26.6182
 30
0.0
 11
138.538
 21
12.6173
 31
0.0
  0
LINE
  8
0
 62
     0
 10
138.538
 20
12.6173
 30
0.0
 11
124.538
 21
12.6173
 31
0.0
  0
LINE
  8
0
 62
     0
 10
124.538
 20
12.6173
 30
0.0
 11
124.538
 21
26.6182
 31
0.0
  0
LINE
  8
0
 62
     0
 10
150.731
 20
26.6182
 30
0.0
 11
164.732
 21
26.6182
 31
0.0
  0
LINE
  8
0
 62
     0
 10
164.732
 20
26.6182
 30
0.0
 11
164.732
 21
12.6173
 31
0.0
  0
LINE
  8
0
 62
     0
 10
164.732
 20
12.6173
 30
0.0
 11
150.731
 21
12.6173
 31
0.0
  0
LINE
  8
0
 62
     0
 10
150.731
 20
12.6173
 30
0.0
 11
150.731
 21
26.6182
 31
0.0
  0
LINE
  8
0
 62
     0
 10
184.07
 20
26.6182
 30
0.0
 11
198.07
 21
26.6182
 31
0.0
  0
LINE
  8
0
 62
     0
 10
198.07
 20
26.6182
 30
0.0
 11
198.07
 21
12.6173
 31
0.0
  0
LINE
  8
0
 62
     0
 10
198.07
 20
12.6173
 30
0.0
 11
184.07
 21
12.6173
 31
0.0
  0
LINE
  8
0
 62
     0
 10
184.07
 20
12.6173
 30
0.0
 11
184.07
 21
26.6182
 31
0.0
  0
LINE
  8
0
 62
     0
 10
203.12
 20
26.6182
 30
0.0
 11
217.12
 21
26.6182
 31
0.0
  0
LINE
  8
0
 62
     0
 10
217.12
 20
26.6182
 30
0.0
 11
217.12
 21
12.6173
 31
0.0
  0
LINE
  8
0
 62
     0
 10
217.12
 20
12.6173
 30
0.0
 11
203.12
 21
12.6173
 31
0.0
  0
LINE
  8
0
 62
     0
 10
203.12
 20
12.6173
 30
0.0
 11
203.12
 21
26.6182
 31
0.0
  0
LINE
  8
0
 62
     0
 10
222.17
 20
26.6182
 30
0.0
 11
236.17
 21
26.6182
 31
0.0
  0
LINE
  8
0
 62
     0
 10
236.17
 20
26.6182
 30
0.0
 11
236.17
 21
12.6173
 31
0.0
  0
LINE
  8
0
 62
     0
 10
236.17
 20
12.6173
 30
0.0
 11
222.17
 21
12.6173
 31
0.0
  0
LINE
  8
0
 62
     0
 10
222.17
 20
12.6173
 30
0.0
 11
222.17
 21
26.6182
 31
0.0
  0
LINE
  8
0
 62
     0
 10
26.9062
 20
45.6681
 30
0.0
 11
40.9071
 21
45.6681
 31
0.0
  0
LINE
  8
0
 62
     0
 10
40.9071
 20
45.6681
 30
0.0
 11
40.9071
 21
31.6673
 31
0.0
  0
LINE
  8
0
 62
     0
 10
40.9071
 20
31.6673
 30
0.0
 11
26.9062
 21
31.6673
 31
0.0
  0
LINE
  8
0
 62
     0
 10
26.9062
 20
31.6673
 30
0.0
 11
26.9062
 21
45.6681
 31
0.0
  0
LINE
  8
0
 62
     0
 10
45.9564
 20
45.6681
 30
0.0
 11
59.9556
 21
45.6681
 31
0.0
  0
LINE
  8
0
 62
     0
 10
59.9556
 20
45.6681
 30
0.0
 11
59.9556
 21
31.6673
 31
0.0
  0
LINE
  8
0
 62
     0
 10
59.9556
 20
31.6673
 30
0.0
 11
45.9564
 21
31.6673
 31
0.0
  0
LINE
  8
0
 62
     0
 10
45.9564
 20
31.6673
 30
0.0
 11
45.9564
 21
45.6681
 31
0.0
  0
LINE
  8
0
 62
     0
 10
65.0064
 20
45.6681
 30
0.0
 11
79.0071
 21
45.6681
 31
0.0
  0
LINE
  8
0
 62
     0
 10
79.0071
 20
45.6681
 30
0.0
 11
79.0071
 21
31.6673
 31
0.0
  0
LINE
  8
0
 62
     0
 10
79.0071
 20
31.6673
 30
0.0
 11
65.0064
 21
31.6673
 31
0.0
  0
LINE
  8
0
 62
     0
 10
65.0064
 20
31.6673
 30
0.0
 11
65.0064
 21
45.6681
 31
0.0
  0
LINE
  8
0
 62
     0
 10
84.0564
 20
45.6681
 30
0.0
 11
98.0571
 21
45.6681
 31
0.0
  0
LINE
  8
0
 62
     0
 10
98.0571
 20
45.6681
 30
0.0
 11
98.0571
 21
31.6673
 31
0.0
  0
LINE
  8
0
 62
     0
 10
98.0571
 20
31.6673
 30
0.0
 11
84.0564
 21
31.6673
 31
0.0
  0
LINE
  8
0
 62
     0
 10
84.0564
 20
31.6673
 30
0.0
 11
84.0564
 21
45.6681
 31
0.0
  0
LINE
  8
0
 62
     0
 10
103.106
 20
45.6681
 30
0.0
 11
117.107
 21
45.6681
 31
0.0
  0
LINE
  8
0
 62
     0
 10
117.107
 20
45.6681
 30
0.0
 11
117.107
 21
31.6673
 31
0.0
  0
LINE
  8
0
 62
     0
 10
117.107
 20
31.6673
 30
0.0
 11
103.106
 21
31.6673
 31
0.0
  0
LINE
  8
0
 62
     0
 10
103.106
 20
31.6673
 30
0.0
 11
103.106
 21
45.6681
 31
0.0
  0
LINE
  8
0
 62
     0
 10
122.156
 20
45.6681
 30
0.0
 11
136.157
 21
45.6681
 31
0.0
  0
LINE
  8
0
 62
     0
 10
136.157
 20
45.6681
 30
0.0
 11
136.157
 21
31.6673
 31
0.0
  0
LINE
  8
0
 62
     0
 10
136.157
 20
31.6673
 30
0.0
 11
122.156
 21
31.6673
 31
0.0
  0
LINE
  8
0
 62
     0
 10
122.156
 20
31.6673
 30
0.0
 11
122.156
 21
45.6681
 31
0.0
  0
LINE
  8
0
 62
     0
 10
148.351
 20
45.6681
 30
0.0
 11
162.351
 21
45.6681
 31
0.0
  0
LINE
  8
0
 62
     0
 10
162.351
 20
45.6681
 30
0.0
 11
162.351
 21
31.6673
 31
0.0
  0
LINE
  8
0
 62
     0
 10
162.351
 20
31.6673
 30
0.0
 11
148.351
 21
31.6673
 31
0.0
  0
LINE
  8
0
 62
     0
 10
148.351
 20
31.6673
 30
0.0
 11
148.351
 21
45.6681
 31
0.0
  0
LINE
  8
0
 62
     0
 10
203.12
 20
45.6681
 30
0.0
 11
217.12
 21
45.6681
 31
0.0
  0
LINE
  8
0
 62
     0
 10
217.12
 20
45.6681
 30
0.0
 11
217.12
 21
31.6673
 31
0.0
  0
LINE
  8
0
 62
     0
 10
217.12
 20
31.6673
 30
0.0
 11
203.12
 21
31.6673
 31
0.0
  0
LINE
  8
0
 62
     0
 10
203.12
 20
31.6673
 30
0.0
 11
203.12
 21
45.6681
 31
0.0
  0
LINE
  8
0
 62
     0
 10
137.038
 20
64.1671
 30
0.0
 11
140.338
 21
64.1671
 31
0.0
  0
LINE
  8
0
 62
     0
 10
140.338
 20
64.1671
 30
0.0
 11
140.338
 21
49.9678
 31
0.0
  0
LINE
  8
0
 62
     0
 10
140.338
 20
49.9678
 30
0.0
 11
137.038
 21
49.9678
 31
0.0
  0
LINE
  8
0
 62
     0
 10
137.038
 20
49.9678
 30
0.0
 11
137.038
 21
64.1671
 31
0.0
  0
LINE
  8
0
 62
     0
 10
160.838
 20
64.1671
 30
0.0
 11
164.138
 21
64.1671
 31
0.0
  0
LINE
  8
0
 62
     0
 10
164.138
 20
64.1671
 30
0.0
 11
164.138
 21
49.9678
 31
0.0
  0
LINE
  8
0
 62
     0
 10
164.138
 20
49.9678
 30
0.0
 11
160.838
 21
49.9678
 31
0.0
  0
LINE
  8
0
 62
     0
 10
160.838
 20
49.9678
 30
0.0
 11
160.838
 21
64.1671
 31
0.0
  0
LINE
  8
0
 62
     0
 10
17.3812
 20
64.7181
 30
0.0
 11
31.3821
 21
64.7181
 31
0.0
  0
LINE
  8
0
 62
     0
 10
31.3821
 20
64.7181
 30
0.0
 11
31.3821
 21
50.7175
 31
0.0
  0
LINE
  8
0
 62
     0
 10
31.3821
 20
50.7175
 30
0.0
 11
17.3812
 21
50.7175
 31
0.0
  0
LINE
  8
0
 62
     0
 10
17.3812
 20
50.7175
 30
0.0
 11
17.3812
 21
64.7181
 31
0.0
  0
LINE
  8
0
 62
     0
 10
36.4314
 20
64.7181
 30
0.0
 11
50.4321
 21
64.7181
 31
0.0
  0
LINE
  8
0
 62
     0
 10
50.4321
 20
64.7181
 30
0.0
 11
50.4321
 21
50.7175
 31
0.0
  0
LINE
  8
0
 62
     0
 10
50.4321
 20
50.7175
 30
0.0
 11
36.4314
 21
50.7175
 31
0.0
  0
LINE
  8
0
 62
     0
 10
36.4314
 20
50.7175
 30
0.0
 11
36.4314
 21
64.7181
 31
0.0
  0
LINE
  8
0
 62
     0
 10
55.4814
 20
64.7181
 30
0.0
 11
69.4821
 21
64.7181
 31
0.0
  0
LINE
  8
0
 62
     0
 10
69.4821
 20
64.7181
 30
0.0
 11
69.4821
 21
50.7175
 31
0.0
  0
LINE
  8
0
 62
     0
 10
69.4821
 20
50.7175
 30
0.0
 11
55.4814
 21
50.7175
 31
0.0
  0
LINE
  8
0
 62
     0
 10
55.4814
 20
50.7175
 30
0.0
 11
55.4814
 21
64.7181
 31
0.0
  0
LINE
  8
0
 62
     0
 10
74.5314
 20
64.7181
 30
0.0
 11
88.5321
 21
64.7181
 31
0.0
  0
LINE
  8
0
 62
     0
 10
88.5321
 20
64.7181
 30
0.0
 11
88.5321
 21
50.7175
 31
0.0
  0
LINE
  8
0
 62
     0
 10
88.5321
 20
50.7175
 30
0.0
 11
74.5314
 21
50.7175
 31
0.0
  0
LINE
  8
0
 62
     0
 10
74.5314
 20
50.7175
 30
0.0
 11
74.5314
 21
64.7181
 31
0.0
  0
LINE
  8
0
 62
     0
 10
93.5814
 20
64.7181
 30
0.0
 11
107.582
 21
64.7181
 31
0.0
  0
LINE
  8
0
 62
     0
 10
107.582
 20
64.7181
 30
0.0
 11
107.582
 21
50.7175
 31
0.0
  0
LINE
  8
0
 62
     0
 10
107.582
 20
50.7175
 30
0.0
 11
93.5814
 21
50.7175
 31
0.0
  0
LINE
  8
0
 62
     0
 10
93.5814
 20
50.7175
 30
0.0
 11
93.5814
 21
64.7181
 31
0.0
  0
LINE
  8
0
 62
     0
 10
112.631
 20
64.7181
 30
0.0
 11
126.632
 21
64.7181
 31
0.0
  0
LINE
  8
0
 62
     0
 10
126.632
 20
64.7181
 30
0.0
 11
126.632
 21
50.7175
 31
0.0
  0
LINE
  8
0
 62
     0
 10
126.632
 20
50.7175
 30
0.0
 11
112.631
 21
50.7175
 31
0.0
  0
LINE
  8
0
 62
     0
 10
112.631
 20
50.7175
 30
0.0
 11
112.631
 21
64.7181
 31
0.0
  0
LINE
  8
0
 62
     0
 10
143.588
 20
64.7181
 30
0.0
 11
157.588
 21
64.7181
 31
0.0
  0
LINE
  8
0
 62
     0
 10
157.588
 20
64.7181
 30
0.0
 11
157.588
 21
50.7175
 31
0.0
  0
LINE
  8
0
 62
     0
 10
157.588
 20
50.7175
 30
0.0
 11
143.588
 21
50.7175
 31
0.0
  0
LINE
  8
0
 62
     0
 10
143.588
 20
50.7175
 30
0.0
 11
143.588
 21
64.7181
 31
0.0
  0
LINE
  8
0
 62
     0
 10
184.07
 20
64.7181
 30
0.0
 11
198.07
 21
64.7181
 31
0.0
  0
LINE
  8
0
 62
     0
 10
198.07
 20
64.7181
 30
0.0
 11
198.07
 21
50.7175
 31
0.0
  0
LINE
  8
0
 62
     0
 10
198.07
 20
50.7175
 30
0.0
 11
184.07
 21
50.7175
 31
0.0
  0
LINE
  8
0
 62
     0
 10
184.07
 20
50.7175
 30
0.0
 11
184.07
 21
64.7181
 31
0.0
  0
LINE
  8
0
 62
     0
 10
203.12
 20
64.7181
 30
0.0
 11
217.12
 21
64.7181
 31
0.0
  0
LINE
  8
0
 62
     0
 10
217.12
 20
64.7181
 30
0.0
 11
217.12
 21
50.7175
 31
0.0
  0
LINE
  8
0
 62
     0
 10
217.12
 20
50.7175
 30
0.0
 11
203.12
 21
50.7175
 31
0.0
  0
LINE
  8
0
 62
     0
 10
203.12
 20
50.7175
 30
0.0
 11
203.12
 21
64.7181
 31
0.0
  0
LINE
  8
0
 62
     0
 10
222.17
 20
64.7181
 30
0.0
 11
236.17
 21
64.7181
 31
0.0
  0
LINE
  8
0
 62
     0
 10
236.17
 20
64.7181
 30
0.0
 11
236.17
 21
50.7175
 31
0.0
  0
LINE
  8
0
 62
     0
 10
236.17
 20
50.7175
 30
0.0
 11
222.17
 21
50.7175
 31
0.0
  0
LINE
  8
0
 62
     0
 10
222.17
 20
50.7175
 30
0.0
 11
222.17
 21
64.7181
 31
0.0
  0
LINE
  8
0
 62
     0
 10
12.6201
 20
83.7681
 30
0.0
 11
26.6196
 21
83.7681
 31
0.0
  0
LINE
  8
0
 62
     0
 10
26.6196
 20
83.7681
 30
0.0
 11
26.6196
 21
69.7675
 31
0.0
  0
LINE
  8
0
 62
     0
 10
26.6196
 20
69.7675
 30
0.0
 11
12.6201
 21
69.7675
 31
0.0
  0
LINE
  8
0
 62
     0
 10
12.6201
 20
69.7675
 30
0.0
 11
12.6201
 21
83.7681
 31
0.0
  0
LINE
  8
0
 62
     0
 10
31.6701
 20
83.7681
 30
0.0
 11
45.6696
 21
83.7681
 31
0.0
  0
LINE
  8
0
 62
     0
 10
45.6696
 20
83.7681
 30
0.0
 11
45.6696
 21
69.7675
 31
0.0
  0
LINE
  8
0
 62
     0
 10
45.6696
 20
69.7675
 30
0.0
 11
31.6701
 21
69.7675
 31
0.0
  0
LINE
  8
0
 62
     0
 10
31.6701
 20
69.7675
 30
0.0
 11
31.6701
 21
83.7681
 31
0.0
  0
LINE
  8
0
 62
     0
 10
50.7199
 20
83.7681
 30
0.0
 11
64.7196
 21
83.7681
 31
0.0
  0
LINE
  8
0
 62
     0
 10
64.7196
 20
83.7681
 30
0.0
 11
64.7196
 21
69.7675
 31
0.0
  0
LINE
  8
0
 62
     0
 10
64.7196
 20
69.7675
 30
0.0
 11
50.7199
 21
69.7675
 31
0.0
  0
LINE
  8
0
 62
     0
 10
50.7199
 20
69.7675
 30
0.0
 11
50.7199
 21
83.7681
 31
0.0
  0
LINE
  8
0
 62
     0
 10
69.7699
 20
83.7681
 30
0.0
 11
83.7696
 21
83.7681
 31
0.0
  0
LINE
  8
0
 62
     0
 10
83.7696
 20
83.7681
 30
0.0
 11
83.7696
 21
69.7675
 31
0.0
  0
LINE
  8
0
 62
     0
 10
83.7696
 20
69.7675
 30
0.0
 11
69.7699
 21
69.7675
 31
0.0
  0
LINE
  8
0
 62
     0
 10
69.7699
 20
69.7675
 30
0.0
 11
69.7699
 21
83.7681
 31
0.0
  0
LINE
  8
0
 62
     0
 10
88.8199
 20
83.7681
 30
0.0
 11
102.82
 21
83.7681
 31
0.0
  0
LINE
  8
0
 62
     0
 10
102.82
 20
83.7681
 30
0.0
 11
102.82
 21
69.7675
 31
0.0
  0
LINE
  8
0
 62
     0
 10
102.82
 20
69.7675
 30
0.0
 11
88.8199
 21
69.7675
 31
0.0
  0
LINE
  8
0
 62
     0
 10
88.8199
 20
69.7675
 30
0.0
 11
88.8199
 21
83.7681
 31
0.0
  0
LINE
  8
0
 62
     0
 10
107.869
 20
83.7681
 30
0.0
 11
121.868
 21
83.7681
 31
0.0
  0
LINE
  8
0
 62
     0
 10
121.868
 20
83.7681
 30
0.0
 11
121.868
 21
69.7675
 31
0.0
  0
LINE
  8
0
 62
     0
 10
121.868
 20
69.7675
 30
0.0
 11
107.869
 21
69.7675
 31
0.0
  0
LINE
  8
0
 62
     0
 10
107.869
 20
69.7675
 30
0.0
 11
107.869
 21
83.7681
 31
0.0
  0
LINE
  8
0
 62
     0
 10
126.92
 20
83.7681
 30
0.0
 11
140.92
 21
83.7681
 31
0.0
  0
LINE
  8
0
 62
     0
 10
140.92
 20
83.7681
 30
0.0
 11
140.92
 21
69.7675
 31
0.0
  0
LINE
  8
0
 62
     0
 10
140.92
 20
69.7675
 30
0.0
 11
126.92
 21
69.7675
 31
0.0
  0
LINE
  8
0
 62
     0
 10
126.92
 20
69.7675
 30
0.0
 11
126.92
 21
83.7681
 31
0.0
  0
LINE
  8
0
 62
     0
 10
150.731
 20
83.7681
 30
0.0
 11
164.732
 21
83.7681
 31
0.0
  0
LINE
  8
0
 62
     0
 10
164.732
 20
83.7681
 30
0.0
 11
164.732
 21
69.7675
 31
0.0
  0
LINE
  8
0
 62
     0
 10
164.732
 20
69.7675
 30
0.0
 11
150.731
 21
69.7675
 31
0.0
  0
LINE
  8
0
 62
     0
 10
150.731
 20
69.7675
 30
0.0
 11
150.731
 21
83.7681
 31
0.0
  0
LINE
  8
0
 62
     0
 10
184.07
 20
83.7681
 30
0.0
 11
198.07
 21
83.7681
 31
0.0
  0
LINE
  8
0
 62
     0
 10
198.07
 20
83.7681
 30
0.0
 11
198.07
 21
69.7675
 31
0.0
  0
LINE
  8
0
 62
     0
 10
198.07
 20
69.7675
 30
0.0
 11
184.07
 21
69.7675
 31
0.0
  0
LINE
  8
0
 62
     0
 10
184.07
 20
69.7675
 30
0.0
 11
184.07
 21
83.7681
 31
0.0
  0
LINE
  8
0
 62
     0
 10
203.12
 20
83.7681
 30
0.0
 11
217.12
 21
83.7681
 31
0.0
  0
LINE
  8
0
 62
     0
 10
217.12
 20
83.7681
 30
0.0
 11
217.12
 21
69.7675
 31
0.0
  0
LINE
  8
0
 62
     0
 10
217.12
 20
69.7675
 30
0.0
 11
203.12
 21
69.7675
 31
0.0
  0
LINE
  8
0
 62
     0
 10
203.12
 20
69.7675
 30
0.0
 11
203.12
 21
83.7681
 31
0.0
  0
LINE
  8
0
 62
     0
 10
222.17
 20
83.7681
 30
0.0
 11
236.17
 21
83.7681
 31
0.0
  0
LINE
  8
0
 62
     0
 10
236.17
 20
83.7681
 30
0.0
 11
236.17
 21
69.7675
 31
0.0
  0
LINE
  8
0
 62
     0
 10
236.17
 20
69.7675
 30
0.0
 11
222.17
 21
69.7675
 31
0.0
  0
LINE
  8
0
 62
     0
 10
222.17
 20
69.7675
 30
0.0
 11
222.17
 21
83.7681
 31
0.0
  0
LINE
  8
0
 62
     0
 10
139.42
 20
102.267
 30
0.0
 11
142.719
 21
102.267
 31
0.0
  0
LINE
  8
0
 62
     0
 10
142.719
 20
102.267
 30
0.0
 11
142.719
 21
88.0678
 31
0.0
  0
LINE
  8
0
 62
     0
 10
142.719
 20
88.0678
 30
0.0
 11
139.42
 21
88.0678
 31
0.0
  0
LINE
  8
0
 62
     0
 10
139.42
 20
88.0678
 30
0.0
 11
139.42
 21
102.267
 31
0.0
  0
LINE
  8
0
 62
     0
 10
163.22
 20
102.267
 30
0.0
 11
166.519
 21
102.267
 31
0.0
  0
LINE
  8
0
 62
     0
 10
166.519
 20
102.267
 30
0.0
 11
166.519
 21
88.0678
 31
0.0
  0
LINE
  8
0
 62
     0
 10
166.519
 20
88.0678
 30
0.0
 11
163.22
 21
88.0678
 31
0.0
  0
LINE
  8
0
 62
     0
 10
163.22
 20
88.0678
 30
0.0
 11
163.22
 21
102.267
 31
0.0
  0
LINE
  8
0
 62
     0
 10
22.1437
 20
102.818
 30
0.0
 11
36.1446
 21
102.818
 31
0.0
  0
LINE
  8
0
 62
     0
 10
36.1446
 20
102.818
 30
0.0
 11
36.1446
 21
88.8175
 31
0.0
  0
LINE
  8
0
 62
     0
 10
36.1446
 20
88.8175
 30
0.0
 11
22.1437
 21
88.8175
 31
0.0
  0
LINE
  8
0
 62
     0
 10
22.1437
 20
88.8175
 30
0.0
 11
22.1437
 21
102.818
 31
0.0
  0
LINE
  8
0
 62
     0
 10
41.1939
 20
102.818
 30
0.0
 11
55.1931
 21
102.818
 31
0.0
  0
LINE
  8
0
 62
     0
 10
55.1931
 20
102.818
 30
0.0
 11
55.1931
 21
88.8175
 31
0.0
  0
LINE
  8
0
 62
     0
 10
55.1931
 20
88.8175
 30
0.0
 11
41.1939
 21
88.8175
 31
0.0
  0
LINE
  8
0
 62
     0
 10
41.1939
 20
88.8175
 30
0.0
 11
41.1939
 21
102.818
 31
0.0
  0
LINE
  8
0
 62
     0
 10
60.2439
 20
102.818
 30
0.0
 11
74.2431
 21
102.818
 31
0.0
  0
LINE
  8
0
 62
     0
 10
74.2431
 20
102.818
 30
0.0
 11
74.2431
 21
88.8175
 31
0.0
  0
LINE
  8
0
 62
     0
 10
74.2431
 20
88.8175
 30
0.0
 11
60.2439
 21
88.8175
 31
0.0
  0
LINE
  8
0
 62
     0
 10
60.2439
 20
88.8175
 30
0.0
 11
60.2439
 21
102.818
 31
0.0
  0
LINE
  8
0
 62
     0
 10
79.2939
 20
102.818
 30
0.0
 11
93.2931
 21
102.818
 31
0.0
  0
LINE
  8
0
 62
     0
 10
93.2931
 20
102.818
 30
0.0
 11
93.2931
 21
88.8175
 31
0.0
  0
LINE
  8
0
 62
     0
 10
93.2931
 20
88.8175
 30
0.0
 11
79.2939
 21
88.8175
 31
0.0
  0
LINE
  8
0
 62
     0
 10
79.2939
 20
88.8175
 30
0.0
 11
79.2939
 21
102.818
 31
0.0
  0
LINE
  8
0
 62
     0
 10
98.3439
 20
102.818
 30
0.0
 11
112.343
 21
102.818
 31
0.0
  0
LINE
  8
0
 62
     0
 10
112.343
 20
102.818
 30
0.0
 11
112.343
 21
88.8175
 31
0.0
  0
LINE
  8
0
 62
     0
 10
112.343
 20
88.8175
 30
0.0
 11
98.3439
 21
88.8175
 31
0.0
  0
LINE
  8
0
 62
     0
 10
98.3439
 20
88.8175
 30
0.0
 11
98.3439
 21
102.818
 31
0.0
  0
LINE
  8
0
 62
     0
 10
117.394
 20
102.818
 30
0.0
 11
131.393
 21
102.818
 31
0.0
  0
LINE
  8
0
 62
     0
 10
131.393
 20
102.818
 30
0.0
 11
131.393
 21
88.8175
 31
0.0
  0
LINE
  8
0
 62
     0
 10
131.393
 20
88.8175
 30
0.0
 11
117.394
 21
88.8175
 31
0.0
  0
LINE
  8
0
 62
     0
 10
117.394
 20
88.8175
 30
0.0
 11
117.394
 21
102.818
 31
0.0
  0
LINE
  8
0
 62
     0
 10
145.97
 20
102.818
 30
0.0
 11
159.97
 21
102.818
 31
0.0
  0
LINE
  8
0
 62
     0
 10
159.97
 20
102.818
 30
0.0
 11
159.97
 21
88.8175
 31
0.0
  0
LINE
  8
0
 62
     0
 10
159.97
 20
88.8175
 30
0.0
 11
145.97
 21
88.8175
 31
0.0
  0
LINE
  8
0
 62
     0
 10
145.97
 20
88.8175
 30
0.0
 11
145.97
 21
102.818
 31
0.0
  0
LINE
  8
0
 62
     0
 10
184.07
 20
102.818
 30
0.0
 11
198.07
 21
102.818
 31
0.0
  0
LINE
  8
0
 62
     0
 10
198.07
 20
102.818
 30
0.0
 11
198.07
 21
88.8175
 31
0.0
  0
LINE
  8
0
 62
     0
 10
198.07
 20
88.8175
 30
0.0
 11
184.07
 21
88.8175
 31
0.0
  0
LINE
  8
0
 62
     0
 10
184.07
 20
88.8175
 30
0.0
 11
184.07
 21
102.818
 31
0.0
  0
LINE
  8
0
 62
     0
 10
203.12
 20
102.818
 30
0.0
 11
217.12
 21
102.818
 31
0.0
  0
LINE
  8
0
 62
     0
 10
217.12
 20
102.818
 30
0.0
 11
217.12
 21
88.8175
 31
0.0
  0
LINE
  8
0
 62
     0
 10
217.12
 20
88.8175
 30
0.0
 11
203.12
 21
88.8175
 31
0.0
  0
LINE
  8
0
 62
     0
 10
203.12
 20
88.8175
 30
0.0
 11
203.12
 21
102.818
 31
0.0
  0
LINE
  8
0
 62
     0
 10
222.17
 20
102.818
 30
0.0
 11
236.17
 21
102.818
 31
0.0
  0
LINE
  8
0
 62
     0
 10
236.17
 20
102.818
 30
0.0
 11
236.17
 21
88.8175
 31
0.0
  0
LINE
  8
0
 62
     0
 10
236.17
 20
88.8175
 30
0.0
 11
222.17
 21
88.8175
 31
0.0
  0
LINE
  8
0
 62
     0
 10
222.17
 20
88.8175
 30
0.0
 11
222.17
 21
102.818
 31
0.0
  0
LINE
  8
0
 62
     0
 10
83.7999
 20
112.864
 30
0.0
 11
83.3533
 21
112.637
 31
0.0
  0
LINE
  8
0
 62
     0
 10
83.3533
 20
112.637
 30
0.0
 11
82.9991
 21
112.284
 31
0.0
  0
LINE
  8
0
 62
     0
 10
82.9991
 20
112.284
 30
0.0
 11
82.7733
 21
111.838
 31
0.0
  0
LINE
  8
0
 62
     0
 10
82.7733
 20
111.838
 30
0.0
 11
82.6946
 21
111.344
 31
0.0
  0
LINE
  8
0
 62
     0
 10
82.6946
 20
111.344
 30
0.0
 11
82.7733
 21
110.848
 31
0.0
  0
LINE
  8
0
 62
     0
 10
82.7733
 20
110.848
 30
0.0
 11
82.9991
 21
110.403
 31
0.0
  0
LINE
  8
0
 62
     0
 10
82.9991
 20
110.403
 30
0.0
 11
83.3533
 21
110.05
 31
0.0
  0
LINE
  8
0
 62
     0
 10
83.3533
 20
110.05
 30
0.0
 11
83.7999
 21
109.821
 31
0.0
  0
LINE
  8
0
 62
     0
 10
83.7999
 20
109.821
 30
0.0
 11
84.2945
 21
109.741
 31
0.0
  0
LINE
  8
0
 62
     0
 10
84.2945
 20
109.741
 30
0.0
 11
84.7894
 21
109.821
 31
0.0
  0
LINE
  8
0
 62
     0
 10
84.7894
 20
109.821
 30
0.0
 11
85.2343
 21
110.05
 31
0.0
  0
LINE
  8
0
 62
     0
 10
85.2343
 20
110.05
 30
0.0
 11
85.5885
 21
110.403
 31
0.0
  0
LINE
  8
0
 62
     0
 10
85.5885
 20
110.403
 30
0.0
 11
85.8174
 21
110.848
 31
0.0
  0
LINE
  8
0
 62
     0
 10
85.8174
 20
110.848
 30
0.0
 11
85.8943
 21
111.344
 31
0.0
  0
LINE
  8
0
 62
     0
 10
85.8943
 20
111.344
 30
0.0
 11
85.8174
 21
111.838
 31
0.0
  0
LINE
  8
0
 62
     0
 10
85.8174
 20
111.838
 30
0.0
 11
85.5885
 21
112.284
 31
0.0
  0
LINE
  8
0
 62
     0
 10
85.5885
 20
112.284
 30
0.0
 11
85.2343
 21
112.637
 31
0.0
  0
LINE
  8
0
 62
     0
 10
85.2343
 20
112.637
 30
0.0
 11
84.7894
 21
112.864
 31
0.0
  0
LINE
  8
0
 62
     0
 10
84.7894
 20
112.864
 30
0.0
 11
84.2945
 21
112.944
 31
0.0
  0
LINE
  8
0
 62
     0
 10
84.2945
 20
112.944
 30
0.0
 11
83.7999
 21
112.864
 31
0.0
  0
LINE
  8
0
 62
     0
 10
164
 20
112.864
 30
0.0
 11
163.555
 21
112.637
 31
0.0
  0
LINE
  8
0
 62
     0
 10
163.555
 20
112.637
 30
0.0
 11
163.201
 21
112.284
 31
0.0
  0
LINE
  8
0
 62
     0
 10
163.201
 20
112.284
 30
0.0
 11
162.972
 21
111.838
 31
0.0
  0
LINE
  8
0
 62
     0
 10
162.972
 20
111.838
 30
0.0
 11
162.895
 21
111.344
 31
0.0
  0
LINE
  8
0
 62
     0
 10
162.895
 20
111.344
 30
0.0
 11
162.972
 21
110.848
 31
0.0
  0
LINE
  8
0
 62
     0
 10
162.972
 20
110.848
 30
0.0
 11
163.201
 21
110.403
 31
0.0
  0
LINE
  8
0
 62
     0
 10
163.201
 20
110.403
 30
0.0
 11
163.555
 21
110.05
 31
0.0
  0
LINE
  8
0
 62
     0
 10
163.555
 20
110.05
 30
0.0
 11
164
 21
109.821
 31
0.0
  0
LINE
  8
0
 62
     0
 10
164
 20
109.821
 30
0.0
 11
164.495
 21
109.741
 31
0.0
  0
LINE
  8
0
 62
     0
 10
164.495
 20
109.741
 30
0.0
 11
164.99
 21
109.821
 31
0.0
  0
LINE
  8
0
 62
     0
 10
164.99
 20
109.821
 30
0.0
 11
165.436
 21
110.05
 31
0.0
  0
LINE
  8
0
 62
     0
 10
165.436
 20
110.05
 30
0.0
 11
165.79
 21
110.403
 31
0.0
  0
LINE
  8
0
 62
     0
 10
165.79
 20
110.403
 30
0.0
 11
166.017
 21
110.848
 31
0.0
  0
LINE
  8
0
 62
     0
 10
166.017
 20
110.848
 30
0.0
 11
166.095
 21
111.344
 31
0.0
  0
LINE
  8
0
 62
     0
 10
166.095
 20
111.344
 30
0.0
 11
166.017
 21
111.838
 31
0.0
  0
LINE
  8
0
 62
     0
 10
166.017
 20
111.838
 30
0.0
 11
165.79
 21
112.284
 31
0.0
  0
LINE
  8
0
 62
     0
 10
165.79
 20
112.284
 30
0.0
 11
165.436
 21
112.637
 31
0.0
  0
LINE
  8
0
 62
     0
 10
165.436
 20
112.637
 30
0.0
 11
164.99
 21
112.864
 31
0.0
  0
LINE
  8
0
 62
     0
 10
164.99
 20
112.864
 30
0.0
 11
164.495
 21
112.944
 31
0.0
  0
LINE
  8
0
 62
     0
 10
164.495
 20
112.944
 30
0.0
 11
164
 21
112.864
 31
0.0
  0
LINE
  8
0
 62
     0
 10
244.201
 20
112.864
 30
0.0
 11
243.754
 21
112.637
 31
0.0
  0
LINE
  8
0
 62
     0
 10
243.754
 20
112.637
 30
0.0
 11
243.4
 21
112.284
 31
0.0
  0
LINE
  8
0
 62
     0
 10
243.4
 20
112.284
 30
0.0
 11
243.174
 21
111.838
 31
0.0
  0
LINE
  8
0
 62
     0
 10
243.174
 20
111.838
 30
0.0
 11
243.096
 21
111.344
 31
0.0
  0
LINE
  8
0
 62
     0
 10
243.096
 20
111.344
 30
0.0
 11
243.174
 21
110.848
 31
0.0
  0
LINE
  8
0
 62
     0
 10
243.174
 20
110.848
 30
0.0
 11
243.4
 21
110.403
 31
0.0
  0
LINE
  8
0
 62
     0
 10
243.4
 20
110.403
 30
0.0
 11
243.754
 21
110.05
 31
0.0
  0
LINE
  8
0
 62
     0
 10
243.754
 20
110.05
 30
0.0
 11
244.201
 21
109.821
 31
0.0
  0
LINE
  8
0
 62
     0
 10
244.201
 20
109.821
 30
0.0
 11
244.695
 21
109.741
 31
0.0
  0
LINE
  8
0
 62
     0
 10
244.695
 20
109.741
 30
0.0
 11
245.19
 21
109.821
 31
0.0
  0
LINE
  8
0
 62
     0
 10
245.19
 20
109.821
 30
0.0
 11
245.635
 21
110.05
 31
0.0
  0
LINE
  8
0
 62
     0
 10
245.635
 20
110.05
 30
0.0
 11
245.989
 21
110.403
 31
0.0
  0
LINE
  8
0
 62
     0
 10
245.989
 20
110.403
 30
0.0
 11
246.217
 21
110.848
 31
0.0
  0
LINE
  8
0
 62
     0
 10
246.217
 20
110.848
 30
0.0
 11
246.295
 21
111.344
 31
0.0
  0
LINE
  8
0
 62
     0
 10
246.295
 20
111.344
 30
0.0
 11
246.217
 21
111.838
 31
0.0
  0
LINE
  8
0
 62
     0
 10
246.217
 20
111.838
 30
0.0
 11
245.989
 21
112.284
 31
0.0
  0
LINE
  8
0
 62
     0
 10
245.989
 20
112.284
 30
0.0
 11
245.635
 21
112.637
 31
0.0
  0
LINE
  8
0
 62
     0
 10
245.635
 20
112.637
 30
0.0
 11
245.19
 21
112.864
 31
0.0
  0
LINE
  8
0
 62
     0
 10
245.19
 20
112.864
 30
0.0
 11
244.695
 21
112.944
 31
0.0
  0
LINE
  8
0
 62
     0
 10
244.695
 20
112.944
 30
0.0
 11
244.201
 21
112.864
 31
0.0
  0
LINE
  8
0
 62
     0
 10
3.59943
 20
112.864
 30
0.0
 11
3.15295
 21
112.637
 31
0.0
  0
LINE
  8
0
 62
     0
 10
3.15295
 20
112.637
 30
0.0
 11
2.80017
 21
112.284
 31
0.0
  0
LINE
  8
0
 62
     0
 10
2.80017
 20
112.284
 30
0.0
 11
2.5728
 21
111.838
 31
0.0
  0
LINE
  8
0
 62
     0
 10
2.5728
 20
111.838
 30
0.0
 11
2.49425
 21
111.344
 31
0.0
  0
LINE
  8
0
 62
     0
 10
2.49425
 20
111.344
 30
0.0
 11
2.5728
 21
110.848
 31
0.0
  0
LINE
  8
0
 62
     0
 10
2.5728
 20
110.848
 30
0.0
 11
2.80017
 21
110.403
 31
0.0
  0
LINE
  8
0
 62
     0
 10
2.80017
 20
110.403
 30
0.0
 11
3.15295
 21
110.05
 31
0.0
  0
LINE
  8
0
 62
     0
 10
3.15295
 20
110.05
 30
0.0
 11
3.59943
 21
109.821
 31
0.0
  0
LINE
  8
0
 62
     0
 10
3.59943
 20
109.821
 30
0.0
 11
4.09416
 21
109.741
 31
0.0
  0
LINE
  8
0
 62
     0
 10
4.09416
 20
109.741
 30
0.0
 11
4.58886
 21
109.821
 31
0.0
  0
LINE
  8
0
 62
     0
 10
4.58886
 20
109.821
 30
0.0
 11
5.03534
 21
110.05
 31
0.0
  0
LINE
  8
0
 62
     0
 10
5.03534
 20
110.05
 30
0.0
 11
5.38812
 21
110.403
 31
0.0
  0
LINE
  8
0
 62
     0
 10
5.38812
 20
110.403
 30
0.0
 11
5.61552
 21
110.848
 31
0.0
  0
LINE
  8
0
 62
     0
 10
5.61552
 20
110.848
 30
0.0
 11
5.69542
 21
111.344
 31
0.0
  0
LINE
  8
0
 62
     0
 10
5.69542
 20
111.344
 30
0.0
 11
5.61552
 21
111.838
 31
0.0
  0
LINE
  8
0
 62
     0
 10
5.61552
 20
111.838
 30
0.0
 11
5.38812
 21
112.284
 31
0.0
  0
LINE
  8
0
 62
     0
 10
5.38812
 20
112.284
 30
0.0
 11
5.03534
 21
112.637
 31
0.0
  0
LINE
  8
0
 62
     0
 10
5.03534
 20
112.637
 30
0.0
 11
4.58886
 21
112.864
 31
0.0
  0
LINE
  8
0
 62
     0
 10
4.58886
 20
112.864
 30
0.0
 11
4.09416
 21
112.944
 31
0.0
  0
LINE
  8
0
 62
     0
 10
4.09416
 20
112.944
 30
0.0
 11
3.59943
 21
112.864
 31
0.0
  0
ENDSEC
  0
EOF
