  0
SECTION
  2
HEADER
  9
$ACADVER
  1
AC1009
  9
$EXTMIN
 10
0.0
 20
0.0
 30
0.0
  9
$EXTMAX
 10
1000.0
 20
1000.0
 30
0.0
  9
$FILLMODE
 70
 0
  9
$SPLFRAME
 70
 1
  0
ENDSEC
  0
SECTION
  2
TABLES
  0
TABLE
  2
LAYER
 70
1
  0
LAYER
  2
0
 70
     0
 62
     7
  6
CONTINUOUS
  0
ENDTAB
  0
ENDSEC
  0
SECTION
  2
ENTITIES
  0
LINE
  8
0
 62
     0
 10
0.0950846
 20
95.3424
 30
0.0
 11
204.883
 21
95.3424
 31
0.0
  0
LINE
  8
0
 62
     0
 10
204.883
 20
95.3424
 30
0.0
 11
204.883
 21
0.0923286
 31
0.0
  0
LINE
  8
0
 62
     0
 10
204.883
 20
0.0923286
 30
0.0
 11
0.0950846
 21
0.0923286
 31
0.0
  0
LINE
  8
0
 62
     0
 10
0.0950846
 20
0.0923286
 30
0.0
 11
0.0950846
 21
95.3424
 31
0.0
  0
LINE
  8
0
 62
     0
 10
150.844
 20
16.0693
 30
0.0
 11
154.143
 21
16.0693
 31
0.0
  0
LINE
  8
0
 62
     0
 10
154.143
 20
16.0693
 30
0.0
 11
154.143
 21
1.86724
 31
0.0
  0
LINE
  8
0
 62
     0
 10
154.143
 20
1.86724
 30
0.0
 11
150.844
 21
1.86724
 31
0.0
  0
LINE
  8
0
 62
     0
 10
150.844
 20
1.86724
 30
0.0
 11
150.844
 21
16.0693
 31
0.0
  0
LINE
  8
0
 62
     0
 10
188.944
 20
16.0693
 30
0.0
 11
192.243
 21
16.0693
 31
0.0
  0
LINE
  8
0
 62
     0
 10
192.243
 20
16.0693
 30
0.0
 11
192.243
 21
1.86724
 31
0.0
  0
LINE
  8
0
 62
     0
 10
192.243
 20
1.86724
 30
0.0
 11
188.944
 21
1.86724
 31
0.0
  0
LINE
  8
0
 62
     0
 10
188.944
 20
1.86724
 30
0.0
 11
188.944
 21
16.0693
 31
0.0
  0
LINE
  8
0
 62
     0
 10
2.61965
 20
16.6178
 30
0.0
 11
16.6192
 21
16.6178
 31
0.0
  0
LINE
  8
0
 62
     0
 10
16.6192
 20
16.6178
 30
0.0
 11
16.6192
 21
2.61827
 31
0.0
  0
LINE
  8
0
 62
     0
 10
16.6192
 20
2.61827
 30
0.0
 11
2.61965
 21
2.61827
 31
0.0
  0
LINE
  8
0
 62
     0
 10
2.61965
 20
2.61827
 30
0.0
 11
2.61965
 21
16.6178
 31
0.0
  0
LINE
  8
0
 62
     0
 10
21.6697
 20
16.6178
 30
0.0
 11
35.669
 21
16.6178
 31
0.0
  0
LINE
  8
0
 62
     0
 10
35.669
 20
16.6178
 30
0.0
 11
35.669
 21
2.61827
 31
0.0
  0
LINE
  8
0
 62
     0
 10
35.669
 20
2.61827
 30
0.0
 11
21.6697
 21
2.61827
 31
0.0
  0
LINE
  8
0
 62
     0
 10
21.6697
 20
2.61827
 30
0.0
 11
21.6697
 21
16.6178
 31
0.0
  0
LINE
  8
0
 62
     0
 10
40.7197
 20
16.6178
 30
0.0
 11
54.719
 21
16.6178
 31
0.0
  0
LINE
  8
0
 62
     0
 10
54.719
 20
16.6178
 30
0.0
 11
54.719
 21
2.61827
 31
0.0
  0
LINE
  8
0
 62
     0
 10
54.719
 20
2.61827
 30
0.0
 11
40.7197
 21
2.61827
 31
0.0
  0
LINE
  8
0
 62
     0
 10
40.7197
 20
2.61827
 30
0.0
 11
40.7197
 21
16.6178
 31
0.0
  0
LINE
  8
0
 62
     0
 10
74.0572
 20
16.6178
 30
0.0
 11
88.0565
 21
16.6178
 31
0.0
  0
LINE
  8
0
 62
     0
 10
88.0565
 20
16.6178
 30
0.0
 11
88.0565
 21
2.61827
 31
0.0
  0
LINE
  8
0
 62
     0
 10
88.0565
 20
2.61827
 30
0.0
 11
74.0572
 21
2.61827
 31
0.0
  0
LINE
  8
0
 62
     0
 10
74.0572
 20
2.61827
 30
0.0
 11
74.0572
 21
16.6178
 31
0.0
  0
LINE
  8
0
 62
     0
 10
100.251
 20
16.6178
 30
0.0
 11
114.25
 21
16.6178
 31
0.0
  0
LINE
  8
0
 62
     0
 10
114.25
 20
16.6178
 30
0.0
 11
114.25
 21
2.61827
 31
0.0
  0
LINE
  8
0
 62
     0
 10
114.25
 20
2.61827
 30
0.0
 11
100.251
 21
2.61827
 31
0.0
  0
LINE
  8
0
 62
     0
 10
100.251
 20
2.61827
 30
0.0
 11
100.251
 21
16.6178
 31
0.0
  0
LINE
  8
0
 62
     0
 10
124.062
 20
16.6178
 30
0.0
 11
138.063
 21
16.6178
 31
0.0
  0
LINE
  8
0
 62
     0
 10
138.063
 20
16.6178
 30
0.0
 11
138.063
 21
2.61827
 31
0.0
  0
LINE
  8
0
 62
     0
 10
138.063
 20
2.61827
 30
0.0
 11
124.062
 21
2.61827
 31
0.0
  0
LINE
  8
0
 62
     0
 10
124.062
 20
2.61827
 30
0.0
 11
124.062
 21
16.6178
 31
0.0
  0
LINE
  8
0
 62
     0
 10
164.545
 20
16.6178
 30
0.0
 11
178.544
 21
16.6178
 31
0.0
  0
LINE
  8
0
 62
     0
 10
178.544
 20
16.6178
 30
0.0
 11
178.544
 21
2.61827
 31
0.0
  0
LINE
  8
0
 62
     0
 10
178.544
 20
2.61827
 30
0.0
 11
164.545
 21
2.61827
 31
0.0
  0
LINE
  8
0
 62
     0
 10
164.545
 20
2.61827
 30
0.0
 11
164.545
 21
16.6178
 31
0.0
  0
LINE
  8
0
 62
     0
 10
2.61965
 20
35.6676
 30
0.0
 11
16.6192
 21
35.6676
 31
0.0
  0
LINE
  8
0
 62
     0
 10
16.6192
 20
35.6676
 30
0.0
 11
16.6192
 21
21.6683
 31
0.0
  0
LINE
  8
0
 62
     0
 10
16.6192
 20
21.6683
 30
0.0
 11
2.61965
 21
21.6683
 31
0.0
  0
LINE
  8
0
 62
     0
 10
2.61965
 20
21.6683
 30
0.0
 11
2.61965
 21
35.6676
 31
0.0
  0
LINE
  8
0
 62
     0
 10
21.6697
 20
35.6676
 30
0.0
 11
35.669
 21
35.6676
 31
0.0
  0
LINE
  8
0
 62
     0
 10
35.669
 20
35.6676
 30
0.0
 11
35.669
 21
21.6683
 31
0.0
  0
LINE
  8
0
 62
     0
 10
35.669
 20
21.6683
 30
0.0
 11
21.6697
 21
21.6683
 31
0.0
  0
LINE
  8
0
 62
     0
 10
21.6697
 20
21.6683
 30
0.0
 11
21.6697
 21
35.6676
 31
0.0
  0
LINE
  8
0
 62
     0
 10
40.7197
 20
35.6676
 30
0.0
 11
54.719
 21
35.6676
 31
0.0
  0
LINE
  8
0
 62
     0
 10
54.719
 20
35.6676
 30
0.0
 11
54.719
 21
21.6683
 31
0.0
  0
LINE
  8
0
 62
     0
 10
54.719
 20
21.6683
 30
0.0
 11
40.7197
 21
21.6683
 31
0.0
  0
LINE
  8
0
 62
     0
 10
40.7197
 20
21.6683
 30
0.0
 11
40.7197
 21
35.6676
 31
0.0
  0
LINE
  8
0
 62
     0
 10
71.676
 20
35.6676
 30
0.0
 11
85.6753
 21
35.6676
 31
0.0
  0
LINE
  8
0
 62
     0
 10
85.6753
 20
35.6676
 30
0.0
 11
85.6753
 21
21.6683
 31
0.0
  0
LINE
  8
0
 62
     0
 10
85.6753
 20
21.6683
 30
0.0
 11
71.676
 21
21.6683
 31
0.0
  0
LINE
  8
0
 62
     0
 10
71.676
 20
21.6683
 30
0.0
 11
71.676
 21
35.6676
 31
0.0
  0
LINE
  8
0
 62
     0
 10
93.1072
 20
35.6676
 30
0.0
 11
107.107
 21
35.6676
 31
0.0
  0
LINE
  8
0
 62
     0
 10
107.107
 20
35.6676
 30
0.0
 11
107.107
 21
21.6683
 31
0.0
  0
LINE
  8
0
 62
     0
 10
107.107
 20
21.6683
 30
0.0
 11
93.1072
 21
21.6683
 31
0.0
  0
LINE
  8
0
 62
     0
 10
93.1072
 20
21.6683
 30
0.0
 11
93.1072
 21
35.6676
 31
0.0
  0
LINE
  8
0
 62
     0
 10
112.157
 20
35.6676
 30
0.0
 11
126.157
 21
35.6676
 31
0.0
  0
LINE
  8
0
 62
     0
 10
126.157
 20
35.6676
 30
0.0
 11
126.157
 21
21.6683
 31
0.0
  0
LINE
  8
0
 62
     0
 10
126.157
 20
21.6683
 30
0.0
 11
112.157
 21
21.6683
 31
0.0
  0
LINE
  8
0
 62
     0
 10
112.157
 20
21.6683
 30
0.0
 11
112.157
 21
35.6676
 31
0.0
  0
LINE
  8
0
 62
     0
 10
131.207
 20
35.6676
 30
0.0
 11
145.207
 21
35.6676
 31
0.0
  0
LINE
  8
0
 62
     0
 10
145.207
 20
35.6676
 30
0.0
 11
145.207
 21
21.6683
 31
0.0
  0
LINE
  8
0
 62
     0
 10
145.207
 20
21.6683
 30
0.0
 11
131.207
 21
21.6683
 31
0.0
  0
LINE
  8
0
 62
     0
 10
131.207
 20
21.6683
 30
0.0
 11
131.207
 21
35.6676
 31
0.0
  0
LINE
  8
0
 62
     0
 10
150.257
 20
35.6676
 30
0.0
 11
164.257
 21
35.6676
 31
0.0
  0
LINE
  8
0
 62
     0
 10
164.257
 20
35.6676
 30
0.0
 11
164.257
 21
21.6683
 31
0.0
  0
LINE
  8
0
 62
     0
 10
164.257
 20
21.6683
 30
0.0
 11
150.257
 21
21.6683
 31
0.0
  0
LINE
  8
0
 62
     0
 10
150.257
 20
21.6683
 30
0.0
 11
150.257
 21
35.6676
 31
0.0
  0
LINE
  8
0
 62
     0
 10
169.307
 20
35.6676
 30
0.0
 11
183.307
 21
35.6676
 31
0.0
  0
LINE
  8
0
 62
     0
 10
183.307
 20
35.6676
 30
0.0
 11
183.307
 21
21.6683
 31
0.0
  0
LINE
  8
0
 62
     0
 10
183.307
 20
21.6683
 30
0.0
 11
169.307
 21
21.6683
 31
0.0
  0
LINE
  8
0
 62
     0
 10
169.307
 20
21.6683
 30
0.0
 11
169.307
 21
35.6676
 31
0.0
  0
LINE
  8
0
 62
     0
 10
188.357
 20
35.6676
 30
0.0
 11
202.357
 21
35.6676
 31
0.0
  0
LINE
  8
0
 62
     0
 10
202.357
 20
35.6676
 30
0.0
 11
202.357
 21
21.6683
 31
0.0
  0
LINE
  8
0
 62
     0
 10
202.357
 20
21.6683
 30
0.0
 11
188.357
 21
21.6683
 31
0.0
  0
LINE
  8
0
 62
     0
 10
188.357
 20
21.6683
 30
0.0
 11
188.357
 21
35.6676
 31
0.0
  0
LINE
  8
0
 62
     0
 10
2.61965
 20
54.7176
 30
0.0
 11
16.6192
 21
54.7176
 31
0.0
  0
LINE
  8
0
 62
     0
 10
16.6192
 20
54.7176
 30
0.0
 11
16.6192
 21
40.7183
 31
0.0
  0
LINE
  8
0
 62
     0
 10
16.6192
 20
40.7183
 30
0.0
 11
2.61965
 21
40.7183
 31
0.0
  0
LINE
  8
0
 62
     0
 10
2.61965
 20
40.7183
 30
0.0
 11
2.61965
 21
54.7176
 31
0.0
  0
LINE
  8
0
 62
     0
 10
21.6697
 20
54.7176
 30
0.0
 11
35.669
 21
54.7176
 31
0.0
  0
LINE
  8
0
 62
     0
 10
35.669
 20
54.7176
 30
0.0
 11
35.669
 21
40.7183
 31
0.0
  0
LINE
  8
0
 62
     0
 10
35.669
 20
40.7183
 30
0.0
 11
21.6697
 21
40.7183
 31
0.0
  0
LINE
  8
0
 62
     0
 10
21.6697
 20
40.7183
 30
0.0
 11
21.6697
 21
54.7176
 31
0.0
  0
LINE
  8
0
 62
     0
 10
40.7197
 20
54.7176
 30
0.0
 11
54.719
 21
54.7176
 31
0.0
  0
LINE
  8
0
 62
     0
 10
54.719
 20
54.7176
 30
0.0
 11
54.719
 21
40.7183
 31
0.0
  0
LINE
  8
0
 62
     0
 10
54.719
 20
40.7183
 30
0.0
 11
40.7197
 21
40.7183
 31
0.0
  0
LINE
  8
0
 62
     0
 10
40.7197
 20
40.7183
 30
0.0
 11
40.7197
 21
54.7176
 31
0.0
  0
LINE
  8
0
 62
     0
 10
76.4385
 20
54.7176
 30
0.0
 11
90.4378
 21
54.7176
 31
0.0
  0
LINE
  8
0
 62
     0
 10
90.4378
 20
54.7176
 30
0.0
 11
90.4378
 21
40.7183
 31
0.0
  0
LINE
  8
0
 62
     0
 10
90.4378
 20
40.7183
 30
0.0
 11
76.4385
 21
40.7183
 31
0.0
  0
LINE
  8
0
 62
     0
 10
76.4385
 20
40.7183
 30
0.0
 11
76.4385
 21
54.7176
 31
0.0
  0
LINE
  8
0
 62
     0
 10
102.632
 20
54.7176
 30
0.0
 11
116.632
 21
54.7176
 31
0.0
  0
LINE
  8
0
 62
     0
 10
116.632
 20
54.7176
 30
0.0
 11
116.632
 21
40.7183
 31
0.0
  0
LINE
  8
0
 62
     0
 10
116.632
 20
40.7183
 30
0.0
 11
102.632
 21
40.7183
 31
0.0
  0
LINE
  8
0
 62
     0
 10
102.632
 20
40.7183
 30
0.0
 11
102.632
 21
54.7176
 31
0.0
  0
LINE
  8
0
 62
     0
 10
121.682
 20
54.7176
 30
0.0
 11
135.682
 21
54.7176
 31
0.0
  0
LINE
  8
0
 62
     0
 10
135.682
 20
54.7176
 30
0.0
 11
135.682
 21
40.7183
 31
0.0
  0
LINE
  8
0
 62
     0
 10
135.682
 20
40.7183
 30
0.0
 11
121.682
 21
40.7183
 31
0.0
  0
LINE
  8
0
 62
     0
 10
121.682
 20
40.7183
 30
0.0
 11
121.682
 21
54.7176
 31
0.0
  0
LINE
  8
0
 62
     0
 10
140.732
 20
54.7176
 30
0.0
 11
154.732
 21
54.7176
 31
0.0
  0
LINE
  8
0
 62
     0
 10
154.732
 20
54.7176
 30
0.0
 11
154.732
 21
40.7183
 31
0.0
  0
LINE
  8
0
 62
     0
 10
154.732
 20
40.7183
 30
0.0
 11
140.732
 21
40.7183
 31
0.0
  0
LINE
  8
0
 62
     0
 10
140.732
 20
40.7183
 30
0.0
 11
140.732
 21
54.7176
 31
0.0
  0
LINE
  8
0
 62
     0
 10
159.782
 20
54.7176
 30
0.0
 11
173.782
 21
54.7176
 31
0.0
  0
LINE
  8
0
 62
     0
 10
173.782
 20
54.7176
 30
0.0
 11
173.782
 21
40.7183
 31
0.0
  0
LINE
  8
0
 62
     0
 10
173.782
 20
40.7183
 30
0.0
 11
159.782
 21
40.7183
 31
0.0
  0
LINE
  8
0
 62
     0
 10
159.782
 20
40.7183
 30
0.0
 11
159.782
 21
54.7176
 31
0.0
  0
LINE
  8
0
 62
     0
 10
178.832
 20
54.7176
 30
0.0
 11
192.832
 21
54.7176
 31
0.0
  0
LINE
  8
0
 62
     0
 10
192.832
 20
54.7176
 30
0.0
 11
192.832
 21
40.7183
 31
0.0
  0
LINE
  8
0
 62
     0
 10
192.832
 20
40.7183
 30
0.0
 11
178.832
 21
40.7183
 31
0.0
  0
LINE
  8
0
 62
     0
 10
178.832
 20
40.7183
 30
0.0
 11
178.832
 21
54.7176
 31
0.0
  0
LINE
  8
0
 62
     0
 10
2.61965
 20
73.7676
 30
0.0
 11
16.6192
 21
73.7676
 31
0.0
  0
LINE
  8
0
 62
     0
 10
16.6192
 20
73.7676
 30
0.0
 11
16.6192
 21
59.7683
 31
0.0
  0
LINE
  8
0
 62
     0
 10
16.6192
 20
59.7683
 30
0.0
 11
2.61965
 21
59.7683
 31
0.0
  0
LINE
  8
0
 62
     0
 10
2.61965
 20
59.7683
 30
0.0
 11
2.61965
 21
73.7676
 31
0.0
  0
LINE
  8
0
 62
     0
 10
21.6697
 20
73.7676
 30
0.0
 11
35.669
 21
73.7676
 31
0.0
  0
LINE
  8
0
 62
     0
 10
35.669
 20
73.7676
 30
0.0
 11
35.669
 21
59.7683
 31
0.0
  0
LINE
  8
0
 62
     0
 10
35.669
 20
59.7683
 30
0.0
 11
21.6697
 21
59.7683
 31
0.0
  0
LINE
  8
0
 62
     0
 10
21.6697
 20
59.7683
 30
0.0
 11
21.6697
 21
73.7676
 31
0.0
  0
LINE
  8
0
 62
     0
 10
40.7197
 20
73.7676
 30
0.0
 11
54.719
 21
73.7676
 31
0.0
  0
LINE
  8
0
 62
     0
 10
54.719
 20
73.7676
 30
0.0
 11
54.719
 21
59.7683
 31
0.0
  0
LINE
  8
0
 62
     0
 10
54.719
 20
59.7683
 30
0.0
 11
40.7197
 21
59.7683
 31
0.0
  0
LINE
  8
0
 62
     0
 10
40.7197
 20
59.7683
 30
0.0
 11
40.7197
 21
73.7676
 31
0.0
  0
LINE
  8
0
 62
     0
 10
74.0572
 20
73.7676
 30
0.0
 11
88.0565
 21
73.7676
 31
0.0
  0
LINE
  8
0
 62
     0
 10
88.0565
 20
73.7676
 30
0.0
 11
88.0565
 21
59.7683
 31
0.0
  0
LINE
  8
0
 62
     0
 10
88.0565
 20
59.7683
 30
0.0
 11
74.0572
 21
59.7683
 31
0.0
  0
LINE
  8
0
 62
     0
 10
74.0572
 20
59.7683
 30
0.0
 11
74.0572
 21
73.7676
 31
0.0
  0
LINE
  8
0
 62
     0
 10
97.8697
 20
73.7676
 30
0.0
 11
111.869
 21
73.7676
 31
0.0
  0
LINE
  8
0
 62
     0
 10
111.869
 20
73.7676
 30
0.0
 11
111.869
 21
59.7683
 31
0.0
  0
LINE
  8
0
 62
     0
 10
111.869
 20
59.7683
 30
0.0
 11
97.8697
 21
59.7683
 31
0.0
  0
LINE
  8
0
 62
     0
 10
97.8697
 20
59.7683
 30
0.0
 11
97.8697
 21
73.7676
 31
0.0
  0
LINE
  8
0
 62
     0
 10
116.92
 20
73.7676
 30
0.0
 11
130.919
 21
73.7676
 31
0.0
  0
LINE
  8
0
 62
     0
 10
130.919
 20
73.7676
 30
0.0
 11
130.919
 21
59.7683
 31
0.0
  0
LINE
  8
0
 62
     0
 10
130.919
 20
59.7683
 30
0.0
 11
116.92
 21
59.7683
 31
0.0
  0
LINE
  8
0
 62
     0
 10
116.92
 20
59.7683
 30
0.0
 11
116.92
 21
73.7676
 31
0.0
  0
LINE
  8
0
 62
     0
 10
135.97
 20
73.7676
 30
0.0
 11
149.969
 21
73.7676
 31
0.0
  0
LINE
  8
0
 62
     0
 10
149.969
 20
73.7676
 30
0.0
 11
149.969
 21
59.7683
 31
0.0
  0
LINE
  8
0
 62
     0
 10
149.969
 20
59.7683
 30
0.0
 11
135.97
 21
59.7683
 31
0.0
  0
LINE
  8
0
 62
     0
 10
135.97
 20
59.7683
 30
0.0
 11
135.97
 21
73.7676
 31
0.0
  0
LINE
  8
0
 62
     0
 10
155.02
 20
73.7676
 30
0.0
 11
169.019
 21
73.7676
 31
0.0
  0
LINE
  8
0
 62
     0
 10
169.019
 20
73.7676
 30
0.0
 11
169.019
 21
59.7683
 31
0.0
  0
LINE
  8
0
 62
     0
 10
169.019
 20
59.7683
 30
0.0
 11
155.02
 21
59.7683
 31
0.0
  0
LINE
  8
0
 62
     0
 10
155.02
 20
59.7683
 30
0.0
 11
155.02
 21
73.7676
 31
0.0
  0
LINE
  8
0
 62
     0
 10
174.07
 20
73.7676
 30
0.0
 11
188.069
 21
73.7676
 31
0.0
  0
LINE
  8
0
 62
     0
 10
188.069
 20
73.7676
 30
0.0
 11
188.069
 21
59.7683
 31
0.0
  0
LINE
  8
0
 62
     0
 10
188.069
 20
59.7683
 30
0.0
 11
174.07
 21
59.7683
 31
0.0
  0
LINE
  8
0
 62
     0
 10
174.07
 20
59.7683
 30
0.0
 11
174.07
 21
73.7676
 31
0.0
  0
LINE
  8
0
 62
     0
 10
2.61965
 20
92.8176
 30
0.0
 11
16.6192
 21
92.8176
 31
0.0
  0
LINE
  8
0
 62
     0
 10
16.6192
 20
92.8176
 30
0.0
 11
16.6192
 21
78.8183
 31
0.0
  0
LINE
  8
0
 62
     0
 10
16.6192
 20
78.8183
 30
0.0
 11
2.61965
 21
78.8183
 31
0.0
  0
LINE
  8
0
 62
     0
 10
2.61965
 20
78.8183
 30
0.0
 11
2.61965
 21
92.8176
 31
0.0
  0
LINE
  8
0
 62
     0
 10
21.6697
 20
92.8176
 30
0.0
 11
35.669
 21
92.8176
 31
0.0
  0
LINE
  8
0
 62
     0
 10
35.669
 20
92.8176
 30
0.0
 11
35.669
 21
78.8183
 31
0.0
  0
LINE
  8
0
 62
     0
 10
35.669
 20
78.8183
 30
0.0
 11
21.6697
 21
78.8183
 31
0.0
  0
LINE
  8
0
 62
     0
 10
21.6697
 20
78.8183
 30
0.0
 11
21.6697
 21
92.8176
 31
0.0
  0
LINE
  8
0
 62
     0
 10
40.7197
 20
92.8176
 30
0.0
 11
54.719
 21
92.8176
 31
0.0
  0
LINE
  8
0
 62
     0
 10
54.719
 20
92.8176
 30
0.0
 11
54.719
 21
78.8183
 31
0.0
  0
LINE
  8
0
 62
     0
 10
54.719
 20
78.8183
 30
0.0
 11
40.7197
 21
78.8183
 31
0.0
  0
LINE
  8
0
 62
     0
 10
40.7197
 20
78.8183
 30
0.0
 11
40.7197
 21
92.8176
 31
0.0
  0
LINE
  8
0
 62
     0
 10
69.2947
 20
92.8176
 30
0.0
 11
83.294
 21
92.8176
 31
0.0
  0
LINE
  8
0
 62
     0
 10
83.294
 20
92.8176
 30
0.0
 11
83.294
 21
78.8183
 31
0.0
  0
LINE
  8
0
 62
     0
 10
83.294
 20
78.8183
 30
0.0
 11
69.2947
 21
78.8183
 31
0.0
  0
LINE
  8
0
 62
     0
 10
69.2947
 20
78.8183
 30
0.0
 11
69.2947
 21
92.8176
 31
0.0
  0
LINE
  8
0
 62
     0
 10
88.3447
 20
92.8176
 30
0.0
 11
102.344
 21
92.8176
 31
0.0
  0
LINE
  8
0
 62
     0
 10
102.344
 20
92.8176
 30
0.0
 11
102.344
 21
78.8183
 31
0.0
  0
LINE
  8
0
 62
     0
 10
102.344
 20
78.8183
 30
0.0
 11
88.3447
 21
78.8183
 31
0.0
  0
LINE
  8
0
 62
     0
 10
88.3447
 20
78.8183
 30
0.0
 11
88.3447
 21
92.8176
 31
0.0
  0
LINE
  8
0
 62
     0
 10
107.395
 20
92.8176
 30
0.0
 11
121.394
 21
92.8176
 31
0.0
  0
LINE
  8
0
 62
     0
 10
121.394
 20
92.8176
 30
0.0
 11
121.394
 21
78.8183
 31
0.0
  0
LINE
  8
0
 62
     0
 10
121.394
 20
78.8183
 30
0.0
 11
107.395
 21
78.8183
 31
0.0
  0
LINE
  8
0
 62
     0
 10
107.395
 20
78.8183
 30
0.0
 11
107.395
 21
92.8176
 31
0.0
  0
LINE
  8
0
 62
     0
 10
126.445
 20
92.8176
 30
0.0
 11
140.444
 21
92.8176
 31
0.0
  0
LINE
  8
0
 62
     0
 10
140.444
 20
92.8176
 30
0.0
 11
140.444
 21
78.8183
 31
0.0
  0
LINE
  8
0
 62
     0
 10
140.444
 20
78.8183
 30
0.0
 11
126.445
 21
78.8183
 31
0.0
  0
LINE
  8
0
 62
     0
 10
126.445
 20
78.8183
 30
0.0
 11
126.445
 21
92.8176
 31
0.0
  0
LINE
  8
0
 62
     0
 10
145.495
 20
92.8176
 30
0.0
 11
159.494
 21
92.8176
 31
0.0
  0
LINE
  8
0
 62
     0
 10
159.494
 20
92.8176
 30
0.0
 11
159.494
 21
78.8183
 31
0.0
  0
LINE
  8
0
 62
     0
 10
159.494
 20
78.8183
 30
0.0
 11
145.495
 21
78.8183
 31
0.0
  0
LINE
  8
0
 62
     0
 10
145.495
 20
78.8183
 30
0.0
 11
145.495
 21
92.8176
 31
0.0
  0
LINE
  8
0
 62
     0
 10
164.545
 20
92.8176
 30
0.0
 11
178.544
 21
92.8176
 31
0.0
  0
LINE
  8
0
 62
     0
 10
178.544
 20
92.8176
 30
0.0
 11
178.544
 21
78.8183
 31
0.0
  0
LINE
  8
0
 62
     0
 10
178.544
 20
78.8183
 30
0.0
 11
164.545
 21
78.8183
 31
0.0
  0
LINE
  8
0
 62
     0
 10
164.545
 20
78.8183
 30
0.0
 11
164.545
 21
92.8176
 31
0.0
  0
LINE
  8
0
 62
     0
 10
183.595
 20
92.8176
 30
0.0
 11
197.594
 21
92.8176
 31
0.0
  0
LINE
  8
0
 62
     0
 10
197.594
 20
92.8176
 30
0.0
 11
197.594
 21
78.8183
 31
0.0
  0
LINE
  8
0
 62
     0
 10
197.594
 20
78.8183
 30
0.0
 11
183.595
 21
78.8183
 31
0.0
  0
LINE
  8
0
 62
     0
 10
183.595
 20
78.8183
 30
0.0
 11
183.595
 21
92.8176
 31
0.0
  0
ENDSEC
  0
EOF
