  0
SECTION
  2
HEADER
  9
$ACADVER
  1
AC1009
  9
$EXTMIN
 10
0.0
 20
0.0
 30
0.0
  9
$EXTMAX
 10
1000.0
 20
1000.0
 30
0.0
  9
$FILLMODE
 70
 0
  9
$SPLFRAME
 70
 1
  0
ENDSEC
  0
SECTION
  2
TABLES
  0
TABLE
  2
LAYER
 70
1
  0
LAYER
  2
0
 70
     0
 62
     7
  6
CONTINUOUS
  0
ENDTAB
  0
ENDSEC
  0
SECTION
  2
ENTITIES
  0
LINE
  8
0
 62
     0
 10
221.882
 20
115.342
 30
0.0
 11
222.118
 21
115.334
 31
0.0
  0
LINE
  8
0
 62
     0
 10
222.118
 20
115.334
 30
0.0
 11
222.352
 21
115.306
 31
0.0
  0
LINE
  8
0
 62
     0
 10
222.352
 20
115.306
 30
0.0
 11
222.582
 21
115.261
 31
0.0
  0
LINE
  8
0
 62
     0
 10
222.582
 20
115.261
 30
0.0
 11
222.81
 21
115.196
 31
0.0
  0
LINE
  8
0
 62
     0
 10
222.81
 20
115.196
 30
0.0
 11
223.031
 21
115.115
 31
0.0
  0
LINE
  8
0
 62
     0
 10
223.031
 20
115.115
 30
0.0
 11
223.245
 21
115.018
 31
0.0
  0
LINE
  8
0
 62
     0
 10
223.245
 20
115.018
 30
0.0
 11
223.45
 21
114.901
 31
0.0
  0
LINE
  8
0
 62
     0
 10
223.45
 20
114.901
 30
0.0
 11
223.646
 21
114.77
 31
0.0
  0
LINE
  8
0
 62
     0
 10
223.646
 20
114.77
 30
0.0
 11
223.83
 21
114.624
 31
0.0
  0
LINE
  8
0
 62
     0
 10
223.83
 20
114.624
 30
0.0
 11
224.004
 21
114.464
 31
0.0
  0
LINE
  8
0
 62
     0
 10
224.004
 20
114.464
 30
0.0
 11
224.164
 21
114.292
 31
0.0
  0
LINE
  8
0
 62
     0
 10
224.164
 20
114.292
 30
0.0
 11
224.31
 21
114.107
 31
0.0
  0
LINE
  8
0
 62
     0
 10
224.31
 20
114.107
 30
0.0
 11
224.441
 21
113.91
 31
0.0
  0
LINE
  8
0
 62
     0
 10
224.441
 20
113.91
 30
0.0
 11
224.555
 21
113.705
 31
0.0
  0
LINE
  8
0
 62
     0
 10
224.555
 20
113.705
 30
0.0
 11
224.655
 21
113.491
 31
0.0
  0
LINE
  8
0
 62
     0
 10
224.655
 20
113.491
 30
0.0
 11
224.736
 21
113.271
 31
0.0
  0
LINE
  8
0
 62
     0
 10
224.736
 20
113.271
 30
0.0
 11
224.8
 21
113.043
 31
0.0
  0
LINE
  8
0
 62
     0
 10
224.8
 20
113.043
 30
0.0
 11
224.846
 21
112.813
 31
0.0
  0
LINE
  8
0
 62
     0
 10
224.846
 20
112.813
 30
0.0
 11
224.874
 21
112.579
 31
0.0
  0
LINE
  8
0
 62
     0
 10
224.874
 20
112.579
 30
0.0
 11
224.883
 21
112.343
 31
0.0
  0
LINE
  8
0
 62
     0
 10
224.883
 20
112.343
 30
0.0
 11
224.883
 21
3.09232
 31
0.0
  0
LINE
  8
0
 62
     0
 10
224.883
 20
3.09232
 30
0.0
 11
224.874
 21
2.85667
 31
0.0
  0
LINE
  8
0
 62
     0
 10
224.874
 20
2.85667
 30
0.0
 11
224.846
 21
2.62241
 31
0.0
  0
LINE
  8
0
 62
     0
 10
224.846
 20
2.62241
 30
0.0
 11
224.8
 21
2.39227
 31
0.0
  0
LINE
  8
0
 62
     0
 10
224.8
 20
2.39227
 30
0.0
 11
224.736
 21
2.16352
 31
0.0
  0
LINE
  8
0
 62
     0
 10
224.736
 20
2.16352
 30
0.0
 11
224.655
 21
1.94303
 31
0.0
  0
LINE
  8
0
 62
     0
 10
224.655
 20
1.94303
 30
0.0
 11
224.555
 21
1.7322
 31
0.0
  0
LINE
  8
0
 62
     0
 10
224.555
 20
1.7322
 30
0.0
 11
224.441
 21
1.52549
 31
0.0
  0
LINE
  8
0
 62
     0
 10
224.441
 20
1.52549
 30
0.0
 11
224.31
 21
1.32843
 31
0.0
  0
LINE
  8
0
 62
     0
 10
224.31
 20
1.32843
 30
0.0
 11
224.164
 21
1.14515
 31
0.0
  0
LINE
  8
0
 62
     0
 10
224.164
 20
1.14515
 30
0.0
 11
224.004
 21
0.970139
 31
0.0
  0
LINE
  8
0
 62
     0
 10
224.004
 20
0.970139
 30
0.0
 11
223.83
 21
0.810288
 31
0.0
  0
LINE
  8
0
 62
     0
 10
223.83
 20
0.810288
 30
0.0
 11
223.646
 21
0.664214
 31
0.0
  0
LINE
  8
0
 62
     0
 10
223.646
 20
0.664214
 30
0.0
 11
223.45
 21
0.534681
 31
0.0
  0
LINE
  8
0
 62
     0
 10
223.45
 20
0.534681
 30
0.0
 11
223.245
 21
0.417544
 31
0.0
  0
LINE
  8
0
 62
     0
 10
223.245
 20
0.417544
 30
0.0
 11
223.031
 21
0.321083
 31
0.0
  0
LINE
  8
0
 62
     0
 10
223.031
 20
0.321083
 30
0.0
 11
222.81
 21
0.238401
 31
0.0
  0
LINE
  8
0
 62
     0
 10
222.81
 20
0.238401
 30
0.0
 11
222.582
 21
0.175011
 31
0.0
  0
LINE
  8
0
 62
     0
 10
222.582
 20
0.175011
 30
0.0
 11
222.352
 21
0.129536
 31
0.0
  0
LINE
  8
0
 62
     0
 10
222.352
 20
0.129536
 30
0.0
 11
222.118
 21
0.100597
 31
0.0
  0
LINE
  8
0
 62
     0
 10
222.118
 20
0.100597
 30
0.0
 11
221.882
 21
0.0909507
 31
0.0
  0
LINE
  8
0
 62
     0
 10
221.882
 20
0.0909507
 30
0.0
 11
3.09507
 21
0.0923286
 31
0.0
  0
LINE
  8
0
 62
     0
 10
3.09507
 20
0.0923286
 30
0.0
 11
2.85943
 21
0.100597
 31
0.0
  0
LINE
  8
0
 62
     0
 10
2.85943
 20
0.100597
 30
0.0
 11
2.62516
 21
0.129536
 31
0.0
  0
LINE
  8
0
 62
     0
 10
2.62516
 20
0.129536
 30
0.0
 11
2.39365
 21
0.175011
 31
0.0
  0
LINE
  8
0
 62
     0
 10
2.39365
 20
0.175011
 30
0.0
 11
2.16628
 21
0.238401
 31
0.0
  0
LINE
  8
0
 62
     0
 10
2.16628
 20
0.238401
 30
0.0
 11
1.94579
 21
0.321083
 31
0.0
  0
LINE
  8
0
 62
     0
 10
1.94579
 20
0.321083
 30
0.0
 11
1.7322
 21
0.417544
 31
0.0
  0
LINE
  8
0
 62
     0
 10
1.7322
 20
0.417544
 30
0.0
 11
1.52687
 21
0.534681
 31
0.0
  0
LINE
  8
0
 62
     0
 10
1.52687
 20
0.534681
 30
0.0
 11
1.33119
 21
0.664214
 31
0.0
  0
LINE
  8
0
 62
     0
 10
1.33119
 20
0.664214
 30
0.0
 11
1.14515
 21
0.810288
 31
0.0
  0
LINE
  8
0
 62
     0
 10
1.14515
 20
0.810288
 30
0.0
 11
0.972894
 21
0.970139
 31
0.0
  0
LINE
  8
0
 62
     0
 10
0.972894
 20
0.970139
 30
0.0
 11
0.813043
 21
1.14515
 31
0.0
  0
LINE
  8
0
 62
     0
 10
0.813043
 20
1.14515
 30
0.0
 11
0.666972
 21
1.32843
 31
0.0
  0
LINE
  8
0
 62
     0
 10
0.666972
 20
1.32843
 30
0.0
 11
0.537436
 21
1.52549
 31
0.0
  0
LINE
  8
0
 62
     0
 10
0.537436
 20
1.52549
 30
0.0
 11
0.420303
 21
1.7322
 31
0.0
  0
LINE
  8
0
 62
     0
 10
0.420303
 20
1.7322
 30
0.0
 11
0.322461
 21
1.94303
 31
0.0
  0
LINE
  8
0
 62
     0
 10
0.322461
 20
1.94303
 30
0.0
 11
0.241157
 21
2.16352
 31
0.0
  0
LINE
  8
0
 62
     0
 10
0.241157
 20
2.16352
 30
0.0
 11
0.176389
 21
2.39227
 31
0.0
  0
LINE
  8
0
 62
     0
 10
0.176389
 20
2.39227
 30
0.0
 11
0.130914
 21
2.62241
 31
0.0
  0
LINE
  8
0
 62
     0
 10
0.130914
 20
2.62241
 30
0.0
 11
0.103353
 21
2.85667
 31
0.0
  0
LINE
  8
0
 62
     0
 10
0.103353
 20
2.85667
 30
0.0
 11
0.0937066
 21
3.09232
 31
0.0
  0
LINE
  8
0
 62
     0
 10
0.0937066
 20
3.09232
 30
0.0
 11
0.0950846
 21
112.343
 31
0.0
  0
LINE
  8
0
 62
     0
 10
0.0950846
 20
112.343
 30
0.0
 11
0.103353
 21
112.579
 31
0.0
  0
LINE
  8
0
 62
     0
 10
0.103353
 20
112.579
 30
0.0
 11
0.130914
 21
112.813
 31
0.0
  0
LINE
  8
0
 62
     0
 10
0.130914
 20
112.813
 30
0.0
 11
0.176389
 21
113.043
 31
0.0
  0
LINE
  8
0
 62
     0
 10
0.176389
 20
113.043
 30
0.0
 11
0.241157
 21
113.271
 31
0.0
  0
LINE
  8
0
 62
     0
 10
0.241157
 20
113.271
 30
0.0
 11
0.322461
 21
113.491
 31
0.0
  0
LINE
  8
0
 62
     0
 10
0.322461
 20
113.491
 30
0.0
 11
0.420303
 21
113.705
 31
0.0
  0
LINE
  8
0
 62
     0
 10
0.420303
 20
113.705
 30
0.0
 11
0.537436
 21
113.91
 31
0.0
  0
LINE
  8
0
 62
     0
 10
0.537436
 20
113.91
 30
0.0
 11
0.666972
 21
114.107
 31
0.0
  0
LINE
  8
0
 62
     0
 10
0.666972
 20
114.107
 30
0.0
 11
0.813043
 21
114.292
 31
0.0
  0
LINE
  8
0
 62
     0
 10
0.813043
 20
114.292
 30
0.0
 11
0.972894
 21
114.464
 31
0.0
  0
LINE
  8
0
 62
     0
 10
0.972894
 20
114.464
 30
0.0
 11
1.14515
 21
114.624
 31
0.0
  0
LINE
  8
0
 62
     0
 10
1.14515
 20
114.624
 30
0.0
 11
1.33119
 21
114.77
 31
0.0
  0
LINE
  8
0
 62
     0
 10
1.33119
 20
114.77
 30
0.0
 11
1.52687
 21
114.901
 31
0.0
  0
LINE
  8
0
 62
     0
 10
1.52687
 20
114.901
 30
0.0
 11
1.7322
 21
115.018
 31
0.0
  0
LINE
  8
0
 62
     0
 10
1.7322
 20
115.018
 30
0.0
 11
1.94579
 21
115.115
 31
0.0
  0
LINE
  8
0
 62
     0
 10
1.94579
 20
115.115
 30
0.0
 11
2.16628
 21
115.196
 31
0.0
  0
LINE
  8
0
 62
     0
 10
2.16628
 20
115.196
 30
0.0
 11
2.39365
 21
115.261
 31
0.0
  0
LINE
  8
0
 62
     0
 10
2.39365
 20
115.261
 30
0.0
 11
2.62516
 21
115.306
 31
0.0
  0
LINE
  8
0
 62
     0
 10
2.62516
 20
115.306
 30
0.0
 11
2.85943
 21
115.334
 31
0.0
  0
LINE
  8
0
 62
     0
 10
2.85943
 20
115.334
 30
0.0
 11
3.09507
 21
115.343
 31
0.0
  0
LINE
  8
0
 62
     0
 10
3.09507
 20
115.343
 30
0.0
 11
221.882
 21
115.342
 31
0.0
  0
LINE
  8
0
 62
     0
 10
220.388
 20
5.61277
 30
0.0
 11
219.943
 21
5.38674
 31
0.0
  0
LINE
  8
0
 62
     0
 10
219.943
 20
5.38674
 30
0.0
 11
219.589
 21
5.03259
 31
0.0
  0
LINE
  8
0
 62
     0
 10
219.589
 20
5.03259
 30
0.0
 11
219.36
 21
4.58611
 31
0.0
  0
LINE
  8
0
 62
     0
 10
219.36
 20
4.58611
 30
0.0
 11
219.283
 21
4.09279
 31
0.0
  0
LINE
  8
0
 62
     0
 10
219.283
 20
4.09279
 30
0.0
 11
219.36
 21
3.59805
 31
0.0
  0
LINE
  8
0
 62
     0
 10
219.36
 20
3.59805
 30
0.0
 11
219.589
 21
3.15157
 31
0.0
  0
LINE
  8
0
 62
     0
 10
219.589
 20
3.15157
 30
0.0
 11
219.943
 21
2.79742
 31
0.0
  0
LINE
  8
0
 62
     0
 10
219.943
 20
2.79742
 30
0.0
 11
220.388
 21
2.57004
 31
0.0
  0
LINE
  8
0
 62
     0
 10
220.388
 20
2.57004
 30
0.0
 11
220.883
 21
2.49149
 31
0.0
  0
LINE
  8
0
 62
     0
 10
220.883
 20
2.49149
 30
0.0
 11
221.376
 21
2.57004
 31
0.0
  0
LINE
  8
0
 62
     0
 10
221.376
 20
2.57004
 30
0.0
 11
221.823
 21
2.79742
 31
0.0
  0
LINE
  8
0
 62
     0
 10
221.823
 20
2.79742
 30
0.0
 11
222.177
 21
3.15157
 31
0.0
  0
LINE
  8
0
 62
     0
 10
222.177
 20
3.15157
 30
0.0
 11
222.405
 21
3.59805
 31
0.0
  0
LINE
  8
0
 62
     0
 10
222.405
 20
3.59805
 30
0.0
 11
222.483
 21
4.09279
 31
0.0
  0
LINE
  8
0
 62
     0
 10
222.483
 20
4.09279
 30
0.0
 11
222.405
 21
4.58611
 31
0.0
  0
LINE
  8
0
 62
     0
 10
222.405
 20
4.58611
 30
0.0
 11
222.177
 21
5.03259
 31
0.0
  0
LINE
  8
0
 62
     0
 10
222.177
 20
5.03259
 30
0.0
 11
221.823
 21
5.38674
 31
0.0
  0
LINE
  8
0
 62
     0
 10
221.823
 20
5.38674
 30
0.0
 11
221.376
 21
5.61277
 31
0.0
  0
LINE
  8
0
 62
     0
 10
221.376
 20
5.61277
 30
0.0
 11
220.883
 21
5.69129
 31
0.0
  0
LINE
  8
0
 62
     0
 10
220.883
 20
5.69129
 30
0.0
 11
220.388
 21
5.61277
 31
0.0
  0
LINE
  8
0
 62
     0
 10
148.125
 20
5.61277
 30
0.0
 11
147.68
 21
5.38674
 31
0.0
  0
LINE
  8
0
 62
     0
 10
147.68
 20
5.38674
 30
0.0
 11
147.326
 21
5.03259
 31
0.0
  0
LINE
  8
0
 62
     0
 10
147.326
 20
5.03259
 30
0.0
 11
147.097
 21
4.58611
 31
0.0
  0
LINE
  8
0
 62
     0
 10
147.097
 20
4.58611
 30
0.0
 11
147.02
 21
4.09279
 31
0.0
  0
LINE
  8
0
 62
     0
 10
147.02
 20
4.09279
 30
0.0
 11
147.097
 21
3.59805
 31
0.0
  0
LINE
  8
0
 62
     0
 10
147.097
 20
3.59805
 30
0.0
 11
147.326
 21
3.15157
 31
0.0
  0
LINE
  8
0
 62
     0
 10
147.326
 20
3.15157
 30
0.0
 11
147.68
 21
2.79742
 31
0.0
  0
LINE
  8
0
 62
     0
 10
147.68
 20
2.79742
 30
0.0
 11
148.125
 21
2.57004
 31
0.0
  0
LINE
  8
0
 62
     0
 10
148.125
 20
2.57004
 30
0.0
 11
148.62
 21
2.49149
 31
0.0
  0
LINE
  8
0
 62
     0
 10
148.62
 20
2.49149
 30
0.0
 11
149.115
 21
2.57004
 31
0.0
  0
LINE
  8
0
 62
     0
 10
149.115
 20
2.57004
 30
0.0
 11
149.561
 21
2.79742
 31
0.0
  0
LINE
  8
0
 62
     0
 10
149.561
 20
2.79742
 30
0.0
 11
149.915
 21
3.15157
 31
0.0
  0
LINE
  8
0
 62
     0
 10
149.915
 20
3.15157
 30
0.0
 11
150.142
 21
3.59805
 31
0.0
  0
LINE
  8
0
 62
     0
 10
150.142
 20
3.59805
 30
0.0
 11
150.22
 21
4.09279
 31
0.0
  0
LINE
  8
0
 62
     0
 10
150.22
 20
4.09279
 30
0.0
 11
150.142
 21
4.58611
 31
0.0
  0
LINE
  8
0
 62
     0
 10
150.142
 20
4.58611
 30
0.0
 11
149.915
 21
5.03259
 31
0.0
  0
LINE
  8
0
 62
     0
 10
149.915
 20
5.03259
 30
0.0
 11
149.561
 21
5.38674
 31
0.0
  0
LINE
  8
0
 62
     0
 10
149.561
 20
5.38674
 30
0.0
 11
149.115
 21
5.61277
 31
0.0
  0
LINE
  8
0
 62
     0
 10
149.115
 20
5.61277
 30
0.0
 11
148.62
 21
5.69129
 31
0.0
  0
LINE
  8
0
 62
     0
 10
148.62
 20
5.69129
 30
0.0
 11
148.125
 21
5.61277
 31
0.0
  0
LINE
  8
0
 62
     0
 10
75.8624
 20
5.61277
 30
0.0
 11
75.4172
 21
5.38674
 31
0.0
  0
LINE
  8
0
 62
     0
 10
75.4172
 20
5.38674
 30
0.0
 11
75.063
 21
5.03259
 31
0.0
  0
LINE
  8
0
 62
     0
 10
75.063
 20
5.03259
 30
0.0
 11
74.8358
 21
4.58611
 31
0.0
  0
LINE
  8
0
 62
     0
 10
74.8358
 20
4.58611
 30
0.0
 11
74.7571
 21
4.09279
 31
0.0
  0
LINE
  8
0
 62
     0
 10
74.7571
 20
4.09279
 30
0.0
 11
74.8358
 21
3.59805
 31
0.0
  0
LINE
  8
0
 62
     0
 10
74.8358
 20
3.59805
 30
0.0
 11
75.063
 21
3.15157
 31
0.0
  0
LINE
  8
0
 62
     0
 10
75.063
 20
3.15157
 30
0.0
 11
75.4172
 21
2.79742
 31
0.0
  0
LINE
  8
0
 62
     0
 10
75.4172
 20
2.79742
 30
0.0
 11
75.8624
 21
2.57004
 31
0.0
  0
LINE
  8
0
 62
     0
 10
75.8624
 20
2.57004
 30
0.0
 11
76.357
 21
2.49149
 31
0.0
  0
LINE
  8
0
 62
     0
 10
76.357
 20
2.49149
 30
0.0
 11
76.8519
 21
2.57004
 31
0.0
  0
LINE
  8
0
 62
     0
 10
76.8519
 20
2.57004
 30
0.0
 11
77.2982
 21
2.79742
 31
0.0
  0
LINE
  8
0
 62
     0
 10
77.2982
 20
2.79742
 30
0.0
 11
77.651
 21
3.15157
 31
0.0
  0
LINE
  8
0
 62
     0
 10
77.651
 20
3.15157
 30
0.0
 11
77.8785
 21
3.59805
 31
0.0
  0
LINE
  8
0
 62
     0
 10
77.8785
 20
3.59805
 30
0.0
 11
77.9568
 21
4.09279
 31
0.0
  0
LINE
  8
0
 62
     0
 10
77.9568
 20
4.09279
 30
0.0
 11
77.8785
 21
4.58611
 31
0.0
  0
LINE
  8
0
 62
     0
 10
77.8785
 20
4.58611
 30
0.0
 11
77.651
 21
5.03259
 31
0.0
  0
LINE
  8
0
 62
     0
 10
77.651
 20
5.03259
 30
0.0
 11
77.2982
 21
5.38674
 31
0.0
  0
LINE
  8
0
 62
     0
 10
77.2982
 20
5.38674
 30
0.0
 11
76.8519
 21
5.61277
 31
0.0
  0
LINE
  8
0
 62
     0
 10
76.8519
 20
5.61277
 30
0.0
 11
76.357
 21
5.69129
 31
0.0
  0
LINE
  8
0
 62
     0
 10
76.357
 20
5.69129
 30
0.0
 11
75.8624
 21
5.61277
 31
0.0
  0
LINE
  8
0
 62
     0
 10
3.59943
 20
5.61277
 30
0.0
 11
3.15295
 21
5.38674
 31
0.0
  0
LINE
  8
0
 62
     0
 10
3.15295
 20
5.38674
 30
0.0
 11
2.80017
 21
5.03259
 31
0.0
  0
LINE
  8
0
 62
     0
 10
2.80017
 20
5.03259
 30
0.0
 11
2.5728
 21
4.58611
 31
0.0
  0
LINE
  8
0
 62
     0
 10
2.5728
 20
4.58611
 30
0.0
 11
2.49425
 21
4.09279
 31
0.0
  0
LINE
  8
0
 62
     0
 10
2.49425
 20
4.09279
 30
0.0
 11
2.5728
 21
3.59805
 31
0.0
  0
LINE
  8
0
 62
     0
 10
2.5728
 20
3.59805
 30
0.0
 11
2.80017
 21
3.15157
 31
0.0
  0
LINE
  8
0
 62
     0
 10
2.80017
 20
3.15157
 30
0.0
 11
3.15295
 21
2.79742
 31
0.0
  0
LINE
  8
0
 62
     0
 10
3.15295
 20
2.79742
 30
0.0
 11
3.59943
 21
2.57004
 31
0.0
  0
LINE
  8
0
 62
     0
 10
3.59943
 20
2.57004
 30
0.0
 11
4.09416
 21
2.49149
 31
0.0
  0
LINE
  8
0
 62
     0
 10
4.09416
 20
2.49149
 30
0.0
 11
4.58886
 21
2.57004
 31
0.0
  0
LINE
  8
0
 62
     0
 10
4.58886
 20
2.57004
 30
0.0
 11
5.03534
 21
2.79742
 31
0.0
  0
LINE
  8
0
 62
     0
 10
5.03534
 20
2.79742
 30
0.0
 11
5.38812
 21
3.15157
 31
0.0
  0
LINE
  8
0
 62
     0
 10
5.38812
 20
3.15157
 30
0.0
 11
5.61552
 21
3.59805
 31
0.0
  0
LINE
  8
0
 62
     0
 10
5.61552
 20
3.59805
 30
0.0
 11
5.69542
 21
4.09279
 31
0.0
  0
LINE
  8
0
 62
     0
 10
5.69542
 20
4.09279
 30
0.0
 11
5.61552
 21
4.58611
 31
0.0
  0
LINE
  8
0
 62
     0
 10
5.61552
 20
4.58611
 30
0.0
 11
5.38812
 21
5.03259
 31
0.0
  0
LINE
  8
0
 62
     0
 10
5.38812
 20
5.03259
 30
0.0
 11
5.03534
 21
5.38674
 31
0.0
  0
LINE
  8
0
 62
     0
 10
5.03534
 20
5.38674
 30
0.0
 11
4.58886
 21
5.61277
 31
0.0
  0
LINE
  8
0
 62
     0
 10
4.58886
 20
5.61277
 30
0.0
 11
4.09416
 21
5.69129
 31
0.0
  0
LINE
  8
0
 62
     0
 10
4.09416
 20
5.69129
 30
0.0
 11
3.59943
 21
5.61277
 31
0.0
  0
LINE
  8
0
 62
     0
 10
8.09459
 20
107.344
 30
0.0
 11
216.882
 21
107.344
 31
0.0
  0
LINE
  8
0
 62
     0
 10
216.882
 20
107.344
 30
0.0
 11
216.882
 21
8.09184
 31
0.0
  0
LINE
  8
0
 62
     0
 10
216.882
 20
8.09184
 30
0.0
 11
8.09459
 21
8.09184
 31
0.0
  0
LINE
  8
0
 62
     0
 10
8.09459
 20
8.09184
 30
0.0
 11
8.09459
 21
107.344
 31
0.0
  0
LINE
  8
0
 62
     0
 10
75.8624
 20
112.864
 30
0.0
 11
75.4172
 21
112.637
 31
0.0
  0
LINE
  8
0
 62
     0
 10
75.4172
 20
112.637
 30
0.0
 11
75.063
 21
112.284
 31
0.0
  0
LINE
  8
0
 62
     0
 10
75.063
 20
112.284
 30
0.0
 11
74.8358
 21
111.838
 31
0.0
  0
LINE
  8
0
 62
     0
 10
74.8358
 20
111.838
 30
0.0
 11
74.7571
 21
111.344
 31
0.0
  0
LINE
  8
0
 62
     0
 10
74.7571
 20
111.344
 30
0.0
 11
74.8358
 21
110.848
 31
0.0
  0
LINE
  8
0
 62
     0
 10
74.8358
 20
110.848
 30
0.0
 11
75.063
 21
110.403
 31
0.0
  0
LINE
  8
0
 62
     0
 10
75.063
 20
110.403
 30
0.0
 11
75.4172
 21
110.05
 31
0.0
  0
LINE
  8
0
 62
     0
 10
75.4172
 20
110.05
 30
0.0
 11
75.8624
 21
109.821
 31
0.0
  0
LINE
  8
0
 62
     0
 10
75.8624
 20
109.821
 30
0.0
 11
76.357
 21
109.741
 31
0.0
  0
LINE
  8
0
 62
     0
 10
76.357
 20
109.741
 30
0.0
 11
76.8519
 21
109.821
 31
0.0
  0
LINE
  8
0
 62
     0
 10
76.8519
 20
109.821
 30
0.0
 11
77.2982
 21
110.05
 31
0.0
  0
LINE
  8
0
 62
     0
 10
77.2982
 20
110.05
 30
0.0
 11
77.651
 21
110.403
 31
0.0
  0
LINE
  8
0
 62
     0
 10
77.651
 20
110.403
 30
0.0
 11
77.8785
 21
110.848
 31
0.0
  0
LINE
  8
0
 62
     0
 10
77.8785
 20
110.848
 30
0.0
 11
77.9568
 21
111.344
 31
0.0
  0
LINE
  8
0
 62
     0
 10
77.9568
 20
111.344
 30
0.0
 11
77.8785
 21
111.838
 31
0.0
  0
LINE
  8
0
 62
     0
 10
77.8785
 20
111.838
 30
0.0
 11
77.651
 21
112.284
 31
0.0
  0
LINE
  8
0
 62
     0
 10
77.651
 20
112.284
 30
0.0
 11
77.2982
 21
112.637
 31
0.0
  0
LINE
  8
0
 62
     0
 10
77.2982
 20
112.637
 30
0.0
 11
76.8519
 21
112.864
 31
0.0
  0
LINE
  8
0
 62
     0
 10
76.8519
 20
112.864
 30
0.0
 11
76.357
 21
112.944
 31
0.0
  0
LINE
  8
0
 62
     0
 10
76.357
 20
112.944
 30
0.0
 11
75.8624
 21
112.864
 31
0.0
  0
LINE
  8
0
 62
     0
 10
148.125
 20
112.864
 30
0.0
 11
147.68
 21
112.637
 31
0.0
  0
LINE
  8
0
 62
     0
 10
147.68
 20
112.637
 30
0.0
 11
147.326
 21
112.284
 31
0.0
  0
LINE
  8
0
 62
     0
 10
147.326
 20
112.284
 30
0.0
 11
147.097
 21
111.838
 31
0.0
  0
LINE
  8
0
 62
     0
 10
147.097
 20
111.838
 30
0.0
 11
147.02
 21
111.344
 31
0.0
  0
LINE
  8
0
 62
     0
 10
147.02
 20
111.344
 30
0.0
 11
147.097
 21
110.848
 31
0.0
  0
LINE
  8
0
 62
     0
 10
147.097
 20
110.848
 30
0.0
 11
147.326
 21
110.403
 31
0.0
  0
LINE
  8
0
 62
     0
 10
147.326
 20
110.403
 30
0.0
 11
147.68
 21
110.05
 31
0.0
  0
LINE
  8
0
 62
     0
 10
147.68
 20
110.05
 30
0.0
 11
148.125
 21
109.821
 31
0.0
  0
LINE
  8
0
 62
     0
 10
148.125
 20
109.821
 30
0.0
 11
148.62
 21
109.741
 31
0.0
  0
LINE
  8
0
 62
     0
 10
148.62
 20
109.741
 30
0.0
 11
149.115
 21
109.821
 31
0.0
  0
LINE
  8
0
 62
     0
 10
149.115
 20
109.821
 30
0.0
 11
149.561
 21
110.05
 31
0.0
  0
LINE
  8
0
 62
     0
 10
149.561
 20
110.05
 30
0.0
 11
149.915
 21
110.403
 31
0.0
  0
LINE
  8
0
 62
     0
 10
149.915
 20
110.403
 30
0.0
 11
150.142
 21
110.848
 31
0.0
  0
LINE
  8
0
 62
     0
 10
150.142
 20
110.848
 30
0.0
 11
150.22
 21
111.344
 31
0.0
  0
LINE
  8
0
 62
     0
 10
150.22
 20
111.344
 30
0.0
 11
150.142
 21
111.838
 31
0.0
  0
LINE
  8
0
 62
     0
 10
150.142
 20
111.838
 30
0.0
 11
149.915
 21
112.284
 31
0.0
  0
LINE
  8
0
 62
     0
 10
149.915
 20
112.284
 30
0.0
 11
149.561
 21
112.637
 31
0.0
  0
LINE
  8
0
 62
     0
 10
149.561
 20
112.637
 30
0.0
 11
149.115
 21
112.864
 31
0.0
  0
LINE
  8
0
 62
     0
 10
149.115
 20
112.864
 30
0.0
 11
148.62
 21
112.944
 31
0.0
  0
LINE
  8
0
 62
     0
 10
148.62
 20
112.944
 30
0.0
 11
148.125
 21
112.864
 31
0.0
  0
LINE
  8
0
 62
     0
 10
220.388
 20
112.864
 30
0.0
 11
219.943
 21
112.637
 31
0.0
  0
LINE
  8
0
 62
     0
 10
219.943
 20
112.637
 30
0.0
 11
219.589
 21
112.284
 31
0.0
  0
LINE
  8
0
 62
     0
 10
219.589
 20
112.284
 30
0.0
 11
219.36
 21
111.838
 31
0.0
  0
LINE
  8
0
 62
     0
 10
219.36
 20
111.838
 30
0.0
 11
219.283
 21
111.344
 31
0.0
  0
LINE
  8
0
 62
     0
 10
219.283
 20
111.344
 30
0.0
 11
219.36
 21
110.848
 31
0.0
  0
LINE
  8
0
 62
     0
 10
219.36
 20
110.848
 30
0.0
 11
219.589
 21
110.403
 31
0.0
  0
LINE
  8
0
 62
     0
 10
219.589
 20
110.403
 30
0.0
 11
219.943
 21
110.05
 31
0.0
  0
LINE
  8
0
 62
     0
 10
219.943
 20
110.05
 30
0.0
 11
220.388
 21
109.821
 31
0.0
  0
LINE
  8
0
 62
     0
 10
220.388
 20
109.821
 30
0.0
 11
220.883
 21
109.741
 31
0.0
  0
LINE
  8
0
 62
     0
 10
220.883
 20
109.741
 30
0.0
 11
221.376
 21
109.821
 31
0.0
  0
LINE
  8
0
 62
     0
 10
221.376
 20
109.821
 30
0.0
 11
221.823
 21
110.05
 31
0.0
  0
LINE
  8
0
 62
     0
 10
221.823
 20
110.05
 30
0.0
 11
222.177
 21
110.403
 31
0.0
  0
LINE
  8
0
 62
     0
 10
222.177
 20
110.403
 30
0.0
 11
222.405
 21
110.848
 31
0.0
  0
LINE
  8
0
 62
     0
 10
222.405
 20
110.848
 30
0.0
 11
222.483
 21
111.344
 31
0.0
  0
LINE
  8
0
 62
     0
 10
222.483
 20
111.344
 30
0.0
 11
222.405
 21
111.838
 31
0.0
  0
LINE
  8
0
 62
     0
 10
222.405
 20
111.838
 30
0.0
 11
222.177
 21
112.284
 31
0.0
  0
LINE
  8
0
 62
     0
 10
222.177
 20
112.284
 30
0.0
 11
221.823
 21
112.637
 31
0.0
  0
LINE
  8
0
 62
     0
 10
221.823
 20
112.637
 30
0.0
 11
221.376
 21
112.864
 31
0.0
  0
LINE
  8
0
 62
     0
 10
221.376
 20
112.864
 30
0.0
 11
220.883
 21
112.944
 31
0.0
  0
LINE
  8
0
 62
     0
 10
220.883
 20
112.944
 30
0.0
 11
220.388
 21
112.864
 31
0.0
  0
LINE
  8
0
 62
     0
 10
3.59943
 20
112.864
 30
0.0
 11
3.15295
 21
112.637
 31
0.0
  0
LINE
  8
0
 62
     0
 10
3.15295
 20
112.637
 30
0.0
 11
2.80017
 21
112.284
 31
0.0
  0
LINE
  8
0
 62
     0
 10
2.80017
 20
112.284
 30
0.0
 11
2.5728
 21
111.838
 31
0.0
  0
LINE
  8
0
 62
     0
 10
2.5728
 20
111.838
 30
0.0
 11
2.49425
 21
111.344
 31
0.0
  0
LINE
  8
0
 62
     0
 10
2.49425
 20
111.344
 30
0.0
 11
2.5728
 21
110.848
 31
0.0
  0
LINE
  8
0
 62
     0
 10
2.5728
 20
110.848
 30
0.0
 11
2.80017
 21
110.403
 31
0.0
  0
LINE
  8
0
 62
     0
 10
2.80017
 20
110.403
 30
0.0
 11
3.15295
 21
110.05
 31
0.0
  0
LINE
  8
0
 62
     0
 10
3.15295
 20
110.05
 30
0.0
 11
3.59943
 21
109.821
 31
0.0
  0
LINE
  8
0
 62
     0
 10
3.59943
 20
109.821
 30
0.0
 11
4.09416
 21
109.741
 31
0.0
  0
LINE
  8
0
 62
     0
 10
4.09416
 20
109.741
 30
0.0
 11
4.58886
 21
109.821
 31
0.0
  0
LINE
  8
0
 62
     0
 10
4.58886
 20
109.821
 30
0.0
 11
5.03534
 21
110.05
 31
0.0
  0
LINE
  8
0
 62
     0
 10
5.03534
 20
110.05
 30
0.0
 11
5.38812
 21
110.403
 31
0.0
  0
LINE
  8
0
 62
     0
 10
5.38812
 20
110.403
 30
0.0
 11
5.61552
 21
110.848
 31
0.0
  0
LINE
  8
0
 62
     0
 10
5.61552
 20
110.848
 30
0.0
 11
5.69542
 21
111.344
 31
0.0
  0
LINE
  8
0
 62
     0
 10
5.69542
 20
111.344
 30
0.0
 11
5.61552
 21
111.838
 31
0.0
  0
LINE
  8
0
 62
     0
 10
5.61552
 20
111.838
 30
0.0
 11
5.38812
 21
112.284
 31
0.0
  0
LINE
  8
0
 62
     0
 10
5.38812
 20
112.284
 30
0.0
 11
5.03534
 21
112.637
 31
0.0
  0
LINE
  8
0
 62
     0
 10
5.03534
 20
112.637
 30
0.0
 11
4.58886
 21
112.864
 31
0.0
  0
LINE
  8
0
 62
     0
 10
4.58886
 20
112.864
 30
0.0
 11
4.09416
 21
112.944
 31
0.0
  0
LINE
  8
0
 62
     0
 10
4.09416
 20
112.944
 30
0.0
 11
3.59943
 21
112.864
 31
0.0
  0
ENDSEC
  0
EOF
