  0
SECTION
  2
HEADER
  9
$ACADVER
  1
AC1009
  9
$EXTMIN
 10
0.0
 20
0.0
 30
0.0
  9
$EXTMAX
 10
1000.0
 20
1000.0
 30
0.0
  9
$FILLMODE
 70
 0
  9
$SPLFRAME
 70
 1
  0
ENDSEC
  0
SECTION
  2
TABLES
  0
TABLE
  2
LAYER
 70
1
  0
LAYER
  2
0
 70
     0
 62
     7
  6
CONTINUOUS
  0
ENDTAB
  0
ENDSEC
  0
SECTION
  2
ENTITIES
  0
LINE
  8
0
 62
     0
 10
0.0937066
 20
115.343
 30
0.0
 11
224.882
 21
115.343
 31
0.0
  0
LINE
  8
0
 62
     0
 10
224.882
 20
115.343
 30
0.0
 11
224.882
 21
0.0937066
 31
0.0
  0
LINE
  8
0
 62
     0
 10
224.882
 20
0.0937066
 30
0.0
 11
0.0937066
 21
0.0937066
 31
0.0
  0
LINE
  8
0
 62
     0
 10
0.0937066
 20
0.0937066
 30
0.0
 11
0.0937066
 21
115.343
 31
0.0
  0
LINE
  8
0
 62
     0
 10
220.388
 20
5.61414
 30
0.0
 11
219.942
 21
5.38674
 31
0.0
  0
LINE
  8
0
 62
     0
 10
219.942
 20
5.38674
 30
0.0
 11
219.588
 21
5.03259
 31
0.0
  0
LINE
  8
0
 62
     0
 10
219.588
 20
5.03259
 30
0.0
 11
219.36
 21
4.58749
 31
0.0
  0
LINE
  8
0
 62
     0
 10
219.36
 20
4.58749
 30
0.0
 11
219.282
 21
4.09279
 31
0.0
  0
LINE
  8
0
 62
     0
 10
219.282
 20
4.09279
 30
0.0
 11
219.36
 21
3.59943
 31
0.0
  0
LINE
  8
0
 62
     0
 10
219.36
 20
3.59943
 30
0.0
 11
219.588
 21
3.15157
 31
0.0
  0
LINE
  8
0
 62
     0
 10
219.588
 20
3.15157
 30
0.0
 11
219.942
 21
2.79879
 31
0.0
  0
LINE
  8
0
 62
     0
 10
219.942
 20
2.79879
 30
0.0
 11
220.388
 21
2.57142
 31
0.0
  0
LINE
  8
0
 62
     0
 10
220.388
 20
2.57142
 30
0.0
 11
220.882
 21
2.49287
 31
0.0
  0
LINE
  8
0
 62
     0
 10
220.882
 20
2.49287
 30
0.0
 11
221.376
 21
2.57142
 31
0.0
  0
LINE
  8
0
 62
     0
 10
221.376
 20
2.57142
 30
0.0
 11
221.821
 21
2.79879
 31
0.0
  0
LINE
  8
0
 62
     0
 10
221.821
 20
2.79879
 30
0.0
 11
222.176
 21
3.15157
 31
0.0
  0
LINE
  8
0
 62
     0
 10
222.176
 20
3.15157
 30
0.0
 11
222.405
 21
3.59943
 31
0.0
  0
LINE
  8
0
 62
     0
 10
222.405
 20
3.59943
 30
0.0
 11
222.481
 21
4.09279
 31
0.0
  0
LINE
  8
0
 62
     0
 10
222.481
 20
4.09279
 30
0.0
 11
222.405
 21
4.58749
 31
0.0
  0
LINE
  8
0
 62
     0
 10
222.405
 20
4.58749
 30
0.0
 11
222.176
 21
5.03259
 31
0.0
  0
LINE
  8
0
 62
     0
 10
222.176
 20
5.03259
 30
0.0
 11
221.821
 21
5.38674
 31
0.0
  0
LINE
  8
0
 62
     0
 10
221.821
 20
5.38674
 30
0.0
 11
221.376
 21
5.61414
 31
0.0
  0
LINE
  8
0
 62
     0
 10
221.376
 20
5.61414
 30
0.0
 11
220.882
 21
5.69267
 31
0.0
  0
LINE
  8
0
 62
     0
 10
220.882
 20
5.69267
 30
0.0
 11
220.388
 21
5.61414
 31
0.0
  0
LINE
  8
0
 62
     0
 10
148.125
 20
5.61414
 30
0.0
 11
147.679
 21
5.38674
 31
0.0
  0
LINE
  8
0
 62
     0
 10
147.679
 20
5.38674
 30
0.0
 11
147.325
 21
5.03259
 31
0.0
  0
LINE
  8
0
 62
     0
 10
147.325
 20
5.03259
 30
0.0
 11
147.097
 21
4.58749
 31
0.0
  0
LINE
  8
0
 62
     0
 10
147.097
 20
4.58749
 30
0.0
 11
147.019
 21
4.09279
 31
0.0
  0
LINE
  8
0
 62
     0
 10
147.019
 20
4.09279
 30
0.0
 11
147.097
 21
3.59943
 31
0.0
  0
LINE
  8
0
 62
     0
 10
147.097
 20
3.59943
 30
0.0
 11
147.325
 21
3.15157
 31
0.0
  0
LINE
  8
0
 62
     0
 10
147.325
 20
3.15157
 30
0.0
 11
147.679
 21
2.79879
 31
0.0
  0
LINE
  8
0
 62
     0
 10
147.679
 20
2.79879
 30
0.0
 11
148.125
 21
2.57142
 31
0.0
  0
LINE
  8
0
 62
     0
 10
148.125
 20
2.57142
 30
0.0
 11
148.619
 21
2.49287
 31
0.0
  0
LINE
  8
0
 62
     0
 10
148.619
 20
2.49287
 30
0.0
 11
149.114
 21
2.57142
 31
0.0
  0
LINE
  8
0
 62
     0
 10
149.114
 20
2.57142
 30
0.0
 11
149.56
 21
2.79879
 31
0.0
  0
LINE
  8
0
 62
     0
 10
149.56
 20
2.79879
 30
0.0
 11
149.914
 21
3.15157
 31
0.0
  0
LINE
  8
0
 62
     0
 10
149.914
 20
3.15157
 30
0.0
 11
150.142
 21
3.59943
 31
0.0
  0
LINE
  8
0
 62
     0
 10
150.142
 20
3.59943
 30
0.0
 11
150.218
 21
4.09279
 31
0.0
  0
LINE
  8
0
 62
     0
 10
150.218
 20
4.09279
 30
0.0
 11
150.142
 21
4.58749
 31
0.0
  0
LINE
  8
0
 62
     0
 10
150.142
 20
4.58749
 30
0.0
 11
149.914
 21
5.03259
 31
0.0
  0
LINE
  8
0
 62
     0
 10
149.914
 20
5.03259
 30
0.0
 11
149.56
 21
5.38674
 31
0.0
  0
LINE
  8
0
 62
     0
 10
149.56
 20
5.38674
 30
0.0
 11
149.114
 21
5.61414
 31
0.0
  0
LINE
  8
0
 62
     0
 10
149.114
 20
5.61414
 30
0.0
 11
148.619
 21
5.69267
 31
0.0
  0
LINE
  8
0
 62
     0
 10
148.619
 20
5.69267
 30
0.0
 11
148.125
 21
5.61414
 31
0.0
  0
LINE
  8
0
 62
     0
 10
75.8624
 20
5.61414
 30
0.0
 11
75.4158
 21
5.38674
 31
0.0
  0
LINE
  8
0
 62
     0
 10
75.4158
 20
5.38674
 30
0.0
 11
75.0616
 21
5.03259
 31
0.0
  0
LINE
  8
0
 62
     0
 10
75.0616
 20
5.03259
 30
0.0
 11
74.8344
 21
4.58749
 31
0.0
  0
LINE
  8
0
 62
     0
 10
74.8344
 20
4.58749
 30
0.0
 11
74.7557
 21
4.09279
 31
0.0
  0
LINE
  8
0
 62
     0
 10
74.7557
 20
4.09279
 30
0.0
 11
74.8344
 21
3.59943
 31
0.0
  0
LINE
  8
0
 62
     0
 10
74.8344
 20
3.59943
 30
0.0
 11
75.0616
 21
3.15157
 31
0.0
  0
LINE
  8
0
 62
     0
 10
75.0616
 20
3.15157
 30
0.0
 11
75.4158
 21
2.79879
 31
0.0
  0
LINE
  8
0
 62
     0
 10
75.4158
 20
2.79879
 30
0.0
 11
75.8624
 21
2.57142
 31
0.0
  0
LINE
  8
0
 62
     0
 10
75.8624
 20
2.57142
 30
0.0
 11
76.3556
 21
2.49287
 31
0.0
  0
LINE
  8
0
 62
     0
 10
76.3556
 20
2.49287
 30
0.0
 11
76.8505
 21
2.57142
 31
0.0
  0
LINE
  8
0
 62
     0
 10
76.8505
 20
2.57142
 30
0.0
 11
77.2968
 21
2.79879
 31
0.0
  0
LINE
  8
0
 62
     0
 10
77.2968
 20
2.79879
 30
0.0
 11
77.651
 21
3.15157
 31
0.0
  0
LINE
  8
0
 62
     0
 10
77.651
 20
3.15157
 30
0.0
 11
77.8771
 21
3.59943
 31
0.0
  0
LINE
  8
0
 62
     0
 10
77.8771
 20
3.59943
 30
0.0
 11
77.9558
 21
4.09279
 31
0.0
  0
LINE
  8
0
 62
     0
 10
77.9558
 20
4.09279
 30
0.0
 11
77.8771
 21
4.58749
 31
0.0
  0
LINE
  8
0
 62
     0
 10
77.8771
 20
4.58749
 30
0.0
 11
77.651
 21
5.03259
 31
0.0
  0
LINE
  8
0
 62
     0
 10
77.651
 20
5.03259
 30
0.0
 11
77.2968
 21
5.38674
 31
0.0
  0
LINE
  8
0
 62
     0
 10
77.2968
 20
5.38674
 30
0.0
 11
76.8505
 21
5.61414
 31
0.0
  0
LINE
  8
0
 62
     0
 10
76.8505
 20
5.61414
 30
0.0
 11
76.3556
 21
5.69267
 31
0.0
  0
LINE
  8
0
 62
     0
 10
76.3556
 20
5.69267
 30
0.0
 11
75.8624
 21
5.61414
 31
0.0
  0
LINE
  8
0
 62
     0
 10
3.59943
 20
5.61414
 30
0.0
 11
3.15157
 21
5.38674
 31
0.0
  0
LINE
  8
0
 62
     0
 10
3.15157
 20
5.38674
 30
0.0
 11
2.79879
 21
5.03259
 31
0.0
  0
LINE
  8
0
 62
     0
 10
2.79879
 20
5.03259
 30
0.0
 11
2.57142
 21
4.58749
 31
0.0
  0
LINE
  8
0
 62
     0
 10
2.57142
 20
4.58749
 30
0.0
 11
2.49425
 21
4.09279
 31
0.0
  0
LINE
  8
0
 62
     0
 10
2.49425
 20
4.09279
 30
0.0
 11
2.57142
 21
3.59943
 31
0.0
  0
LINE
  8
0
 62
     0
 10
2.57142
 20
3.59943
 30
0.0
 11
2.79879
 21
3.15157
 31
0.0
  0
LINE
  8
0
 62
     0
 10
2.79879
 20
3.15157
 30
0.0
 11
3.15157
 21
2.79879
 31
0.0
  0
LINE
  8
0
 62
     0
 10
3.15157
 20
2.79879
 30
0.0
 11
3.59943
 21
2.57142
 31
0.0
  0
LINE
  8
0
 62
     0
 10
3.59943
 20
2.57142
 30
0.0
 11
4.09416
 21
2.49287
 31
0.0
  0
LINE
  8
0
 62
     0
 10
4.09416
 20
2.49287
 30
0.0
 11
4.58749
 21
2.57142
 31
0.0
  0
LINE
  8
0
 62
     0
 10
4.58749
 20
2.57142
 30
0.0
 11
5.03396
 21
2.79879
 31
0.0
  0
LINE
  8
0
 62
     0
 10
5.03396
 20
2.79879
 30
0.0
 11
5.38812
 21
3.15157
 31
0.0
  0
LINE
  8
0
 62
     0
 10
5.38812
 20
3.15157
 30
0.0
 11
5.61414
 21
3.59943
 31
0.0
  0
LINE
  8
0
 62
     0
 10
5.61414
 20
3.59943
 30
0.0
 11
5.69405
 21
4.09279
 31
0.0
  0
LINE
  8
0
 62
     0
 10
5.69405
 20
4.09279
 30
0.0
 11
5.61414
 21
4.58749
 31
0.0
  0
LINE
  8
0
 62
     0
 10
5.61414
 20
4.58749
 30
0.0
 11
5.38812
 21
5.03259
 31
0.0
  0
LINE
  8
0
 62
     0
 10
5.38812
 20
5.03259
 30
0.0
 11
5.03396
 21
5.38674
 31
0.0
  0
LINE
  8
0
 62
     0
 10
5.03396
 20
5.38674
 30
0.0
 11
4.58749
 21
5.61414
 31
0.0
  0
LINE
  8
0
 62
     0
 10
4.58749
 20
5.61414
 30
0.0
 11
4.09416
 21
5.69267
 31
0.0
  0
LINE
  8
0
 62
     0
 10
4.09416
 20
5.69267
 30
0.0
 11
3.59943
 21
5.61414
 31
0.0
  0
LINE
  8
0
 62
     0
 10
10.0914
 20
105.347
 30
0.0
 11
67.244
 21
105.347
 31
0.0
  0
LINE
  8
0
 62
     0
 10
67.244
 20
105.347
 30
0.0
 11
67.244
 21
10.0941
 31
0.0
  0
LINE
  8
0
 62
     0
 10
67.244
 20
10.0941
 30
0.0
 11
10.0914
 21
10.0941
 31
0.0
  0
LINE
  8
0
 62
     0
 10
10.0914
 20
10.0941
 30
0.0
 11
10.0914
 21
105.347
 31
0.0
  0
LINE
  8
0
 62
     0
 10
76.7676
 20
105.347
 30
0.0
 11
76.7676
 21
48.1954
 31
0.0
  0
LINE
  8
0
 62
     0
 10
76.7676
 20
48.1954
 30
0.0
 11
76.7662
 21
48.1954
 31
0.0
  0
LINE
  8
0
 62
     0
 10
76.7662
 20
48.1954
 30
0.0
 11
76.7662
 21
29.1441
 31
0.0
  0
LINE
  8
0
 62
     0
 10
76.7662
 20
29.1441
 30
0.0
 11
76.7676
 21
29.1441
 31
0.0
  0
LINE
  8
0
 62
     0
 10
76.7676
 20
29.1441
 30
0.0
 11
76.7676
 21
10.0941
 31
0.0
  0
LINE
  8
0
 62
     0
 10
76.7676
 20
10.0941
 30
0.0
 11
205.357
 21
10.0941
 31
0.0
  0
LINE
  8
0
 62
     0
 10
205.357
 20
10.0941
 30
0.0
 11
205.357
 21
29.1441
 31
0.0
  0
LINE
  8
0
 62
     0
 10
205.357
 20
29.1441
 30
0.0
 11
214.882
 21
29.1441
 31
0.0
  0
LINE
  8
0
 62
     0
 10
214.882
 20
29.1441
 30
0.0
 11
214.882
 21
48.1954
 31
0.0
  0
LINE
  8
0
 62
     0
 10
214.882
 20
48.1954
 30
0.0
 11
205.357
 21
48.1954
 31
0.0
  0
LINE
  8
0
 62
     0
 10
205.357
 20
48.1954
 30
0.0
 11
205.357
 21
67.2454
 31
0.0
  0
LINE
  8
0
 62
     0
 10
205.357
 20
67.2454
 30
0.0
 11
200.594
 21
67.2454
 31
0.0
  0
LINE
  8
0
 62
     0
 10
200.594
 20
67.2454
 30
0.0
 11
200.594
 21
86.294
 31
0.0
  0
LINE
  8
0
 62
     0
 10
200.594
 20
86.294
 30
0.0
 11
210.119
 21
86.294
 31
0.0
  0
LINE
  8
0
 62
     0
 10
210.119
 20
86.294
 30
0.0
 11
210.119
 21
105.347
 31
0.0
  0
LINE
  8
0
 62
     0
 10
210.119
 20
105.347
 30
0.0
 11
76.7676
 21
105.347
 31
0.0
  0
LINE
  8
0
 62
     0
 10
75.8624
 20
112.866
 30
0.0
 11
75.4158
 21
112.638
 31
0.0
  0
LINE
  8
0
 62
     0
 10
75.4158
 20
112.638
 30
0.0
 11
75.0616
 21
112.285
 31
0.0
  0
LINE
  8
0
 62
     0
 10
75.0616
 20
112.285
 30
0.0
 11
74.8344
 21
111.838
 31
0.0
  0
LINE
  8
0
 62
     0
 10
74.8344
 20
111.838
 30
0.0
 11
74.7557
 21
111.344
 31
0.0
  0
LINE
  8
0
 62
     0
 10
74.7557
 20
111.344
 30
0.0
 11
74.8344
 21
110.849
 31
0.0
  0
LINE
  8
0
 62
     0
 10
74.8344
 20
110.849
 30
0.0
 11
75.0616
 21
110.403
 31
0.0
  0
LINE
  8
0
 62
     0
 10
75.0616
 20
110.403
 30
0.0
 11
75.4158
 21
110.05
 31
0.0
  0
LINE
  8
0
 62
     0
 10
75.4158
 20
110.05
 30
0.0
 11
75.8624
 21
109.823
 31
0.0
  0
LINE
  8
0
 62
     0
 10
75.8624
 20
109.823
 30
0.0
 11
76.3556
 21
109.743
 31
0.0
  0
LINE
  8
0
 62
     0
 10
76.3556
 20
109.743
 30
0.0
 11
76.8505
 21
109.823
 31
0.0
  0
LINE
  8
0
 62
     0
 10
76.8505
 20
109.823
 30
0.0
 11
77.2968
 21
110.05
 31
0.0
  0
LINE
  8
0
 62
     0
 10
77.2968
 20
110.05
 30
0.0
 11
77.651
 21
110.403
 31
0.0
  0
LINE
  8
0
 62
     0
 10
77.651
 20
110.403
 30
0.0
 11
77.8771
 21
110.849
 31
0.0
  0
LINE
  8
0
 62
     0
 10
77.8771
 20
110.849
 30
0.0
 11
77.9558
 21
111.344
 31
0.0
  0
LINE
  8
0
 62
     0
 10
77.9558
 20
111.344
 30
0.0
 11
77.8771
 21
111.838
 31
0.0
  0
LINE
  8
0
 62
     0
 10
77.8771
 20
111.838
 30
0.0
 11
77.651
 21
112.285
 31
0.0
  0
LINE
  8
0
 62
     0
 10
77.651
 20
112.285
 30
0.0
 11
77.2968
 21
112.638
 31
0.0
  0
LINE
  8
0
 62
     0
 10
77.2968
 20
112.638
 30
0.0
 11
76.8505
 21
112.866
 31
0.0
  0
LINE
  8
0
 62
     0
 10
76.8505
 20
112.866
 30
0.0
 11
76.3556
 21
112.944
 31
0.0
  0
LINE
  8
0
 62
     0
 10
76.3556
 20
112.944
 30
0.0
 11
75.8624
 21
112.866
 31
0.0
  0
LINE
  8
0
 62
     0
 10
148.125
 20
112.866
 30
0.0
 11
147.679
 21
112.638
 31
0.0
  0
LINE
  8
0
 62
     0
 10
147.679
 20
112.638
 30
0.0
 11
147.325
 21
112.285
 31
0.0
  0
LINE
  8
0
 62
     0
 10
147.325
 20
112.285
 30
0.0
 11
147.097
 21
111.838
 31
0.0
  0
LINE
  8
0
 62
     0
 10
147.097
 20
111.838
 30
0.0
 11
147.019
 21
111.344
 31
0.0
  0
LINE
  8
0
 62
     0
 10
147.019
 20
111.344
 30
0.0
 11
147.097
 21
110.849
 31
0.0
  0
LINE
  8
0
 62
     0
 10
147.097
 20
110.849
 30
0.0
 11
147.325
 21
110.403
 31
0.0
  0
LINE
  8
0
 62
     0
 10
147.325
 20
110.403
 30
0.0
 11
147.679
 21
110.05
 31
0.0
  0
LINE
  8
0
 62
     0
 10
147.679
 20
110.05
 30
0.0
 11
148.125
 21
109.823
 31
0.0
  0
LINE
  8
0
 62
     0
 10
148.125
 20
109.823
 30
0.0
 11
148.619
 21
109.743
 31
0.0
  0
LINE
  8
0
 62
     0
 10
148.619
 20
109.743
 30
0.0
 11
149.114
 21
109.823
 31
0.0
  0
LINE
  8
0
 62
     0
 10
149.114
 20
109.823
 30
0.0
 11
149.56
 21
110.05
 31
0.0
  0
LINE
  8
0
 62
     0
 10
149.56
 20
110.05
 30
0.0
 11
149.914
 21
110.403
 31
0.0
  0
LINE
  8
0
 62
     0
 10
149.914
 20
110.403
 30
0.0
 11
150.142
 21
110.849
 31
0.0
  0
LINE
  8
0
 62
     0
 10
150.142
 20
110.849
 30
0.0
 11
150.218
 21
111.344
 31
0.0
  0
LINE
  8
0
 62
     0
 10
150.218
 20
111.344
 30
0.0
 11
150.142
 21
111.838
 31
0.0
  0
LINE
  8
0
 62
     0
 10
150.142
 20
111.838
 30
0.0
 11
149.914
 21
112.285
 31
0.0
  0
LINE
  8
0
 62
     0
 10
149.914
 20
112.285
 30
0.0
 11
149.56
 21
112.638
 31
0.0
  0
LINE
  8
0
 62
     0
 10
149.56
 20
112.638
 30
0.0
 11
149.114
 21
112.866
 31
0.0
  0
LINE
  8
0
 62
     0
 10
149.114
 20
112.866
 30
0.0
 11
148.619
 21
112.944
 31
0.0
  0
LINE
  8
0
 62
     0
 10
148.619
 20
112.944
 30
0.0
 11
148.125
 21
112.866
 31
0.0
  0
LINE
  8
0
 62
     0
 10
220.388
 20
112.866
 30
0.0
 11
219.942
 21
112.638
 31
0.0
  0
LINE
  8
0
 62
     0
 10
219.942
 20
112.638
 30
0.0
 11
219.588
 21
112.285
 31
0.0
  0
LINE
  8
0
 62
     0
 10
219.588
 20
112.285
 30
0.0
 11
219.36
 21
111.838
 31
0.0
  0
LINE
  8
0
 62
     0
 10
219.36
 20
111.838
 30
0.0
 11
219.282
 21
111.344
 31
0.0
  0
LINE
  8
0
 62
     0
 10
219.282
 20
111.344
 30
0.0
 11
219.36
 21
110.849
 31
0.0
  0
LINE
  8
0
 62
     0
 10
219.36
 20
110.849
 30
0.0
 11
219.588
 21
110.403
 31
0.0
  0
LINE
  8
0
 62
     0
 10
219.588
 20
110.403
 30
0.0
 11
219.942
 21
110.05
 31
0.0
  0
LINE
  8
0
 62
     0
 10
219.942
 20
110.05
 30
0.0
 11
220.388
 21
109.823
 31
0.0
  0
LINE
  8
0
 62
     0
 10
220.388
 20
109.823
 30
0.0
 11
220.882
 21
109.743
 31
0.0
  0
LINE
  8
0
 62
     0
 10
220.882
 20
109.743
 30
0.0
 11
221.376
 21
109.823
 31
0.0
  0
LINE
  8
0
 62
     0
 10
221.376
 20
109.823
 30
0.0
 11
221.821
 21
110.05
 31
0.0
  0
LINE
  8
0
 62
     0
 10
221.821
 20
110.05
 30
0.0
 11
222.176
 21
110.403
 31
0.0
  0
LINE
  8
0
 62
     0
 10
222.176
 20
110.403
 30
0.0
 11
222.405
 21
110.849
 31
0.0
  0
LINE
  8
0
 62
     0
 10
222.405
 20
110.849
 30
0.0
 11
222.481
 21
111.344
 31
0.0
  0
LINE
  8
0
 62
     0
 10
222.481
 20
111.344
 30
0.0
 11
222.405
 21
111.838
 31
0.0
  0
LINE
  8
0
 62
     0
 10
222.405
 20
111.838
 30
0.0
 11
222.176
 21
112.285
 31
0.0
  0
LINE
  8
0
 62
     0
 10
222.176
 20
112.285
 30
0.0
 11
221.821
 21
112.638
 31
0.0
  0
LINE
  8
0
 62
     0
 10
221.821
 20
112.638
 30
0.0
 11
221.376
 21
112.866
 31
0.0
  0
LINE
  8
0
 62
     0
 10
221.376
 20
112.866
 30
0.0
 11
220.882
 21
112.944
 31
0.0
  0
LINE
  8
0
 62
     0
 10
220.882
 20
112.944
 30
0.0
 11
220.388
 21
112.866
 31
0.0
  0
LINE
  8
0
 62
     0
 10
3.59943
 20
112.866
 30
0.0
 11
3.15157
 21
112.638
 31
0.0
  0
LINE
  8
0
 62
     0
 10
3.15157
 20
112.638
 30
0.0
 11
2.79879
 21
112.285
 31
0.0
  0
LINE
  8
0
 62
     0
 10
2.79879
 20
112.285
 30
0.0
 11
2.57142
 21
111.838
 31
0.0
  0
LINE
  8
0
 62
     0
 10
2.57142
 20
111.838
 30
0.0
 11
2.49425
 21
111.344
 31
0.0
  0
LINE
  8
0
 62
     0
 10
2.49425
 20
111.344
 30
0.0
 11
2.57142
 21
110.849
 31
0.0
  0
LINE
  8
0
 62
     0
 10
2.57142
 20
110.849
 30
0.0
 11
2.79879
 21
110.403
 31
0.0
  0
LINE
  8
0
 62
     0
 10
2.79879
 20
110.403
 30
0.0
 11
3.15157
 21
110.05
 31
0.0
  0
LINE
  8
0
 62
     0
 10
3.15157
 20
110.05
 30
0.0
 11
3.59943
 21
109.823
 31
0.0
  0
LINE
  8
0
 62
     0
 10
3.59943
 20
109.823
 30
0.0
 11
4.09416
 21
109.743
 31
0.0
  0
LINE
  8
0
 62
     0
 10
4.09416
 20
109.743
 30
0.0
 11
4.58749
 21
109.823
 31
0.0
  0
LINE
  8
0
 62
     0
 10
4.58749
 20
109.823
 30
0.0
 11
5.03396
 21
110.05
 31
0.0
  0
LINE
  8
0
 62
     0
 10
5.03396
 20
110.05
 30
0.0
 11
5.38812
 21
110.403
 31
0.0
  0
LINE
  8
0
 62
     0
 10
5.38812
 20
110.403
 30
0.0
 11
5.61414
 21
110.849
 31
0.0
  0
LINE
  8
0
 62
     0
 10
5.61414
 20
110.849
 30
0.0
 11
5.69405
 21
111.344
 31
0.0
  0
LINE
  8
0
 62
     0
 10
5.69405
 20
111.344
 30
0.0
 11
5.61414
 21
111.838
 31
0.0
  0
LINE
  8
0
 62
     0
 10
5.61414
 20
111.838
 30
0.0
 11
5.38812
 21
112.285
 31
0.0
  0
LINE
  8
0
 62
     0
 10
5.38812
 20
112.285
 30
0.0
 11
5.03396
 21
112.638
 31
0.0
  0
LINE
  8
0
 62
     0
 10
5.03396
 20
112.638
 30
0.0
 11
4.58749
 21
112.866
 31
0.0
  0
LINE
  8
0
 62
     0
 10
4.58749
 20
112.866
 30
0.0
 11
4.09416
 21
112.944
 31
0.0
  0
LINE
  8
0
 62
     0
 10
4.09416
 20
112.944
 30
0.0
 11
3.59943
 21
112.866
 31
0.0
  0
ENDSEC
  0
EOF
