  0
SECTION
  2
HEADER
  9
$ACADVER
  1
AC1009
  9
$EXTMIN
 10
0.0
 20
0.0
 30
0.0
  9
$EXTMAX
 10
1000.0
 20
1000.0
 30
0.0
  9
$FILLMODE
 70
 0
  9
$SPLFRAME
 70
 1
  0
ENDSEC
  0
SECTION
  2
TABLES
  0
TABLE
  2
LAYER
 70
1
  0
LAYER
  2
0
 70
     0
 62
     7
  6
CONTINUOUS
  0
ENDTAB
  0
ENDSEC
  0
SECTION
  2
ENTITIES
  0
LINE
  8
0
 62
     0
 10
0.0937066
 20
115.343
 30
0.0
 11
224.882
 21
115.343
 31
0.0
  0
LINE
  8
0
 62
     0
 10
224.882
 20
115.343
 30
0.0
 11
224.882
 21
0.0937066
 31
0.0
  0
LINE
  8
0
 62
     0
 10
224.882
 20
0.0937066
 30
0.0
 11
0.0937066
 21
0.0937066
 31
0.0
  0
LINE
  8
0
 62
     0
 10
0.0937066
 20
0.0937066
 30
0.0
 11
0.0937066
 21
115.343
 31
0.0
  0
LINE
  8
0
 62
     0
 10
220.388
 20
5.61414
 30
0.0
 11
219.942
 21
5.38674
 31
0.0
  0
LINE
  8
0
 62
     0
 10
219.942
 20
5.38674
 30
0.0
 11
219.588
 21
5.03259
 31
0.0
  0
LINE
  8
0
 62
     0
 10
219.588
 20
5.03259
 30
0.0
 11
219.36
 21
4.58749
 31
0.0
  0
LINE
  8
0
 62
     0
 10
219.36
 20
4.58749
 30
0.0
 11
219.282
 21
4.09279
 31
0.0
  0
LINE
  8
0
 62
     0
 10
219.282
 20
4.09279
 30
0.0
 11
219.36
 21
3.59943
 31
0.0
  0
LINE
  8
0
 62
     0
 10
219.36
 20
3.59943
 30
0.0
 11
219.588
 21
3.15157
 31
0.0
  0
LINE
  8
0
 62
     0
 10
219.588
 20
3.15157
 30
0.0
 11
219.942
 21
2.79879
 31
0.0
  0
LINE
  8
0
 62
     0
 10
219.942
 20
2.79879
 30
0.0
 11
220.388
 21
2.57142
 31
0.0
  0
LINE
  8
0
 62
     0
 10
220.388
 20
2.57142
 30
0.0
 11
220.882
 21
2.49287
 31
0.0
  0
LINE
  8
0
 62
     0
 10
220.882
 20
2.49287
 30
0.0
 11
221.376
 21
2.57142
 31
0.0
  0
LINE
  8
0
 62
     0
 10
221.376
 20
2.57142
 30
0.0
 11
221.821
 21
2.79879
 31
0.0
  0
LINE
  8
0
 62
     0
 10
221.821
 20
2.79879
 30
0.0
 11
222.176
 21
3.15157
 31
0.0
  0
LINE
  8
0
 62
     0
 10
222.176
 20
3.15157
 30
0.0
 11
222.405
 21
3.59943
 31
0.0
  0
LINE
  8
0
 62
     0
 10
222.405
 20
3.59943
 30
0.0
 11
222.481
 21
4.09279
 31
0.0
  0
LINE
  8
0
 62
     0
 10
222.481
 20
4.09279
 30
0.0
 11
222.405
 21
4.58749
 31
0.0
  0
LINE
  8
0
 62
     0
 10
222.405
 20
4.58749
 30
0.0
 11
222.176
 21
5.03259
 31
0.0
  0
LINE
  8
0
 62
     0
 10
222.176
 20
5.03259
 30
0.0
 11
221.821
 21
5.38674
 31
0.0
  0
LINE
  8
0
 62
     0
 10
221.821
 20
5.38674
 30
0.0
 11
221.376
 21
5.61414
 31
0.0
  0
LINE
  8
0
 62
     0
 10
221.376
 20
5.61414
 30
0.0
 11
220.882
 21
5.69267
 31
0.0
  0
LINE
  8
0
 62
     0
 10
220.882
 20
5.69267
 30
0.0
 11
220.388
 21
5.61414
 31
0.0
  0
LINE
  8
0
 62
     0
 10
148.125
 20
5.61414
 30
0.0
 11
147.679
 21
5.38674
 31
0.0
  0
LINE
  8
0
 62
     0
 10
147.679
 20
5.38674
 30
0.0
 11
147.325
 21
5.03259
 31
0.0
  0
LINE
  8
0
 62
     0
 10
147.325
 20
5.03259
 30
0.0
 11
147.097
 21
4.58749
 31
0.0
  0
LINE
  8
0
 62
     0
 10
147.097
 20
4.58749
 30
0.0
 11
147.019
 21
4.09279
 31
0.0
  0
LINE
  8
0
 62
     0
 10
147.019
 20
4.09279
 30
0.0
 11
147.097
 21
3.59943
 31
0.0
  0
LINE
  8
0
 62
     0
 10
147.097
 20
3.59943
 30
0.0
 11
147.325
 21
3.15157
 31
0.0
  0
LINE
  8
0
 62
     0
 10
147.325
 20
3.15157
 30
0.0
 11
147.679
 21
2.79879
 31
0.0
  0
LINE
  8
0
 62
     0
 10
147.679
 20
2.79879
 30
0.0
 11
148.125
 21
2.57142
 31
0.0
  0
LINE
  8
0
 62
     0
 10
148.125
 20
2.57142
 30
0.0
 11
148.619
 21
2.49287
 31
0.0
  0
LINE
  8
0
 62
     0
 10
148.619
 20
2.49287
 30
0.0
 11
149.114
 21
2.57142
 31
0.0
  0
LINE
  8
0
 62
     0
 10
149.114
 20
2.57142
 30
0.0
 11
149.56
 21
2.79879
 31
0.0
  0
LINE
  8
0
 62
     0
 10
149.56
 20
2.79879
 30
0.0
 11
149.914
 21
3.15157
 31
0.0
  0
LINE
  8
0
 62
     0
 10
149.914
 20
3.15157
 30
0.0
 11
150.142
 21
3.59943
 31
0.0
  0
LINE
  8
0
 62
     0
 10
150.142
 20
3.59943
 30
0.0
 11
150.218
 21
4.09279
 31
0.0
  0
LINE
  8
0
 62
     0
 10
150.218
 20
4.09279
 30
0.0
 11
150.142
 21
4.58749
 31
0.0
  0
LINE
  8
0
 62
     0
 10
150.142
 20
4.58749
 30
0.0
 11
149.914
 21
5.03259
 31
0.0
  0
LINE
  8
0
 62
     0
 10
149.914
 20
5.03259
 30
0.0
 11
149.56
 21
5.38674
 31
0.0
  0
LINE
  8
0
 62
     0
 10
149.56
 20
5.38674
 30
0.0
 11
149.114
 21
5.61414
 31
0.0
  0
LINE
  8
0
 62
     0
 10
149.114
 20
5.61414
 30
0.0
 11
148.619
 21
5.69267
 31
0.0
  0
LINE
  8
0
 62
     0
 10
148.619
 20
5.69267
 30
0.0
 11
148.125
 21
5.61414
 31
0.0
  0
LINE
  8
0
 62
     0
 10
75.8624
 20
5.61414
 30
0.0
 11
75.4158
 21
5.38674
 31
0.0
  0
LINE
  8
0
 62
     0
 10
75.4158
 20
5.38674
 30
0.0
 11
75.0616
 21
5.03259
 31
0.0
  0
LINE
  8
0
 62
     0
 10
75.0616
 20
5.03259
 30
0.0
 11
74.8344
 21
4.58749
 31
0.0
  0
LINE
  8
0
 62
     0
 10
74.8344
 20
4.58749
 30
0.0
 11
74.7557
 21
4.09279
 31
0.0
  0
LINE
  8
0
 62
     0
 10
74.7557
 20
4.09279
 30
0.0
 11
74.8344
 21
3.59943
 31
0.0
  0
LINE
  8
0
 62
     0
 10
74.8344
 20
3.59943
 30
0.0
 11
75.0616
 21
3.15157
 31
0.0
  0
LINE
  8
0
 62
     0
 10
75.0616
 20
3.15157
 30
0.0
 11
75.4158
 21
2.79879
 31
0.0
  0
LINE
  8
0
 62
     0
 10
75.4158
 20
2.79879
 30
0.0
 11
75.8624
 21
2.57142
 31
0.0
  0
LINE
  8
0
 62
     0
 10
75.8624
 20
2.57142
 30
0.0
 11
76.3556
 21
2.49287
 31
0.0
  0
LINE
  8
0
 62
     0
 10
76.3556
 20
2.49287
 30
0.0
 11
76.8505
 21
2.57142
 31
0.0
  0
LINE
  8
0
 62
     0
 10
76.8505
 20
2.57142
 30
0.0
 11
77.2968
 21
2.79879
 31
0.0
  0
LINE
  8
0
 62
     0
 10
77.2968
 20
2.79879
 30
0.0
 11
77.651
 21
3.15157
 31
0.0
  0
LINE
  8
0
 62
     0
 10
77.651
 20
3.15157
 30
0.0
 11
77.8771
 21
3.59943
 31
0.0
  0
LINE
  8
0
 62
     0
 10
77.8771
 20
3.59943
 30
0.0
 11
77.9558
 21
4.09279
 31
0.0
  0
LINE
  8
0
 62
     0
 10
77.9558
 20
4.09279
 30
0.0
 11
77.8771
 21
4.58749
 31
0.0
  0
LINE
  8
0
 62
     0
 10
77.8771
 20
4.58749
 30
0.0
 11
77.651
 21
5.03259
 31
0.0
  0
LINE
  8
0
 62
     0
 10
77.651
 20
5.03259
 30
0.0
 11
77.2968
 21
5.38674
 31
0.0
  0
LINE
  8
0
 62
     0
 10
77.2968
 20
5.38674
 30
0.0
 11
76.8505
 21
5.61414
 31
0.0
  0
LINE
  8
0
 62
     0
 10
76.8505
 20
5.61414
 30
0.0
 11
76.3556
 21
5.69267
 31
0.0
  0
LINE
  8
0
 62
     0
 10
76.3556
 20
5.69267
 30
0.0
 11
75.8624
 21
5.61414
 31
0.0
  0
LINE
  8
0
 62
     0
 10
3.59943
 20
5.61414
 30
0.0
 11
3.15157
 21
5.38674
 31
0.0
  0
LINE
  8
0
 62
     0
 10
3.15157
 20
5.38674
 30
0.0
 11
2.79879
 21
5.03259
 31
0.0
  0
LINE
  8
0
 62
     0
 10
2.79879
 20
5.03259
 30
0.0
 11
2.57142
 21
4.58749
 31
0.0
  0
LINE
  8
0
 62
     0
 10
2.57142
 20
4.58749
 30
0.0
 11
2.49425
 21
4.09279
 31
0.0
  0
LINE
  8
0
 62
     0
 10
2.49425
 20
4.09279
 30
0.0
 11
2.57142
 21
3.59943
 31
0.0
  0
LINE
  8
0
 62
     0
 10
2.57142
 20
3.59943
 30
0.0
 11
2.79879
 21
3.15157
 31
0.0
  0
LINE
  8
0
 62
     0
 10
2.79879
 20
3.15157
 30
0.0
 11
3.15157
 21
2.79879
 31
0.0
  0
LINE
  8
0
 62
     0
 10
3.15157
 20
2.79879
 30
0.0
 11
3.59943
 21
2.57142
 31
0.0
  0
LINE
  8
0
 62
     0
 10
3.59943
 20
2.57142
 30
0.0
 11
4.09416
 21
2.49287
 31
0.0
  0
LINE
  8
0
 62
     0
 10
4.09416
 20
2.49287
 30
0.0
 11
4.58749
 21
2.57142
 31
0.0
  0
LINE
  8
0
 62
     0
 10
4.58749
 20
2.57142
 30
0.0
 11
5.03396
 21
2.79879
 31
0.0
  0
LINE
  8
0
 62
     0
 10
5.03396
 20
2.79879
 30
0.0
 11
5.38812
 21
3.15157
 31
0.0
  0
LINE
  8
0
 62
     0
 10
5.38812
 20
3.15157
 30
0.0
 11
5.61414
 21
3.59943
 31
0.0
  0
LINE
  8
0
 62
     0
 10
5.61414
 20
3.59943
 30
0.0
 11
5.69405
 21
4.09279
 31
0.0
  0
LINE
  8
0
 62
     0
 10
5.69405
 20
4.09279
 30
0.0
 11
5.61414
 21
4.58749
 31
0.0
  0
LINE
  8
0
 62
     0
 10
5.61414
 20
4.58749
 30
0.0
 11
5.38812
 21
5.03259
 31
0.0
  0
LINE
  8
0
 62
     0
 10
5.38812
 20
5.03259
 30
0.0
 11
5.03396
 21
5.38674
 31
0.0
  0
LINE
  8
0
 62
     0
 10
5.03396
 20
5.38674
 30
0.0
 11
4.58749
 21
5.61414
 31
0.0
  0
LINE
  8
0
 62
     0
 10
4.58749
 20
5.61414
 30
0.0
 11
4.09416
 21
5.69267
 31
0.0
  0
LINE
  8
0
 62
     0
 10
4.09416
 20
5.69267
 30
0.0
 11
3.59943
 21
5.61414
 31
0.0
  0
LINE
  8
0
 62
     0
 10
165.611
 20
26.0697
 30
0.0
 11
168.912
 21
26.0697
 31
0.0
  0
LINE
  8
0
 62
     0
 10
168.912
 20
26.0697
 30
0.0
 11
168.912
 21
11.8677
 31
0.0
  0
LINE
  8
0
 62
     0
 10
168.912
 20
11.8677
 30
0.0
 11
165.611
 21
11.8677
 31
0.0
  0
LINE
  8
0
 62
     0
 10
165.611
 20
11.8677
 30
0.0
 11
165.611
 21
26.0697
 31
0.0
  0
LINE
  8
0
 62
     0
 10
189.411
 20
26.0697
 30
0.0
 11
192.712
 21
26.0697
 31
0.0
  0
LINE
  8
0
 62
     0
 10
192.712
 20
26.0697
 30
0.0
 11
192.712
 21
11.8677
 31
0.0
  0
LINE
  8
0
 62
     0
 10
192.712
 20
11.8677
 30
0.0
 11
189.411
 21
11.8677
 31
0.0
  0
LINE
  8
0
 62
     0
 10
189.411
 20
11.8677
 30
0.0
 11
189.411
 21
26.0697
 31
0.0
  0
LINE
  8
0
 62
     0
 10
12.6187
 20
26.6182
 30
0.0
 11
26.6182
 21
26.6182
 31
0.0
  0
LINE
  8
0
 62
     0
 10
26.6182
 20
26.6182
 30
0.0
 11
26.6182
 21
12.6187
 31
0.0
  0
LINE
  8
0
 62
     0
 10
26.6182
 20
12.6187
 30
0.0
 11
12.6187
 21
12.6187
 31
0.0
  0
LINE
  8
0
 62
     0
 10
12.6187
 20
12.6187
 30
0.0
 11
12.6187
 21
26.6182
 31
0.0
  0
LINE
  8
0
 62
     0
 10
31.6687
 20
26.6182
 30
0.0
 11
45.6681
 21
26.6182
 31
0.0
  0
LINE
  8
0
 62
     0
 10
45.6681
 20
26.6182
 30
0.0
 11
45.6681
 21
12.6187
 31
0.0
  0
LINE
  8
0
 62
     0
 10
45.6681
 20
12.6187
 30
0.0
 11
31.6687
 21
12.6187
 31
0.0
  0
LINE
  8
0
 62
     0
 10
31.6687
 20
12.6187
 30
0.0
 11
31.6687
 21
26.6182
 31
0.0
  0
LINE
  8
0
 62
     0
 10
50.7189
 20
26.6182
 30
0.0
 11
64.7181
 21
26.6182
 31
0.0
  0
LINE
  8
0
 62
     0
 10
64.7181
 20
26.6182
 30
0.0
 11
64.7181
 21
12.6187
 31
0.0
  0
LINE
  8
0
 62
     0
 10
64.7181
 20
12.6187
 30
0.0
 11
50.7189
 21
12.6187
 31
0.0
  0
LINE
  8
0
 62
     0
 10
50.7189
 20
12.6187
 30
0.0
 11
50.7189
 21
26.6182
 31
0.0
  0
LINE
  8
0
 62
     0
 10
84.0564
 20
26.6182
 30
0.0
 11
98.0556
 21
26.6182
 31
0.0
  0
LINE
  8
0
 62
     0
 10
98.0556
 20
26.6182
 30
0.0
 11
98.0556
 21
12.6187
 31
0.0
  0
LINE
  8
0
 62
     0
 10
98.0556
 20
12.6187
 30
0.0
 11
84.0564
 21
12.6187
 31
0.0
  0
LINE
  8
0
 62
     0
 10
84.0564
 20
12.6187
 30
0.0
 11
84.0564
 21
26.6182
 31
0.0
  0
LINE
  8
0
 62
     0
 10
110.25
 20
26.6182
 30
0.0
 11
124.249
 21
26.6182
 31
0.0
  0
LINE
  8
0
 62
     0
 10
124.249
 20
26.6182
 30
0.0
 11
124.249
 21
12.6187
 31
0.0
  0
LINE
  8
0
 62
     0
 10
124.249
 20
12.6187
 30
0.0
 11
110.25
 21
12.6187
 31
0.0
  0
LINE
  8
0
 62
     0
 10
110.25
 20
12.6187
 30
0.0
 11
110.25
 21
26.6182
 31
0.0
  0
LINE
  8
0
 62
     0
 10
134.061
 20
26.6182
 30
0.0
 11
148.062
 21
26.6182
 31
0.0
  0
LINE
  8
0
 62
     0
 10
148.062
 20
26.6182
 30
0.0
 11
148.062
 21
12.6187
 31
0.0
  0
LINE
  8
0
 62
     0
 10
148.062
 20
12.6187
 30
0.0
 11
134.061
 21
12.6187
 31
0.0
  0
LINE
  8
0
 62
     0
 10
134.061
 20
12.6187
 30
0.0
 11
134.061
 21
26.6182
 31
0.0
  0
LINE
  8
0
 62
     0
 10
172.161
 20
26.6182
 30
0.0
 11
186.162
 21
26.6182
 31
0.0
  0
LINE
  8
0
 62
     0
 10
186.162
 20
26.6182
 30
0.0
 11
186.162
 21
12.6187
 31
0.0
  0
LINE
  8
0
 62
     0
 10
186.162
 20
12.6187
 30
0.0
 11
172.161
 21
12.6187
 31
0.0
  0
LINE
  8
0
 62
     0
 10
172.161
 20
12.6187
 30
0.0
 11
172.161
 21
26.6182
 31
0.0
  0
LINE
  8
0
 62
     0
 10
12.6187
 20
45.6681
 30
0.0
 11
26.6182
 21
45.6681
 31
0.0
  0
LINE
  8
0
 62
     0
 10
26.6182
 20
45.6681
 30
0.0
 11
26.6182
 21
31.6687
 31
0.0
  0
LINE
  8
0
 62
     0
 10
26.6182
 20
31.6687
 30
0.0
 11
12.6187
 21
31.6687
 31
0.0
  0
LINE
  8
0
 62
     0
 10
12.6187
 20
31.6687
 30
0.0
 11
12.6187
 21
45.6681
 31
0.0
  0
LINE
  8
0
 62
     0
 10
31.6687
 20
45.6681
 30
0.0
 11
45.6681
 21
45.6681
 31
0.0
  0
LINE
  8
0
 62
     0
 10
45.6681
 20
45.6681
 30
0.0
 11
45.6681
 21
31.6687
 31
0.0
  0
LINE
  8
0
 62
     0
 10
45.6681
 20
31.6687
 30
0.0
 11
31.6687
 21
31.6687
 31
0.0
  0
LINE
  8
0
 62
     0
 10
31.6687
 20
31.6687
 30
0.0
 11
31.6687
 21
45.6681
 31
0.0
  0
LINE
  8
0
 62
     0
 10
50.7189
 20
45.6681
 30
0.0
 11
64.7181
 21
45.6681
 31
0.0
  0
LINE
  8
0
 62
     0
 10
64.7181
 20
45.6681
 30
0.0
 11
64.7181
 21
31.6687
 31
0.0
  0
LINE
  8
0
 62
     0
 10
64.7181
 20
31.6687
 30
0.0
 11
50.7189
 21
31.6687
 31
0.0
  0
LINE
  8
0
 62
     0
 10
50.7189
 20
31.6687
 30
0.0
 11
50.7189
 21
45.6681
 31
0.0
  0
LINE
  8
0
 62
     0
 10
81.6751
 20
45.6681
 30
0.0
 11
95.6744
 21
45.6681
 31
0.0
  0
LINE
  8
0
 62
     0
 10
95.6744
 20
45.6681
 30
0.0
 11
95.6744
 21
31.6687
 31
0.0
  0
LINE
  8
0
 62
     0
 10
95.6744
 20
31.6687
 30
0.0
 11
81.6751
 21
31.6687
 31
0.0
  0
LINE
  8
0
 62
     0
 10
81.6751
 20
31.6687
 30
0.0
 11
81.6751
 21
45.6681
 31
0.0
  0
LINE
  8
0
 62
     0
 10
103.106
 20
45.6681
 30
0.0
 11
117.106
 21
45.6681
 31
0.0
  0
LINE
  8
0
 62
     0
 10
117.106
 20
45.6681
 30
0.0
 11
117.106
 21
31.6687
 31
0.0
  0
LINE
  8
0
 62
     0
 10
117.106
 20
31.6687
 30
0.0
 11
103.106
 21
31.6687
 31
0.0
  0
LINE
  8
0
 62
     0
 10
103.106
 20
31.6687
 30
0.0
 11
103.106
 21
45.6681
 31
0.0
  0
LINE
  8
0
 62
     0
 10
122.156
 20
45.6681
 30
0.0
 11
136.156
 21
45.6681
 31
0.0
  0
LINE
  8
0
 62
     0
 10
136.156
 20
45.6681
 30
0.0
 11
136.156
 21
31.6687
 31
0.0
  0
LINE
  8
0
 62
     0
 10
136.156
 20
31.6687
 30
0.0
 11
122.156
 21
31.6687
 31
0.0
  0
LINE
  8
0
 62
     0
 10
122.156
 20
31.6687
 30
0.0
 11
122.156
 21
45.6681
 31
0.0
  0
LINE
  8
0
 62
     0
 10
141.206
 20
45.6681
 30
0.0
 11
155.206
 21
45.6681
 31
0.0
  0
LINE
  8
0
 62
     0
 10
155.206
 20
45.6681
 30
0.0
 11
155.206
 21
31.6687
 31
0.0
  0
LINE
  8
0
 62
     0
 10
155.206
 20
31.6687
 30
0.0
 11
141.206
 21
31.6687
 31
0.0
  0
LINE
  8
0
 62
     0
 10
141.206
 20
31.6687
 30
0.0
 11
141.206
 21
45.6681
 31
0.0
  0
LINE
  8
0
 62
     0
 10
160.256
 20
45.6681
 30
0.0
 11
174.256
 21
45.6681
 31
0.0
  0
LINE
  8
0
 62
     0
 10
174.256
 20
45.6681
 30
0.0
 11
174.256
 21
31.6687
 31
0.0
  0
LINE
  8
0
 62
     0
 10
174.256
 20
31.6687
 30
0.0
 11
160.256
 21
31.6687
 31
0.0
  0
LINE
  8
0
 62
     0
 10
160.256
 20
31.6687
 30
0.0
 11
160.256
 21
45.6681
 31
0.0
  0
LINE
  8
0
 62
     0
 10
179.306
 20
45.6681
 30
0.0
 11
193.306
 21
45.6681
 31
0.0
  0
LINE
  8
0
 62
     0
 10
193.306
 20
45.6681
 30
0.0
 11
193.306
 21
31.6687
 31
0.0
  0
LINE
  8
0
 62
     0
 10
193.306
 20
31.6687
 30
0.0
 11
179.306
 21
31.6687
 31
0.0
  0
LINE
  8
0
 62
     0
 10
179.306
 20
31.6687
 30
0.0
 11
179.306
 21
45.6681
 31
0.0
  0
LINE
  8
0
 62
     0
 10
198.356
 20
45.6681
 30
0.0
 11
212.356
 21
45.6681
 31
0.0
  0
LINE
  8
0
 62
     0
 10
212.356
 20
45.6681
 30
0.0
 11
212.356
 21
31.6687
 31
0.0
  0
LINE
  8
0
 62
     0
 10
212.356
 20
31.6687
 30
0.0
 11
198.356
 21
31.6687
 31
0.0
  0
LINE
  8
0
 62
     0
 10
198.356
 20
31.6687
 30
0.0
 11
198.356
 21
45.6681
 31
0.0
  0
LINE
  8
0
 62
     0
 10
12.6187
 20
64.7181
 30
0.0
 11
26.6182
 21
64.7181
 31
0.0
  0
LINE
  8
0
 62
     0
 10
26.6182
 20
64.7181
 30
0.0
 11
26.6182
 21
50.7189
 31
0.0
  0
LINE
  8
0
 62
     0
 10
26.6182
 20
50.7189
 30
0.0
 11
12.6187
 21
50.7189
 31
0.0
  0
LINE
  8
0
 62
     0
 10
12.6187
 20
50.7189
 30
0.0
 11
12.6187
 21
64.7181
 31
0.0
  0
LINE
  8
0
 62
     0
 10
31.6687
 20
64.7181
 30
0.0
 11
45.6681
 21
64.7181
 31
0.0
  0
LINE
  8
0
 62
     0
 10
45.6681
 20
64.7181
 30
0.0
 11
45.6681
 21
50.7189
 31
0.0
  0
LINE
  8
0
 62
     0
 10
45.6681
 20
50.7189
 30
0.0
 11
31.6687
 21
50.7189
 31
0.0
  0
LINE
  8
0
 62
     0
 10
31.6687
 20
50.7189
 30
0.0
 11
31.6687
 21
64.7181
 31
0.0
  0
LINE
  8
0
 62
     0
 10
50.7189
 20
64.7181
 30
0.0
 11
64.7181
 21
64.7181
 31
0.0
  0
LINE
  8
0
 62
     0
 10
64.7181
 20
64.7181
 30
0.0
 11
64.7181
 21
50.7189
 31
0.0
  0
LINE
  8
0
 62
     0
 10
64.7181
 20
50.7189
 30
0.0
 11
50.7189
 21
50.7189
 31
0.0
  0
LINE
  8
0
 62
     0
 10
50.7189
 20
50.7189
 30
0.0
 11
50.7189
 21
64.7181
 31
0.0
  0
LINE
  8
0
 62
     0
 10
86.4362
 20
64.7181
 30
0.0
 11
100.437
 21
64.7181
 31
0.0
  0
LINE
  8
0
 62
     0
 10
100.437
 20
64.7181
 30
0.0
 11
100.437
 21
50.7189
 31
0.0
  0
LINE
  8
0
 62
     0
 10
100.437
 20
50.7189
 30
0.0
 11
86.4362
 21
50.7189
 31
0.0
  0
LINE
  8
0
 62
     0
 10
86.4362
 20
50.7189
 30
0.0
 11
86.4362
 21
64.7181
 31
0.0
  0
LINE
  8
0
 62
     0
 10
112.631
 20
64.7181
 30
0.0
 11
126.631
 21
64.7181
 31
0.0
  0
LINE
  8
0
 62
     0
 10
126.631
 20
64.7181
 30
0.0
 11
126.631
 21
50.7189
 31
0.0
  0
LINE
  8
0
 62
     0
 10
126.631
 20
50.7189
 30
0.0
 11
112.631
 21
50.7189
 31
0.0
  0
LINE
  8
0
 62
     0
 10
112.631
 20
50.7189
 30
0.0
 11
112.631
 21
64.7181
 31
0.0
  0
LINE
  8
0
 62
     0
 10
131.681
 20
64.7181
 30
0.0
 11
145.681
 21
64.7181
 31
0.0
  0
LINE
  8
0
 62
     0
 10
145.681
 20
64.7181
 30
0.0
 11
145.681
 21
50.7189
 31
0.0
  0
LINE
  8
0
 62
     0
 10
145.681
 20
50.7189
 30
0.0
 11
131.681
 21
50.7189
 31
0.0
  0
LINE
  8
0
 62
     0
 10
131.681
 20
50.7189
 30
0.0
 11
131.681
 21
64.7181
 31
0.0
  0
LINE
  8
0
 62
     0
 10
150.731
 20
64.7181
 30
0.0
 11
164.731
 21
64.7181
 31
0.0
  0
LINE
  8
0
 62
     0
 10
164.731
 20
64.7181
 30
0.0
 11
164.731
 21
50.7189
 31
0.0
  0
LINE
  8
0
 62
     0
 10
164.731
 20
50.7189
 30
0.0
 11
150.731
 21
50.7189
 31
0.0
  0
LINE
  8
0
 62
     0
 10
150.731
 20
50.7189
 30
0.0
 11
150.731
 21
64.7181
 31
0.0
  0
LINE
  8
0
 62
     0
 10
169.781
 20
64.7181
 30
0.0
 11
183.781
 21
64.7181
 31
0.0
  0
LINE
  8
0
 62
     0
 10
183.781
 20
64.7181
 30
0.0
 11
183.781
 21
50.7189
 31
0.0
  0
LINE
  8
0
 62
     0
 10
183.781
 20
50.7189
 30
0.0
 11
169.781
 21
50.7189
 31
0.0
  0
LINE
  8
0
 62
     0
 10
169.781
 20
50.7189
 30
0.0
 11
169.781
 21
64.7181
 31
0.0
  0
LINE
  8
0
 62
     0
 10
188.831
 20
64.7181
 30
0.0
 11
202.831
 21
64.7181
 31
0.0
  0
LINE
  8
0
 62
     0
 10
202.831
 20
64.7181
 30
0.0
 11
202.831
 21
50.7189
 31
0.0
  0
LINE
  8
0
 62
     0
 10
202.831
 20
50.7189
 30
0.0
 11
188.831
 21
50.7189
 31
0.0
  0
LINE
  8
0
 62
     0
 10
188.831
 20
50.7189
 30
0.0
 11
188.831
 21
64.7181
 31
0.0
  0
LINE
  8
0
 62
     0
 10
12.6187
 20
83.7681
 30
0.0
 11
26.6182
 21
83.7681
 31
0.0
  0
LINE
  8
0
 62
     0
 10
26.6182
 20
83.7681
 30
0.0
 11
26.6182
 21
69.7689
 31
0.0
  0
LINE
  8
0
 62
     0
 10
26.6182
 20
69.7689
 30
0.0
 11
12.6187
 21
69.7689
 31
0.0
  0
LINE
  8
0
 62
     0
 10
12.6187
 20
69.7689
 30
0.0
 11
12.6187
 21
83.7681
 31
0.0
  0
LINE
  8
0
 62
     0
 10
31.6687
 20
83.7681
 30
0.0
 11
45.6681
 21
83.7681
 31
0.0
  0
LINE
  8
0
 62
     0
 10
45.6681
 20
83.7681
 30
0.0
 11
45.6681
 21
69.7689
 31
0.0
  0
LINE
  8
0
 62
     0
 10
45.6681
 20
69.7689
 30
0.0
 11
31.6687
 21
69.7689
 31
0.0
  0
LINE
  8
0
 62
     0
 10
31.6687
 20
69.7689
 30
0.0
 11
31.6687
 21
83.7681
 31
0.0
  0
LINE
  8
0
 62
     0
 10
50.7189
 20
83.7681
 30
0.0
 11
64.7181
 21
83.7681
 31
0.0
  0
LINE
  8
0
 62
     0
 10
64.7181
 20
83.7681
 30
0.0
 11
64.7181
 21
69.7689
 31
0.0
  0
LINE
  8
0
 62
     0
 10
64.7181
 20
69.7689
 30
0.0
 11
50.7189
 21
69.7689
 31
0.0
  0
LINE
  8
0
 62
     0
 10
50.7189
 20
69.7689
 30
0.0
 11
50.7189
 21
83.7681
 31
0.0
  0
LINE
  8
0
 62
     0
 10
84.0564
 20
83.7681
 30
0.0
 11
98.0556
 21
83.7681
 31
0.0
  0
LINE
  8
0
 62
     0
 10
98.0556
 20
83.7681
 30
0.0
 11
98.0556
 21
69.7689
 31
0.0
  0
LINE
  8
0
 62
     0
 10
98.0556
 20
69.7689
 30
0.0
 11
84.0564
 21
69.7689
 31
0.0
  0
LINE
  8
0
 62
     0
 10
84.0564
 20
69.7689
 30
0.0
 11
84.0564
 21
83.7681
 31
0.0
  0
LINE
  8
0
 62
     0
 10
107.869
 20
83.7681
 30
0.0
 11
121.868
 21
83.7681
 31
0.0
  0
LINE
  8
0
 62
     0
 10
121.868
 20
83.7681
 30
0.0
 11
121.868
 21
69.7689
 31
0.0
  0
LINE
  8
0
 62
     0
 10
121.868
 20
69.7689
 30
0.0
 11
107.869
 21
69.7689
 31
0.0
  0
LINE
  8
0
 62
     0
 10
107.869
 20
69.7689
 30
0.0
 11
107.869
 21
83.7681
 31
0.0
  0
LINE
  8
0
 62
     0
 10
126.919
 20
83.7681
 30
0.0
 11
140.918
 21
83.7681
 31
0.0
  0
LINE
  8
0
 62
     0
 10
140.918
 20
83.7681
 30
0.0
 11
140.918
 21
69.7689
 31
0.0
  0
LINE
  8
0
 62
     0
 10
140.918
 20
69.7689
 30
0.0
 11
126.919
 21
69.7689
 31
0.0
  0
LINE
  8
0
 62
     0
 10
126.919
 20
69.7689
 30
0.0
 11
126.919
 21
83.7681
 31
0.0
  0
LINE
  8
0
 62
     0
 10
145.969
 20
83.7681
 30
0.0
 11
159.968
 21
83.7681
 31
0.0
  0
LINE
  8
0
 62
     0
 10
159.968
 20
83.7681
 30
0.0
 11
159.968
 21
69.7689
 31
0.0
  0
LINE
  8
0
 62
     0
 10
159.968
 20
69.7689
 30
0.0
 11
145.969
 21
69.7689
 31
0.0
  0
LINE
  8
0
 62
     0
 10
145.969
 20
69.7689
 30
0.0
 11
145.969
 21
83.7681
 31
0.0
  0
LINE
  8
0
 62
     0
 10
165.019
 20
83.7681
 30
0.0
 11
179.018
 21
83.7681
 31
0.0
  0
LINE
  8
0
 62
     0
 10
179.018
 20
83.7681
 30
0.0
 11
179.018
 21
69.7689
 31
0.0
  0
LINE
  8
0
 62
     0
 10
179.018
 20
69.7689
 30
0.0
 11
165.019
 21
69.7689
 31
0.0
  0
LINE
  8
0
 62
     0
 10
165.019
 20
69.7689
 30
0.0
 11
165.019
 21
83.7681
 31
0.0
  0
LINE
  8
0
 62
     0
 10
184.069
 20
83.7681
 30
0.0
 11
198.068
 21
83.7681
 31
0.0
  0
LINE
  8
0
 62
     0
 10
198.068
 20
83.7681
 30
0.0
 11
198.068
 21
69.7689
 31
0.0
  0
LINE
  8
0
 62
     0
 10
198.068
 20
69.7689
 30
0.0
 11
184.069
 21
69.7689
 31
0.0
  0
LINE
  8
0
 62
     0
 10
184.069
 20
69.7689
 30
0.0
 11
184.069
 21
83.7681
 31
0.0
  0
LINE
  8
0
 62
     0
 10
12.6187
 20
102.818
 30
0.0
 11
26.6182
 21
102.818
 31
0.0
  0
LINE
  8
0
 62
     0
 10
26.6182
 20
102.818
 30
0.0
 11
26.6182
 21
88.8189
 31
0.0
  0
LINE
  8
0
 62
     0
 10
26.6182
 20
88.8189
 30
0.0
 11
12.6187
 21
88.8189
 31
0.0
  0
LINE
  8
0
 62
     0
 10
12.6187
 20
88.8189
 30
0.0
 11
12.6187
 21
102.818
 31
0.0
  0
LINE
  8
0
 62
     0
 10
31.6687
 20
102.818
 30
0.0
 11
45.6681
 21
102.818
 31
0.0
  0
LINE
  8
0
 62
     0
 10
45.6681
 20
102.818
 30
0.0
 11
45.6681
 21
88.8189
 31
0.0
  0
LINE
  8
0
 62
     0
 10
45.6681
 20
88.8189
 30
0.0
 11
31.6687
 21
88.8189
 31
0.0
  0
LINE
  8
0
 62
     0
 10
31.6687
 20
88.8189
 30
0.0
 11
31.6687
 21
102.818
 31
0.0
  0
LINE
  8
0
 62
     0
 10
50.7189
 20
102.818
 30
0.0
 11
64.7181
 21
102.818
 31
0.0
  0
LINE
  8
0
 62
     0
 10
64.7181
 20
102.818
 30
0.0
 11
64.7181
 21
88.8189
 31
0.0
  0
LINE
  8
0
 62
     0
 10
64.7181
 20
88.8189
 30
0.0
 11
50.7189
 21
88.8189
 31
0.0
  0
LINE
  8
0
 62
     0
 10
50.7189
 20
88.8189
 30
0.0
 11
50.7189
 21
102.818
 31
0.0
  0
LINE
  8
0
 62
     0
 10
79.2939
 20
102.818
 30
0.0
 11
93.2931
 21
102.818
 31
0.0
  0
LINE
  8
0
 62
     0
 10
93.2931
 20
102.818
 30
0.0
 11
93.2931
 21
88.8189
 31
0.0
  0
LINE
  8
0
 62
     0
 10
93.2931
 20
88.8189
 30
0.0
 11
79.2939
 21
88.8189
 31
0.0
  0
LINE
  8
0
 62
     0
 10
79.2939
 20
88.8189
 30
0.0
 11
79.2939
 21
102.818
 31
0.0
  0
LINE
  8
0
 62
     0
 10
98.3439
 20
102.818
 30
0.0
 11
112.343
 21
102.818
 31
0.0
  0
LINE
  8
0
 62
     0
 10
112.343
 20
102.818
 30
0.0
 11
112.343
 21
88.8189
 31
0.0
  0
LINE
  8
0
 62
     0
 10
112.343
 20
88.8189
 30
0.0
 11
98.3439
 21
88.8189
 31
0.0
  0
LINE
  8
0
 62
     0
 10
98.3439
 20
88.8189
 30
0.0
 11
98.3439
 21
102.818
 31
0.0
  0
LINE
  8
0
 62
     0
 10
117.394
 20
102.818
 30
0.0
 11
131.393
 21
102.818
 31
0.0
  0
LINE
  8
0
 62
     0
 10
131.393
 20
102.818
 30
0.0
 11
131.393
 21
88.8189
 31
0.0
  0
LINE
  8
0
 62
     0
 10
131.393
 20
88.8189
 30
0.0
 11
117.394
 21
88.8189
 31
0.0
  0
LINE
  8
0
 62
     0
 10
117.394
 20
88.8189
 30
0.0
 11
117.394
 21
102.818
 31
0.0
  0
LINE
  8
0
 62
     0
 10
136.444
 20
102.818
 30
0.0
 11
150.443
 21
102.818
 31
0.0
  0
LINE
  8
0
 62
     0
 10
150.443
 20
102.818
 30
0.0
 11
150.443
 21
88.8189
 31
0.0
  0
LINE
  8
0
 62
     0
 10
150.443
 20
88.8189
 30
0.0
 11
136.444
 21
88.8189
 31
0.0
  0
LINE
  8
0
 62
     0
 10
136.444
 20
88.8189
 30
0.0
 11
136.444
 21
102.818
 31
0.0
  0
LINE
  8
0
 62
     0
 10
155.494
 20
102.818
 30
0.0
 11
169.493
 21
102.818
 31
0.0
  0
LINE
  8
0
 62
     0
 10
169.493
 20
102.818
 30
0.0
 11
169.493
 21
88.8189
 31
0.0
  0
LINE
  8
0
 62
     0
 10
169.493
 20
88.8189
 30
0.0
 11
155.494
 21
88.8189
 31
0.0
  0
LINE
  8
0
 62
     0
 10
155.494
 20
88.8189
 30
0.0
 11
155.494
 21
102.818
 31
0.0
  0
LINE
  8
0
 62
     0
 10
174.544
 20
102.818
 30
0.0
 11
188.543
 21
102.818
 31
0.0
  0
LINE
  8
0
 62
     0
 10
188.543
 20
102.818
 30
0.0
 11
188.543
 21
88.8189
 31
0.0
  0
LINE
  8
0
 62
     0
 10
188.543
 20
88.8189
 30
0.0
 11
174.544
 21
88.8189
 31
0.0
  0
LINE
  8
0
 62
     0
 10
174.544
 20
88.8189
 30
0.0
 11
174.544
 21
102.818
 31
0.0
  0
LINE
  8
0
 62
     0
 10
193.594
 20
102.818
 30
0.0
 11
207.593
 21
102.818
 31
0.0
  0
LINE
  8
0
 62
     0
 10
207.593
 20
102.818
 30
0.0
 11
207.593
 21
88.8189
 31
0.0
  0
LINE
  8
0
 62
     0
 10
207.593
 20
88.8189
 30
0.0
 11
193.594
 21
88.8189
 31
0.0
  0
LINE
  8
0
 62
     0
 10
193.594
 20
88.8189
 30
0.0
 11
193.594
 21
102.818
 31
0.0
  0
LINE
  8
0
 62
     0
 10
75.8624
 20
112.866
 30
0.0
 11
75.4158
 21
112.638
 31
0.0
  0
LINE
  8
0
 62
     0
 10
75.4158
 20
112.638
 30
0.0
 11
75.0616
 21
112.285
 31
0.0
  0
LINE
  8
0
 62
     0
 10
75.0616
 20
112.285
 30
0.0
 11
74.8344
 21
111.838
 31
0.0
  0
LINE
  8
0
 62
     0
 10
74.8344
 20
111.838
 30
0.0
 11
74.7557
 21
111.344
 31
0.0
  0
LINE
  8
0
 62
     0
 10
74.7557
 20
111.344
 30
0.0
 11
74.8344
 21
110.849
 31
0.0
  0
LINE
  8
0
 62
     0
 10
74.8344
 20
110.849
 30
0.0
 11
75.0616
 21
110.403
 31
0.0
  0
LINE
  8
0
 62
     0
 10
75.0616
 20
110.403
 30
0.0
 11
75.4158
 21
110.05
 31
0.0
  0
LINE
  8
0
 62
     0
 10
75.4158
 20
110.05
 30
0.0
 11
75.8624
 21
109.823
 31
0.0
  0
LINE
  8
0
 62
     0
 10
75.8624
 20
109.823
 30
0.0
 11
76.3556
 21
109.743
 31
0.0
  0
LINE
  8
0
 62
     0
 10
76.3556
 20
109.743
 30
0.0
 11
76.8505
 21
109.823
 31
0.0
  0
LINE
  8
0
 62
     0
 10
76.8505
 20
109.823
 30
0.0
 11
77.2968
 21
110.05
 31
0.0
  0
LINE
  8
0
 62
     0
 10
77.2968
 20
110.05
 30
0.0
 11
77.651
 21
110.403
 31
0.0
  0
LINE
  8
0
 62
     0
 10
77.651
 20
110.403
 30
0.0
 11
77.8771
 21
110.849
 31
0.0
  0
LINE
  8
0
 62
     0
 10
77.8771
 20
110.849
 30
0.0
 11
77.9558
 21
111.344
 31
0.0
  0
LINE
  8
0
 62
     0
 10
77.9558
 20
111.344
 30
0.0
 11
77.8771
 21
111.838
 31
0.0
  0
LINE
  8
0
 62
     0
 10
77.8771
 20
111.838
 30
0.0
 11
77.651
 21
112.285
 31
0.0
  0
LINE
  8
0
 62
     0
 10
77.651
 20
112.285
 30
0.0
 11
77.2968
 21
112.638
 31
0.0
  0
LINE
  8
0
 62
     0
 10
77.2968
 20
112.638
 30
0.0
 11
76.8505
 21
112.866
 31
0.0
  0
LINE
  8
0
 62
     0
 10
76.8505
 20
112.866
 30
0.0
 11
76.3556
 21
112.944
 31
0.0
  0
LINE
  8
0
 62
     0
 10
76.3556
 20
112.944
 30
0.0
 11
75.8624
 21
112.866
 31
0.0
  0
LINE
  8
0
 62
     0
 10
148.125
 20
112.866
 30
0.0
 11
147.679
 21
112.638
 31
0.0
  0
LINE
  8
0
 62
     0
 10
147.679
 20
112.638
 30
0.0
 11
147.325
 21
112.285
 31
0.0
  0
LINE
  8
0
 62
     0
 10
147.325
 20
112.285
 30
0.0
 11
147.097
 21
111.838
 31
0.0
  0
LINE
  8
0
 62
     0
 10
147.097
 20
111.838
 30
0.0
 11
147.019
 21
111.344
 31
0.0
  0
LINE
  8
0
 62
     0
 10
147.019
 20
111.344
 30
0.0
 11
147.097
 21
110.849
 31
0.0
  0
LINE
  8
0
 62
     0
 10
147.097
 20
110.849
 30
0.0
 11
147.325
 21
110.403
 31
0.0
  0
LINE
  8
0
 62
     0
 10
147.325
 20
110.403
 30
0.0
 11
147.679
 21
110.05
 31
0.0
  0
LINE
  8
0
 62
     0
 10
147.679
 20
110.05
 30
0.0
 11
148.125
 21
109.823
 31
0.0
  0
LINE
  8
0
 62
     0
 10
148.125
 20
109.823
 30
0.0
 11
148.619
 21
109.743
 31
0.0
  0
LINE
  8
0
 62
     0
 10
148.619
 20
109.743
 30
0.0
 11
149.114
 21
109.823
 31
0.0
  0
LINE
  8
0
 62
     0
 10
149.114
 20
109.823
 30
0.0
 11
149.56
 21
110.05
 31
0.0
  0
LINE
  8
0
 62
     0
 10
149.56
 20
110.05
 30
0.0
 11
149.914
 21
110.403
 31
0.0
  0
LINE
  8
0
 62
     0
 10
149.914
 20
110.403
 30
0.0
 11
150.142
 21
110.849
 31
0.0
  0
LINE
  8
0
 62
     0
 10
150.142
 20
110.849
 30
0.0
 11
150.218
 21
111.344
 31
0.0
  0
LINE
  8
0
 62
     0
 10
150.218
 20
111.344
 30
0.0
 11
150.142
 21
111.838
 31
0.0
  0
LINE
  8
0
 62
     0
 10
150.142
 20
111.838
 30
0.0
 11
149.914
 21
112.285
 31
0.0
  0
LINE
  8
0
 62
     0
 10
149.914
 20
112.285
 30
0.0
 11
149.56
 21
112.638
 31
0.0
  0
LINE
  8
0
 62
     0
 10
149.56
 20
112.638
 30
0.0
 11
149.114
 21
112.866
 31
0.0
  0
LINE
  8
0
 62
     0
 10
149.114
 20
112.866
 30
0.0
 11
148.619
 21
112.944
 31
0.0
  0
LINE
  8
0
 62
     0
 10
148.619
 20
112.944
 30
0.0
 11
148.125
 21
112.866
 31
0.0
  0
LINE
  8
0
 62
     0
 10
220.388
 20
112.866
 30
0.0
 11
219.942
 21
112.638
 31
0.0
  0
LINE
  8
0
 62
     0
 10
219.942
 20
112.638
 30
0.0
 11
219.588
 21
112.285
 31
0.0
  0
LINE
  8
0
 62
     0
 10
219.588
 20
112.285
 30
0.0
 11
219.36
 21
111.838
 31
0.0
  0
LINE
  8
0
 62
     0
 10
219.36
 20
111.838
 30
0.0
 11
219.282
 21
111.344
 31
0.0
  0
LINE
  8
0
 62
     0
 10
219.282
 20
111.344
 30
0.0
 11
219.36
 21
110.849
 31
0.0
  0
LINE
  8
0
 62
     0
 10
219.36
 20
110.849
 30
0.0
 11
219.588
 21
110.403
 31
0.0
  0
LINE
  8
0
 62
     0
 10
219.588
 20
110.403
 30
0.0
 11
219.942
 21
110.05
 31
0.0
  0
LINE
  8
0
 62
     0
 10
219.942
 20
110.05
 30
0.0
 11
220.388
 21
109.823
 31
0.0
  0
LINE
  8
0
 62
     0
 10
220.388
 20
109.823
 30
0.0
 11
220.882
 21
109.743
 31
0.0
  0
LINE
  8
0
 62
     0
 10
220.882
 20
109.743
 30
0.0
 11
221.376
 21
109.823
 31
0.0
  0
LINE
  8
0
 62
     0
 10
221.376
 20
109.823
 30
0.0
 11
221.821
 21
110.05
 31
0.0
  0
LINE
  8
0
 62
     0
 10
221.821
 20
110.05
 30
0.0
 11
222.176
 21
110.403
 31
0.0
  0
LINE
  8
0
 62
     0
 10
222.176
 20
110.403
 30
0.0
 11
222.405
 21
110.849
 31
0.0
  0
LINE
  8
0
 62
     0
 10
222.405
 20
110.849
 30
0.0
 11
222.481
 21
111.344
 31
0.0
  0
LINE
  8
0
 62
     0
 10
222.481
 20
111.344
 30
0.0
 11
222.405
 21
111.838
 31
0.0
  0
LINE
  8
0
 62
     0
 10
222.405
 20
111.838
 30
0.0
 11
222.176
 21
112.285
 31
0.0
  0
LINE
  8
0
 62
     0
 10
222.176
 20
112.285
 30
0.0
 11
221.821
 21
112.638
 31
0.0
  0
LINE
  8
0
 62
     0
 10
221.821
 20
112.638
 30
0.0
 11
221.376
 21
112.866
 31
0.0
  0
LINE
  8
0
 62
     0
 10
221.376
 20
112.866
 30
0.0
 11
220.882
 21
112.944
 31
0.0
  0
LINE
  8
0
 62
     0
 10
220.882
 20
112.944
 30
0.0
 11
220.388
 21
112.866
 31
0.0
  0
LINE
  8
0
 62
     0
 10
3.59943
 20
112.866
 30
0.0
 11
3.15157
 21
112.638
 31
0.0
  0
LINE
  8
0
 62
     0
 10
3.15157
 20
112.638
 30
0.0
 11
2.79879
 21
112.285
 31
0.0
  0
LINE
  8
0
 62
     0
 10
2.79879
 20
112.285
 30
0.0
 11
2.57142
 21
111.838
 31
0.0
  0
LINE
  8
0
 62
     0
 10
2.57142
 20
111.838
 30
0.0
 11
2.49425
 21
111.344
 31
0.0
  0
LINE
  8
0
 62
     0
 10
2.49425
 20
111.344
 30
0.0
 11
2.57142
 21
110.849
 31
0.0
  0
LINE
  8
0
 62
     0
 10
2.57142
 20
110.849
 30
0.0
 11
2.79879
 21
110.403
 31
0.0
  0
LINE
  8
0
 62
     0
 10
2.79879
 20
110.403
 30
0.0
 11
3.15157
 21
110.05
 31
0.0
  0
LINE
  8
0
 62
     0
 10
3.15157
 20
110.05
 30
0.0
 11
3.59943
 21
109.823
 31
0.0
  0
LINE
  8
0
 62
     0
 10
3.59943
 20
109.823
 30
0.0
 11
4.09416
 21
109.743
 31
0.0
  0
LINE
  8
0
 62
     0
 10
4.09416
 20
109.743
 30
0.0
 11
4.58749
 21
109.823
 31
0.0
  0
LINE
  8
0
 62
     0
 10
4.58749
 20
109.823
 30
0.0
 11
5.03396
 21
110.05
 31
0.0
  0
LINE
  8
0
 62
     0
 10
5.03396
 20
110.05
 30
0.0
 11
5.38812
 21
110.403
 31
0.0
  0
LINE
  8
0
 62
     0
 10
5.38812
 20
110.403
 30
0.0
 11
5.61414
 21
110.849
 31
0.0
  0
LINE
  8
0
 62
     0
 10
5.61414
 20
110.849
 30
0.0
 11
5.69405
 21
111.344
 31
0.0
  0
LINE
  8
0
 62
     0
 10
5.69405
 20
111.344
 30
0.0
 11
5.61414
 21
111.838
 31
0.0
  0
LINE
  8
0
 62
     0
 10
5.61414
 20
111.838
 30
0.0
 11
5.38812
 21
112.285
 31
0.0
  0
LINE
  8
0
 62
     0
 10
5.38812
 20
112.285
 30
0.0
 11
5.03396
 21
112.638
 31
0.0
  0
LINE
  8
0
 62
     0
 10
5.03396
 20
112.638
 30
0.0
 11
4.58749
 21
112.866
 31
0.0
  0
LINE
  8
0
 62
     0
 10
4.58749
 20
112.866
 30
0.0
 11
4.09416
 21
112.944
 31
0.0
  0
LINE
  8
0
 62
     0
 10
4.09416
 20
112.944
 30
0.0
 11
3.59943
 21
112.866
 31
0.0
  0
ENDSEC
  0
EOF
