  0
SECTION
  2
HEADER
  9
$ACADVER
  1
AC1009
  9
$EXTMIN
 10
0.0
 20
0.0
 30
0.0
  9
$EXTMAX
 10
1000.0
 20
1000.0
 30
0.0
  9
$FILLMODE
 70
 0
  9
$SPLFRAME
 70
 1
  0
ENDSEC
  0
SECTION
  2
TABLES
  0
TABLE
  2
LAYER
 70
1
  0
LAYER
  2
0
 70
     0
 62
     7
  6
CONTINUOUS
  0
ENDTAB
  0
ENDSEC
  0
SECTION
  2
ENTITIES
  0
LINE
  8
0
 62
     0
 10
0.0950846
 20
95.3424
 30
0.0
 11
457.295
 21
95.3424
 31
0.0
  0
LINE
  8
0
 62
     0
 10
457.295
 20
95.3424
 30
0.0
 11
457.295
 21
0.0923286
 31
0.0
  0
LINE
  8
0
 62
     0
 10
457.295
 20
0.0923286
 30
0.0
 11
0.0950846
 21
0.0923286
 31
0.0
  0
LINE
  8
0
 62
     0
 10
0.0950846
 20
0.0923286
 30
0.0
 11
0.0950846
 21
95.3424
 31
0.0
  0
LINE
  8
0
 62
     0
 10
164.545
 20
16.6178
 30
0.0
 11
164.545
 21
11.9173
 31
0.0
  0
LINE
  8
0
 62
     0
 10
164.545
 20
11.9173
 30
0.0
 11
155.869
 21
11.9173
 31
0.0
  0
LINE
  8
0
 62
     0
 10
155.869
 20
11.9173
 30
0.0
 11
155.869
 21
15.1474
 31
0.0
  0
LINE
  8
0
 62
     0
 10
155.869
 20
15.1474
 30
0.0
 11
149.119
 21
15.1474
 31
0.0
  0
LINE
  8
0
 62
     0
 10
149.119
 20
15.1474
 30
0.0
 11
149.119
 21
11.9173
 31
0.0
  0
LINE
  8
0
 62
     0
 10
149.119
 20
11.9173
 30
0.0
 11
148.295
 21
11.9173
 31
0.0
  0
LINE
  8
0
 62
     0
 10
148.295
 20
11.9173
 30
0.0
 11
148.295
 21
9.11712
 31
0.0
  0
LINE
  8
0
 62
     0
 10
148.295
 20
9.11712
 30
0.0
 11
149.119
 21
9.11712
 31
0.0
  0
LINE
  8
0
 62
     0
 10
149.119
 20
9.11712
 30
0.0
 11
149.119
 21
2.84841
 31
0.0
  0
LINE
  8
0
 62
     0
 10
149.119
 20
2.84841
 30
0.0
 11
150.844
 21
2.84841
 31
0.0
  0
LINE
  8
0
 62
     0
 10
150.844
 20
2.84841
 30
0.0
 11
150.844
 21
1.64814
 31
0.0
  0
LINE
  8
0
 62
     0
 10
150.844
 20
1.64814
 30
0.0
 11
154.143
 21
1.64814
 31
0.0
  0
LINE
  8
0
 62
     0
 10
154.143
 20
1.64814
 30
0.0
 11
154.143
 21
2.84841
 31
0.0
  0
LINE
  8
0
 62
     0
 10
154.143
 20
2.84841
 30
0.0
 11
155.869
 21
2.84841
 31
0.0
  0
LINE
  8
0
 62
     0
 10
155.869
 20
2.84841
 30
0.0
 11
155.869
 21
7.31876
 31
0.0
  0
LINE
  8
0
 62
     0
 10
155.869
 20
7.31876
 30
0.0
 11
164.545
 21
7.31876
 31
0.0
  0
LINE
  8
0
 62
     0
 10
164.545
 20
7.31876
 30
0.0
 11
164.545
 21
2.61827
 31
0.0
  0
LINE
  8
0
 62
     0
 10
164.545
 20
2.61827
 30
0.0
 11
178.544
 21
2.61827
 31
0.0
  0
LINE
  8
0
 62
     0
 10
178.544
 20
2.61827
 30
0.0
 11
178.544
 21
7.31876
 31
0.0
  0
LINE
  8
0
 62
     0
 10
178.544
 20
7.31876
 30
0.0
 11
187.22
 21
7.31876
 31
0.0
  0
LINE
  8
0
 62
     0
 10
187.22
 20
7.31876
 30
0.0
 11
187.22
 21
2.84841
 31
0.0
  0
LINE
  8
0
 62
     0
 10
187.22
 20
2.84841
 30
0.0
 11
188.944
 21
2.84841
 31
0.0
  0
LINE
  8
0
 62
     0
 10
188.944
 20
2.84841
 30
0.0
 11
188.944
 21
1.64814
 31
0.0
  0
LINE
  8
0
 62
     0
 10
188.944
 20
1.64814
 30
0.0
 11
192.243
 21
1.64814
 31
0.0
  0
LINE
  8
0
 62
     0
 10
192.243
 20
1.64814
 30
0.0
 11
192.243
 21
2.84841
 31
0.0
  0
LINE
  8
0
 62
     0
 10
192.243
 20
2.84841
 30
0.0
 11
193.97
 21
2.84841
 31
0.0
  0
LINE
  8
0
 62
     0
 10
193.97
 20
2.84841
 30
0.0
 11
193.97
 21
9.11712
 31
0.0
  0
LINE
  8
0
 62
     0
 10
193.97
 20
9.11712
 30
0.0
 11
194.795
 21
9.11712
 31
0.0
  0
LINE
  8
0
 62
     0
 10
194.795
 20
9.11712
 30
0.0
 11
194.795
 21
11.9173
 31
0.0
  0
LINE
  8
0
 62
     0
 10
194.795
 20
11.9173
 30
0.0
 11
193.97
 21
11.9173
 31
0.0
  0
LINE
  8
0
 62
     0
 10
193.97
 20
11.9173
 30
0.0
 11
193.97
 21
15.1474
 31
0.0
  0
LINE
  8
0
 62
     0
 10
193.97
 20
15.1474
 30
0.0
 11
187.22
 21
15.1474
 31
0.0
  0
LINE
  8
0
 62
     0
 10
187.22
 20
15.1474
 30
0.0
 11
187.22
 21
11.9173
 31
0.0
  0
LINE
  8
0
 62
     0
 10
187.22
 20
11.9173
 30
0.0
 11
178.544
 21
11.9173
 31
0.0
  0
LINE
  8
0
 62
     0
 10
178.544
 20
11.9173
 30
0.0
 11
178.544
 21
16.6178
 31
0.0
  0
LINE
  8
0
 62
     0
 10
178.544
 20
16.6178
 30
0.0
 11
164.545
 21
16.6178
 31
0.0
  0
LINE
  8
0
 62
     0
 10
255.032
 20
16.6178
 30
0.0
 11
255.032
 21
11.9173
 31
0.0
  0
LINE
  8
0
 62
     0
 10
255.032
 20
11.9173
 30
0.0
 11
246.357
 21
11.9173
 31
0.0
  0
LINE
  8
0
 62
     0
 10
246.357
 20
11.9173
 30
0.0
 11
246.357
 21
15.1474
 31
0.0
  0
LINE
  8
0
 62
     0
 10
246.357
 20
15.1474
 30
0.0
 11
239.606
 21
15.1474
 31
0.0
  0
LINE
  8
0
 62
     0
 10
239.606
 20
15.1474
 30
0.0
 11
239.606
 21
11.9173
 31
0.0
  0
LINE
  8
0
 62
     0
 10
239.606
 20
11.9173
 30
0.0
 11
238.782
 21
11.9173
 31
0.0
  0
LINE
  8
0
 62
     0
 10
238.782
 20
11.9173
 30
0.0
 11
238.782
 21
9.11712
 31
0.0
  0
LINE
  8
0
 62
     0
 10
238.782
 20
9.11712
 30
0.0
 11
239.606
 21
9.11712
 31
0.0
  0
LINE
  8
0
 62
     0
 10
239.606
 20
9.11712
 30
0.0
 11
239.606
 21
2.84841
 31
0.0
  0
LINE
  8
0
 62
     0
 10
239.606
 20
2.84841
 30
0.0
 11
241.332
 21
2.84841
 31
0.0
  0
LINE
  8
0
 62
     0
 10
241.332
 20
2.84841
 30
0.0
 11
241.332
 21
1.64814
 31
0.0
  0
LINE
  8
0
 62
     0
 10
241.332
 20
1.64814
 30
0.0
 11
244.632
 21
1.64814
 31
0.0
  0
LINE
  8
0
 62
     0
 10
244.632
 20
1.64814
 30
0.0
 11
244.632
 21
2.84841
 31
0.0
  0
LINE
  8
0
 62
     0
 10
244.632
 20
2.84841
 30
0.0
 11
246.357
 21
2.84841
 31
0.0
  0
LINE
  8
0
 62
     0
 10
246.357
 20
2.84841
 30
0.0
 11
246.357
 21
7.31876
 31
0.0
  0
LINE
  8
0
 62
     0
 10
246.357
 20
7.31876
 30
0.0
 11
255.032
 21
7.31876
 31
0.0
  0
LINE
  8
0
 62
     0
 10
255.032
 20
7.31876
 30
0.0
 11
255.032
 21
2.61827
 31
0.0
  0
LINE
  8
0
 62
     0
 10
255.032
 20
2.61827
 30
0.0
 11
269.032
 21
2.61827
 31
0.0
  0
LINE
  8
0
 62
     0
 10
269.032
 20
2.61827
 30
0.0
 11
269.032
 21
7.31876
 31
0.0
  0
LINE
  8
0
 62
     0
 10
269.032
 20
7.31876
 30
0.0
 11
277.706
 21
7.31876
 31
0.0
  0
LINE
  8
0
 62
     0
 10
277.706
 20
7.31876
 30
0.0
 11
277.706
 21
2.84841
 31
0.0
  0
LINE
  8
0
 62
     0
 10
277.706
 20
2.84841
 30
0.0
 11
279.432
 21
2.84841
 31
0.0
  0
LINE
  8
0
 62
     0
 10
279.432
 20
2.84841
 30
0.0
 11
279.432
 21
1.64814
 31
0.0
  0
LINE
  8
0
 62
     0
 10
279.432
 20
1.64814
 30
0.0
 11
282.732
 21
1.64814
 31
0.0
  0
LINE
  8
0
 62
     0
 10
282.732
 20
1.64814
 30
0.0
 11
282.732
 21
2.84841
 31
0.0
  0
LINE
  8
0
 62
     0
 10
282.732
 20
2.84841
 30
0.0
 11
284.457
 21
2.84841
 31
0.0
  0
LINE
  8
0
 62
     0
 10
284.457
 20
2.84841
 30
0.0
 11
284.457
 21
9.11712
 31
0.0
  0
LINE
  8
0
 62
     0
 10
284.457
 20
9.11712
 30
0.0
 11
285.282
 21
9.11712
 31
0.0
  0
LINE
  8
0
 62
     0
 10
285.282
 20
9.11712
 30
0.0
 11
285.282
 21
11.9173
 31
0.0
  0
LINE
  8
0
 62
     0
 10
285.282
 20
11.9173
 30
0.0
 11
284.457
 21
11.9173
 31
0.0
  0
LINE
  8
0
 62
     0
 10
284.457
 20
11.9173
 30
0.0
 11
284.457
 21
15.1474
 31
0.0
  0
LINE
  8
0
 62
     0
 10
284.457
 20
15.1474
 30
0.0
 11
277.706
 21
15.1474
 31
0.0
  0
LINE
  8
0
 62
     0
 10
277.706
 20
15.1474
 30
0.0
 11
277.706
 21
11.9173
 31
0.0
  0
LINE
  8
0
 62
     0
 10
277.706
 20
11.9173
 30
0.0
 11
269.032
 21
11.9173
 31
0.0
  0
LINE
  8
0
 62
     0
 10
269.032
 20
11.9173
 30
0.0
 11
269.032
 21
16.6178
 31
0.0
  0
LINE
  8
0
 62
     0
 10
269.032
 20
16.6178
 30
0.0
 11
255.032
 21
16.6178
 31
0.0
  0
LINE
  8
0
 62
     0
 10
2.61965
 20
16.6178
 30
0.0
 11
16.6192
 21
16.6178
 31
0.0
  0
LINE
  8
0
 62
     0
 10
16.6192
 20
16.6178
 30
0.0
 11
16.6192
 21
2.61827
 31
0.0
  0
LINE
  8
0
 62
     0
 10
16.6192
 20
2.61827
 30
0.0
 11
2.61965
 21
2.61827
 31
0.0
  0
LINE
  8
0
 62
     0
 10
2.61965
 20
2.61827
 30
0.0
 11
2.61965
 21
16.6178
 31
0.0
  0
LINE
  8
0
 62
     0
 10
21.6697
 20
16.6178
 30
0.0
 11
35.669
 21
16.6178
 31
0.0
  0
LINE
  8
0
 62
     0
 10
35.669
 20
16.6178
 30
0.0
 11
35.669
 21
2.61827
 31
0.0
  0
LINE
  8
0
 62
     0
 10
35.669
 20
2.61827
 30
0.0
 11
21.6697
 21
2.61827
 31
0.0
  0
LINE
  8
0
 62
     0
 10
21.6697
 20
2.61827
 30
0.0
 11
21.6697
 21
16.6178
 31
0.0
  0
LINE
  8
0
 62
     0
 10
40.7197
 20
16.6178
 30
0.0
 11
54.719
 21
16.6178
 31
0.0
  0
LINE
  8
0
 62
     0
 10
54.719
 20
16.6178
 30
0.0
 11
54.719
 21
2.61827
 31
0.0
  0
LINE
  8
0
 62
     0
 10
54.719
 20
2.61827
 30
0.0
 11
40.7197
 21
2.61827
 31
0.0
  0
LINE
  8
0
 62
     0
 10
40.7197
 20
2.61827
 30
0.0
 11
40.7197
 21
16.6178
 31
0.0
  0
LINE
  8
0
 62
     0
 10
74.0572
 20
16.6178
 30
0.0
 11
88.0565
 21
16.6178
 31
0.0
  0
LINE
  8
0
 62
     0
 10
88.0565
 20
16.6178
 30
0.0
 11
88.0565
 21
2.61827
 31
0.0
  0
LINE
  8
0
 62
     0
 10
88.0565
 20
2.61827
 30
0.0
 11
74.0572
 21
2.61827
 31
0.0
  0
LINE
  8
0
 62
     0
 10
74.0572
 20
2.61827
 30
0.0
 11
74.0572
 21
16.6178
 31
0.0
  0
LINE
  8
0
 62
     0
 10
100.251
 20
16.6178
 30
0.0
 11
114.25
 21
16.6178
 31
0.0
  0
LINE
  8
0
 62
     0
 10
114.25
 20
16.6178
 30
0.0
 11
114.25
 21
2.61827
 31
0.0
  0
LINE
  8
0
 62
     0
 10
114.25
 20
2.61827
 30
0.0
 11
100.251
 21
2.61827
 31
0.0
  0
LINE
  8
0
 62
     0
 10
100.251
 20
2.61827
 30
0.0
 11
100.251
 21
16.6178
 31
0.0
  0
LINE
  8
0
 62
     0
 10
124.062
 20
16.6178
 30
0.0
 11
138.063
 21
16.6178
 31
0.0
  0
LINE
  8
0
 62
     0
 10
138.063
 20
16.6178
 30
0.0
 11
138.063
 21
2.61827
 31
0.0
  0
LINE
  8
0
 62
     0
 10
138.063
 20
2.61827
 30
0.0
 11
124.062
 21
2.61827
 31
0.0
  0
LINE
  8
0
 62
     0
 10
124.062
 20
2.61827
 30
0.0
 11
124.062
 21
16.6178
 31
0.0
  0
LINE
  8
0
 62
     0
 10
295.513
 20
16.6178
 30
0.0
 11
309.513
 21
16.6178
 31
0.0
  0
LINE
  8
0
 62
     0
 10
309.513
 20
16.6178
 30
0.0
 11
309.513
 21
2.61827
 31
0.0
  0
LINE
  8
0
 62
     0
 10
309.513
 20
2.61827
 30
0.0
 11
295.513
 21
2.61827
 31
0.0
  0
LINE
  8
0
 62
     0
 10
295.513
 20
2.61827
 30
0.0
 11
295.513
 21
16.6178
 31
0.0
  0
LINE
  8
0
 62
     0
 10
319.326
 20
16.6178
 30
0.0
 11
333.325
 21
16.6178
 31
0.0
  0
LINE
  8
0
 62
     0
 10
333.325
 20
16.6178
 30
0.0
 11
333.325
 21
2.61827
 31
0.0
  0
LINE
  8
0
 62
     0
 10
333.325
 20
2.61827
 30
0.0
 11
319.326
 21
2.61827
 31
0.0
  0
LINE
  8
0
 62
     0
 10
319.326
 20
2.61827
 30
0.0
 11
319.326
 21
16.6178
 31
0.0
  0
LINE
  8
0
 62
     0
 10
343.138
 20
16.6178
 30
0.0
 11
357.138
 21
16.6178
 31
0.0
  0
LINE
  8
0
 62
     0
 10
357.138
 20
16.6178
 30
0.0
 11
357.138
 21
2.61827
 31
0.0
  0
LINE
  8
0
 62
     0
 10
357.138
 20
2.61827
 30
0.0
 11
343.138
 21
2.61827
 31
0.0
  0
LINE
  8
0
 62
     0
 10
343.138
 20
2.61827
 30
0.0
 11
343.138
 21
16.6178
 31
0.0
  0
LINE
  8
0
 62
     0
 10
369.334
 20
16.6178
 30
0.0
 11
383.332
 21
16.6178
 31
0.0
  0
LINE
  8
0
 62
     0
 10
383.332
 20
16.6178
 30
0.0
 11
383.332
 21
2.61827
 31
0.0
  0
LINE
  8
0
 62
     0
 10
383.332
 20
2.61827
 30
0.0
 11
369.334
 21
2.61827
 31
0.0
  0
LINE
  8
0
 62
     0
 10
369.334
 20
2.61827
 30
0.0
 11
369.334
 21
16.6178
 31
0.0
  0
LINE
  8
0
 62
     0
 10
402.671
 20
16.6178
 30
0.0
 11
416.669
 21
16.6178
 31
0.0
  0
LINE
  8
0
 62
     0
 10
416.669
 20
16.6178
 30
0.0
 11
416.669
 21
2.61827
 31
0.0
  0
LINE
  8
0
 62
     0
 10
416.669
 20
2.61827
 30
0.0
 11
402.671
 21
2.61827
 31
0.0
  0
LINE
  8
0
 62
     0
 10
402.671
 20
2.61827
 30
0.0
 11
402.671
 21
16.6178
 31
0.0
  0
LINE
  8
0
 62
     0
 10
421.721
 20
16.6178
 30
0.0
 11
435.719
 21
16.6178
 31
0.0
  0
LINE
  8
0
 62
     0
 10
435.719
 20
16.6178
 30
0.0
 11
435.719
 21
2.61827
 31
0.0
  0
LINE
  8
0
 62
     0
 10
435.719
 20
2.61827
 30
0.0
 11
421.721
 21
2.61827
 31
0.0
  0
LINE
  8
0
 62
     0
 10
421.721
 20
2.61827
 30
0.0
 11
421.721
 21
16.6178
 31
0.0
  0
LINE
  8
0
 62
     0
 10
440.771
 20
16.6178
 30
0.0
 11
454.769
 21
16.6178
 31
0.0
  0
LINE
  8
0
 62
     0
 10
454.769
 20
16.6178
 30
0.0
 11
454.769
 21
2.61827
 31
0.0
  0
LINE
  8
0
 62
     0
 10
454.769
 20
2.61827
 30
0.0
 11
440.771
 21
2.61827
 31
0.0
  0
LINE
  8
0
 62
     0
 10
440.771
 20
2.61827
 30
0.0
 11
440.771
 21
16.6178
 31
0.0
  0
LINE
  8
0
 62
     0
 10
2.61965
 20
35.6676
 30
0.0
 11
16.6192
 21
35.6676
 31
0.0
  0
LINE
  8
0
 62
     0
 10
16.6192
 20
35.6676
 30
0.0
 11
16.6192
 21
21.6683
 31
0.0
  0
LINE
  8
0
 62
     0
 10
16.6192
 20
21.6683
 30
0.0
 11
2.61965
 21
21.6683
 31
0.0
  0
LINE
  8
0
 62
     0
 10
2.61965
 20
21.6683
 30
0.0
 11
2.61965
 21
35.6676
 31
0.0
  0
LINE
  8
0
 62
     0
 10
21.6697
 20
35.6676
 30
0.0
 11
35.669
 21
35.6676
 31
0.0
  0
LINE
  8
0
 62
     0
 10
35.669
 20
35.6676
 30
0.0
 11
35.669
 21
21.6683
 31
0.0
  0
LINE
  8
0
 62
     0
 10
35.669
 20
21.6683
 30
0.0
 11
21.6697
 21
21.6683
 31
0.0
  0
LINE
  8
0
 62
     0
 10
21.6697
 20
21.6683
 30
0.0
 11
21.6697
 21
35.6676
 31
0.0
  0
LINE
  8
0
 62
     0
 10
40.7197
 20
35.6676
 30
0.0
 11
54.719
 21
35.6676
 31
0.0
  0
LINE
  8
0
 62
     0
 10
54.719
 20
35.6676
 30
0.0
 11
54.719
 21
21.6683
 31
0.0
  0
LINE
  8
0
 62
     0
 10
54.719
 20
21.6683
 30
0.0
 11
40.7197
 21
21.6683
 31
0.0
  0
LINE
  8
0
 62
     0
 10
40.7197
 20
21.6683
 30
0.0
 11
40.7197
 21
35.6676
 31
0.0
  0
LINE
  8
0
 62
     0
 10
71.676
 20
35.6676
 30
0.0
 11
85.6753
 21
35.6676
 31
0.0
  0
LINE
  8
0
 62
     0
 10
85.6753
 20
35.6676
 30
0.0
 11
85.6753
 21
21.6683
 31
0.0
  0
LINE
  8
0
 62
     0
 10
85.6753
 20
21.6683
 30
0.0
 11
71.676
 21
21.6683
 31
0.0
  0
LINE
  8
0
 62
     0
 10
71.676
 20
21.6683
 30
0.0
 11
71.676
 21
35.6676
 31
0.0
  0
LINE
  8
0
 62
     0
 10
93.1072
 20
35.6676
 30
0.0
 11
107.107
 21
35.6676
 31
0.0
  0
LINE
  8
0
 62
     0
 10
107.107
 20
35.6676
 30
0.0
 11
107.107
 21
21.6683
 31
0.0
  0
LINE
  8
0
 62
     0
 10
107.107
 20
21.6683
 30
0.0
 11
93.1072
 21
21.6683
 31
0.0
  0
LINE
  8
0
 62
     0
 10
93.1072
 20
21.6683
 30
0.0
 11
93.1072
 21
35.6676
 31
0.0
  0
LINE
  8
0
 62
     0
 10
112.157
 20
35.6676
 30
0.0
 11
126.157
 21
35.6676
 31
0.0
  0
LINE
  8
0
 62
     0
 10
126.157
 20
35.6676
 30
0.0
 11
126.157
 21
21.6683
 31
0.0
  0
LINE
  8
0
 62
     0
 10
126.157
 20
21.6683
 30
0.0
 11
112.157
 21
21.6683
 31
0.0
  0
LINE
  8
0
 62
     0
 10
112.157
 20
21.6683
 30
0.0
 11
112.157
 21
35.6676
 31
0.0
  0
LINE
  8
0
 62
     0
 10
131.207
 20
35.6676
 30
0.0
 11
145.207
 21
35.6676
 31
0.0
  0
LINE
  8
0
 62
     0
 10
145.207
 20
35.6676
 30
0.0
 11
145.207
 21
21.6683
 31
0.0
  0
LINE
  8
0
 62
     0
 10
145.207
 20
21.6683
 30
0.0
 11
131.207
 21
21.6683
 31
0.0
  0
LINE
  8
0
 62
     0
 10
131.207
 20
21.6683
 30
0.0
 11
131.207
 21
35.6676
 31
0.0
  0
LINE
  8
0
 62
     0
 10
150.257
 20
35.6676
 30
0.0
 11
164.257
 21
35.6676
 31
0.0
  0
LINE
  8
0
 62
     0
 10
164.257
 20
35.6676
 30
0.0
 11
164.257
 21
21.6683
 31
0.0
  0
LINE
  8
0
 62
     0
 10
164.257
 20
21.6683
 30
0.0
 11
150.257
 21
21.6683
 31
0.0
  0
LINE
  8
0
 62
     0
 10
150.257
 20
21.6683
 30
0.0
 11
150.257
 21
35.6676
 31
0.0
  0
LINE
  8
0
 62
     0
 10
169.307
 20
35.6676
 30
0.0
 11
183.307
 21
35.6676
 31
0.0
  0
LINE
  8
0
 62
     0
 10
183.307
 20
35.6676
 30
0.0
 11
183.307
 21
21.6683
 31
0.0
  0
LINE
  8
0
 62
     0
 10
183.307
 20
21.6683
 30
0.0
 11
169.307
 21
21.6683
 31
0.0
  0
LINE
  8
0
 62
     0
 10
169.307
 20
21.6683
 30
0.0
 11
169.307
 21
35.6676
 31
0.0
  0
LINE
  8
0
 62
     0
 10
188.357
 20
35.6676
 30
0.0
 11
202.357
 21
35.6676
 31
0.0
  0
LINE
  8
0
 62
     0
 10
202.357
 20
35.6676
 30
0.0
 11
202.357
 21
21.6683
 31
0.0
  0
LINE
  8
0
 62
     0
 10
202.357
 20
21.6683
 30
0.0
 11
188.357
 21
21.6683
 31
0.0
  0
LINE
  8
0
 62
     0
 10
188.357
 20
21.6683
 30
0.0
 11
188.357
 21
35.6676
 31
0.0
  0
LINE
  8
0
 62
     0
 10
245.507
 20
35.6676
 30
0.0
 11
259.507
 21
35.6676
 31
0.0
  0
LINE
  8
0
 62
     0
 10
259.507
 20
35.6676
 30
0.0
 11
259.507
 21
21.6683
 31
0.0
  0
LINE
  8
0
 62
     0
 10
259.507
 20
21.6683
 30
0.0
 11
245.507
 21
21.6683
 31
0.0
  0
LINE
  8
0
 62
     0
 10
245.507
 20
21.6683
 30
0.0
 11
245.507
 21
35.6676
 31
0.0
  0
LINE
  8
0
 62
     0
 10
264.557
 20
35.6676
 30
0.0
 11
278.557
 21
35.6676
 31
0.0
  0
LINE
  8
0
 62
     0
 10
278.557
 20
35.6676
 30
0.0
 11
278.557
 21
21.6683
 31
0.0
  0
LINE
  8
0
 62
     0
 10
278.557
 20
21.6683
 30
0.0
 11
264.557
 21
21.6683
 31
0.0
  0
LINE
  8
0
 62
     0
 10
264.557
 20
21.6683
 30
0.0
 11
264.557
 21
35.6676
 31
0.0
  0
LINE
  8
0
 62
     0
 10
283.607
 20
35.6676
 30
0.0
 11
297.607
 21
35.6676
 31
0.0
  0
LINE
  8
0
 62
     0
 10
297.607
 20
35.6676
 30
0.0
 11
297.607
 21
21.6683
 31
0.0
  0
LINE
  8
0
 62
     0
 10
297.607
 20
21.6683
 30
0.0
 11
283.607
 21
21.6683
 31
0.0
  0
LINE
  8
0
 62
     0
 10
283.607
 20
21.6683
 30
0.0
 11
283.607
 21
35.6676
 31
0.0
  0
LINE
  8
0
 62
     0
 10
302.657
 20
35.6676
 30
0.0
 11
316.657
 21
35.6676
 31
0.0
  0
LINE
  8
0
 62
     0
 10
316.657
 20
35.6676
 30
0.0
 11
316.657
 21
21.6683
 31
0.0
  0
LINE
  8
0
 62
     0
 10
316.657
 20
21.6683
 30
0.0
 11
302.657
 21
21.6683
 31
0.0
  0
LINE
  8
0
 62
     0
 10
302.657
 20
21.6683
 30
0.0
 11
302.657
 21
35.6676
 31
0.0
  0
LINE
  8
0
 62
     0
 10
321.707
 20
35.6676
 30
0.0
 11
335.707
 21
35.6676
 31
0.0
  0
LINE
  8
0
 62
     0
 10
335.707
 20
35.6676
 30
0.0
 11
335.707
 21
21.6683
 31
0.0
  0
LINE
  8
0
 62
     0
 10
335.707
 20
21.6683
 30
0.0
 11
321.707
 21
21.6683
 31
0.0
  0
LINE
  8
0
 62
     0
 10
321.707
 20
21.6683
 30
0.0
 11
321.707
 21
35.6676
 31
0.0
  0
LINE
  8
0
 62
     0
 10
340.757
 20
35.6676
 30
0.0
 11
354.757
 21
35.6676
 31
0.0
  0
LINE
  8
0
 62
     0
 10
354.757
 20
35.6676
 30
0.0
 11
354.757
 21
21.6683
 31
0.0
  0
LINE
  8
0
 62
     0
 10
354.757
 20
21.6683
 30
0.0
 11
340.757
 21
21.6683
 31
0.0
  0
LINE
  8
0
 62
     0
 10
340.757
 20
21.6683
 30
0.0
 11
340.757
 21
35.6676
 31
0.0
  0
LINE
  8
0
 62
     0
 10
366.952
 20
35.6676
 30
0.0
 11
380.951
 21
35.6676
 31
0.0
  0
LINE
  8
0
 62
     0
 10
380.951
 20
35.6676
 30
0.0
 11
380.951
 21
21.6683
 31
0.0
  0
LINE
  8
0
 62
     0
 10
380.951
 20
21.6683
 30
0.0
 11
366.952
 21
21.6683
 31
0.0
  0
LINE
  8
0
 62
     0
 10
366.952
 20
21.6683
 30
0.0
 11
366.952
 21
35.6676
 31
0.0
  0
LINE
  8
0
 62
     0
 10
421.721
 20
35.6676
 30
0.0
 11
435.719
 21
35.6676
 31
0.0
  0
LINE
  8
0
 62
     0
 10
435.719
 20
35.6676
 30
0.0
 11
435.719
 21
21.6683
 31
0.0
  0
LINE
  8
0
 62
     0
 10
435.719
 20
21.6683
 30
0.0
 11
421.721
 21
21.6683
 31
0.0
  0
LINE
  8
0
 62
     0
 10
421.721
 20
21.6683
 30
0.0
 11
421.721
 21
35.6676
 31
0.0
  0
LINE
  8
0
 62
     0
 10
362.19
 20
54.7176
 30
0.0
 11
362.19
 21
50.0172
 31
0.0
  0
LINE
  8
0
 62
     0
 10
362.19
 20
50.0172
 30
0.0
 11
360.662
 21
50.0172
 31
0.0
  0
LINE
  8
0
 62
     0
 10
360.662
 20
50.0172
 30
0.0
 11
360.662
 21
53.2476
 31
0.0
  0
LINE
  8
0
 62
     0
 10
360.662
 20
53.2476
 30
0.0
 11
353.914
 21
53.2476
 31
0.0
  0
LINE
  8
0
 62
     0
 10
353.914
 20
53.2476
 30
0.0
 11
353.914
 21
50.0172
 31
0.0
  0
LINE
  8
0
 62
     0
 10
353.914
 20
50.0172
 30
0.0
 11
353.088
 21
50.0172
 31
0.0
  0
LINE
  8
0
 62
     0
 10
353.088
 20
50.0172
 30
0.0
 11
353.088
 21
47.2172
 31
0.0
  0
LINE
  8
0
 62
     0
 10
353.088
 20
47.2172
 30
0.0
 11
353.914
 21
47.2172
 31
0.0
  0
LINE
  8
0
 62
     0
 10
353.914
 20
47.2172
 30
0.0
 11
353.914
 21
40.9483
 31
0.0
  0
LINE
  8
0
 62
     0
 10
353.914
 20
40.9483
 30
0.0
 11
355.639
 21
40.9483
 31
0.0
  0
LINE
  8
0
 62
     0
 10
355.639
 20
40.9483
 30
0.0
 11
355.639
 21
39.7482
 31
0.0
  0
LINE
  8
0
 62
     0
 10
355.639
 20
39.7482
 30
0.0
 11
358.937
 21
39.7482
 31
0.0
  0
LINE
  8
0
 62
     0
 10
358.937
 20
39.7482
 30
0.0
 11
358.937
 21
40.9483
 31
0.0
  0
LINE
  8
0
 62
     0
 10
358.937
 20
40.9483
 30
0.0
 11
360.662
 21
40.9483
 31
0.0
  0
LINE
  8
0
 62
     0
 10
360.662
 20
40.9483
 30
0.0
 11
360.662
 21
45.4173
 31
0.0
  0
LINE
  8
0
 62
     0
 10
360.662
 20
45.4173
 30
0.0
 11
362.19
 21
45.4173
 31
0.0
  0
LINE
  8
0
 62
     0
 10
362.19
 20
45.4173
 30
0.0
 11
362.19
 21
40.7183
 31
0.0
  0
LINE
  8
0
 62
     0
 10
362.19
 20
40.7183
 30
0.0
 11
376.188
 21
40.7183
 31
0.0
  0
LINE
  8
0
 62
     0
 10
376.188
 20
40.7183
 30
0.0
 11
376.188
 21
45.4173
 31
0.0
  0
LINE
  8
0
 62
     0
 10
376.188
 20
45.4173
 30
0.0
 11
377.712
 21
45.4173
 31
0.0
  0
LINE
  8
0
 62
     0
 10
377.712
 20
45.4173
 30
0.0
 11
377.712
 21
40.9483
 31
0.0
  0
LINE
  8
0
 62
     0
 10
377.712
 20
40.9483
 30
0.0
 11
379.437
 21
40.9483
 31
0.0
  0
LINE
  8
0
 62
     0
 10
379.437
 20
40.9483
 30
0.0
 11
379.437
 21
39.7482
 31
0.0
  0
LINE
  8
0
 62
     0
 10
379.437
 20
39.7482
 30
0.0
 11
382.739
 21
39.7482
 31
0.0
  0
LINE
  8
0
 62
     0
 10
382.739
 20
39.7482
 30
0.0
 11
382.739
 21
40.9483
 31
0.0
  0
LINE
  8
0
 62
     0
 10
382.739
 20
40.9483
 30
0.0
 11
384.464
 21
40.9483
 31
0.0
  0
LINE
  8
0
 62
     0
 10
384.464
 20
40.9483
 30
0.0
 11
384.464
 21
47.2172
 31
0.0
  0
LINE
  8
0
 62
     0
 10
384.464
 20
47.2172
 30
0.0
 11
385.286
 21
47.2172
 31
0.0
  0
LINE
  8
0
 62
     0
 10
385.286
 20
47.2172
 30
0.0
 11
385.286
 21
50.0172
 31
0.0
  0
LINE
  8
0
 62
     0
 10
385.286
 20
50.0172
 30
0.0
 11
384.464
 21
50.0172
 31
0.0
  0
LINE
  8
0
 62
     0
 10
384.464
 20
50.0172
 30
0.0
 11
384.464
 21
53.2476
 31
0.0
  0
LINE
  8
0
 62
     0
 10
384.464
 20
53.2476
 30
0.0
 11
377.712
 21
53.2476
 31
0.0
  0
LINE
  8
0
 62
     0
 10
377.712
 20
53.2476
 30
0.0
 11
377.712
 21
50.0172
 31
0.0
  0
LINE
  8
0
 62
     0
 10
377.712
 20
50.0172
 30
0.0
 11
376.188
 21
50.0172
 31
0.0
  0
LINE
  8
0
 62
     0
 10
376.188
 20
50.0172
 30
0.0
 11
376.188
 21
54.7176
 31
0.0
  0
LINE
  8
0
 62
     0
 10
376.188
 20
54.7176
 30
0.0
 11
362.19
 21
54.7176
 31
0.0
  0
LINE
  8
0
 62
     0
 10
2.61965
 20
54.7176
 30
0.0
 11
16.6192
 21
54.7176
 31
0.0
  0
LINE
  8
0
 62
     0
 10
16.6192
 20
54.7176
 30
0.0
 11
16.6192
 21
40.7183
 31
0.0
  0
LINE
  8
0
 62
     0
 10
16.6192
 20
40.7183
 30
0.0
 11
2.61965
 21
40.7183
 31
0.0
  0
LINE
  8
0
 62
     0
 10
2.61965
 20
40.7183
 30
0.0
 11
2.61965
 21
54.7176
 31
0.0
  0
LINE
  8
0
 62
     0
 10
21.6697
 20
54.7176
 30
0.0
 11
35.669
 21
54.7176
 31
0.0
  0
LINE
  8
0
 62
     0
 10
35.669
 20
54.7176
 30
0.0
 11
35.669
 21
40.7183
 31
0.0
  0
LINE
  8
0
 62
     0
 10
35.669
 20
40.7183
 30
0.0
 11
21.6697
 21
40.7183
 31
0.0
  0
LINE
  8
0
 62
     0
 10
21.6697
 20
40.7183
 30
0.0
 11
21.6697
 21
54.7176
 31
0.0
  0
LINE
  8
0
 62
     0
 10
40.7197
 20
54.7176
 30
0.0
 11
54.719
 21
54.7176
 31
0.0
  0
LINE
  8
0
 62
     0
 10
54.719
 20
54.7176
 30
0.0
 11
54.719
 21
40.7183
 31
0.0
  0
LINE
  8
0
 62
     0
 10
54.719
 20
40.7183
 30
0.0
 11
40.7197
 21
40.7183
 31
0.0
  0
LINE
  8
0
 62
     0
 10
40.7197
 20
40.7183
 30
0.0
 11
40.7197
 21
54.7176
 31
0.0
  0
LINE
  8
0
 62
     0
 10
76.4385
 20
54.7176
 30
0.0
 11
90.4378
 21
54.7176
 31
0.0
  0
LINE
  8
0
 62
     0
 10
90.4378
 20
54.7176
 30
0.0
 11
90.4378
 21
40.7183
 31
0.0
  0
LINE
  8
0
 62
     0
 10
90.4378
 20
40.7183
 30
0.0
 11
76.4385
 21
40.7183
 31
0.0
  0
LINE
  8
0
 62
     0
 10
76.4385
 20
40.7183
 30
0.0
 11
76.4385
 21
54.7176
 31
0.0
  0
LINE
  8
0
 62
     0
 10
102.632
 20
54.7176
 30
0.0
 11
116.632
 21
54.7176
 31
0.0
  0
LINE
  8
0
 62
     0
 10
116.632
 20
54.7176
 30
0.0
 11
116.632
 21
40.7183
 31
0.0
  0
LINE
  8
0
 62
     0
 10
116.632
 20
40.7183
 30
0.0
 11
102.632
 21
40.7183
 31
0.0
  0
LINE
  8
0
 62
     0
 10
102.632
 20
40.7183
 30
0.0
 11
102.632
 21
54.7176
 31
0.0
  0
LINE
  8
0
 62
     0
 10
121.682
 20
54.7176
 30
0.0
 11
135.682
 21
54.7176
 31
0.0
  0
LINE
  8
0
 62
     0
 10
135.682
 20
54.7176
 30
0.0
 11
135.682
 21
40.7183
 31
0.0
  0
LINE
  8
0
 62
     0
 10
135.682
 20
40.7183
 30
0.0
 11
121.682
 21
40.7183
 31
0.0
  0
LINE
  8
0
 62
     0
 10
121.682
 20
40.7183
 30
0.0
 11
121.682
 21
54.7176
 31
0.0
  0
LINE
  8
0
 62
     0
 10
140.732
 20
54.7176
 30
0.0
 11
154.732
 21
54.7176
 31
0.0
  0
LINE
  8
0
 62
     0
 10
154.732
 20
54.7176
 30
0.0
 11
154.732
 21
40.7183
 31
0.0
  0
LINE
  8
0
 62
     0
 10
154.732
 20
40.7183
 30
0.0
 11
140.732
 21
40.7183
 31
0.0
  0
LINE
  8
0
 62
     0
 10
140.732
 20
40.7183
 30
0.0
 11
140.732
 21
54.7176
 31
0.0
  0
LINE
  8
0
 62
     0
 10
159.782
 20
54.7176
 30
0.0
 11
173.782
 21
54.7176
 31
0.0
  0
LINE
  8
0
 62
     0
 10
173.782
 20
54.7176
 30
0.0
 11
173.782
 21
40.7183
 31
0.0
  0
LINE
  8
0
 62
     0
 10
173.782
 20
40.7183
 30
0.0
 11
159.782
 21
40.7183
 31
0.0
  0
LINE
  8
0
 62
     0
 10
159.782
 20
40.7183
 30
0.0
 11
159.782
 21
54.7176
 31
0.0
  0
LINE
  8
0
 62
     0
 10
178.832
 20
54.7176
 30
0.0
 11
192.832
 21
54.7176
 31
0.0
  0
LINE
  8
0
 62
     0
 10
192.832
 20
54.7176
 30
0.0
 11
192.832
 21
40.7183
 31
0.0
  0
LINE
  8
0
 62
     0
 10
192.832
 20
40.7183
 30
0.0
 11
178.832
 21
40.7183
 31
0.0
  0
LINE
  8
0
 62
     0
 10
178.832
 20
40.7183
 30
0.0
 11
178.832
 21
54.7176
 31
0.0
  0
LINE
  8
0
 62
     0
 10
235.982
 20
54.7176
 30
0.0
 11
249.982
 21
54.7176
 31
0.0
  0
LINE
  8
0
 62
     0
 10
249.982
 20
54.7176
 30
0.0
 11
249.982
 21
40.7183
 31
0.0
  0
LINE
  8
0
 62
     0
 10
249.982
 20
40.7183
 30
0.0
 11
235.982
 21
40.7183
 31
0.0
  0
LINE
  8
0
 62
     0
 10
235.982
 20
40.7183
 30
0.0
 11
235.982
 21
54.7176
 31
0.0
  0
LINE
  8
0
 62
     0
 10
255.032
 20
54.7176
 30
0.0
 11
269.032
 21
54.7176
 31
0.0
  0
LINE
  8
0
 62
     0
 10
269.032
 20
54.7176
 30
0.0
 11
269.032
 21
40.7183
 31
0.0
  0
LINE
  8
0
 62
     0
 10
269.032
 20
40.7183
 30
0.0
 11
255.032
 21
40.7183
 31
0.0
  0
LINE
  8
0
 62
     0
 10
255.032
 20
40.7183
 30
0.0
 11
255.032
 21
54.7176
 31
0.0
  0
LINE
  8
0
 62
     0
 10
274.082
 20
54.7176
 30
0.0
 11
288.082
 21
54.7176
 31
0.0
  0
LINE
  8
0
 62
     0
 10
288.082
 20
54.7176
 30
0.0
 11
288.082
 21
40.7183
 31
0.0
  0
LINE
  8
0
 62
     0
 10
288.082
 20
40.7183
 30
0.0
 11
274.082
 21
40.7183
 31
0.0
  0
LINE
  8
0
 62
     0
 10
274.082
 20
40.7183
 30
0.0
 11
274.082
 21
54.7176
 31
0.0
  0
LINE
  8
0
 62
     0
 10
293.132
 20
54.7176
 30
0.0
 11
307.132
 21
54.7176
 31
0.0
  0
LINE
  8
0
 62
     0
 10
307.132
 20
54.7176
 30
0.0
 11
307.132
 21
40.7183
 31
0.0
  0
LINE
  8
0
 62
     0
 10
307.132
 20
40.7183
 30
0.0
 11
293.132
 21
40.7183
 31
0.0
  0
LINE
  8
0
 62
     0
 10
293.132
 20
40.7183
 30
0.0
 11
293.132
 21
54.7176
 31
0.0
  0
LINE
  8
0
 62
     0
 10
312.182
 20
54.7176
 30
0.0
 11
326.182
 21
54.7176
 31
0.0
  0
LINE
  8
0
 62
     0
 10
326.182
 20
54.7176
 30
0.0
 11
326.182
 21
40.7183
 31
0.0
  0
LINE
  8
0
 62
     0
 10
326.182
 20
40.7183
 30
0.0
 11
312.182
 21
40.7183
 31
0.0
  0
LINE
  8
0
 62
     0
 10
312.182
 20
40.7183
 30
0.0
 11
312.182
 21
54.7176
 31
0.0
  0
LINE
  8
0
 62
     0
 10
331.232
 20
54.7176
 30
0.0
 11
345.232
 21
54.7176
 31
0.0
  0
LINE
  8
0
 62
     0
 10
345.232
 20
54.7176
 30
0.0
 11
345.232
 21
40.7183
 31
0.0
  0
LINE
  8
0
 62
     0
 10
345.232
 20
40.7183
 30
0.0
 11
331.232
 21
40.7183
 31
0.0
  0
LINE
  8
0
 62
     0
 10
331.232
 20
40.7183
 30
0.0
 11
331.232
 21
54.7176
 31
0.0
  0
LINE
  8
0
 62
     0
 10
402.671
 20
54.7176
 30
0.0
 11
416.669
 21
54.7176
 31
0.0
  0
LINE
  8
0
 62
     0
 10
416.669
 20
54.7176
 30
0.0
 11
416.669
 21
40.7183
 31
0.0
  0
LINE
  8
0
 62
     0
 10
416.669
 20
40.7183
 30
0.0
 11
402.671
 21
40.7183
 31
0.0
  0
LINE
  8
0
 62
     0
 10
402.671
 20
40.7183
 30
0.0
 11
402.671
 21
54.7176
 31
0.0
  0
LINE
  8
0
 62
     0
 10
421.721
 20
54.7176
 30
0.0
 11
435.719
 21
54.7176
 31
0.0
  0
LINE
  8
0
 62
     0
 10
435.719
 20
54.7176
 30
0.0
 11
435.719
 21
40.7183
 31
0.0
  0
LINE
  8
0
 62
     0
 10
435.719
 20
40.7183
 30
0.0
 11
421.721
 21
40.7183
 31
0.0
  0
LINE
  8
0
 62
     0
 10
421.721
 20
40.7183
 30
0.0
 11
421.721
 21
54.7176
 31
0.0
  0
LINE
  8
0
 62
     0
 10
440.771
 20
54.7176
 30
0.0
 11
454.769
 21
54.7176
 31
0.0
  0
LINE
  8
0
 62
     0
 10
454.769
 20
54.7176
 30
0.0
 11
454.769
 21
40.7183
 31
0.0
  0
LINE
  8
0
 62
     0
 10
454.769
 20
40.7183
 30
0.0
 11
440.771
 21
40.7183
 31
0.0
  0
LINE
  8
0
 62
     0
 10
440.771
 20
40.7183
 30
0.0
 11
440.771
 21
54.7176
 31
0.0
  0
LINE
  8
0
 62
     0
 10
2.61965
 20
73.7676
 30
0.0
 11
16.6192
 21
73.7676
 31
0.0
  0
LINE
  8
0
 62
     0
 10
16.6192
 20
73.7676
 30
0.0
 11
16.6192
 21
59.7683
 31
0.0
  0
LINE
  8
0
 62
     0
 10
16.6192
 20
59.7683
 30
0.0
 11
2.61965
 21
59.7683
 31
0.0
  0
LINE
  8
0
 62
     0
 10
2.61965
 20
59.7683
 30
0.0
 11
2.61965
 21
73.7676
 31
0.0
  0
LINE
  8
0
 62
     0
 10
21.6697
 20
73.7676
 30
0.0
 11
35.669
 21
73.7676
 31
0.0
  0
LINE
  8
0
 62
     0
 10
35.669
 20
73.7676
 30
0.0
 11
35.669
 21
59.7683
 31
0.0
  0
LINE
  8
0
 62
     0
 10
35.669
 20
59.7683
 30
0.0
 11
21.6697
 21
59.7683
 31
0.0
  0
LINE
  8
0
 62
     0
 10
21.6697
 20
59.7683
 30
0.0
 11
21.6697
 21
73.7676
 31
0.0
  0
LINE
  8
0
 62
     0
 10
40.7197
 20
73.7676
 30
0.0
 11
54.719
 21
73.7676
 31
0.0
  0
LINE
  8
0
 62
     0
 10
54.719
 20
73.7676
 30
0.0
 11
54.719
 21
59.7683
 31
0.0
  0
LINE
  8
0
 62
     0
 10
54.719
 20
59.7683
 30
0.0
 11
40.7197
 21
59.7683
 31
0.0
  0
LINE
  8
0
 62
     0
 10
40.7197
 20
59.7683
 30
0.0
 11
40.7197
 21
73.7676
 31
0.0
  0
LINE
  8
0
 62
     0
 10
74.0572
 20
73.7676
 30
0.0
 11
88.0565
 21
73.7676
 31
0.0
  0
LINE
  8
0
 62
     0
 10
88.0565
 20
73.7676
 30
0.0
 11
88.0565
 21
59.7683
 31
0.0
  0
LINE
  8
0
 62
     0
 10
88.0565
 20
59.7683
 30
0.0
 11
74.0572
 21
59.7683
 31
0.0
  0
LINE
  8
0
 62
     0
 10
74.0572
 20
59.7683
 30
0.0
 11
74.0572
 21
73.7676
 31
0.0
  0
LINE
  8
0
 62
     0
 10
97.8697
 20
73.7676
 30
0.0
 11
111.869
 21
73.7676
 31
0.0
  0
LINE
  8
0
 62
     0
 10
111.869
 20
73.7676
 30
0.0
 11
111.869
 21
59.7683
 31
0.0
  0
LINE
  8
0
 62
     0
 10
111.869
 20
59.7683
 30
0.0
 11
97.8697
 21
59.7683
 31
0.0
  0
LINE
  8
0
 62
     0
 10
97.8697
 20
59.7683
 30
0.0
 11
97.8697
 21
73.7676
 31
0.0
  0
LINE
  8
0
 62
     0
 10
116.92
 20
73.7676
 30
0.0
 11
130.919
 21
73.7676
 31
0.0
  0
LINE
  8
0
 62
     0
 10
130.919
 20
73.7676
 30
0.0
 11
130.919
 21
59.7683
 31
0.0
  0
LINE
  8
0
 62
     0
 10
130.919
 20
59.7683
 30
0.0
 11
116.92
 21
59.7683
 31
0.0
  0
LINE
  8
0
 62
     0
 10
116.92
 20
59.7683
 30
0.0
 11
116.92
 21
73.7676
 31
0.0
  0
LINE
  8
0
 62
     0
 10
135.97
 20
73.7676
 30
0.0
 11
149.969
 21
73.7676
 31
0.0
  0
LINE
  8
0
 62
     0
 10
149.969
 20
73.7676
 30
0.0
 11
149.969
 21
59.7683
 31
0.0
  0
LINE
  8
0
 62
     0
 10
149.969
 20
59.7683
 30
0.0
 11
135.97
 21
59.7683
 31
0.0
  0
LINE
  8
0
 62
     0
 10
135.97
 20
59.7683
 30
0.0
 11
135.97
 21
73.7676
 31
0.0
  0
LINE
  8
0
 62
     0
 10
155.02
 20
73.7676
 30
0.0
 11
169.019
 21
73.7676
 31
0.0
  0
LINE
  8
0
 62
     0
 10
169.019
 20
73.7676
 30
0.0
 11
169.019
 21
59.7683
 31
0.0
  0
LINE
  8
0
 62
     0
 10
169.019
 20
59.7683
 30
0.0
 11
155.02
 21
59.7683
 31
0.0
  0
LINE
  8
0
 62
     0
 10
155.02
 20
59.7683
 30
0.0
 11
155.02
 21
73.7676
 31
0.0
  0
LINE
  8
0
 62
     0
 10
174.07
 20
73.7676
 30
0.0
 11
188.069
 21
73.7676
 31
0.0
  0
LINE
  8
0
 62
     0
 10
188.069
 20
73.7676
 30
0.0
 11
188.069
 21
59.7683
 31
0.0
  0
LINE
  8
0
 62
     0
 10
188.069
 20
59.7683
 30
0.0
 11
174.07
 21
59.7683
 31
0.0
  0
LINE
  8
0
 62
     0
 10
174.07
 20
59.7683
 30
0.0
 11
174.07
 21
73.7676
 31
0.0
  0
LINE
  8
0
 62
     0
 10
231.22
 20
73.7676
 30
0.0
 11
245.219
 21
73.7676
 31
0.0
  0
LINE
  8
0
 62
     0
 10
245.219
 20
73.7676
 30
0.0
 11
245.219
 21
59.7683
 31
0.0
  0
LINE
  8
0
 62
     0
 10
245.219
 20
59.7683
 30
0.0
 11
231.22
 21
59.7683
 31
0.0
  0
LINE
  8
0
 62
     0
 10
231.22
 20
59.7683
 30
0.0
 11
231.22
 21
73.7676
 31
0.0
  0
LINE
  8
0
 62
     0
 10
250.27
 20
73.7676
 30
0.0
 11
264.269
 21
73.7676
 31
0.0
  0
LINE
  8
0
 62
     0
 10
264.269
 20
73.7676
 30
0.0
 11
264.269
 21
59.7683
 31
0.0
  0
LINE
  8
0
 62
     0
 10
264.269
 20
59.7683
 30
0.0
 11
250.27
 21
59.7683
 31
0.0
  0
LINE
  8
0
 62
     0
 10
250.27
 20
59.7683
 30
0.0
 11
250.27
 21
73.7676
 31
0.0
  0
LINE
  8
0
 62
     0
 10
269.32
 20
73.7676
 30
0.0
 11
283.319
 21
73.7676
 31
0.0
  0
LINE
  8
0
 62
     0
 10
283.319
 20
73.7676
 30
0.0
 11
283.319
 21
59.7683
 31
0.0
  0
LINE
  8
0
 62
     0
 10
283.319
 20
59.7683
 30
0.0
 11
269.32
 21
59.7683
 31
0.0
  0
LINE
  8
0
 62
     0
 10
269.32
 20
59.7683
 30
0.0
 11
269.32
 21
73.7676
 31
0.0
  0
LINE
  8
0
 62
     0
 10
288.37
 20
73.7676
 30
0.0
 11
302.369
 21
73.7676
 31
0.0
  0
LINE
  8
0
 62
     0
 10
302.369
 20
73.7676
 30
0.0
 11
302.369
 21
59.7683
 31
0.0
  0
LINE
  8
0
 62
     0
 10
302.369
 20
59.7683
 30
0.0
 11
288.37
 21
59.7683
 31
0.0
  0
LINE
  8
0
 62
     0
 10
288.37
 20
59.7683
 30
0.0
 11
288.37
 21
73.7676
 31
0.0
  0
LINE
  8
0
 62
     0
 10
307.42
 20
73.7676
 30
0.0
 11
321.419
 21
73.7676
 31
0.0
  0
LINE
  8
0
 62
     0
 10
321.419
 20
73.7676
 30
0.0
 11
321.419
 21
59.7683
 31
0.0
  0
LINE
  8
0
 62
     0
 10
321.419
 20
59.7683
 30
0.0
 11
307.42
 21
59.7683
 31
0.0
  0
LINE
  8
0
 62
     0
 10
307.42
 20
59.7683
 30
0.0
 11
307.42
 21
73.7676
 31
0.0
  0
LINE
  8
0
 62
     0
 10
326.47
 20
73.7676
 30
0.0
 11
340.469
 21
73.7676
 31
0.0
  0
LINE
  8
0
 62
     0
 10
340.469
 20
73.7676
 30
0.0
 11
340.469
 21
59.7683
 31
0.0
  0
LINE
  8
0
 62
     0
 10
340.469
 20
59.7683
 30
0.0
 11
326.47
 21
59.7683
 31
0.0
  0
LINE
  8
0
 62
     0
 10
326.47
 20
59.7683
 30
0.0
 11
326.47
 21
73.7676
 31
0.0
  0
LINE
  8
0
 62
     0
 10
345.52
 20
73.7676
 30
0.0
 11
359.519
 21
73.7676
 31
0.0
  0
LINE
  8
0
 62
     0
 10
359.519
 20
73.7676
 30
0.0
 11
359.519
 21
59.7683
 31
0.0
  0
LINE
  8
0
 62
     0
 10
359.519
 20
59.7683
 30
0.0
 11
345.52
 21
59.7683
 31
0.0
  0
LINE
  8
0
 62
     0
 10
345.52
 20
59.7683
 30
0.0
 11
345.52
 21
73.7676
 31
0.0
  0
LINE
  8
0
 62
     0
 10
369.334
 20
73.7676
 30
0.0
 11
383.332
 21
73.7676
 31
0.0
  0
LINE
  8
0
 62
     0
 10
383.332
 20
73.7676
 30
0.0
 11
383.332
 21
59.7683
 31
0.0
  0
LINE
  8
0
 62
     0
 10
383.332
 20
59.7683
 30
0.0
 11
369.334
 21
59.7683
 31
0.0
  0
LINE
  8
0
 62
     0
 10
369.334
 20
59.7683
 30
0.0
 11
369.334
 21
73.7676
 31
0.0
  0
LINE
  8
0
 62
     0
 10
402.671
 20
73.7676
 30
0.0
 11
416.669
 21
73.7676
 31
0.0
  0
LINE
  8
0
 62
     0
 10
416.669
 20
73.7676
 30
0.0
 11
416.669
 21
59.7683
 31
0.0
  0
LINE
  8
0
 62
     0
 10
416.669
 20
59.7683
 30
0.0
 11
402.671
 21
59.7683
 31
0.0
  0
LINE
  8
0
 62
     0
 10
402.671
 20
59.7683
 30
0.0
 11
402.671
 21
73.7676
 31
0.0
  0
LINE
  8
0
 62
     0
 10
421.721
 20
73.7676
 30
0.0
 11
435.719
 21
73.7676
 31
0.0
  0
LINE
  8
0
 62
     0
 10
435.719
 20
73.7676
 30
0.0
 11
435.719
 21
59.7683
 31
0.0
  0
LINE
  8
0
 62
     0
 10
435.719
 20
59.7683
 30
0.0
 11
421.721
 21
59.7683
 31
0.0
  0
LINE
  8
0
 62
     0
 10
421.721
 20
59.7683
 30
0.0
 11
421.721
 21
73.7676
 31
0.0
  0
LINE
  8
0
 62
     0
 10
440.771
 20
73.7676
 30
0.0
 11
454.769
 21
73.7676
 31
0.0
  0
LINE
  8
0
 62
     0
 10
454.769
 20
73.7676
 30
0.0
 11
454.769
 21
59.7683
 31
0.0
  0
LINE
  8
0
 62
     0
 10
454.769
 20
59.7683
 30
0.0
 11
440.771
 21
59.7683
 31
0.0
  0
LINE
  8
0
 62
     0
 10
440.771
 20
59.7683
 30
0.0
 11
440.771
 21
73.7676
 31
0.0
  0
LINE
  8
0
 62
     0
 10
364.571
 20
92.8176
 30
0.0
 11
364.571
 21
88.1172
 31
0.0
  0
LINE
  8
0
 62
     0
 10
364.571
 20
88.1172
 30
0.0
 11
363.044
 21
88.1172
 31
0.0
  0
LINE
  8
0
 62
     0
 10
363.044
 20
88.1172
 30
0.0
 11
363.044
 21
91.3476
 31
0.0
  0
LINE
  8
0
 62
     0
 10
363.044
 20
91.3476
 30
0.0
 11
356.295
 21
91.3476
 31
0.0
  0
LINE
  8
0
 62
     0
 10
356.295
 20
91.3476
 30
0.0
 11
356.295
 21
88.1172
 31
0.0
  0
LINE
  8
0
 62
     0
 10
356.295
 20
88.1172
 30
0.0
 11
355.469
 21
88.1172
 31
0.0
  0
LINE
  8
0
 62
     0
 10
355.469
 20
88.1172
 30
0.0
 11
355.469
 21
85.3172
 31
0.0
  0
LINE
  8
0
 62
     0
 10
355.469
 20
85.3172
 30
0.0
 11
356.295
 21
85.3172
 31
0.0
  0
LINE
  8
0
 62
     0
 10
356.295
 20
85.3172
 30
0.0
 11
356.295
 21
79.0469
 31
0.0
  0
LINE
  8
0
 62
     0
 10
356.295
 20
79.0469
 30
0.0
 11
358.02
 21
79.0469
 31
0.0
  0
LINE
  8
0
 62
     0
 10
358.02
 20
79.0469
 30
0.0
 11
358.02
 21
77.8482
 31
0.0
  0
LINE
  8
0
 62
     0
 10
358.02
 20
77.8482
 30
0.0
 11
361.319
 21
77.8482
 31
0.0
  0
LINE
  8
0
 62
     0
 10
361.319
 20
77.8482
 30
0.0
 11
361.319
 21
79.0469
 31
0.0
  0
LINE
  8
0
 62
     0
 10
361.319
 20
79.0469
 30
0.0
 11
363.044
 21
79.0469
 31
0.0
  0
LINE
  8
0
 62
     0
 10
363.044
 20
79.0469
 30
0.0
 11
363.044
 21
83.5173
 31
0.0
  0
LINE
  8
0
 62
     0
 10
363.044
 20
83.5173
 30
0.0
 11
364.571
 21
83.5173
 31
0.0
  0
LINE
  8
0
 62
     0
 10
364.571
 20
83.5173
 30
0.0
 11
364.571
 21
78.8183
 31
0.0
  0
LINE
  8
0
 62
     0
 10
364.571
 20
78.8183
 30
0.0
 11
378.569
 21
78.8183
 31
0.0
  0
LINE
  8
0
 62
     0
 10
378.569
 20
78.8183
 30
0.0
 11
378.569
 21
83.5173
 31
0.0
  0
LINE
  8
0
 62
     0
 10
378.569
 20
83.5173
 30
0.0
 11
380.093
 21
83.5173
 31
0.0
  0
LINE
  8
0
 62
     0
 10
380.093
 20
83.5173
 30
0.0
 11
380.093
 21
79.0469
 31
0.0
  0
LINE
  8
0
 62
     0
 10
380.093
 20
79.0469
 30
0.0
 11
381.818
 21
79.0469
 31
0.0
  0
LINE
  8
0
 62
     0
 10
381.818
 20
79.0469
 30
0.0
 11
381.818
 21
77.8482
 31
0.0
  0
LINE
  8
0
 62
     0
 10
381.818
 20
77.8482
 30
0.0
 11
385.12
 21
77.8482
 31
0.0
  0
LINE
  8
0
 62
     0
 10
385.12
 20
77.8482
 30
0.0
 11
385.12
 21
79.0469
 31
0.0
  0
LINE
  8
0
 62
     0
 10
385.12
 20
79.0469
 30
0.0
 11
386.846
 21
79.0469
 31
0.0
  0
LINE
  8
0
 62
     0
 10
386.846
 20
79.0469
 30
0.0
 11
386.846
 21
85.3172
 31
0.0
  0
LINE
  8
0
 62
     0
 10
386.846
 20
85.3172
 30
0.0
 11
387.671
 21
85.3172
 31
0.0
  0
LINE
  8
0
 62
     0
 10
387.671
 20
85.3172
 30
0.0
 11
387.671
 21
88.1172
 31
0.0
  0
LINE
  8
0
 62
     0
 10
387.671
 20
88.1172
 30
0.0
 11
386.846
 21
88.1172
 31
0.0
  0
LINE
  8
0
 62
     0
 10
386.846
 20
88.1172
 30
0.0
 11
386.846
 21
91.3476
 31
0.0
  0
LINE
  8
0
 62
     0
 10
386.846
 20
91.3476
 30
0.0
 11
380.093
 21
91.3476
 31
0.0
  0
LINE
  8
0
 62
     0
 10
380.093
 20
91.3476
 30
0.0
 11
380.093
 21
88.1172
 31
0.0
  0
LINE
  8
0
 62
     0
 10
380.093
 20
88.1172
 30
0.0
 11
378.569
 21
88.1172
 31
0.0
  0
LINE
  8
0
 62
     0
 10
378.569
 20
88.1172
 30
0.0
 11
378.569
 21
92.8176
 31
0.0
  0
LINE
  8
0
 62
     0
 10
378.569
 20
92.8176
 30
0.0
 11
364.571
 21
92.8176
 31
0.0
  0
LINE
  8
0
 62
     0
 10
2.61965
 20
92.8176
 30
0.0
 11
16.6192
 21
92.8176
 31
0.0
  0
LINE
  8
0
 62
     0
 10
16.6192
 20
92.8176
 30
0.0
 11
16.6192
 21
78.8183
 31
0.0
  0
LINE
  8
0
 62
     0
 10
16.6192
 20
78.8183
 30
0.0
 11
2.61965
 21
78.8183
 31
0.0
  0
LINE
  8
0
 62
     0
 10
2.61965
 20
78.8183
 30
0.0
 11
2.61965
 21
92.8176
 31
0.0
  0
LINE
  8
0
 62
     0
 10
21.6697
 20
92.8176
 30
0.0
 11
35.669
 21
92.8176
 31
0.0
  0
LINE
  8
0
 62
     0
 10
35.669
 20
92.8176
 30
0.0
 11
35.669
 21
78.8183
 31
0.0
  0
LINE
  8
0
 62
     0
 10
35.669
 20
78.8183
 30
0.0
 11
21.6697
 21
78.8183
 31
0.0
  0
LINE
  8
0
 62
     0
 10
21.6697
 20
78.8183
 30
0.0
 11
21.6697
 21
92.8176
 31
0.0
  0
LINE
  8
0
 62
     0
 10
40.7197
 20
92.8176
 30
0.0
 11
54.719
 21
92.8176
 31
0.0
  0
LINE
  8
0
 62
     0
 10
54.719
 20
92.8176
 30
0.0
 11
54.719
 21
78.8183
 31
0.0
  0
LINE
  8
0
 62
     0
 10
54.719
 20
78.8183
 30
0.0
 11
40.7197
 21
78.8183
 31
0.0
  0
LINE
  8
0
 62
     0
 10
40.7197
 20
78.8183
 30
0.0
 11
40.7197
 21
92.8176
 31
0.0
  0
LINE
  8
0
 62
     0
 10
69.2947
 20
92.8176
 30
0.0
 11
83.294
 21
92.8176
 31
0.0
  0
LINE
  8
0
 62
     0
 10
83.294
 20
92.8176
 30
0.0
 11
83.294
 21
78.8183
 31
0.0
  0
LINE
  8
0
 62
     0
 10
83.294
 20
78.8183
 30
0.0
 11
69.2947
 21
78.8183
 31
0.0
  0
LINE
  8
0
 62
     0
 10
69.2947
 20
78.8183
 30
0.0
 11
69.2947
 21
92.8176
 31
0.0
  0
LINE
  8
0
 62
     0
 10
88.3447
 20
92.8176
 30
0.0
 11
102.344
 21
92.8176
 31
0.0
  0
LINE
  8
0
 62
     0
 10
102.344
 20
92.8176
 30
0.0
 11
102.344
 21
78.8183
 31
0.0
  0
LINE
  8
0
 62
     0
 10
102.344
 20
78.8183
 30
0.0
 11
88.3447
 21
78.8183
 31
0.0
  0
LINE
  8
0
 62
     0
 10
88.3447
 20
78.8183
 30
0.0
 11
88.3447
 21
92.8176
 31
0.0
  0
LINE
  8
0
 62
     0
 10
107.395
 20
92.8176
 30
0.0
 11
121.394
 21
92.8176
 31
0.0
  0
LINE
  8
0
 62
     0
 10
121.394
 20
92.8176
 30
0.0
 11
121.394
 21
78.8183
 31
0.0
  0
LINE
  8
0
 62
     0
 10
121.394
 20
78.8183
 30
0.0
 11
107.395
 21
78.8183
 31
0.0
  0
LINE
  8
0
 62
     0
 10
107.395
 20
78.8183
 30
0.0
 11
107.395
 21
92.8176
 31
0.0
  0
LINE
  8
0
 62
     0
 10
126.445
 20
92.8176
 30
0.0
 11
140.444
 21
92.8176
 31
0.0
  0
LINE
  8
0
 62
     0
 10
140.444
 20
92.8176
 30
0.0
 11
140.444
 21
78.8183
 31
0.0
  0
LINE
  8
0
 62
     0
 10
140.444
 20
78.8183
 30
0.0
 11
126.445
 21
78.8183
 31
0.0
  0
LINE
  8
0
 62
     0
 10
126.445
 20
78.8183
 30
0.0
 11
126.445
 21
92.8176
 31
0.0
  0
LINE
  8
0
 62
     0
 10
145.495
 20
92.8176
 30
0.0
 11
159.494
 21
92.8176
 31
0.0
  0
LINE
  8
0
 62
     0
 10
159.494
 20
92.8176
 30
0.0
 11
159.494
 21
78.8183
 31
0.0
  0
LINE
  8
0
 62
     0
 10
159.494
 20
78.8183
 30
0.0
 11
145.495
 21
78.8183
 31
0.0
  0
LINE
  8
0
 62
     0
 10
145.495
 20
78.8183
 30
0.0
 11
145.495
 21
92.8176
 31
0.0
  0
LINE
  8
0
 62
     0
 10
164.545
 20
92.8176
 30
0.0
 11
178.544
 21
92.8176
 31
0.0
  0
LINE
  8
0
 62
     0
 10
178.544
 20
92.8176
 30
0.0
 11
178.544
 21
78.8183
 31
0.0
  0
LINE
  8
0
 62
     0
 10
178.544
 20
78.8183
 30
0.0
 11
164.545
 21
78.8183
 31
0.0
  0
LINE
  8
0
 62
     0
 10
164.545
 20
78.8183
 30
0.0
 11
164.545
 21
92.8176
 31
0.0
  0
LINE
  8
0
 62
     0
 10
183.595
 20
92.8176
 30
0.0
 11
197.594
 21
92.8176
 31
0.0
  0
LINE
  8
0
 62
     0
 10
197.594
 20
92.8176
 30
0.0
 11
197.594
 21
78.8183
 31
0.0
  0
LINE
  8
0
 62
     0
 10
197.594
 20
78.8183
 30
0.0
 11
183.595
 21
78.8183
 31
0.0
  0
LINE
  8
0
 62
     0
 10
183.595
 20
78.8183
 30
0.0
 11
183.595
 21
92.8176
 31
0.0
  0
LINE
  8
0
 62
     0
 10
240.745
 20
92.8176
 30
0.0
 11
254.744
 21
92.8176
 31
0.0
  0
LINE
  8
0
 62
     0
 10
254.744
 20
92.8176
 30
0.0
 11
254.744
 21
78.8183
 31
0.0
  0
LINE
  8
0
 62
     0
 10
254.744
 20
78.8183
 30
0.0
 11
240.745
 21
78.8183
 31
0.0
  0
LINE
  8
0
 62
     0
 10
240.745
 20
78.8183
 30
0.0
 11
240.745
 21
92.8176
 31
0.0
  0
LINE
  8
0
 62
     0
 10
259.795
 20
92.8176
 30
0.0
 11
273.794
 21
92.8176
 31
0.0
  0
LINE
  8
0
 62
     0
 10
273.794
 20
92.8176
 30
0.0
 11
273.794
 21
78.8183
 31
0.0
  0
LINE
  8
0
 62
     0
 10
273.794
 20
78.8183
 30
0.0
 11
259.795
 21
78.8183
 31
0.0
  0
LINE
  8
0
 62
     0
 10
259.795
 20
78.8183
 30
0.0
 11
259.795
 21
92.8176
 31
0.0
  0
LINE
  8
0
 62
     0
 10
278.845
 20
92.8176
 30
0.0
 11
292.844
 21
92.8176
 31
0.0
  0
LINE
  8
0
 62
     0
 10
292.844
 20
92.8176
 30
0.0
 11
292.844
 21
78.8183
 31
0.0
  0
LINE
  8
0
 62
     0
 10
292.844
 20
78.8183
 30
0.0
 11
278.845
 21
78.8183
 31
0.0
  0
LINE
  8
0
 62
     0
 10
278.845
 20
78.8183
 30
0.0
 11
278.845
 21
92.8176
 31
0.0
  0
LINE
  8
0
 62
     0
 10
297.895
 20
92.8176
 30
0.0
 11
311.894
 21
92.8176
 31
0.0
  0
LINE
  8
0
 62
     0
 10
311.894
 20
92.8176
 30
0.0
 11
311.894
 21
78.8183
 31
0.0
  0
LINE
  8
0
 62
     0
 10
311.894
 20
78.8183
 30
0.0
 11
297.895
 21
78.8183
 31
0.0
  0
LINE
  8
0
 62
     0
 10
297.895
 20
78.8183
 30
0.0
 11
297.895
 21
92.8176
 31
0.0
  0
LINE
  8
0
 62
     0
 10
316.945
 20
92.8176
 30
0.0
 11
330.944
 21
92.8176
 31
0.0
  0
LINE
  8
0
 62
     0
 10
330.944
 20
92.8176
 30
0.0
 11
330.944
 21
78.8183
 31
0.0
  0
LINE
  8
0
 62
     0
 10
330.944
 20
78.8183
 30
0.0
 11
316.945
 21
78.8183
 31
0.0
  0
LINE
  8
0
 62
     0
 10
316.945
 20
78.8183
 30
0.0
 11
316.945
 21
92.8176
 31
0.0
  0
LINE
  8
0
 62
     0
 10
335.995
 20
92.8176
 30
0.0
 11
349.994
 21
92.8176
 31
0.0
  0
LINE
  8
0
 62
     0
 10
349.994
 20
92.8176
 30
0.0
 11
349.994
 21
78.8183
 31
0.0
  0
LINE
  8
0
 62
     0
 10
349.994
 20
78.8183
 30
0.0
 11
335.995
 21
78.8183
 31
0.0
  0
LINE
  8
0
 62
     0
 10
335.995
 20
78.8183
 30
0.0
 11
335.995
 21
92.8176
 31
0.0
  0
LINE
  8
0
 62
     0
 10
402.671
 20
92.8176
 30
0.0
 11
416.669
 21
92.8176
 31
0.0
  0
LINE
  8
0
 62
     0
 10
416.669
 20
92.8176
 30
0.0
 11
416.669
 21
78.8183
 31
0.0
  0
LINE
  8
0
 62
     0
 10
416.669
 20
78.8183
 30
0.0
 11
402.671
 21
78.8183
 31
0.0
  0
LINE
  8
0
 62
     0
 10
402.671
 20
78.8183
 30
0.0
 11
402.671
 21
92.8176
 31
0.0
  0
LINE
  8
0
 62
     0
 10
421.721
 20
92.8176
 30
0.0
 11
435.719
 21
92.8176
 31
0.0
  0
LINE
  8
0
 62
     0
 10
435.719
 20
92.8176
 30
0.0
 11
435.719
 21
78.8183
 31
0.0
  0
LINE
  8
0
 62
     0
 10
435.719
 20
78.8183
 30
0.0
 11
421.721
 21
78.8183
 31
0.0
  0
LINE
  8
0
 62
     0
 10
421.721
 20
78.8183
 30
0.0
 11
421.721
 21
92.8176
 31
0.0
  0
LINE
  8
0
 62
     0
 10
440.771
 20
92.8176
 30
0.0
 11
454.769
 21
92.8176
 31
0.0
  0
LINE
  8
0
 62
     0
 10
454.769
 20
92.8176
 30
0.0
 11
454.769
 21
78.8183
 31
0.0
  0
LINE
  8
0
 62
     0
 10
454.769
 20
78.8183
 30
0.0
 11
440.771
 21
78.8183
 31
0.0
  0
LINE
  8
0
 62
     0
 10
440.771
 20
78.8183
 30
0.0
 11
440.771
 21
92.8176
 31
0.0
  0
ENDSEC
  0
EOF
