<?xml version="1.0"?>
<!-- Generated by SVGo -->
<svg width="467.202mm" height="105.252mm"
     viewBox="0.000 0.000 467.202 105.252"
     xmlns="http://www.w3.org/2000/svg" 
     xmlns:xlink="http://www.w3.org/1999/xlink">
<polygon points="462.202,100.251 5.001,100.251 5.001,5.001 462.202,5.001" style="fill:none;stroke-width:0.050000mm;stroke:black"/>
<polygon points="169.451,83.726 169.451,88.426 160.775,88.426 160.775,85.196 154.025,85.196 154.025,88.426 153.201,88.426 153.201,91.226 154.025,91.226 154.025,97.495 155.751,97.495 155.751,98.696 159.050,98.696 159.050,97.495 160.775,97.495 160.775,93.025 169.451,93.025 169.451,97.726 183.451,97.726 183.451,93.025 192.126,93.025 192.126,97.495 193.851,97.495 193.851,98.696 197.150,98.696 197.150,97.495 198.876,97.495 198.876,91.226 199.701,91.226 199.701,88.426 198.876,88.426 198.876,85.196 192.126,85.196 192.126,88.426 183.451,88.426 183.451,83.726" style="fill:none;stroke-width:0.050000mm;stroke:black"/>
<polygon points="259.938,83.726 259.938,88.426 251.263,88.426 251.263,85.196 244.513,85.196 244.513,88.426 243.688,88.426 243.688,91.226 244.513,91.226 244.513,97.495 246.238,97.495 246.238,98.696 249.538,98.696 249.538,97.495 251.263,97.495 251.263,93.025 259.938,93.025 259.938,97.726 273.938,97.726 273.938,93.025 282.613,93.025 282.613,97.495 284.338,97.495 284.338,98.696 287.638,98.696 287.638,97.495 289.363,97.495 289.363,91.226 290.188,91.226 290.188,88.426 289.363,88.426 289.363,85.196 282.613,85.196 282.613,88.426 273.938,88.426 273.938,83.726" style="fill:none;stroke-width:0.050000mm;stroke:black"/>
<polygon points="7.526,83.726 7.526,97.726 21.526,97.726 21.526,83.726" style="fill:none;stroke-width:0.050000mm;stroke:black"/>
<polygon points="26.576,83.726 26.576,97.726 40.576,97.726 40.576,83.726" style="fill:none;stroke-width:0.050000mm;stroke:black"/>
<polygon points="45.626,83.726 45.626,97.726 59.626,97.726 59.626,83.726" style="fill:none;stroke-width:0.050000mm;stroke:black"/>
<polygon points="78.963,83.726 78.963,97.726 92.963,97.726 92.963,83.726" style="fill:none;stroke-width:0.050000mm;stroke:black"/>
<polygon points="105.157,83.726 105.157,97.726 119.157,97.726 119.157,83.726" style="fill:none;stroke-width:0.050000mm;stroke:black"/>
<polygon points="128.968,83.726 128.968,97.726 142.969,97.726 142.969,83.726" style="fill:none;stroke-width:0.050000mm;stroke:black"/>
<polygon points="300.419,83.726 300.419,97.726 314.419,97.726 314.419,83.726" style="fill:none;stroke-width:0.050000mm;stroke:black"/>
<polygon points="324.232,83.726 324.232,97.726 338.232,97.726 338.232,83.726" style="fill:none;stroke-width:0.050000mm;stroke:black"/>
<polygon points="348.044,83.726 348.044,97.726 362.044,97.726 362.044,83.726" style="fill:none;stroke-width:0.050000mm;stroke:black"/>
<polygon points="374.238,83.726 374.238,97.726 388.238,97.726 388.238,83.726" style="fill:none;stroke-width:0.050000mm;stroke:black"/>
<polygon points="407.576,83.726 407.576,97.726 421.576,97.726 421.576,83.726" style="fill:none;stroke-width:0.050000mm;stroke:black"/>
<polygon points="426.626,83.726 426.626,97.726 440.626,97.726 440.626,83.726" style="fill:none;stroke-width:0.050000mm;stroke:black"/>
<polygon points="445.676,83.726 445.676,97.726 459.676,97.726 459.676,83.726" style="fill:none;stroke-width:0.050000mm;stroke:black"/>
<polygon points="7.526,64.676 7.526,78.676 21.526,78.676 21.526,64.676" style="fill:none;stroke-width:0.050000mm;stroke:black"/>
<polygon points="26.576,64.676 26.576,78.676 40.576,78.676 40.576,64.676" style="fill:none;stroke-width:0.050000mm;stroke:black"/>
<polygon points="45.626,64.676 45.626,78.676 59.626,78.676 59.626,64.676" style="fill:none;stroke-width:0.050000mm;stroke:black"/>
<polygon points="76.582,64.676 76.582,78.676 90.582,78.676 90.582,64.676" style="fill:none;stroke-width:0.050000mm;stroke:black"/>
<polygon points="98.013,64.676 98.013,78.676 112.013,78.676 112.013,64.676" style="fill:none;stroke-width:0.050000mm;stroke:black"/>
<polygon points="117.063,64.676 117.063,78.676 131.063,78.676 131.063,64.676" style="fill:none;stroke-width:0.050000mm;stroke:black"/>
<polygon points="136.113,64.676 136.113,78.676 150.113,78.676 150.113,64.676" style="fill:none;stroke-width:0.050000mm;stroke:black"/>
<polygon points="155.163,64.676 155.163,78.676 169.163,78.676 169.163,64.676" style="fill:none;stroke-width:0.050000mm;stroke:black"/>
<polygon points="174.213,64.676 174.213,78.676 188.213,78.676 188.213,64.676" style="fill:none;stroke-width:0.050000mm;stroke:black"/>
<polygon points="193.263,64.676 193.263,78.676 207.263,78.676 207.263,64.676" style="fill:none;stroke-width:0.050000mm;stroke:black"/>
<polygon points="250.413,64.676 250.413,78.676 264.413,78.676 264.413,64.676" style="fill:none;stroke-width:0.050000mm;stroke:black"/>
<polygon points="269.463,64.676 269.463,78.676 283.463,78.676 283.463,64.676" style="fill:none;stroke-width:0.050000mm;stroke:black"/>
<polygon points="288.513,64.676 288.513,78.676 302.513,78.676 302.513,64.676" style="fill:none;stroke-width:0.050000mm;stroke:black"/>
<polygon points="307.563,64.676 307.563,78.676 321.563,78.676 321.563,64.676" style="fill:none;stroke-width:0.050000mm;stroke:black"/>
<polygon points="326.613,64.676 326.613,78.676 340.613,78.676 340.613,64.676" style="fill:none;stroke-width:0.050000mm;stroke:black"/>
<polygon points="345.663,64.676 345.663,78.676 359.663,78.676 359.663,64.676" style="fill:none;stroke-width:0.050000mm;stroke:black"/>
<polygon points="371.857,64.676 371.857,78.676 385.857,78.676 385.857,64.676" style="fill:none;stroke-width:0.050000mm;stroke:black"/>
<polygon points="426.626,64.676 426.626,78.676 440.626,78.676 440.626,64.676" style="fill:none;stroke-width:0.050000mm;stroke:black"/>
<polygon points="367.094,45.626 367.094,50.326 365.569,50.326 365.569,47.096 358.819,47.096 358.819,50.326 357.994,50.326 357.994,53.126 358.819,53.126 358.819,59.395 360.544,59.395 360.544,60.596 363.844,60.596 363.844,59.395 365.569,59.395 365.569,54.926 367.094,54.926 367.094,59.626 381.094,59.626 381.094,54.926 382.619,54.926 382.619,59.395 384.344,59.395 384.344,60.596 387.644,60.596 387.644,59.395 389.369,59.395 389.369,53.126 390.194,53.126 390.194,50.326 389.369,50.326 389.369,47.096 382.619,47.096 382.619,50.326 381.094,50.326 381.094,45.626" style="fill:none;stroke-width:0.050000mm;stroke:black"/>
<polygon points="7.526,45.626 7.526,59.626 21.526,59.626 21.526,45.626" style="fill:none;stroke-width:0.050000mm;stroke:black"/>
<polygon points="26.576,45.626 26.576,59.626 40.576,59.626 40.576,45.626" style="fill:none;stroke-width:0.050000mm;stroke:black"/>
<polygon points="45.626,45.626 45.626,59.626 59.626,59.626 59.626,45.626" style="fill:none;stroke-width:0.050000mm;stroke:black"/>
<polygon points="81.344,45.626 81.344,59.626 95.344,59.626 95.344,45.626" style="fill:none;stroke-width:0.050000mm;stroke:black"/>
<polygon points="107.538,45.626 107.538,59.626 121.538,59.626 121.538,45.626" style="fill:none;stroke-width:0.050000mm;stroke:black"/>
<polygon points="126.588,45.626 126.588,59.626 140.588,59.626 140.588,45.626" style="fill:none;stroke-width:0.050000mm;stroke:black"/>
<polygon points="145.638,45.626 145.638,59.626 159.638,59.626 159.638,45.626" style="fill:none;stroke-width:0.050000mm;stroke:black"/>
<polygon points="164.688,45.626 164.688,59.626 178.688,59.626 178.688,45.626" style="fill:none;stroke-width:0.050000mm;stroke:black"/>
<polygon points="183.738,45.626 183.738,59.626 197.738,59.626 197.738,45.626" style="fill:none;stroke-width:0.050000mm;stroke:black"/>
<polygon points="240.888,45.626 240.888,59.626 254.888,59.626 254.888,45.626" style="fill:none;stroke-width:0.050000mm;stroke:black"/>
<polygon points="259.938,45.626 259.938,59.626 273.938,59.626 273.938,45.626" style="fill:none;stroke-width:0.050000mm;stroke:black"/>
<polygon points="278.988,45.626 278.988,59.626 292.988,59.626 292.988,45.626" style="fill:none;stroke-width:0.050000mm;stroke:black"/>
<polygon points="298.038,45.626 298.038,59.626 312.038,59.626 312.038,45.626" style="fill:none;stroke-width:0.050000mm;stroke:black"/>
<polygon points="317.088,45.626 317.088,59.626 331.088,59.626 331.088,45.626" style="fill:none;stroke-width:0.050000mm;stroke:black"/>
<polygon points="336.138,45.626 336.138,59.626 350.138,59.626 350.138,45.626" style="fill:none;stroke-width:0.050000mm;stroke:black"/>
<polygon points="407.576,45.626 407.576,59.626 421.576,59.626 421.576,45.626" style="fill:none;stroke-width:0.050000mm;stroke:black"/>
<polygon points="426.626,45.626 426.626,59.626 440.626,59.626 440.626,45.626" style="fill:none;stroke-width:0.050000mm;stroke:black"/>
<polygon points="445.676,45.626 445.676,59.626 459.676,59.626 459.676,45.626" style="fill:none;stroke-width:0.050000mm;stroke:black"/>
<polygon points="7.526,26.576 7.526,40.576 21.526,40.576 21.526,26.576" style="fill:none;stroke-width:0.050000mm;stroke:black"/>
<polygon points="26.576,26.576 26.576,40.576 40.576,40.576 40.576,26.576" style="fill:none;stroke-width:0.050000mm;stroke:black"/>
<polygon points="45.626,26.576 45.626,40.576 59.626,40.576 59.626,26.576" style="fill:none;stroke-width:0.050000mm;stroke:black"/>
<polygon points="78.963,26.576 78.963,40.576 92.963,40.576 92.963,26.576" style="fill:none;stroke-width:0.050000mm;stroke:black"/>
<polygon points="102.776,26.576 102.776,40.576 116.776,40.576 116.776,26.576" style="fill:none;stroke-width:0.050000mm;stroke:black"/>
<polygon points="121.826,26.576 121.826,40.576 135.826,40.576 135.826,26.576" style="fill:none;stroke-width:0.050000mm;stroke:black"/>
<polygon points="140.876,26.576 140.876,40.576 154.876,40.576 154.876,26.576" style="fill:none;stroke-width:0.050000mm;stroke:black"/>
<polygon points="159.926,26.576 159.926,40.576 173.926,40.576 173.926,26.576" style="fill:none;stroke-width:0.050000mm;stroke:black"/>
<polygon points="178.976,26.576 178.976,40.576 192.976,40.576 192.976,26.576" style="fill:none;stroke-width:0.050000mm;stroke:black"/>
<polygon points="236.126,26.576 236.126,40.576 250.126,40.576 250.126,26.576" style="fill:none;stroke-width:0.050000mm;stroke:black"/>
<polygon points="255.176,26.576 255.176,40.576 269.176,40.576 269.176,26.576" style="fill:none;stroke-width:0.050000mm;stroke:black"/>
<polygon points="274.226,26.576 274.226,40.576 288.226,40.576 288.226,26.576" style="fill:none;stroke-width:0.050000mm;stroke:black"/>
<polygon points="293.276,26.576 293.276,40.576 307.276,40.576 307.276,26.576" style="fill:none;stroke-width:0.050000mm;stroke:black"/>
<polygon points="312.326,26.576 312.326,40.576 326.326,40.576 326.326,26.576" style="fill:none;stroke-width:0.050000mm;stroke:black"/>
<polygon points="331.376,26.576 331.376,40.576 345.376,40.576 345.376,26.576" style="fill:none;stroke-width:0.050000mm;stroke:black"/>
<polygon points="350.426,26.576 350.426,40.576 364.426,40.576 364.426,26.576" style="fill:none;stroke-width:0.050000mm;stroke:black"/>
<polygon points="374.238,26.576 374.238,40.576 388.238,40.576 388.238,26.576" style="fill:none;stroke-width:0.050000mm;stroke:black"/>
<polygon points="407.576,26.576 407.576,40.576 421.576,40.576 421.576,26.576" style="fill:none;stroke-width:0.050000mm;stroke:black"/>
<polygon points="426.626,26.576 426.626,40.576 440.626,40.576 440.626,26.576" style="fill:none;stroke-width:0.050000mm;stroke:black"/>
<polygon points="445.676,26.576 445.676,40.576 459.676,40.576 459.676,26.576" style="fill:none;stroke-width:0.050000mm;stroke:black"/>
<polygon points="369.476,7.526 369.476,12.226 367.951,12.226 367.951,8.996 361.201,8.996 361.201,12.226 360.376,12.226 360.376,15.026 361.201,15.026 361.201,21.296 362.926,21.296 362.926,22.496 366.226,22.496 366.226,21.296 367.951,21.296 367.951,16.826 369.476,16.826 369.476,21.526 383.476,21.526 383.476,16.826 385.001,16.826 385.001,21.296 386.726,21.296 386.726,22.496 390.026,22.496 390.026,21.296 391.751,21.296 391.751,15.026 392.576,15.026 392.576,12.226 391.751,12.226 391.751,8.996 385.001,8.996 385.001,12.226 383.476,12.226 383.476,7.526" style="fill:none;stroke-width:0.050000mm;stroke:black"/>
<polygon points="7.526,7.526 7.526,21.526 21.526,21.526 21.526,7.526" style="fill:none;stroke-width:0.050000mm;stroke:black"/>
<polygon points="26.576,7.526 26.576,21.526 40.576,21.526 40.576,7.526" style="fill:none;stroke-width:0.050000mm;stroke:black"/>
<polygon points="45.626,7.526 45.626,21.526 59.626,21.526 59.626,7.526" style="fill:none;stroke-width:0.050000mm;stroke:black"/>
<polygon points="74.201,7.526 74.201,21.526 88.201,21.526 88.201,7.526" style="fill:none;stroke-width:0.050000mm;stroke:black"/>
<polygon points="93.251,7.526 93.251,21.526 107.251,21.526 107.251,7.526" style="fill:none;stroke-width:0.050000mm;stroke:black"/>
<polygon points="112.301,7.526 112.301,21.526 126.301,21.526 126.301,7.526" style="fill:none;stroke-width:0.050000mm;stroke:black"/>
<polygon points="131.351,7.526 131.351,21.526 145.351,21.526 145.351,7.526" style="fill:none;stroke-width:0.050000mm;stroke:black"/>
<polygon points="150.401,7.526 150.401,21.526 164.401,21.526 164.401,7.526" style="fill:none;stroke-width:0.050000mm;stroke:black"/>
<polygon points="169.451,7.526 169.451,21.526 183.451,21.526 183.451,7.526" style="fill:none;stroke-width:0.050000mm;stroke:black"/>
<polygon points="188.501,7.526 188.501,21.526 202.501,21.526 202.501,7.526" style="fill:none;stroke-width:0.050000mm;stroke:black"/>
<polygon points="245.651,7.526 245.651,21.526 259.650,21.526 259.650,7.526" style="fill:none;stroke-width:0.050000mm;stroke:black"/>
<polygon points="264.701,7.526 264.701,21.526 278.701,21.526 278.701,7.526" style="fill:none;stroke-width:0.050000mm;stroke:black"/>
<polygon points="283.751,7.526 283.751,21.526 297.751,21.526 297.751,7.526" style="fill:none;stroke-width:0.050000mm;stroke:black"/>
<polygon points="302.801,7.526 302.801,21.526 316.801,21.526 316.801,7.526" style="fill:none;stroke-width:0.050000mm;stroke:black"/>
<polygon points="321.851,7.526 321.851,21.526 335.851,21.526 335.851,7.526" style="fill:none;stroke-width:0.050000mm;stroke:black"/>
<polygon points="340.901,7.526 340.901,21.526 354.901,21.526 354.901,7.526" style="fill:none;stroke-width:0.050000mm;stroke:black"/>
<polygon points="407.576,7.526 407.576,21.526 421.576,21.526 421.576,7.526" style="fill:none;stroke-width:0.050000mm;stroke:black"/>
<polygon points="426.626,7.526 426.626,21.526 440.626,21.526 440.626,7.526" style="fill:none;stroke-width:0.050000mm;stroke:black"/>
<polygon points="445.676,7.526 445.676,21.526 459.676,21.526 459.676,7.526" style="fill:none;stroke-width:0.050000mm;stroke:black"/>
</svg>
