  0
SECTION
  2
HEADER
  9
$ACADVER
  1
AC1009
  9
$EXTMIN
 10
0.0
 20
0.0
 30
0.0
  9
$EXTMAX
 10
1000.0
 20
1000.0
 30
0.0
  9
$FILLMODE
 70
 0
  9
$SPLFRAME
 70
 1
  0
ENDSEC
  0
SECTION
  2
TABLES
  0
TABLE
  2
LAYER
 70
1
  0
LAYER
  2
0
 70
     0
 62
     7
  6
CONTINUOUS
  0
ENDTAB
  0
ENDSEC
  0
SECTION
  2
ENTITIES
  0
LINE
  8
0
 62
     0
 10
217.121
 20
144.191
 30
0.0
 11
217.357
 21
144.181
 31
0.0
  0
LINE
  8
0
 62
     0
 10
217.357
 20
144.181
 30
0.0
 11
217.591
 21
144.155
 31
0.0
  0
LINE
  8
0
 62
     0
 10
217.591
 20
144.155
 30
0.0
 11
217.821
 21
144.108
 31
0.0
  0
LINE
  8
0
 62
     0
 10
217.821
 20
144.108
 30
0.0
 11
218.048
 21
144.045
 31
0.0
  0
LINE
  8
0
 62
     0
 10
218.048
 20
144.045
 30
0.0
 11
218.269
 21
143.962
 31
0.0
  0
LINE
  8
0
 62
     0
 10
218.269
 20
143.962
 30
0.0
 11
218.482
 21
143.865
 31
0.0
  0
LINE
  8
0
 62
     0
 10
218.482
 20
143.865
 30
0.0
 11
218.689
 21
143.749
 31
0.0
  0
LINE
  8
0
 62
     0
 10
218.689
 20
143.749
 30
0.0
 11
218.885
 21
143.619
 31
0.0
  0
LINE
  8
0
 62
     0
 10
218.885
 20
143.619
 30
0.0
 11
219.069
 21
143.473
 31
0.0
  0
LINE
  8
0
 62
     0
 10
219.069
 20
143.473
 30
0.0
 11
219.243
 21
143.313
 31
0.0
  0
LINE
  8
0
 62
     0
 10
219.243
 20
143.313
 30
0.0
 11
219.403
 21
143.14
 31
0.0
  0
LINE
  8
0
 62
     0
 10
219.403
 20
143.14
 30
0.0
 11
219.549
 21
142.955
 31
0.0
  0
LINE
  8
0
 62
     0
 10
219.549
 20
142.955
 30
0.0
 11
219.679
 21
142.759
 31
0.0
  0
LINE
  8
0
 62
     0
 10
219.679
 20
142.759
 30
0.0
 11
219.794
 21
142.553
 31
0.0
  0
LINE
  8
0
 62
     0
 10
219.794
 20
142.553
 30
0.0
 11
219.892
 21
142.339
 31
0.0
  0
LINE
  8
0
 62
     0
 10
219.892
 20
142.339
 30
0.0
 11
219.975
 21
142.118
 31
0.0
  0
LINE
  8
0
 62
     0
 10
219.975
 20
142.118
 30
0.0
 11
220.038
 21
141.891
 31
0.0
  0
LINE
  8
0
 62
     0
 10
220.038
 20
141.891
 30
0.0
 11
220.085
 21
141.661
 31
0.0
  0
LINE
  8
0
 62
     0
 10
220.085
 20
141.661
 30
0.0
 11
220.111
 21
141.427
 31
0.0
  0
LINE
  8
0
 62
     0
 10
220.111
 20
141.427
 30
0.0
 11
220.121
 21
141.191
 31
0.0
  0
LINE
  8
0
 62
     0
 10
220.121
 20
141.191
 30
0.0
 11
220.121
 21
3.36517
 31
0.0
  0
LINE
  8
0
 62
     0
 10
220.121
 20
3.36517
 30
0.0
 11
220.111
 21
3.12952
 31
0.0
  0
LINE
  8
0
 62
     0
 10
220.111
 20
3.12952
 30
0.0
 11
220.085
 21
2.89526
 31
0.0
  0
LINE
  8
0
 62
     0
 10
220.085
 20
2.89526
 30
0.0
 11
220.038
 21
2.66513
 31
0.0
  0
LINE
  8
0
 62
     0
 10
220.038
 20
2.66513
 30
0.0
 11
219.975
 21
2.43775
 31
0.0
  0
LINE
  8
0
 62
     0
 10
219.975
 20
2.43775
 30
0.0
 11
219.892
 21
2.21726
 31
0.0
  0
LINE
  8
0
 62
     0
 10
219.892
 20
2.21726
 30
0.0
 11
219.794
 21
2.00367
 31
0.0
  0
LINE
  8
0
 62
     0
 10
219.794
 20
2.00367
 30
0.0
 11
219.679
 21
1.79696
 31
0.0
  0
LINE
  8
0
 62
     0
 10
219.679
 20
1.79696
 30
0.0
 11
219.549
 21
1.60128
 31
0.0
  0
LINE
  8
0
 62
     0
 10
219.549
 20
1.60128
 30
0.0
 11
219.403
 21
1.41662
 31
0.0
  0
LINE
  8
0
 62
     0
 10
219.403
 20
1.41662
 30
0.0
 11
219.243
 21
1.24299
 31
0.0
  0
LINE
  8
0
 62
     0
 10
219.243
 20
1.24299
 30
0.0
 11
219.069
 21
1.08314
 31
0.0
  0
LINE
  8
0
 62
     0
 10
219.069
 20
1.08314
 30
0.0
 11
218.885
 21
0.937066
 31
0.0
  0
LINE
  8
0
 62
     0
 10
218.885
 20
0.937066
 30
0.0
 11
218.689
 21
0.80753
 31
0.0
  0
LINE
  8
0
 62
     0
 10
218.689
 20
0.80753
 30
0.0
 11
218.482
 21
0.691776
 31
0.0
  0
LINE
  8
0
 62
     0
 10
218.482
 20
0.691776
 30
0.0
 11
218.269
 21
0.593933
 31
0.0
  0
LINE
  8
0
 62
     0
 10
218.269
 20
0.593933
 30
0.0
 11
218.048
 21
0.511253
 31
0.0
  0
LINE
  8
0
 62
     0
 10
218.048
 20
0.511253
 30
0.0
 11
217.821
 21
0.447862
 31
0.0
  0
LINE
  8
0
 62
     0
 10
217.821
 20
0.447862
 30
0.0
 11
217.591
 21
0.40101
 31
0.0
  0
LINE
  8
0
 62
     0
 10
217.591
 20
0.40101
 30
0.0
 11
217.357
 21
0.374826
 31
0.0
  0
LINE
  8
0
 62
     0
 10
217.357
 20
0.374826
 30
0.0
 11
217.121
 21
0.365181
 31
0.0
  0
LINE
  8
0
 62
     0
 10
217.121
 20
0.365181
 30
0.0
 11
3.09507
 21
0.365181
 31
0.0
  0
LINE
  8
0
 62
     0
 10
3.09507
 20
0.365181
 30
0.0
 11
2.85943
 21
0.374826
 31
0.0
  0
LINE
  8
0
 62
     0
 10
2.85943
 20
0.374826
 30
0.0
 11
2.62516
 21
0.40101
 31
0.0
  0
LINE
  8
0
 62
     0
 10
2.62516
 20
0.40101
 30
0.0
 11
2.39503
 21
0.447862
 31
0.0
  0
LINE
  8
0
 62
     0
 10
2.39503
 20
0.447862
 30
0.0
 11
2.16765
 21
0.511253
 31
0.0
  0
LINE
  8
0
 62
     0
 10
2.16765
 20
0.511253
 30
0.0
 11
1.94717
 21
0.593933
 31
0.0
  0
LINE
  8
0
 62
     0
 10
1.94717
 20
0.593933
 30
0.0
 11
1.73357
 21
0.691776
 31
0.0
  0
LINE
  8
0
 62
     0
 10
1.73357
 20
0.691776
 30
0.0
 11
1.52687
 21
0.80753
 31
0.0
  0
LINE
  8
0
 62
     0
 10
1.52687
 20
0.80753
 30
0.0
 11
1.33119
 21
0.937066
 31
0.0
  0
LINE
  8
0
 62
     0
 10
1.33119
 20
0.937066
 30
0.0
 11
1.14653
 21
1.08314
 31
0.0
  0
LINE
  8
0
 62
     0
 10
1.14653
 20
1.08314
 30
0.0
 11
0.972894
 21
1.24299
 31
0.0
  0
LINE
  8
0
 62
     0
 10
0.972894
 20
1.24299
 30
0.0
 11
0.813043
 21
1.41662
 31
0.0
  0
LINE
  8
0
 62
     0
 10
0.813043
 20
1.41662
 30
0.0
 11
0.666972
 21
1.60128
 31
0.0
  0
LINE
  8
0
 62
     0
 10
0.666972
 20
1.60128
 30
0.0
 11
0.537436
 21
1.79696
 31
0.0
  0
LINE
  8
0
 62
     0
 10
0.537436
 20
1.79696
 30
0.0
 11
0.421679
 21
2.00367
 31
0.0
  0
LINE
  8
0
 62
     0
 10
0.421679
 20
2.00367
 30
0.0
 11
0.323839
 21
2.21726
 31
0.0
  0
LINE
  8
0
 62
     0
 10
0.323839
 20
2.21726
 30
0.0
 11
0.241157
 21
2.43775
 31
0.0
  0
LINE
  8
0
 62
     0
 10
0.241157
 20
2.43775
 30
0.0
 11
0.177767
 21
2.66513
 31
0.0
  0
LINE
  8
0
 62
     0
 10
0.177767
 20
2.66513
 30
0.0
 11
0.130914
 21
2.89526
 31
0.0
  0
LINE
  8
0
 62
     0
 10
0.130914
 20
2.89526
 30
0.0
 11
0.104731
 21
3.12952
 31
0.0
  0
LINE
  8
0
 62
     0
 10
0.104731
 20
3.12952
 30
0.0
 11
0.0950846
 21
3.36517
 31
0.0
  0
LINE
  8
0
 62
     0
 10
0.0950846
 20
3.36517
 30
0.0
 11
0.0950846
 21
141.191
 31
0.0
  0
LINE
  8
0
 62
     0
 10
0.0950846
 20
141.191
 30
0.0
 11
0.104731
 21
141.427
 31
0.0
  0
LINE
  8
0
 62
     0
 10
0.104731
 20
141.427
 30
0.0
 11
0.130914
 21
141.661
 31
0.0
  0
LINE
  8
0
 62
     0
 10
0.130914
 20
141.661
 30
0.0
 11
0.177767
 21
141.891
 31
0.0
  0
LINE
  8
0
 62
     0
 10
0.177767
 20
141.891
 30
0.0
 11
0.241157
 21
142.118
 31
0.0
  0
LINE
  8
0
 62
     0
 10
0.241157
 20
142.118
 30
0.0
 11
0.323839
 21
142.339
 31
0.0
  0
LINE
  8
0
 62
     0
 10
0.323839
 20
142.339
 30
0.0
 11
0.421679
 21
142.553
 31
0.0
  0
LINE
  8
0
 62
     0
 10
0.421679
 20
142.553
 30
0.0
 11
0.537436
 21
142.759
 31
0.0
  0
LINE
  8
0
 62
     0
 10
0.537436
 20
142.759
 30
0.0
 11
0.666972
 21
142.955
 31
0.0
  0
LINE
  8
0
 62
     0
 10
0.666972
 20
142.955
 30
0.0
 11
0.813043
 21
143.14
 31
0.0
  0
LINE
  8
0
 62
     0
 10
0.813043
 20
143.14
 30
0.0
 11
0.972894
 21
143.313
 31
0.0
  0
LINE
  8
0
 62
     0
 10
0.972894
 20
143.313
 30
0.0
 11
1.14653
 21
143.473
 31
0.0
  0
LINE
  8
0
 62
     0
 10
1.14653
 20
143.473
 30
0.0
 11
1.33119
 21
143.619
 31
0.0
  0
LINE
  8
0
 62
     0
 10
1.33119
 20
143.619
 30
0.0
 11
1.52687
 21
143.749
 31
0.0
  0
LINE
  8
0
 62
     0
 10
1.52687
 20
143.749
 30
0.0
 11
1.73357
 21
143.865
 31
0.0
  0
LINE
  8
0
 62
     0
 10
1.73357
 20
143.865
 30
0.0
 11
1.94717
 21
143.962
 31
0.0
  0
LINE
  8
0
 62
     0
 10
1.94717
 20
143.962
 30
0.0
 11
2.16765
 21
144.045
 31
0.0
  0
LINE
  8
0
 62
     0
 10
2.16765
 20
144.045
 30
0.0
 11
2.39503
 21
144.108
 31
0.0
  0
LINE
  8
0
 62
     0
 10
2.39503
 20
144.108
 30
0.0
 11
2.62516
 21
144.155
 31
0.0
  0
LINE
  8
0
 62
     0
 10
2.62516
 20
144.155
 30
0.0
 11
2.85943
 21
144.181
 31
0.0
  0
LINE
  8
0
 62
     0
 10
2.85943
 20
144.181
 30
0.0
 11
3.09507
 21
144.191
 31
0.0
  0
LINE
  8
0
 62
     0
 10
3.09507
 20
144.191
 30
0.0
 11
217.121
 21
144.191
 31
0.0
  0
LINE
  8
0
 62
     0
 10
3.6008
 20
5.88698
 30
0.0
 11
3.15295
 21
5.65961
 31
0.0
  0
LINE
  8
0
 62
     0
 10
3.15295
 20
5.65961
 30
0.0
 11
2.80017
 21
5.30546
 31
0.0
  0
LINE
  8
0
 62
     0
 10
2.80017
 20
5.30546
 30
0.0
 11
2.57418
 21
4.85895
 31
0.0
  0
LINE
  8
0
 62
     0
 10
2.57418
 20
4.85895
 30
0.0
 11
2.49425
 21
4.36425
 31
0.0
  0
LINE
  8
0
 62
     0
 10
2.49425
 20
4.36425
 30
0.0
 11
2.57418
 21
3.87092
 31
0.0
  0
LINE
  8
0
 62
     0
 10
2.57418
 20
3.87092
 30
0.0
 11
2.80017
 21
3.42442
 31
0.0
  0
LINE
  8
0
 62
     0
 10
2.80017
 20
3.42442
 30
0.0
 11
3.15295
 21
3.07027
 31
0.0
  0
LINE
  8
0
 62
     0
 10
3.15295
 20
3.07027
 30
0.0
 11
3.6008
 21
2.84427
 31
0.0
  0
LINE
  8
0
 62
     0
 10
3.6008
 20
2.84427
 30
0.0
 11
4.09554
 21
2.76435
 31
0.0
  0
LINE
  8
0
 62
     0
 10
4.09554
 20
2.76435
 30
0.0
 11
4.58886
 21
2.84427
 31
0.0
  0
LINE
  8
0
 62
     0
 10
4.58886
 20
2.84427
 30
0.0
 11
5.03534
 21
3.07027
 31
0.0
  0
LINE
  8
0
 62
     0
 10
5.03534
 20
3.07027
 30
0.0
 11
5.38949
 21
3.42442
 31
0.0
  0
LINE
  8
0
 62
     0
 10
5.38949
 20
3.42442
 30
0.0
 11
5.61689
 21
3.87092
 31
0.0
  0
LINE
  8
0
 62
     0
 10
5.61689
 20
3.87092
 30
0.0
 11
5.69542
 21
4.36425
 31
0.0
  0
LINE
  8
0
 62
     0
 10
5.69542
 20
4.36425
 30
0.0
 11
5.61689
 21
4.85895
 31
0.0
  0
LINE
  8
0
 62
     0
 10
5.61689
 20
4.85895
 30
0.0
 11
5.38949
 21
5.30546
 31
0.0
  0
LINE
  8
0
 62
     0
 10
5.38949
 20
5.30546
 30
0.0
 11
5.03534
 21
5.65961
 31
0.0
  0
LINE
  8
0
 62
     0
 10
5.03534
 20
5.65961
 30
0.0
 11
4.58886
 21
5.88698
 31
0.0
  0
LINE
  8
0
 62
     0
 10
4.58886
 20
5.88698
 30
0.0
 11
4.09554
 21
5.96417
 31
0.0
  0
LINE
  8
0
 62
     0
 10
4.09554
 20
5.96417
 30
0.0
 11
3.6008
 21
5.88698
 31
0.0
  0
LINE
  8
0
 62
     0
 10
215.627
 20
5.88698
 30
0.0
 11
215.181
 21
5.65961
 31
0.0
  0
LINE
  8
0
 62
     0
 10
215.181
 20
5.65961
 30
0.0
 11
214.826
 21
5.30546
 31
0.0
  0
LINE
  8
0
 62
     0
 10
214.826
 20
5.30546
 30
0.0
 11
214.599
 21
4.85895
 31
0.0
  0
LINE
  8
0
 62
     0
 10
214.599
 20
4.85895
 30
0.0
 11
214.522
 21
4.36425
 31
0.0
  0
LINE
  8
0
 62
     0
 10
214.522
 20
4.36425
 30
0.0
 11
214.599
 21
3.87092
 31
0.0
  0
LINE
  8
0
 62
     0
 10
214.599
 20
3.87092
 30
0.0
 11
214.826
 21
3.42442
 31
0.0
  0
LINE
  8
0
 62
     0
 10
214.826
 20
3.42442
 30
0.0
 11
215.181
 21
3.07027
 31
0.0
  0
LINE
  8
0
 62
     0
 10
215.181
 20
3.07027
 30
0.0
 11
215.627
 21
2.84427
 31
0.0
  0
LINE
  8
0
 62
     0
 10
215.627
 20
2.84427
 30
0.0
 11
216.122
 21
2.76435
 31
0.0
  0
LINE
  8
0
 62
     0
 10
216.122
 20
2.76435
 30
0.0
 11
216.615
 21
2.84427
 31
0.0
  0
LINE
  8
0
 62
     0
 10
216.615
 20
2.84427
 30
0.0
 11
217.062
 21
3.07027
 31
0.0
  0
LINE
  8
0
 62
     0
 10
217.062
 20
3.07027
 30
0.0
 11
217.416
 21
3.42442
 31
0.0
  0
LINE
  8
0
 62
     0
 10
217.416
 20
3.42442
 30
0.0
 11
217.642
 21
3.87092
 31
0.0
  0
LINE
  8
0
 62
     0
 10
217.642
 20
3.87092
 30
0.0
 11
217.722
 21
4.36425
 31
0.0
  0
LINE
  8
0
 62
     0
 10
217.722
 20
4.36425
 30
0.0
 11
217.642
 21
4.85895
 31
0.0
  0
LINE
  8
0
 62
     0
 10
217.642
 20
4.85895
 30
0.0
 11
217.416
 21
5.30546
 31
0.0
  0
LINE
  8
0
 62
     0
 10
217.416
 20
5.30546
 30
0.0
 11
217.062
 21
5.65961
 31
0.0
  0
LINE
  8
0
 62
     0
 10
217.062
 20
5.65961
 30
0.0
 11
216.615
 21
5.88698
 31
0.0
  0
LINE
  8
0
 62
     0
 10
216.615
 20
5.88698
 30
0.0
 11
216.122
 21
5.96417
 31
0.0
  0
LINE
  8
0
 62
     0
 10
216.122
 20
5.96417
 30
0.0
 11
215.627
 21
5.88698
 31
0.0
  0
LINE
  8
0
 62
     0
 10
72.0065
 20
105.617
 30
0.0
 11
72.0065
 21
10.3642
 31
0.0
  0
LINE
  8
0
 62
     0
 10
72.0065
 20
10.3642
 30
0.0
 11
195.833
 21
10.3642
 31
0.0
  0
LINE
  8
0
 62
     0
 10
195.833
 20
10.3642
 30
0.0
 11
195.833
 21
29.4142
 31
0.0
  0
LINE
  8
0
 62
     0
 10
195.833
 20
29.4142
 30
0.0
 11
210.122
 21
29.4142
 31
0.0
  0
LINE
  8
0
 62
     0
 10
210.122
 20
29.4142
 30
0.0
 11
210.122
 21
48.4671
 31
0.0
  0
LINE
  8
0
 62
     0
 10
210.122
 20
48.4671
 30
0.0
 11
200.597
 21
48.4671
 31
0.0
  0
LINE
  8
0
 62
     0
 10
200.597
 20
48.4671
 30
0.0
 11
200.597
 21
67.5171
 31
0.0
  0
LINE
  8
0
 62
     0
 10
200.597
 20
67.5171
 30
0.0
 11
195.833
 21
67.5171
 31
0.0
  0
LINE
  8
0
 62
     0
 10
195.833
 20
67.5171
 30
0.0
 11
195.833
 21
86.5643
 31
0.0
  0
LINE
  8
0
 62
     0
 10
195.833
 20
86.5643
 30
0.0
 11
205.358
 21
86.5643
 31
0.0
  0
LINE
  8
0
 62
     0
 10
205.358
 20
86.5643
 30
0.0
 11
205.358
 21
105.617
 31
0.0
  0
LINE
  8
0
 62
     0
 10
205.358
 20
105.617
 30
0.0
 11
72.0065
 21
105.617
 31
0.0
  0
LINE
  8
0
 62
     0
 10
10.0941
 20
105.617
 30
0.0
 11
67.2469
 21
105.617
 31
0.0
  0
LINE
  8
0
 62
     0
 10
67.2469
 20
105.617
 30
0.0
 11
67.2469
 21
10.3642
 31
0.0
  0
LINE
  8
0
 62
     0
 10
67.2469
 20
10.3642
 30
0.0
 11
10.0941
 21
10.3642
 31
0.0
  0
LINE
  8
0
 62
     0
 10
10.0941
 20
10.3642
 30
0.0
 11
10.0941
 21
105.617
 31
0.0
  0
LINE
  8
0
 62
     0
 10
72.0065
 20
129.43
 30
0.0
 11
91.0579
 21
129.43
 31
0.0
  0
LINE
  8
0
 62
     0
 10
91.0579
 20
129.43
 30
0.0
 11
91.0579
 21
110.378
 31
0.0
  0
LINE
  8
0
 62
     0
 10
91.0579
 20
110.378
 30
0.0
 11
72.0065
 21
110.378
 31
0.0
  0
LINE
  8
0
 62
     0
 10
72.0065
 20
110.378
 30
0.0
 11
72.0065
 21
129.43
 31
0.0
  0
LINE
  8
0
 62
     0
 10
3.6008
 20
141.712
 30
0.0
 11
3.15295
 21
141.486
 31
0.0
  0
LINE
  8
0
 62
     0
 10
3.15295
 20
141.486
 30
0.0
 11
2.80017
 21
141.133
 31
0.0
  0
LINE
  8
0
 62
     0
 10
2.80017
 20
141.133
 30
0.0
 11
2.57418
 21
140.685
 31
0.0
  0
LINE
  8
0
 62
     0
 10
2.57418
 20
140.685
 30
0.0
 11
2.49425
 21
140.191
 31
0.0
  0
LINE
  8
0
 62
     0
 10
2.49425
 20
140.191
 30
0.0
 11
2.57418
 21
139.697
 31
0.0
  0
LINE
  8
0
 62
     0
 10
2.57418
 20
139.697
 30
0.0
 11
2.80017
 21
139.251
 31
0.0
  0
LINE
  8
0
 62
     0
 10
2.80017
 20
139.251
 30
0.0
 11
3.15295
 21
138.897
 31
0.0
  0
LINE
  8
0
 62
     0
 10
3.15295
 20
138.897
 30
0.0
 11
3.6008
 21
138.669
 31
0.0
  0
LINE
  8
0
 62
     0
 10
3.6008
 20
138.669
 30
0.0
 11
4.09554
 21
138.591
 31
0.0
  0
LINE
  8
0
 62
     0
 10
4.09554
 20
138.591
 30
0.0
 11
4.58886
 21
138.669
 31
0.0
  0
LINE
  8
0
 62
     0
 10
4.58886
 20
138.669
 30
0.0
 11
5.03534
 21
138.897
 31
0.0
  0
LINE
  8
0
 62
     0
 10
5.03534
 20
138.897
 30
0.0
 11
5.38949
 21
139.251
 31
0.0
  0
LINE
  8
0
 62
     0
 10
5.38949
 20
139.251
 30
0.0
 11
5.61689
 21
139.697
 31
0.0
  0
LINE
  8
0
 62
     0
 10
5.61689
 20
139.697
 30
0.0
 11
5.69542
 21
140.191
 31
0.0
  0
LINE
  8
0
 62
     0
 10
5.69542
 20
140.191
 30
0.0
 11
5.61689
 21
140.685
 31
0.0
  0
LINE
  8
0
 62
     0
 10
5.61689
 20
140.685
 30
0.0
 11
5.38949
 21
141.133
 31
0.0
  0
LINE
  8
0
 62
     0
 10
5.38949
 20
141.133
 30
0.0
 11
5.03534
 21
141.486
 31
0.0
  0
LINE
  8
0
 62
     0
 10
5.03534
 20
141.486
 30
0.0
 11
4.58886
 21
141.712
 31
0.0
  0
LINE
  8
0
 62
     0
 10
4.58886
 20
141.712
 30
0.0
 11
4.09554
 21
141.791
 31
0.0
  0
LINE
  8
0
 62
     0
 10
4.09554
 20
141.791
 30
0.0
 11
3.6008
 21
141.712
 31
0.0
  0
LINE
  8
0
 62
     0
 10
215.627
 20
141.712
 30
0.0
 11
215.181
 21
141.486
 31
0.0
  0
LINE
  8
0
 62
     0
 10
215.181
 20
141.486
 30
0.0
 11
214.826
 21
141.133
 31
0.0
  0
LINE
  8
0
 62
     0
 10
214.826
 20
141.133
 30
0.0
 11
214.599
 21
140.685
 31
0.0
  0
LINE
  8
0
 62
     0
 10
214.599
 20
140.685
 30
0.0
 11
214.522
 21
140.191
 31
0.0
  0
LINE
  8
0
 62
     0
 10
214.522
 20
140.191
 30
0.0
 11
214.599
 21
139.697
 31
0.0
  0
LINE
  8
0
 62
     0
 10
214.599
 20
139.697
 30
0.0
 11
214.826
 21
139.251
 31
0.0
  0
LINE
  8
0
 62
     0
 10
214.826
 20
139.251
 30
0.0
 11
215.181
 21
138.897
 31
0.0
  0
LINE
  8
0
 62
     0
 10
215.181
 20
138.897
 30
0.0
 11
215.627
 21
138.669
 31
0.0
  0
LINE
  8
0
 62
     0
 10
215.627
 20
138.669
 30
0.0
 11
216.122
 21
138.591
 31
0.0
  0
LINE
  8
0
 62
     0
 10
216.122
 20
138.591
 30
0.0
 11
216.615
 21
138.669
 31
0.0
  0
LINE
  8
0
 62
     0
 10
216.615
 20
138.669
 30
0.0
 11
217.062
 21
138.897
 31
0.0
  0
LINE
  8
0
 62
     0
 10
217.062
 20
138.897
 30
0.0
 11
217.416
 21
139.251
 31
0.0
  0
LINE
  8
0
 62
     0
 10
217.416
 20
139.251
 30
0.0
 11
217.642
 21
139.697
 31
0.0
  0
LINE
  8
0
 62
     0
 10
217.642
 20
139.697
 30
0.0
 11
217.722
 21
140.191
 31
0.0
  0
LINE
  8
0
 62
     0
 10
217.722
 20
140.191
 30
0.0
 11
217.642
 21
140.685
 31
0.0
  0
LINE
  8
0
 62
     0
 10
217.642
 20
140.685
 30
0.0
 11
217.416
 21
141.133
 31
0.0
  0
LINE
  8
0
 62
     0
 10
217.416
 20
141.133
 30
0.0
 11
217.062
 21
141.486
 31
0.0
  0
LINE
  8
0
 62
     0
 10
217.062
 20
141.486
 30
0.0
 11
216.615
 21
141.712
 31
0.0
  0
LINE
  8
0
 62
     0
 10
216.615
 20
141.712
 30
0.0
 11
216.122
 21
141.791
 31
0.0
  0
LINE
  8
0
 62
     0
 10
216.122
 20
141.791
 30
0.0
 11
215.627
 21
141.712
 31
0.0
  0
ENDSEC
  0
EOF
