  0
SECTION
  2
HEADER
  9
$ACADVER
  1
AC1009
  9
$EXTMIN
 10
0.0
 20
0.0
 30
0.0
  9
$EXTMAX
 10
1000.0
 20
1000.0
 30
0.0
  9
$FILLMODE
 70
 0
  9
$SPLFRAME
 70
 1
  0
ENDSEC
  0
SECTION
  2
TABLES
  0
TABLE
  2
LAYER
 70
1
  0
LAYER
  2
0
 70
     0
 62
     7
  6
CONTINUOUS
  0
ENDTAB
  0
ENDSEC
  0
SECTION
  2
ENTITIES
  0
LINE
  8
0
 62
     0
 10
217.121
 20
144.191
 30
0.0
 11
217.357
 21
144.181
 31
0.0
  0
LINE
  8
0
 62
     0
 10
217.357
 20
144.181
 30
0.0
 11
217.591
 21
144.155
 31
0.0
  0
LINE
  8
0
 62
     0
 10
217.591
 20
144.155
 30
0.0
 11
217.821
 21
144.108
 31
0.0
  0
LINE
  8
0
 62
     0
 10
217.821
 20
144.108
 30
0.0
 11
218.048
 21
144.045
 31
0.0
  0
LINE
  8
0
 62
     0
 10
218.048
 20
144.045
 30
0.0
 11
218.269
 21
143.962
 31
0.0
  0
LINE
  8
0
 62
     0
 10
218.269
 20
143.962
 30
0.0
 11
218.482
 21
143.865
 31
0.0
  0
LINE
  8
0
 62
     0
 10
218.482
 20
143.865
 30
0.0
 11
218.689
 21
143.749
 31
0.0
  0
LINE
  8
0
 62
     0
 10
218.689
 20
143.749
 30
0.0
 11
218.885
 21
143.619
 31
0.0
  0
LINE
  8
0
 62
     0
 10
218.885
 20
143.619
 30
0.0
 11
219.069
 21
143.473
 31
0.0
  0
LINE
  8
0
 62
     0
 10
219.069
 20
143.473
 30
0.0
 11
219.243
 21
143.313
 31
0.0
  0
LINE
  8
0
 62
     0
 10
219.243
 20
143.313
 30
0.0
 11
219.403
 21
143.14
 31
0.0
  0
LINE
  8
0
 62
     0
 10
219.403
 20
143.14
 30
0.0
 11
219.549
 21
142.955
 31
0.0
  0
LINE
  8
0
 62
     0
 10
219.549
 20
142.955
 30
0.0
 11
219.679
 21
142.759
 31
0.0
  0
LINE
  8
0
 62
     0
 10
219.679
 20
142.759
 30
0.0
 11
219.794
 21
142.553
 31
0.0
  0
LINE
  8
0
 62
     0
 10
219.794
 20
142.553
 30
0.0
 11
219.892
 21
142.339
 31
0.0
  0
LINE
  8
0
 62
     0
 10
219.892
 20
142.339
 30
0.0
 11
219.975
 21
142.118
 31
0.0
  0
LINE
  8
0
 62
     0
 10
219.975
 20
142.118
 30
0.0
 11
220.038
 21
141.891
 31
0.0
  0
LINE
  8
0
 62
     0
 10
220.038
 20
141.891
 30
0.0
 11
220.085
 21
141.661
 31
0.0
  0
LINE
  8
0
 62
     0
 10
220.085
 20
141.661
 30
0.0
 11
220.111
 21
141.427
 31
0.0
  0
LINE
  8
0
 62
     0
 10
220.111
 20
141.427
 30
0.0
 11
220.121
 21
141.191
 31
0.0
  0
LINE
  8
0
 62
     0
 10
220.121
 20
141.191
 30
0.0
 11
220.121
 21
3.36517
 31
0.0
  0
LINE
  8
0
 62
     0
 10
220.121
 20
3.36517
 30
0.0
 11
220.111
 21
3.12952
 31
0.0
  0
LINE
  8
0
 62
     0
 10
220.111
 20
3.12952
 30
0.0
 11
220.085
 21
2.89526
 31
0.0
  0
LINE
  8
0
 62
     0
 10
220.085
 20
2.89526
 30
0.0
 11
220.038
 21
2.66513
 31
0.0
  0
LINE
  8
0
 62
     0
 10
220.038
 20
2.66513
 30
0.0
 11
219.975
 21
2.43775
 31
0.0
  0
LINE
  8
0
 62
     0
 10
219.975
 20
2.43775
 30
0.0
 11
219.892
 21
2.21726
 31
0.0
  0
LINE
  8
0
 62
     0
 10
219.892
 20
2.21726
 30
0.0
 11
219.794
 21
2.00367
 31
0.0
  0
LINE
  8
0
 62
     0
 10
219.794
 20
2.00367
 30
0.0
 11
219.679
 21
1.79696
 31
0.0
  0
LINE
  8
0
 62
     0
 10
219.679
 20
1.79696
 30
0.0
 11
219.549
 21
1.60128
 31
0.0
  0
LINE
  8
0
 62
     0
 10
219.549
 20
1.60128
 30
0.0
 11
219.403
 21
1.41662
 31
0.0
  0
LINE
  8
0
 62
     0
 10
219.403
 20
1.41662
 30
0.0
 11
219.243
 21
1.24299
 31
0.0
  0
LINE
  8
0
 62
     0
 10
219.243
 20
1.24299
 30
0.0
 11
219.069
 21
1.08314
 31
0.0
  0
LINE
  8
0
 62
     0
 10
219.069
 20
1.08314
 30
0.0
 11
218.885
 21
0.937066
 31
0.0
  0
LINE
  8
0
 62
     0
 10
218.885
 20
0.937066
 30
0.0
 11
218.689
 21
0.80753
 31
0.0
  0
LINE
  8
0
 62
     0
 10
218.689
 20
0.80753
 30
0.0
 11
218.482
 21
0.691776
 31
0.0
  0
LINE
  8
0
 62
     0
 10
218.482
 20
0.691776
 30
0.0
 11
218.269
 21
0.593933
 31
0.0
  0
LINE
  8
0
 62
     0
 10
218.269
 20
0.593933
 30
0.0
 11
218.048
 21
0.511253
 31
0.0
  0
LINE
  8
0
 62
     0
 10
218.048
 20
0.511253
 30
0.0
 11
217.821
 21
0.447862
 31
0.0
  0
LINE
  8
0
 62
     0
 10
217.821
 20
0.447862
 30
0.0
 11
217.591
 21
0.40101
 31
0.0
  0
LINE
  8
0
 62
     0
 10
217.591
 20
0.40101
 30
0.0
 11
217.357
 21
0.374826
 31
0.0
  0
LINE
  8
0
 62
     0
 10
217.357
 20
0.374826
 30
0.0
 11
217.121
 21
0.365181
 31
0.0
  0
LINE
  8
0
 62
     0
 10
217.121
 20
0.365181
 30
0.0
 11
3.09507
 21
0.365181
 31
0.0
  0
LINE
  8
0
 62
     0
 10
3.09507
 20
0.365181
 30
0.0
 11
2.85943
 21
0.374826
 31
0.0
  0
LINE
  8
0
 62
     0
 10
2.85943
 20
0.374826
 30
0.0
 11
2.62516
 21
0.40101
 31
0.0
  0
LINE
  8
0
 62
     0
 10
2.62516
 20
0.40101
 30
0.0
 11
2.39503
 21
0.447862
 31
0.0
  0
LINE
  8
0
 62
     0
 10
2.39503
 20
0.447862
 30
0.0
 11
2.16765
 21
0.511253
 31
0.0
  0
LINE
  8
0
 62
     0
 10
2.16765
 20
0.511253
 30
0.0
 11
1.94717
 21
0.593933
 31
0.0
  0
LINE
  8
0
 62
     0
 10
1.94717
 20
0.593933
 30
0.0
 11
1.73357
 21
0.691776
 31
0.0
  0
LINE
  8
0
 62
     0
 10
1.73357
 20
0.691776
 30
0.0
 11
1.52687
 21
0.80753
 31
0.0
  0
LINE
  8
0
 62
     0
 10
1.52687
 20
0.80753
 30
0.0
 11
1.33119
 21
0.937066
 31
0.0
  0
LINE
  8
0
 62
     0
 10
1.33119
 20
0.937066
 30
0.0
 11
1.14653
 21
1.08314
 31
0.0
  0
LINE
  8
0
 62
     0
 10
1.14653
 20
1.08314
 30
0.0
 11
0.972894
 21
1.24299
 31
0.0
  0
LINE
  8
0
 62
     0
 10
0.972894
 20
1.24299
 30
0.0
 11
0.813043
 21
1.41662
 31
0.0
  0
LINE
  8
0
 62
     0
 10
0.813043
 20
1.41662
 30
0.0
 11
0.666972
 21
1.60128
 31
0.0
  0
LINE
  8
0
 62
     0
 10
0.666972
 20
1.60128
 30
0.0
 11
0.537436
 21
1.79696
 31
0.0
  0
LINE
  8
0
 62
     0
 10
0.537436
 20
1.79696
 30
0.0
 11
0.421679
 21
2.00367
 31
0.0
  0
LINE
  8
0
 62
     0
 10
0.421679
 20
2.00367
 30
0.0
 11
0.323839
 21
2.21726
 31
0.0
  0
LINE
  8
0
 62
     0
 10
0.323839
 20
2.21726
 30
0.0
 11
0.241157
 21
2.43775
 31
0.0
  0
LINE
  8
0
 62
     0
 10
0.241157
 20
2.43775
 30
0.0
 11
0.177767
 21
2.66513
 31
0.0
  0
LINE
  8
0
 62
     0
 10
0.177767
 20
2.66513
 30
0.0
 11
0.130914
 21
2.89526
 31
0.0
  0
LINE
  8
0
 62
     0
 10
0.130914
 20
2.89526
 30
0.0
 11
0.104731
 21
3.12952
 31
0.0
  0
LINE
  8
0
 62
     0
 10
0.104731
 20
3.12952
 30
0.0
 11
0.0950846
 21
3.36517
 31
0.0
  0
LINE
  8
0
 62
     0
 10
0.0950846
 20
3.36517
 30
0.0
 11
0.0950846
 21
141.191
 31
0.0
  0
LINE
  8
0
 62
     0
 10
0.0950846
 20
141.191
 30
0.0
 11
0.104731
 21
141.427
 31
0.0
  0
LINE
  8
0
 62
     0
 10
0.104731
 20
141.427
 30
0.0
 11
0.130914
 21
141.661
 31
0.0
  0
LINE
  8
0
 62
     0
 10
0.130914
 20
141.661
 30
0.0
 11
0.177767
 21
141.891
 31
0.0
  0
LINE
  8
0
 62
     0
 10
0.177767
 20
141.891
 30
0.0
 11
0.241157
 21
142.118
 31
0.0
  0
LINE
  8
0
 62
     0
 10
0.241157
 20
142.118
 30
0.0
 11
0.323839
 21
142.339
 31
0.0
  0
LINE
  8
0
 62
     0
 10
0.323839
 20
142.339
 30
0.0
 11
0.421679
 21
142.553
 31
0.0
  0
LINE
  8
0
 62
     0
 10
0.421679
 20
142.553
 30
0.0
 11
0.537436
 21
142.759
 31
0.0
  0
LINE
  8
0
 62
     0
 10
0.537436
 20
142.759
 30
0.0
 11
0.666972
 21
142.955
 31
0.0
  0
LINE
  8
0
 62
     0
 10
0.666972
 20
142.955
 30
0.0
 11
0.813043
 21
143.14
 31
0.0
  0
LINE
  8
0
 62
     0
 10
0.813043
 20
143.14
 30
0.0
 11
0.972894
 21
143.313
 31
0.0
  0
LINE
  8
0
 62
     0
 10
0.972894
 20
143.313
 30
0.0
 11
1.14653
 21
143.473
 31
0.0
  0
LINE
  8
0
 62
     0
 10
1.14653
 20
143.473
 30
0.0
 11
1.33119
 21
143.619
 31
0.0
  0
LINE
  8
0
 62
     0
 10
1.33119
 20
143.619
 30
0.0
 11
1.52687
 21
143.749
 31
0.0
  0
LINE
  8
0
 62
     0
 10
1.52687
 20
143.749
 30
0.0
 11
1.73357
 21
143.865
 31
0.0
  0
LINE
  8
0
 62
     0
 10
1.73357
 20
143.865
 30
0.0
 11
1.94717
 21
143.962
 31
0.0
  0
LINE
  8
0
 62
     0
 10
1.94717
 20
143.962
 30
0.0
 11
2.16765
 21
144.045
 31
0.0
  0
LINE
  8
0
 62
     0
 10
2.16765
 20
144.045
 30
0.0
 11
2.39503
 21
144.108
 31
0.0
  0
LINE
  8
0
 62
     0
 10
2.39503
 20
144.108
 30
0.0
 11
2.62516
 21
144.155
 31
0.0
  0
LINE
  8
0
 62
     0
 10
2.62516
 20
144.155
 30
0.0
 11
2.85943
 21
144.181
 31
0.0
  0
LINE
  8
0
 62
     0
 10
2.85943
 20
144.181
 30
0.0
 11
3.09507
 21
144.191
 31
0.0
  0
LINE
  8
0
 62
     0
 10
3.09507
 20
144.191
 30
0.0
 11
217.121
 21
144.191
 31
0.0
  0
LINE
  8
0
 62
     0
 10
3.6008
 20
5.88698
 30
0.0
 11
3.15295
 21
5.65961
 31
0.0
  0
LINE
  8
0
 62
     0
 10
3.15295
 20
5.65961
 30
0.0
 11
2.80017
 21
5.30546
 31
0.0
  0
LINE
  8
0
 62
     0
 10
2.80017
 20
5.30546
 30
0.0
 11
2.57418
 21
4.85895
 31
0.0
  0
LINE
  8
0
 62
     0
 10
2.57418
 20
4.85895
 30
0.0
 11
2.49425
 21
4.36425
 31
0.0
  0
LINE
  8
0
 62
     0
 10
2.49425
 20
4.36425
 30
0.0
 11
2.57418
 21
3.87092
 31
0.0
  0
LINE
  8
0
 62
     0
 10
2.57418
 20
3.87092
 30
0.0
 11
2.80017
 21
3.42442
 31
0.0
  0
LINE
  8
0
 62
     0
 10
2.80017
 20
3.42442
 30
0.0
 11
3.15295
 21
3.07027
 31
0.0
  0
LINE
  8
0
 62
     0
 10
3.15295
 20
3.07027
 30
0.0
 11
3.6008
 21
2.84427
 31
0.0
  0
LINE
  8
0
 62
     0
 10
3.6008
 20
2.84427
 30
0.0
 11
4.09554
 21
2.76435
 31
0.0
  0
LINE
  8
0
 62
     0
 10
4.09554
 20
2.76435
 30
0.0
 11
4.58886
 21
2.84427
 31
0.0
  0
LINE
  8
0
 62
     0
 10
4.58886
 20
2.84427
 30
0.0
 11
5.03534
 21
3.07027
 31
0.0
  0
LINE
  8
0
 62
     0
 10
5.03534
 20
3.07027
 30
0.0
 11
5.38949
 21
3.42442
 31
0.0
  0
LINE
  8
0
 62
     0
 10
5.38949
 20
3.42442
 30
0.0
 11
5.61689
 21
3.87092
 31
0.0
  0
LINE
  8
0
 62
     0
 10
5.61689
 20
3.87092
 30
0.0
 11
5.69542
 21
4.36425
 31
0.0
  0
LINE
  8
0
 62
     0
 10
5.69542
 20
4.36425
 30
0.0
 11
5.61689
 21
4.85895
 31
0.0
  0
LINE
  8
0
 62
     0
 10
5.61689
 20
4.85895
 30
0.0
 11
5.38949
 21
5.30546
 31
0.0
  0
LINE
  8
0
 62
     0
 10
5.38949
 20
5.30546
 30
0.0
 11
5.03534
 21
5.65961
 31
0.0
  0
LINE
  8
0
 62
     0
 10
5.03534
 20
5.65961
 30
0.0
 11
4.58886
 21
5.88698
 31
0.0
  0
LINE
  8
0
 62
     0
 10
4.58886
 20
5.88698
 30
0.0
 11
4.09554
 21
5.96417
 31
0.0
  0
LINE
  8
0
 62
     0
 10
4.09554
 20
5.96417
 30
0.0
 11
3.6008
 21
5.88698
 31
0.0
  0
LINE
  8
0
 62
     0
 10
215.627
 20
5.88698
 30
0.0
 11
215.181
 21
5.65961
 31
0.0
  0
LINE
  8
0
 62
     0
 10
215.181
 20
5.65961
 30
0.0
 11
214.826
 21
5.30546
 31
0.0
  0
LINE
  8
0
 62
     0
 10
214.826
 20
5.30546
 30
0.0
 11
214.599
 21
4.85895
 31
0.0
  0
LINE
  8
0
 62
     0
 10
214.599
 20
4.85895
 30
0.0
 11
214.522
 21
4.36425
 31
0.0
  0
LINE
  8
0
 62
     0
 10
214.522
 20
4.36425
 30
0.0
 11
214.599
 21
3.87092
 31
0.0
  0
LINE
  8
0
 62
     0
 10
214.599
 20
3.87092
 30
0.0
 11
214.826
 21
3.42442
 31
0.0
  0
LINE
  8
0
 62
     0
 10
214.826
 20
3.42442
 30
0.0
 11
215.181
 21
3.07027
 31
0.0
  0
LINE
  8
0
 62
     0
 10
215.181
 20
3.07027
 30
0.0
 11
215.627
 21
2.84427
 31
0.0
  0
LINE
  8
0
 62
     0
 10
215.627
 20
2.84427
 30
0.0
 11
216.122
 21
2.76435
 31
0.0
  0
LINE
  8
0
 62
     0
 10
216.122
 20
2.76435
 30
0.0
 11
216.615
 21
2.84427
 31
0.0
  0
LINE
  8
0
 62
     0
 10
216.615
 20
2.84427
 30
0.0
 11
217.062
 21
3.07027
 31
0.0
  0
LINE
  8
0
 62
     0
 10
217.062
 20
3.07027
 30
0.0
 11
217.416
 21
3.42442
 31
0.0
  0
LINE
  8
0
 62
     0
 10
217.416
 20
3.42442
 30
0.0
 11
217.642
 21
3.87092
 31
0.0
  0
LINE
  8
0
 62
     0
 10
217.642
 20
3.87092
 30
0.0
 11
217.722
 21
4.36425
 31
0.0
  0
LINE
  8
0
 62
     0
 10
217.722
 20
4.36425
 30
0.0
 11
217.642
 21
4.85895
 31
0.0
  0
LINE
  8
0
 62
     0
 10
217.642
 20
4.85895
 30
0.0
 11
217.416
 21
5.30546
 31
0.0
  0
LINE
  8
0
 62
     0
 10
217.416
 20
5.30546
 30
0.0
 11
217.062
 21
5.65961
 31
0.0
  0
LINE
  8
0
 62
     0
 10
217.062
 20
5.65961
 30
0.0
 11
216.615
 21
5.88698
 31
0.0
  0
LINE
  8
0
 62
     0
 10
216.615
 20
5.88698
 30
0.0
 11
216.122
 21
5.96417
 31
0.0
  0
LINE
  8
0
 62
     0
 10
216.122
 20
5.96417
 30
0.0
 11
215.627
 21
5.88698
 31
0.0
  0
LINE
  8
0
 62
     0
 10
162.639
 20
26.8911
 30
0.0
 11
162.639
 21
22.1905
 31
0.0
  0
LINE
  8
0
 62
     0
 10
162.639
 20
22.1905
 30
0.0
 11
161.113
 21
22.1905
 31
0.0
  0
LINE
  8
0
 62
     0
 10
161.113
 20
22.1905
 30
0.0
 11
161.113
 21
25.4207
 31
0.0
  0
LINE
  8
0
 62
     0
 10
161.113
 20
25.4207
 30
0.0
 11
154.364
 21
25.4207
 31
0.0
  0
LINE
  8
0
 62
     0
 10
154.364
 20
25.4207
 30
0.0
 11
154.364
 21
22.1905
 31
0.0
  0
LINE
  8
0
 62
     0
 10
154.364
 20
22.1905
 30
0.0
 11
153.538
 21
22.1905
 31
0.0
  0
LINE
  8
0
 62
     0
 10
153.538
 20
22.1905
 30
0.0
 11
153.538
 21
19.3904
 31
0.0
  0
LINE
  8
0
 62
     0
 10
153.538
 20
19.3904
 30
0.0
 11
154.364
 21
19.3904
 31
0.0
  0
LINE
  8
0
 62
     0
 10
154.364
 20
19.3904
 30
0.0
 11
154.364
 21
13.1203
 31
0.0
  0
LINE
  8
0
 62
     0
 10
154.364
 20
13.1203
 30
0.0
 11
156.089
 21
13.1203
 31
0.0
  0
LINE
  8
0
 62
     0
 10
156.089
 20
13.1203
 30
0.0
 11
156.089
 21
11.92
 31
0.0
  0
LINE
  8
0
 62
     0
 10
156.089
 20
11.92
 30
0.0
 11
159.388
 21
11.92
 31
0.0
  0
LINE
  8
0
 62
     0
 10
159.388
 20
11.92
 30
0.0
 11
159.388
 21
13.1203
 31
0.0
  0
LINE
  8
0
 62
     0
 10
159.388
 20
13.1203
 30
0.0
 11
161.113
 21
13.1203
 31
0.0
  0
LINE
  8
0
 62
     0
 10
161.113
 20
13.1203
 30
0.0
 11
161.113
 21
17.5907
 31
0.0
  0
LINE
  8
0
 62
     0
 10
161.113
 20
17.5907
 30
0.0
 11
162.639
 21
17.5907
 31
0.0
  0
LINE
  8
0
 62
     0
 10
162.639
 20
17.5907
 30
0.0
 11
162.639
 21
12.8902
 31
0.0
  0
LINE
  8
0
 62
     0
 10
162.639
 20
12.8902
 30
0.0
 11
176.638
 21
12.8902
 31
0.0
  0
LINE
  8
0
 62
     0
 10
176.638
 20
12.8902
 30
0.0
 11
176.638
 21
17.5907
 31
0.0
  0
LINE
  8
0
 62
     0
 10
176.638
 20
17.5907
 30
0.0
 11
178.164
 21
17.5907
 31
0.0
  0
LINE
  8
0
 62
     0
 10
178.164
 20
17.5907
 30
0.0
 11
178.164
 21
13.1203
 31
0.0
  0
LINE
  8
0
 62
     0
 10
178.164
 20
13.1203
 30
0.0
 11
179.889
 21
13.1203
 31
0.0
  0
LINE
  8
0
 62
     0
 10
179.889
 20
13.1203
 30
0.0
 11
179.889
 21
11.92
 31
0.0
  0
LINE
  8
0
 62
     0
 10
179.889
 20
11.92
 30
0.0
 11
183.188
 21
11.92
 31
0.0
  0
LINE
  8
0
 62
     0
 10
183.188
 20
11.92
 30
0.0
 11
183.188
 21
13.1203
 31
0.0
  0
LINE
  8
0
 62
     0
 10
183.188
 20
13.1203
 30
0.0
 11
184.913
 21
13.1203
 31
0.0
  0
LINE
  8
0
 62
     0
 10
184.913
 20
13.1203
 30
0.0
 11
184.913
 21
19.3904
 31
0.0
  0
LINE
  8
0
 62
     0
 10
184.913
 20
19.3904
 30
0.0
 11
185.739
 21
19.3904
 31
0.0
  0
LINE
  8
0
 62
     0
 10
185.739
 20
19.3904
 30
0.0
 11
185.739
 21
22.1905
 31
0.0
  0
LINE
  8
0
 62
     0
 10
185.739
 20
22.1905
 30
0.0
 11
184.913
 21
22.1905
 31
0.0
  0
LINE
  8
0
 62
     0
 10
184.913
 20
22.1905
 30
0.0
 11
184.913
 21
25.4207
 31
0.0
  0
LINE
  8
0
 62
     0
 10
184.913
 20
25.4207
 30
0.0
 11
178.164
 21
25.4207
 31
0.0
  0
LINE
  8
0
 62
     0
 10
178.164
 20
25.4207
 30
0.0
 11
178.164
 21
22.1905
 31
0.0
  0
LINE
  8
0
 62
     0
 10
178.164
 20
22.1905
 30
0.0
 11
176.638
 21
22.1905
 31
0.0
  0
LINE
  8
0
 62
     0
 10
176.638
 20
22.1905
 30
0.0
 11
176.638
 21
26.8911
 31
0.0
  0
LINE
  8
0
 62
     0
 10
176.638
 20
26.8911
 30
0.0
 11
162.639
 21
26.8911
 31
0.0
  0
LINE
  8
0
 62
     0
 10
124.539
 20
26.8911
 30
0.0
 11
138.538
 21
26.8911
 31
0.0
  0
LINE
  8
0
 62
     0
 10
138.538
 20
26.8911
 30
0.0
 11
138.538
 21
12.8902
 31
0.0
  0
LINE
  8
0
 62
     0
 10
138.538
 20
12.8902
 30
0.0
 11
124.539
 21
12.8902
 31
0.0
  0
LINE
  8
0
 62
     0
 10
124.539
 20
12.8902
 30
0.0
 11
124.539
 21
26.8911
 31
0.0
  0
LINE
  8
0
 62
     0
 10
100.726
 20
26.8911
 30
0.0
 11
114.726
 21
26.8911
 31
0.0
  0
LINE
  8
0
 62
     0
 10
114.726
 20
26.8911
 30
0.0
 11
114.726
 21
12.8902
 31
0.0
  0
LINE
  8
0
 62
     0
 10
114.726
 20
12.8902
 30
0.0
 11
100.726
 21
12.8902
 31
0.0
  0
LINE
  8
0
 62
     0
 10
100.726
 20
12.8902
 30
0.0
 11
100.726
 21
26.8911
 31
0.0
  0
LINE
  8
0
 62
     0
 10
76.9137
 20
26.8911
 30
0.0
 11
90.9133
 21
26.8911
 31
0.0
  0
LINE
  8
0
 62
     0
 10
90.9133
 20
26.8911
 30
0.0
 11
90.9133
 21
12.8902
 31
0.0
  0
LINE
  8
0
 62
     0
 10
90.9133
 20
12.8902
 30
0.0
 11
76.9137
 21
12.8902
 31
0.0
  0
LINE
  8
0
 62
     0
 10
76.9137
 20
12.8902
 30
0.0
 11
76.9137
 21
26.8911
 31
0.0
  0
LINE
  8
0
 62
     0
 10
50.7199
 20
26.8911
 30
0.0
 11
64.721
 21
26.8911
 31
0.0
  0
LINE
  8
0
 62
     0
 10
64.721
 20
26.8911
 30
0.0
 11
64.721
 21
12.8902
 31
0.0
  0
LINE
  8
0
 62
     0
 10
64.721
 20
12.8902
 30
0.0
 11
50.7199
 21
12.8902
 31
0.0
  0
LINE
  8
0
 62
     0
 10
50.7199
 20
12.8902
 30
0.0
 11
50.7199
 21
26.8911
 31
0.0
  0
LINE
  8
0
 62
     0
 10
31.6701
 20
26.8911
 30
0.0
 11
45.671
 21
26.8911
 31
0.0
  0
LINE
  8
0
 62
     0
 10
45.671
 20
26.8911
 30
0.0
 11
45.671
 21
12.8902
 31
0.0
  0
LINE
  8
0
 62
     0
 10
45.671
 20
12.8902
 30
0.0
 11
31.6701
 21
12.8902
 31
0.0
  0
LINE
  8
0
 62
     0
 10
31.6701
 20
12.8902
 30
0.0
 11
31.6701
 21
26.8911
 31
0.0
  0
LINE
  8
0
 62
     0
 10
12.6201
 20
26.8911
 30
0.0
 11
26.6209
 21
26.8911
 31
0.0
  0
LINE
  8
0
 62
     0
 10
26.6209
 20
26.8911
 30
0.0
 11
26.6209
 21
12.8902
 31
0.0
  0
LINE
  8
0
 62
     0
 10
26.6209
 20
12.8902
 30
0.0
 11
12.6201
 21
12.8902
 31
0.0
  0
LINE
  8
0
 62
     0
 10
12.6201
 20
12.8902
 30
0.0
 11
12.6201
 21
26.8911
 31
0.0
  0
LINE
  8
0
 62
     0
 10
86.4387
 20
45.9412
 30
0.0
 11
86.4387
 21
41.2404
 31
0.0
  0
LINE
  8
0
 62
     0
 10
86.4387
 20
41.2404
 30
0.0
 11
84.9133
 21
41.2404
 31
0.0
  0
LINE
  8
0
 62
     0
 10
84.9133
 20
41.2404
 30
0.0
 11
84.9133
 21
44.4708
 31
0.0
  0
LINE
  8
0
 62
     0
 10
84.9133
 20
44.4708
 30
0.0
 11
78.1636
 21
44.4708
 31
0.0
  0
LINE
  8
0
 62
     0
 10
78.1636
 20
44.4708
 30
0.0
 11
78.1636
 21
41.2404
 31
0.0
  0
LINE
  8
0
 62
     0
 10
78.1636
 20
41.2404
 30
0.0
 11
77.3384
 21
41.2404
 31
0.0
  0
LINE
  8
0
 62
     0
 10
77.3384
 20
41.2404
 30
0.0
 11
77.3384
 21
38.4404
 31
0.0
  0
LINE
  8
0
 62
     0
 10
77.3384
 20
38.4404
 30
0.0
 11
78.1636
 21
38.4404
 31
0.0
  0
LINE
  8
0
 62
     0
 10
78.1636
 20
38.4404
 30
0.0
 11
78.1636
 21
32.1703
 31
0.0
  0
LINE
  8
0
 62
     0
 10
78.1636
 20
32.1703
 30
0.0
 11
79.889
 21
32.1703
 31
0.0
  0
LINE
  8
0
 62
     0
 10
79.889
 20
32.1703
 30
0.0
 11
79.889
 21
30.97
 31
0.0
  0
LINE
  8
0
 62
     0
 10
79.889
 20
30.97
 30
0.0
 11
83.1882
 21
30.97
 31
0.0
  0
LINE
  8
0
 62
     0
 10
83.1882
 20
30.97
 30
0.0
 11
83.1882
 21
32.1703
 31
0.0
  0
LINE
  8
0
 62
     0
 10
83.1882
 20
32.1703
 30
0.0
 11
84.9133
 21
32.1703
 31
0.0
  0
LINE
  8
0
 62
     0
 10
84.9133
 20
32.1703
 30
0.0
 11
84.9133
 21
36.6406
 31
0.0
  0
LINE
  8
0
 62
     0
 10
84.9133
 20
36.6406
 30
0.0
 11
86.4387
 21
36.6406
 31
0.0
  0
LINE
  8
0
 62
     0
 10
86.4387
 20
36.6406
 30
0.0
 11
86.4387
 21
31.9402
 31
0.0
  0
LINE
  8
0
 62
     0
 10
86.4387
 20
31.9402
 30
0.0
 11
100.438
 21
31.9402
 31
0.0
  0
LINE
  8
0
 62
     0
 10
100.438
 20
31.9402
 30
0.0
 11
100.438
 21
36.6406
 31
0.0
  0
LINE
  8
0
 62
     0
 10
100.438
 20
36.6406
 30
0.0
 11
101.964
 21
36.6406
 31
0.0
  0
LINE
  8
0
 62
     0
 10
101.964
 20
36.6406
 30
0.0
 11
101.964
 21
32.1703
 31
0.0
  0
LINE
  8
0
 62
     0
 10
101.964
 20
32.1703
 30
0.0
 11
103.689
 21
32.1703
 31
0.0
  0
LINE
  8
0
 62
     0
 10
103.689
 20
32.1703
 30
0.0
 11
103.689
 21
30.97
 31
0.0
  0
LINE
  8
0
 62
     0
 10
103.689
 20
30.97
 30
0.0
 11
106.988
 21
30.97
 31
0.0
  0
LINE
  8
0
 62
     0
 10
106.988
 20
30.97
 30
0.0
 11
106.988
 21
32.1703
 31
0.0
  0
LINE
  8
0
 62
     0
 10
106.988
 20
32.1703
 30
0.0
 11
108.713
 21
32.1703
 31
0.0
  0
LINE
  8
0
 62
     0
 10
108.713
 20
32.1703
 30
0.0
 11
108.713
 21
38.4404
 31
0.0
  0
LINE
  8
0
 62
     0
 10
108.713
 20
38.4404
 30
0.0
 11
109.539
 21
38.4404
 31
0.0
  0
LINE
  8
0
 62
     0
 10
109.539
 20
38.4404
 30
0.0
 11
109.539
 21
41.2404
 31
0.0
  0
LINE
  8
0
 62
     0
 10
109.539
 20
41.2404
 30
0.0
 11
108.713
 21
41.2404
 31
0.0
  0
LINE
  8
0
 62
     0
 10
108.713
 20
41.2404
 30
0.0
 11
108.713
 21
44.4708
 31
0.0
  0
LINE
  8
0
 62
     0
 10
108.713
 20
44.4708
 30
0.0
 11
101.964
 21
44.4708
 31
0.0
  0
LINE
  8
0
 62
     0
 10
101.964
 20
44.4708
 30
0.0
 11
101.964
 21
41.2404
 31
0.0
  0
LINE
  8
0
 62
     0
 10
101.964
 20
41.2404
 30
0.0
 11
100.438
 21
41.2404
 31
0.0
  0
LINE
  8
0
 62
     0
 10
100.438
 20
41.2404
 30
0.0
 11
100.438
 21
45.9412
 31
0.0
  0
LINE
  8
0
 62
     0
 10
100.438
 20
45.9412
 30
0.0
 11
86.4387
 21
45.9412
 31
0.0
  0
LINE
  8
0
 62
     0
 10
193.595
 20
45.9412
 30
0.0
 11
207.596
 21
45.9412
 31
0.0
  0
LINE
  8
0
 62
     0
 10
207.596
 20
45.9412
 30
0.0
 11
207.596
 21
31.9402
 31
0.0
  0
LINE
  8
0
 62
     0
 10
207.596
 20
31.9402
 30
0.0
 11
193.595
 21
31.9402
 31
0.0
  0
LINE
  8
0
 62
     0
 10
193.595
 20
31.9402
 30
0.0
 11
193.595
 21
45.9412
 31
0.0
  0
LINE
  8
0
 62
     0
 10
174.545
 20
45.9412
 30
0.0
 11
188.546
 21
45.9412
 31
0.0
  0
LINE
  8
0
 62
     0
 10
188.546
 20
45.9412
 30
0.0
 11
188.546
 21
31.9402
 31
0.0
  0
LINE
  8
0
 62
     0
 10
188.546
 20
31.9402
 30
0.0
 11
174.545
 21
31.9402
 31
0.0
  0
LINE
  8
0
 62
     0
 10
174.545
 20
31.9402
 30
0.0
 11
174.545
 21
45.9412
 31
0.0
  0
LINE
  8
0
 62
     0
 10
155.495
 20
45.9412
 30
0.0
 11
169.496
 21
45.9412
 31
0.0
  0
LINE
  8
0
 62
     0
 10
169.496
 20
45.9412
 30
0.0
 11
169.496
 21
31.9402
 31
0.0
  0
LINE
  8
0
 62
     0
 10
169.496
 20
31.9402
 30
0.0
 11
155.495
 21
31.9402
 31
0.0
  0
LINE
  8
0
 62
     0
 10
155.495
 20
31.9402
 30
0.0
 11
155.495
 21
45.9412
 31
0.0
  0
LINE
  8
0
 62
     0
 10
136.445
 20
45.9412
 30
0.0
 11
150.446
 21
45.9412
 31
0.0
  0
LINE
  8
0
 62
     0
 10
150.446
 20
45.9412
 30
0.0
 11
150.446
 21
31.9402
 31
0.0
  0
LINE
  8
0
 62
     0
 10
150.446
 20
31.9402
 30
0.0
 11
136.445
 21
31.9402
 31
0.0
  0
LINE
  8
0
 62
     0
 10
136.445
 20
31.9402
 30
0.0
 11
136.445
 21
45.9412
 31
0.0
  0
LINE
  8
0
 62
     0
 10
117.395
 20
45.9412
 30
0.0
 11
131.396
 21
45.9412
 31
0.0
  0
LINE
  8
0
 62
     0
 10
131.396
 20
45.9412
 30
0.0
 11
131.396
 21
31.9402
 31
0.0
  0
LINE
  8
0
 62
     0
 10
131.396
 20
31.9402
 30
0.0
 11
117.395
 21
31.9402
 31
0.0
  0
LINE
  8
0
 62
     0
 10
117.395
 20
31.9402
 30
0.0
 11
117.395
 21
45.9412
 31
0.0
  0
LINE
  8
0
 62
     0
 10
50.7199
 20
45.9412
 30
0.0
 11
64.721
 21
45.9412
 31
0.0
  0
LINE
  8
0
 62
     0
 10
64.721
 20
45.9412
 30
0.0
 11
64.721
 21
31.9402
 31
0.0
  0
LINE
  8
0
 62
     0
 10
64.721
 20
31.9402
 30
0.0
 11
50.7199
 21
31.9402
 31
0.0
  0
LINE
  8
0
 62
     0
 10
50.7199
 20
31.9402
 30
0.0
 11
50.7199
 21
45.9412
 31
0.0
  0
LINE
  8
0
 62
     0
 10
31.6701
 20
45.9412
 30
0.0
 11
45.671
 21
45.9412
 31
0.0
  0
LINE
  8
0
 62
     0
 10
45.671
 20
45.9412
 30
0.0
 11
45.671
 21
31.9402
 31
0.0
  0
LINE
  8
0
 62
     0
 10
45.671
 20
31.9402
 30
0.0
 11
31.6701
 21
31.9402
 31
0.0
  0
LINE
  8
0
 62
     0
 10
31.6701
 20
31.9402
 30
0.0
 11
31.6701
 21
45.9412
 31
0.0
  0
LINE
  8
0
 62
     0
 10
12.6201
 20
45.9412
 30
0.0
 11
26.6209
 21
45.9412
 31
0.0
  0
LINE
  8
0
 62
     0
 10
26.6209
 20
45.9412
 30
0.0
 11
26.6209
 21
31.9402
 31
0.0
  0
LINE
  8
0
 62
     0
 10
26.6209
 20
31.9402
 30
0.0
 11
12.6201
 21
31.9402
 31
0.0
  0
LINE
  8
0
 62
     0
 10
12.6201
 20
31.9402
 30
0.0
 11
12.6201
 21
45.9412
 31
0.0
  0
LINE
  8
0
 62
     0
 10
184.07
 20
64.9912
 30
0.0
 11
198.071
 21
64.9912
 31
0.0
  0
LINE
  8
0
 62
     0
 10
198.071
 20
64.9912
 30
0.0
 11
198.071
 21
50.9901
 31
0.0
  0
LINE
  8
0
 62
     0
 10
198.071
 20
50.9901
 30
0.0
 11
184.07
 21
50.9901
 31
0.0
  0
LINE
  8
0
 62
     0
 10
184.07
 20
50.9901
 30
0.0
 11
184.07
 21
64.9912
 31
0.0
  0
LINE
  8
0
 62
     0
 10
165.02
 20
64.9912
 30
0.0
 11
179.021
 21
64.9912
 31
0.0
  0
LINE
  8
0
 62
     0
 10
179.021
 20
64.9912
 30
0.0
 11
179.021
 21
50.9901
 31
0.0
  0
LINE
  8
0
 62
     0
 10
179.021
 20
50.9901
 30
0.0
 11
165.02
 21
50.9901
 31
0.0
  0
LINE
  8
0
 62
     0
 10
165.02
 20
50.9901
 30
0.0
 11
165.02
 21
64.9912
 31
0.0
  0
LINE
  8
0
 62
     0
 10
145.97
 20
64.9912
 30
0.0
 11
159.971
 21
64.9912
 31
0.0
  0
LINE
  8
0
 62
     0
 10
159.971
 20
64.9912
 30
0.0
 11
159.971
 21
50.9901
 31
0.0
  0
LINE
  8
0
 62
     0
 10
159.971
 20
50.9901
 30
0.0
 11
145.97
 21
50.9901
 31
0.0
  0
LINE
  8
0
 62
     0
 10
145.97
 20
50.9901
 30
0.0
 11
145.97
 21
64.9912
 31
0.0
  0
LINE
  8
0
 62
     0
 10
126.92
 20
64.9912
 30
0.0
 11
140.921
 21
64.9912
 31
0.0
  0
LINE
  8
0
 62
     0
 10
140.921
 20
64.9912
 30
0.0
 11
140.921
 21
50.9901
 31
0.0
  0
LINE
  8
0
 62
     0
 10
140.921
 20
50.9901
 30
0.0
 11
126.92
 21
50.9901
 31
0.0
  0
LINE
  8
0
 62
     0
 10
126.92
 20
50.9901
 30
0.0
 11
126.92
 21
64.9912
 31
0.0
  0
LINE
  8
0
 62
     0
 10
107.87
 20
64.9912
 30
0.0
 11
121.871
 21
64.9912
 31
0.0
  0
LINE
  8
0
 62
     0
 10
121.871
 20
64.9912
 30
0.0
 11
121.871
 21
50.9901
 31
0.0
  0
LINE
  8
0
 62
     0
 10
121.871
 20
50.9901
 30
0.0
 11
107.87
 21
50.9901
 31
0.0
  0
LINE
  8
0
 62
     0
 10
107.87
 20
50.9901
 30
0.0
 11
107.87
 21
64.9912
 31
0.0
  0
LINE
  8
0
 62
     0
 10
81.6762
 20
64.9912
 30
0.0
 11
95.6758
 21
64.9912
 31
0.0
  0
LINE
  8
0
 62
     0
 10
95.6758
 20
64.9912
 30
0.0
 11
95.6758
 21
50.9901
 31
0.0
  0
LINE
  8
0
 62
     0
 10
95.6758
 20
50.9901
 30
0.0
 11
81.6762
 21
50.9901
 31
0.0
  0
LINE
  8
0
 62
     0
 10
81.6762
 20
50.9901
 30
0.0
 11
81.6762
 21
64.9912
 31
0.0
  0
LINE
  8
0
 62
     0
 10
50.7199
 20
64.9912
 30
0.0
 11
64.721
 21
64.9912
 31
0.0
  0
LINE
  8
0
 62
     0
 10
64.721
 20
64.9912
 30
0.0
 11
64.721
 21
50.9901
 31
0.0
  0
LINE
  8
0
 62
     0
 10
64.721
 20
50.9901
 30
0.0
 11
50.7199
 21
50.9901
 31
0.0
  0
LINE
  8
0
 62
     0
 10
50.7199
 20
50.9901
 30
0.0
 11
50.7199
 21
64.9912
 31
0.0
  0
LINE
  8
0
 62
     0
 10
31.6701
 20
64.9912
 30
0.0
 11
45.671
 21
64.9912
 31
0.0
  0
LINE
  8
0
 62
     0
 10
45.671
 20
64.9912
 30
0.0
 11
45.671
 21
50.9901
 31
0.0
  0
LINE
  8
0
 62
     0
 10
45.671
 20
50.9901
 30
0.0
 11
31.6701
 21
50.9901
 31
0.0
  0
LINE
  8
0
 62
     0
 10
31.6701
 20
50.9901
 30
0.0
 11
31.6701
 21
64.9912
 31
0.0
  0
LINE
  8
0
 62
     0
 10
12.6201
 20
64.9912
 30
0.0
 11
26.6209
 21
64.9912
 31
0.0
  0
LINE
  8
0
 62
     0
 10
26.6209
 20
64.9912
 30
0.0
 11
26.6209
 21
50.9901
 31
0.0
  0
LINE
  8
0
 62
     0
 10
26.6209
 20
50.9901
 30
0.0
 11
12.6201
 21
50.9901
 31
0.0
  0
LINE
  8
0
 62
     0
 10
12.6201
 20
50.9901
 30
0.0
 11
12.6201
 21
64.9912
 31
0.0
  0
LINE
  8
0
 62
     0
 10
179.307
 20
84.0412
 30
0.0
 11
193.307
 21
84.0412
 31
0.0
  0
LINE
  8
0
 62
     0
 10
193.307
 20
84.0412
 30
0.0
 11
193.307
 21
70.0401
 31
0.0
  0
LINE
  8
0
 62
     0
 10
193.307
 20
70.0401
 30
0.0
 11
179.307
 21
70.0401
 31
0.0
  0
LINE
  8
0
 62
     0
 10
179.307
 20
70.0401
 30
0.0
 11
179.307
 21
84.0412
 31
0.0
  0
LINE
  8
0
 62
     0
 10
160.257
 20
84.0412
 30
0.0
 11
174.257
 21
84.0412
 31
0.0
  0
LINE
  8
0
 62
     0
 10
174.257
 20
84.0412
 30
0.0
 11
174.257
 21
70.0401
 31
0.0
  0
LINE
  8
0
 62
     0
 10
174.257
 20
70.0401
 30
0.0
 11
160.257
 21
70.0401
 31
0.0
  0
LINE
  8
0
 62
     0
 10
160.257
 20
70.0401
 30
0.0
 11
160.257
 21
84.0412
 31
0.0
  0
LINE
  8
0
 62
     0
 10
141.207
 20
84.0412
 30
0.0
 11
155.207
 21
84.0412
 31
0.0
  0
LINE
  8
0
 62
     0
 10
155.207
 20
84.0412
 30
0.0
 11
155.207
 21
70.0401
 31
0.0
  0
LINE
  8
0
 62
     0
 10
155.207
 20
70.0401
 30
0.0
 11
141.207
 21
70.0401
 31
0.0
  0
LINE
  8
0
 62
     0
 10
141.207
 20
70.0401
 30
0.0
 11
141.207
 21
84.0412
 31
0.0
  0
LINE
  8
0
 62
     0
 10
122.157
 20
84.0412
 30
0.0
 11
136.157
 21
84.0412
 31
0.0
  0
LINE
  8
0
 62
     0
 10
136.157
 20
84.0412
 30
0.0
 11
136.157
 21
70.0401
 31
0.0
  0
LINE
  8
0
 62
     0
 10
136.157
 20
70.0401
 30
0.0
 11
122.157
 21
70.0401
 31
0.0
  0
LINE
  8
0
 62
     0
 10
122.157
 20
70.0401
 30
0.0
 11
122.157
 21
84.0412
 31
0.0
  0
LINE
  8
0
 62
     0
 10
103.107
 20
84.0412
 30
0.0
 11
117.107
 21
84.0412
 31
0.0
  0
LINE
  8
0
 62
     0
 10
117.107
 20
84.0412
 30
0.0
 11
117.107
 21
70.0401
 31
0.0
  0
LINE
  8
0
 62
     0
 10
117.107
 20
70.0401
 30
0.0
 11
103.107
 21
70.0401
 31
0.0
  0
LINE
  8
0
 62
     0
 10
103.107
 20
70.0401
 30
0.0
 11
103.107
 21
84.0412
 31
0.0
  0
LINE
  8
0
 62
     0
 10
79.2949
 20
84.0412
 30
0.0
 11
93.296
 21
84.0412
 31
0.0
  0
LINE
  8
0
 62
     0
 10
93.296
 20
84.0412
 30
0.0
 11
93.296
 21
70.0401
 31
0.0
  0
LINE
  8
0
 62
     0
 10
93.296
 20
70.0401
 30
0.0
 11
79.2949
 21
70.0401
 31
0.0
  0
LINE
  8
0
 62
     0
 10
79.2949
 20
70.0401
 30
0.0
 11
79.2949
 21
84.0412
 31
0.0
  0
LINE
  8
0
 62
     0
 10
50.7199
 20
84.0412
 30
0.0
 11
64.721
 21
84.0412
 31
0.0
  0
LINE
  8
0
 62
     0
 10
64.721
 20
84.0412
 30
0.0
 11
64.721
 21
70.0401
 31
0.0
  0
LINE
  8
0
 62
     0
 10
64.721
 20
70.0401
 30
0.0
 11
50.7199
 21
70.0401
 31
0.0
  0
LINE
  8
0
 62
     0
 10
50.7199
 20
70.0401
 30
0.0
 11
50.7199
 21
84.0412
 31
0.0
  0
LINE
  8
0
 62
     0
 10
31.6701
 20
84.0412
 30
0.0
 11
45.671
 21
84.0412
 31
0.0
  0
LINE
  8
0
 62
     0
 10
45.671
 20
84.0412
 30
0.0
 11
45.671
 21
70.0401
 31
0.0
  0
LINE
  8
0
 62
     0
 10
45.671
 20
70.0401
 30
0.0
 11
31.6701
 21
70.0401
 31
0.0
  0
LINE
  8
0
 62
     0
 10
31.6701
 20
70.0401
 30
0.0
 11
31.6701
 21
84.0412
 31
0.0
  0
LINE
  8
0
 62
     0
 10
12.6201
 20
84.0412
 30
0.0
 11
26.6209
 21
84.0412
 31
0.0
  0
LINE
  8
0
 62
     0
 10
26.6209
 20
84.0412
 30
0.0
 11
26.6209
 21
70.0401
 31
0.0
  0
LINE
  8
0
 62
     0
 10
26.6209
 20
70.0401
 30
0.0
 11
12.6201
 21
70.0401
 31
0.0
  0
LINE
  8
0
 62
     0
 10
12.6201
 20
70.0401
 30
0.0
 11
12.6201
 21
84.0412
 31
0.0
  0
LINE
  8
0
 62
     0
 10
188.832
 20
103.091
 30
0.0
 11
202.832
 21
103.091
 31
0.0
  0
LINE
  8
0
 62
     0
 10
202.832
 20
103.091
 30
0.0
 11
202.832
 21
89.0901
 31
0.0
  0
LINE
  8
0
 62
     0
 10
202.832
 20
89.0901
 30
0.0
 11
188.832
 21
89.0901
 31
0.0
  0
LINE
  8
0
 62
     0
 10
188.832
 20
89.0901
 30
0.0
 11
188.832
 21
103.091
 31
0.0
  0
LINE
  8
0
 62
     0
 10
169.782
 20
103.091
 30
0.0
 11
183.782
 21
103.091
 31
0.0
  0
LINE
  8
0
 62
     0
 10
183.782
 20
103.091
 30
0.0
 11
183.782
 21
89.0901
 31
0.0
  0
LINE
  8
0
 62
     0
 10
183.782
 20
89.0901
 30
0.0
 11
169.782
 21
89.0901
 31
0.0
  0
LINE
  8
0
 62
     0
 10
169.782
 20
89.0901
 30
0.0
 11
169.782
 21
103.091
 31
0.0
  0
LINE
  8
0
 62
     0
 10
150.732
 20
103.091
 30
0.0
 11
164.732
 21
103.091
 31
0.0
  0
LINE
  8
0
 62
     0
 10
164.732
 20
103.091
 30
0.0
 11
164.732
 21
89.0901
 31
0.0
  0
LINE
  8
0
 62
     0
 10
164.732
 20
89.0901
 30
0.0
 11
150.732
 21
89.0901
 31
0.0
  0
LINE
  8
0
 62
     0
 10
150.732
 20
89.0901
 30
0.0
 11
150.732
 21
103.091
 31
0.0
  0
LINE
  8
0
 62
     0
 10
131.682
 20
103.091
 30
0.0
 11
145.682
 21
103.091
 31
0.0
  0
LINE
  8
0
 62
     0
 10
145.682
 20
103.091
 30
0.0
 11
145.682
 21
89.0901
 31
0.0
  0
LINE
  8
0
 62
     0
 10
145.682
 20
89.0901
 30
0.0
 11
131.682
 21
89.0901
 31
0.0
  0
LINE
  8
0
 62
     0
 10
131.682
 20
89.0901
 30
0.0
 11
131.682
 21
103.091
 31
0.0
  0
LINE
  8
0
 62
     0
 10
112.632
 20
103.091
 30
0.0
 11
126.632
 21
103.091
 31
0.0
  0
LINE
  8
0
 62
     0
 10
126.632
 20
103.091
 30
0.0
 11
126.632
 21
89.0901
 31
0.0
  0
LINE
  8
0
 62
     0
 10
126.632
 20
89.0901
 30
0.0
 11
112.632
 21
89.0901
 31
0.0
  0
LINE
  8
0
 62
     0
 10
112.632
 20
89.0901
 30
0.0
 11
112.632
 21
103.091
 31
0.0
  0
LINE
  8
0
 62
     0
 10
93.5824
 20
103.091
 30
0.0
 11
107.582
 21
103.091
 31
0.0
  0
LINE
  8
0
 62
     0
 10
107.582
 20
103.091
 30
0.0
 11
107.582
 21
89.0901
 31
0.0
  0
LINE
  8
0
 62
     0
 10
107.582
 20
89.0901
 30
0.0
 11
93.5824
 21
89.0901
 31
0.0
  0
LINE
  8
0
 62
     0
 10
93.5824
 20
89.0901
 30
0.0
 11
93.5824
 21
103.091
 31
0.0
  0
LINE
  8
0
 62
     0
 10
74.5324
 20
103.091
 30
0.0
 11
88.5321
 21
103.091
 31
0.0
  0
LINE
  8
0
 62
     0
 10
88.5321
 20
103.091
 30
0.0
 11
88.5321
 21
89.0901
 31
0.0
  0
LINE
  8
0
 62
     0
 10
88.5321
 20
89.0901
 30
0.0
 11
74.5324
 21
89.0901
 31
0.0
  0
LINE
  8
0
 62
     0
 10
74.5324
 20
89.0901
 30
0.0
 11
74.5324
 21
103.091
 31
0.0
  0
LINE
  8
0
 62
     0
 10
50.7199
 20
103.091
 30
0.0
 11
64.721
 21
103.091
 31
0.0
  0
LINE
  8
0
 62
     0
 10
64.721
 20
103.091
 30
0.0
 11
64.721
 21
89.0901
 31
0.0
  0
LINE
  8
0
 62
     0
 10
64.721
 20
89.0901
 30
0.0
 11
50.7199
 21
89.0901
 31
0.0
  0
LINE
  8
0
 62
     0
 10
50.7199
 20
89.0901
 30
0.0
 11
50.7199
 21
103.091
 31
0.0
  0
LINE
  8
0
 62
     0
 10
31.6701
 20
103.091
 30
0.0
 11
45.671
 21
103.091
 31
0.0
  0
LINE
  8
0
 62
     0
 10
45.671
 20
103.091
 30
0.0
 11
45.671
 21
89.0901
 31
0.0
  0
LINE
  8
0
 62
     0
 10
45.671
 20
89.0901
 30
0.0
 11
31.6701
 21
89.0901
 31
0.0
  0
LINE
  8
0
 62
     0
 10
31.6701
 20
89.0901
 30
0.0
 11
31.6701
 21
103.091
 31
0.0
  0
LINE
  8
0
 62
     0
 10
12.6201
 20
103.091
 30
0.0
 11
26.6209
 21
103.091
 31
0.0
  0
LINE
  8
0
 62
     0
 10
26.6209
 20
103.091
 30
0.0
 11
26.6209
 21
89.0901
 31
0.0
  0
LINE
  8
0
 62
     0
 10
26.6209
 20
89.0901
 30
0.0
 11
12.6201
 21
89.0901
 31
0.0
  0
LINE
  8
0
 62
     0
 10
12.6201
 20
89.0901
 30
0.0
 11
12.6201
 21
103.091
 31
0.0
  0
LINE
  8
0
 62
     0
 10
74.5324
 20
126.904
 30
0.0
 11
88.5321
 21
126.904
 31
0.0
  0
LINE
  8
0
 62
     0
 10
88.5321
 20
126.904
 30
0.0
 11
88.5321
 21
112.904
 31
0.0
  0
LINE
  8
0
 62
     0
 10
88.5321
 20
112.904
 30
0.0
 11
74.5324
 21
112.904
 31
0.0
  0
LINE
  8
0
 62
     0
 10
74.5324
 20
112.904
 30
0.0
 11
74.5324
 21
126.904
 31
0.0
  0
LINE
  8
0
 62
     0
 10
3.6008
 20
141.712
 30
0.0
 11
3.15295
 21
141.486
 31
0.0
  0
LINE
  8
0
 62
     0
 10
3.15295
 20
141.486
 30
0.0
 11
2.80017
 21
141.133
 31
0.0
  0
LINE
  8
0
 62
     0
 10
2.80017
 20
141.133
 30
0.0
 11
2.57418
 21
140.685
 31
0.0
  0
LINE
  8
0
 62
     0
 10
2.57418
 20
140.685
 30
0.0
 11
2.49425
 21
140.191
 31
0.0
  0
LINE
  8
0
 62
     0
 10
2.49425
 20
140.191
 30
0.0
 11
2.57418
 21
139.697
 31
0.0
  0
LINE
  8
0
 62
     0
 10
2.57418
 20
139.697
 30
0.0
 11
2.80017
 21
139.251
 31
0.0
  0
LINE
  8
0
 62
     0
 10
2.80017
 20
139.251
 30
0.0
 11
3.15295
 21
138.897
 31
0.0
  0
LINE
  8
0
 62
     0
 10
3.15295
 20
138.897
 30
0.0
 11
3.6008
 21
138.669
 31
0.0
  0
LINE
  8
0
 62
     0
 10
3.6008
 20
138.669
 30
0.0
 11
4.09554
 21
138.591
 31
0.0
  0
LINE
  8
0
 62
     0
 10
4.09554
 20
138.591
 30
0.0
 11
4.58886
 21
138.669
 31
0.0
  0
LINE
  8
0
 62
     0
 10
4.58886
 20
138.669
 30
0.0
 11
5.03534
 21
138.897
 31
0.0
  0
LINE
  8
0
 62
     0
 10
5.03534
 20
138.897
 30
0.0
 11
5.38949
 21
139.251
 31
0.0
  0
LINE
  8
0
 62
     0
 10
5.38949
 20
139.251
 30
0.0
 11
5.61689
 21
139.697
 31
0.0
  0
LINE
  8
0
 62
     0
 10
5.61689
 20
139.697
 30
0.0
 11
5.69542
 21
140.191
 31
0.0
  0
LINE
  8
0
 62
     0
 10
5.69542
 20
140.191
 30
0.0
 11
5.61689
 21
140.685
 31
0.0
  0
LINE
  8
0
 62
     0
 10
5.61689
 20
140.685
 30
0.0
 11
5.38949
 21
141.133
 31
0.0
  0
LINE
  8
0
 62
     0
 10
5.38949
 20
141.133
 30
0.0
 11
5.03534
 21
141.486
 31
0.0
  0
LINE
  8
0
 62
     0
 10
5.03534
 20
141.486
 30
0.0
 11
4.58886
 21
141.712
 31
0.0
  0
LINE
  8
0
 62
     0
 10
4.58886
 20
141.712
 30
0.0
 11
4.09554
 21
141.791
 31
0.0
  0
LINE
  8
0
 62
     0
 10
4.09554
 20
141.791
 30
0.0
 11
3.6008
 21
141.712
 31
0.0
  0
LINE
  8
0
 62
     0
 10
215.627
 20
141.712
 30
0.0
 11
215.181
 21
141.486
 31
0.0
  0
LINE
  8
0
 62
     0
 10
215.181
 20
141.486
 30
0.0
 11
214.826
 21
141.133
 31
0.0
  0
LINE
  8
0
 62
     0
 10
214.826
 20
141.133
 30
0.0
 11
214.599
 21
140.685
 31
0.0
  0
LINE
  8
0
 62
     0
 10
214.599
 20
140.685
 30
0.0
 11
214.522
 21
140.191
 31
0.0
  0
LINE
  8
0
 62
     0
 10
214.522
 20
140.191
 30
0.0
 11
214.599
 21
139.697
 31
0.0
  0
LINE
  8
0
 62
     0
 10
214.599
 20
139.697
 30
0.0
 11
214.826
 21
139.251
 31
0.0
  0
LINE
  8
0
 62
     0
 10
214.826
 20
139.251
 30
0.0
 11
215.181
 21
138.897
 31
0.0
  0
LINE
  8
0
 62
     0
 10
215.181
 20
138.897
 30
0.0
 11
215.627
 21
138.669
 31
0.0
  0
LINE
  8
0
 62
     0
 10
215.627
 20
138.669
 30
0.0
 11
216.122
 21
138.591
 31
0.0
  0
LINE
  8
0
 62
     0
 10
216.122
 20
138.591
 30
0.0
 11
216.615
 21
138.669
 31
0.0
  0
LINE
  8
0
 62
     0
 10
216.615
 20
138.669
 30
0.0
 11
217.062
 21
138.897
 31
0.0
  0
LINE
  8
0
 62
     0
 10
217.062
 20
138.897
 30
0.0
 11
217.416
 21
139.251
 31
0.0
  0
LINE
  8
0
 62
     0
 10
217.416
 20
139.251
 30
0.0
 11
217.642
 21
139.697
 31
0.0
  0
LINE
  8
0
 62
     0
 10
217.642
 20
139.697
 30
0.0
 11
217.722
 21
140.191
 31
0.0
  0
LINE
  8
0
 62
     0
 10
217.722
 20
140.191
 30
0.0
 11
217.642
 21
140.685
 31
0.0
  0
LINE
  8
0
 62
     0
 10
217.642
 20
140.685
 30
0.0
 11
217.416
 21
141.133
 31
0.0
  0
LINE
  8
0
 62
     0
 10
217.416
 20
141.133
 30
0.0
 11
217.062
 21
141.486
 31
0.0
  0
LINE
  8
0
 62
     0
 10
217.062
 20
141.486
 30
0.0
 11
216.615
 21
141.712
 31
0.0
  0
LINE
  8
0
 62
     0
 10
216.615
 20
141.712
 30
0.0
 11
216.122
 21
141.791
 31
0.0
  0
LINE
  8
0
 62
     0
 10
216.122
 20
141.791
 30
0.0
 11
215.627
 21
141.712
 31
0.0
  0
ENDSEC
  0
EOF
